<?xml version="1.0" encoding="UTF-8" standalone="no"?><svg xmlns="http://www.w3.org/2000/svg" xmlns:xlink="http://www.w3.org/1999/xlink" contentScriptType="application/ecmascript" contentStyleType="text/css" height="265px" preserveAspectRatio="none" style="width:534px;height:265px;" version="1.1" viewBox="0 0 534 265" width="534px" zoomAndPan="magnify"><defs><filter height="300%" id="f1q90tv85vo8cz" width="300%" x="-1" y="-1"><feGaussianBlur result="blurOut" stdDeviation="2.0"/><feColorMatrix in="blurOut" result="blurOut2" type="matrix" values="0 0 0 0 0 0 0 0 0 0 0 0 0 0 0 0 0 0 .4 0"/><feOffset dx="4.0" dy="4.0" in="blurOut2" result="blurOut3"/><feBlend in="SourceGraphic" in2="blurOut3" mode="normal"/></filter></defs><g><ellipse cx="271.5" cy="20" fill="#000000" filter="url(#f1q90tv85vo8cz)" rx="10" ry="10" style="stroke: none; stroke-width: 1.0;"/><polygon fill="#FEFECE" filter="url(#f1q90tv85vo8cz)" points="32,50,94,50,106,62,94,74,32,74,20,62,32,50" style="stroke: #A80036; stroke-width: 1.5;"/><text fill="#000000" font-family="sans-serif" font-size="11" lengthAdjust="spacingAndGlyphs" textLength="20" x="67" y="84.2104">yes</text><text fill="#000000" font-family="sans-serif" font-size="11" lengthAdjust="spacingAndGlyphs" textLength="62" x="32" y="65.8081">condition A</text><rect fill="#FEFECE" filter="url(#f1q90tv85vo8cz)" height="33.9688" rx="12.5" ry="12.5" style="stroke: #A80036; stroke-width: 1.5;" width="58" x="34" y="105.7104"/><text fill="#000000" font-family="sans-serif" font-size="12" lengthAdjust="spacingAndGlyphs" textLength="38" x="44" y="126.8491">Text 1</text><polygon fill="#FEFECE" filter="url(#f1q90tv85vo8cz)" points="138,50,201,50,213,62,201,74,138,74,126,62,138,50" style="stroke: #A80036; stroke-width: 1.5;"/><text fill="#000000" font-family="sans-serif" font-size="11" lengthAdjust="spacingAndGlyphs" textLength="20" x="173.5" y="84.2104">yes</text><text fill="#000000" font-family="sans-serif" font-size="11" lengthAdjust="spacingAndGlyphs" textLength="63" x="138" y="65.8081">condition B</text><rect fill="#FEFECE" filter="url(#f1q90tv85vo8cz)" height="33.9688" rx="12.5" ry="12.5" style="stroke: #A80036; stroke-width: 1.5;" width="58" x="140.5" y="105.7104"/><text fill="#000000" font-family="sans-serif" font-size="12" lengthAdjust="spacingAndGlyphs" textLength="38" x="150.5" y="126.8491">Text 2</text><ellipse cx="169.5" cy="184.6792" fill="none" filter="url(#f1q90tv85vo8cz)" rx="10" ry="10" style="stroke: #000000; stroke-width: 1.0;"/><ellipse cx="170" cy="185.1792" fill="#000000" filter="url(#f1q90tv85vo8cz)" rx="6" ry="6" style="stroke: none; stroke-width: 1.0;"/><polygon fill="#FEFECE" filter="url(#f1q90tv85vo8cz)" points="245,50,308,50,320,62,308,74,245,74,233,62,245,50" style="stroke: #A80036; stroke-width: 1.5;"/><text fill="#000000" font-family="sans-serif" font-size="11" lengthAdjust="spacingAndGlyphs" textLength="20" x="280.5" y="84.2104">yes</text><text fill="#000000" font-family="sans-serif" font-size="11" lengthAdjust="spacingAndGlyphs" textLength="63" x="245" y="65.8081">condition C</text><rect fill="#FEFECE" filter="url(#f1q90tv85vo8cz)" height="33.9688" rx="12.5" ry="12.5" style="stroke: #A80036; stroke-width: 1.5;" width="58" x="247.5" y="105.7104"/><text fill="#000000" font-family="sans-serif" font-size="12" lengthAdjust="spacingAndGlyphs" textLength="38" x="257.5" y="126.8491">Text 3</text><polygon fill="#FEFECE" filter="url(#f1q90tv85vo8cz)" points="352,50,415,50,427,62,415,74,352,74,340,62,352,50" style="stroke: #A80036; stroke-width: 1.5;"/><text fill="#000000" font-family="sans-serif" font-size="11" lengthAdjust="spacingAndGlyphs" textLength="20" x="387.5" y="84.2104">yes</text><text fill="#000000" font-family="sans-serif" font-size="11" lengthAdjust="spacingAndGlyphs" textLength="63" x="352" y="65.8081">condition D</text><text fill="#000000" font-family="sans-serif" font-size="11" lengthAdjust="spacingAndGlyphs" textLength="42" x="427" y="59.4058">nothing</text><rect fill="#FEFECE" filter="url(#f1q90tv85vo8cz)" height="33.9688" rx="12.5" ry="12.5" style="stroke: #A80036; stroke-width: 1.5;" width="58" x="354.5" y="105.7104"/><text fill="#000000" font-family="sans-serif" font-size="12" lengthAdjust="spacingAndGlyphs" textLength="38" x="364.5" y="126.8491">Text 4</text><rect fill="#FEFECE" filter="url(#f1q90tv85vo8cz)" height="33.9688" rx="12.5" ry="12.5" style="stroke: #A80036; stroke-width: 1.5;" width="76" x="447" y="129.8081"/><text fill="#000000" font-family="sans-serif" font-size="12" lengthAdjust="spacingAndGlyphs" textLength="56" x="457" y="150.9468">Text else</text><ellipse cx="271.5" cy="244.6792" fill="none" filter="url(#f1q90tv85vo8cz)" rx="10" ry="10" style="stroke: #000000; stroke-width: 1.0;"/><ellipse cx="272" cy="245.1792" fill="#000000" filter="url(#f1q90tv85vo8cz)" rx="6" ry="6" style="stroke: none; stroke-width: 1.0;"/><line style="stroke: #A80036; stroke-width: 1.5;" x1="169.5" x2="169.5" y1="139.6792" y2="174.6792"/><polygon fill="#A80036" points="165.5,164.6792,169.5,174.6792,173.5,164.6792,169.5,168.6792" style="stroke: #A80036; stroke-width: 1.0;"/><line style="stroke: #A80036; stroke-width: 1.5;" x1="63" x2="63" y1="74" y2="105.7104"/><polygon fill="#A80036" points="59,95.7104,63,105.7104,67,95.7104,63,99.7104" style="stroke: #A80036; stroke-width: 1.0;"/><line style="stroke: #A80036; stroke-width: 1.5;" x1="63" x2="63" y1="139.6792" y2="214.6792"/><polygon fill="#A80036" points="59,204.6792,63,214.6792,67,204.6792,63,208.6792" style="stroke: #A80036; stroke-width: 1.0;"/><line style="stroke: #A80036; stroke-width: 1.5;" x1="169.5" x2="169.5" y1="74" y2="105.7104"/><polygon fill="#A80036" points="165.5,95.7104,169.5,105.7104,173.5,95.7104,169.5,99.7104" style="stroke: #A80036; stroke-width: 1.0;"/><line style="stroke: #A80036; stroke-width: 1.5;" x1="276.5" x2="276.5" y1="74" y2="105.7104"/><polygon fill="#A80036" points="272.5,95.7104,276.5,105.7104,280.5,95.7104,276.5,99.7104" style="stroke: #A80036; stroke-width: 1.0;"/><line style="stroke: #A80036; stroke-width: 1.5;" x1="276.5" x2="276.5" y1="139.6792" y2="214.6792"/><polygon fill="#A80036" points="272.5,204.6792,276.5,214.6792,280.5,204.6792,276.5,208.6792" style="stroke: #A80036; stroke-width: 1.0;"/><line style="stroke: #A80036; stroke-width: 1.5;" x1="383.5" x2="383.5" y1="74" y2="105.7104"/><polygon fill="#A80036" points="379.5,95.7104,383.5,105.7104,387.5,95.7104,383.5,99.7104" style="stroke: #A80036; stroke-width: 1.0;"/><line style="stroke: #A80036; stroke-width: 1.5;" x1="383.5" x2="383.5" y1="139.6792" y2="214.6792"/><polygon fill="#A80036" points="379.5,204.6792,383.5,214.6792,387.5,204.6792,383.5,208.6792" style="stroke: #A80036; stroke-width: 1.0;"/><line style="stroke: #A80036; stroke-width: 1.5;" x1="106" x2="126" y1="62" y2="62"/><polygon fill="#A80036" points="116,58,126,62,116,66,120,62" style="stroke: #A80036; stroke-width: 1.0;"/><line style="stroke: #A80036; stroke-width: 1.5;" x1="213" x2="233" y1="62" y2="62"/><polygon fill="#A80036" points="223,58,233,62,223,66,227,62" style="stroke: #A80036; stroke-width: 1.0;"/><line style="stroke: #A80036; stroke-width: 1.5;" x1="320" x2="340" y1="62" y2="62"/><polygon fill="#A80036" points="330,58,340,62,330,66,334,62" style="stroke: #A80036; stroke-width: 1.0;"/><line style="stroke: #A80036; stroke-width: 1.5;" x1="271.5" x2="271.5" y1="30" y2="35"/><line style="stroke: #A80036; stroke-width: 1.5;" x1="271.5" x2="63" y1="35" y2="35"/><line style="stroke: #A80036; stroke-width: 1.5;" x1="63" x2="63" y1="35" y2="50"/><polygon fill="#A80036" points="59,40,63,50,67,40,63,44" style="stroke: #A80036; stroke-width: 1.0;"/><line style="stroke: #A80036; stroke-width: 1.5;" x1="427" x2="485" y1="62" y2="62"/><line style="stroke: #A80036; stroke-width: 1.5;" x1="485" x2="485" y1="62" y2="129.8081"/><polygon fill="#A80036" points="481,119.8081,485,129.8081,489,119.8081,485,123.8081" style="stroke: #A80036; stroke-width: 1.0;"/><line style="stroke: #A80036; stroke-width: 1.5;" x1="485" x2="485" y1="163.7769" y2="214.6792"/><polygon fill="#A80036" points="481,204.6792,485,214.6792,489,204.6792,485,208.6792" style="stroke: #A80036; stroke-width: 1.0;"/><line style="stroke: #A80036; stroke-width: 1.5;" x1="63" x2="485" y1="214.6792" y2="214.6792"/><line style="stroke: #A80036; stroke-width: 1.5;" x1="271.5" x2="271.5" y1="214.6792" y2="234.6792"/><polygon fill="#A80036" points="267.5,224.6792,271.5,234.6792,275.5,224.6792,271.5,228.6792" style="stroke: #A80036; stroke-width: 1.0;"/><!--
@startuml
start
if (condition A) then (yes)
    :Text 1;
elseif (condition B) then (yes)
    :Text 2;
stop
elseif (condition C) then (yes)
    :Text 3;
elseif (condition D) then (yes)
    :Text 4;
else (nothing)
    :Text else;
endif
stop
@enduml

PlantUML version 1.2019.01(Sat Feb 09 16:32:04 CET 2019)
(GPL source distribution)
Java Runtime: OpenJDK Runtime Environment
JVM: OpenJDK 64-Bit Server VM
Java Version: 11.0.1+13-Ubuntu-3ubuntu3.18.10.1
Operating System: Linux
OS Version: 4.18.0-16-generic
Default Encoding: UTF-8
Language: fr
Country: FR
--></g></svg>