<?xml version="1.0" encoding="UTF-8" standalone="no"?><svg xmlns="http://www.w3.org/2000/svg" xmlns:xlink="http://www.w3.org/1999/xlink" contentScriptType="application/ecmascript" contentStyleType="text/css" height="465px" preserveAspectRatio="none" style="width:256px;height:465px;" version="1.1" viewBox="0 0 256 465" width="256px" zoomAndPan="magnify"><defs><filter height="300%" id="f1blvc42av4us4" width="300%" x="-1" y="-1"><feGaussianBlur result="blurOut" stdDeviation="2.0"/><feColorMatrix in="blurOut" result="blurOut2" type="matrix" values="0 0 0 0 0 0 0 0 0 0 0 0 0 0 0 0 0 0 .4 0"/><feOffset dx="4.0" dy="4.0" in="blurOut2" result="blurOut3"/><feBlend in="SourceGraphic" in2="blurOut3" mode="normal"/></filter></defs><g><ellipse cx="69" cy="43.6982" fill="#000000" filter="url(#f1blvc42av4us4)" rx="10" ry="10" style="stroke: none; stroke-width: 1.0;"/><rect fill="#FEFECE" filter="url(#f1blvc42av4us4)" height="33.9688" rx="12.5" ry="12.5" style="stroke: #A80036; stroke-width: 1.5;" width="48" x="45" y="88.6982"/><text fill="#000000" font-family="sans-serif" font-size="12" lengthAdjust="spacingAndGlyphs" textLength="28" x="55" y="109.8369">foo1</text><rect fill="#FEFECE" filter="url(#f1blvc42av4us4)" height="33.9688" rx="12.5" ry="12.5" style="stroke: #A80036; stroke-width: 1.5;" width="48" x="45" y="295.6045"/><text fill="#000000" font-family="sans-serif" font-size="12" lengthAdjust="spacingAndGlyphs" textLength="28" x="55" y="316.7432">foo4</text><rect fill="#FAEBD7" height="440.7969" style="stroke: #FAEBD7; stroke-width: 1.0;" width="117" x="127" y="12.7451"/><rect fill="#FEFECE" filter="url(#f1blvc42av4us4)" height="33.9688" rx="12.5" ry="12.5" style="stroke: #A80036; stroke-width: 1.5;" width="48" x="162" y="157.667"/><text fill="#000000" font-family="sans-serif" font-size="12" lengthAdjust="spacingAndGlyphs" textLength="28" x="172" y="178.8057">foo2</text><rect fill="#FEFECE" filter="url(#f1blvc42av4us4)" height="33.9688" rx="12.5" ry="12.5" style="stroke: #A80036; stroke-width: 1.5;" width="48" x="162" y="226.6357"/><text fill="#000000" font-family="sans-serif" font-size="12" lengthAdjust="spacingAndGlyphs" textLength="28" x="172" y="247.7744">foo3</text><rect fill="#FEFECE" filter="url(#f1blvc42av4us4)" height="33.9688" rx="12.5" ry="12.5" style="stroke: #A80036; stroke-width: 1.5;" width="48" x="162" y="364.5732"/><text fill="#000000" font-family="sans-serif" font-size="12" lengthAdjust="spacingAndGlyphs" textLength="28" x="172" y="385.7119">foo5</text><ellipse cx="186" cy="443.542" fill="none" filter="url(#f1blvc42av4us4)" rx="10" ry="10" style="stroke: #000000; stroke-width: 1.0;"/><ellipse cx="186.5" cy="444.042" fill="#000000" filter="url(#f1blvc42av4us4)" rx="6" ry="6" style="stroke: none; stroke-width: 1.0;"/><line style="stroke: #A80036; stroke-width: 1.5;" x1="69" x2="69" y1="53.6982" y2="88.6982"/><polygon fill="#A80036" points="65,78.6982,69,88.6982,73,78.6982,69,82.6982" style="stroke: #A80036; stroke-width: 1.0;"/><line style="stroke: #A80036; stroke-width: 1.5;" x1="186" x2="186" y1="191.6357" y2="226.6357"/><polygon fill="#A80036" points="182,216.6357,186,226.6357,190,216.6357,186,220.6357" style="stroke: #A80036; stroke-width: 1.0;"/><line style="stroke: #A80036; stroke-width: 1.5;" x1="186" x2="186" y1="398.542" y2="433.542"/><polygon fill="#A80036" points="182,423.542,186,433.542,190,423.542,186,427.542" style="stroke: #A80036; stroke-width: 1.0;"/><line style="stroke: #A80036; stroke-width: 1.5;" x1="69" x2="69" y1="122.667" y2="140.167"/><line style="stroke: #A80036; stroke-width: 1.5;" x1="69" x2="186" y1="140.167" y2="140.167"/><line style="stroke: #A80036; stroke-width: 1.5;" x1="186" x2="186" y1="140.167" y2="157.667"/><polygon fill="#A80036" points="182,147.667,186,157.667,190,147.667,186,151.667" style="stroke: #A80036; stroke-width: 1.0;"/><line style="stroke: #A80036; stroke-width: 1.5;" x1="186" x2="186" y1="260.6045" y2="278.1045"/><line style="stroke: #A80036; stroke-width: 1.5;" x1="186" x2="69" y1="278.1045" y2="278.1045"/><line style="stroke: #A80036; stroke-width: 1.5;" x1="69" x2="69" y1="278.1045" y2="295.6045"/><polygon fill="#A80036" points="65,285.6045,69,295.6045,73,285.6045,69,289.6045" style="stroke: #A80036; stroke-width: 1.0;"/><line style="stroke: #A80036; stroke-width: 1.5;" x1="69" x2="69" y1="329.5732" y2="347.0732"/><line style="stroke: #A80036; stroke-width: 1.5;" x1="69" x2="186" y1="347.0732" y2="347.0732"/><line style="stroke: #A80036; stroke-width: 1.5;" x1="186" x2="186" y1="347.0732" y2="364.5732"/><polygon fill="#A80036" points="182,354.5732,186,364.5732,190,354.5732,186,358.5732" style="stroke: #A80036; stroke-width: 1.0;"/><text fill="#000000" font-family="sans-serif" font-size="18" lengthAdjust="spacingAndGlyphs" textLength="97" x="20" y="29.4531">Swimlane1</text><text fill="#000000" font-family="sans-serif" font-size="18" lengthAdjust="spacingAndGlyphs" textLength="97" x="137" y="29.4531">Swimlane2</text><line style="stroke: #000000; stroke-width: 2.0;" x1="10" x2="10" y1="12.7451" y2="453.542"/><line style="stroke: #000000; stroke-width: 2.0;" x1="127" x2="127" y1="12.7451" y2="453.542"/><line style="stroke: #000000; stroke-width: 2.0;" x1="244" x2="244" y1="12.7451" y2="453.542"/><!--
@startuml
|Swimlane1|
start
:foo1;
|#AntiqueWhite|Swimlane2|
:foo2;
:foo3;
|Swimlane1|
:foo4;
|Swimlane2|
:foo5;
stop
@enduml

PlantUML version 1.2019.01(Sat Feb 09 16:32:04 CET 2019)
(GPL source distribution)
Java Runtime: OpenJDK Runtime Environment
JVM: OpenJDK 64-Bit Server VM
Java Version: 11.0.1+13-Ubuntu-3ubuntu3.18.10.1
Operating System: Linux
OS Version: 4.18.0-16-generic
Default Encoding: UTF-8
Language: fr
Country: FR
--></g></svg>