<?xml version="1.0" encoding="UTF-8" standalone="no"?><svg xmlns="http://www.w3.org/2000/svg" xmlns:xlink="http://www.w3.org/1999/xlink" contentScriptType="application/ecmascript" contentStyleType="text/css" height="487px" preserveAspectRatio="none" style="width:173px;height:487px;" version="1.1" viewBox="0 0 173 487" width="173px" zoomAndPan="magnify"><defs><filter height="300%" id="f1q717d59llv4m" width="300%" x="-1" y="-1"><feGaussianBlur result="blurOut" stdDeviation="2.0"/><feColorMatrix in="blurOut" result="blurOut2" type="matrix" values="0 0 0 0 0 0 0 0 0 0 0 0 0 0 0 0 0 0 .4 0"/><feOffset dx="4.0" dy="4.0" in="blurOut2" result="blurOut3"/><feBlend in="SourceGraphic" in2="blurOut3" mode="normal"/></filter></defs><g><rect fill="#FEFECE" filter="url(#f1q717d59llv4m)" height="33.9688" rx="12.5" ry="12.5" style="stroke: #A80036; stroke-width: 1.5;" width="50" x="61" y="10"/><text fill="#000000" font-family="sans-serif" font-size="12" lengthAdjust="spacingAndGlyphs" textLength="30" x="71" y="31.1387">start</text><rect fill="#000000" filter="url(#f1q717d59llv4m)" height="6" rx="2.5" ry="2.5" style="stroke: #000000; stroke-width: 1.0;" width="152" x="10" y="63.9688"/><rect fill="#FEFECE" filter="url(#f1q717d59llv4m)" height="33.9688" rx="12.5" ry="12.5" style="stroke: #A80036; stroke-width: 1.5;" width="48" x="24" y="89.9688"/><text fill="#000000" font-family="sans-serif" font-size="12" lengthAdjust="spacingAndGlyphs" textLength="28" x="34" y="111.1074">foo1</text><rect fill="#FEFECE" filter="url(#f1q717d59llv4m)" height="33.9688" rx="12.5" ry="12.5" style="stroke: #A80036; stroke-width: 1.5;" width="48" x="24" y="158.9375"/><text fill="#000000" font-family="sans-serif" font-size="12" lengthAdjust="spacingAndGlyphs" textLength="28" x="34" y="180.0762">foo2</text><rect fill="#FEFECE" filter="url(#f1q717d59llv4m)" height="33.9688" rx="12.5" ry="12.5" style="stroke: #A80036; stroke-width: 1.5;" width="48" x="100" y="124.4531"/><text fill="#000000" font-family="sans-serif" font-size="12" lengthAdjust="spacingAndGlyphs" textLength="28" x="110" y="145.5918">foo3</text><rect fill="#000000" filter="url(#f1q717d59llv4m)" height="6" rx="2.5" ry="2.5" style="stroke: #000000; stroke-width: 1.0;" width="152" x="10" y="212.9063"/><rect fill="#FEFECE" filter="url(#f1q717d59llv4m)" height="33.9688" rx="12.5" ry="12.5" style="stroke: #A80036; stroke-width: 1.5;" width="48" x="62" y="282.9063"/><text fill="#000000" font-family="sans-serif" font-size="12" lengthAdjust="spacingAndGlyphs" textLength="28" x="72" y="304.0449">foo5</text><polygon fill="#FEFECE" filter="url(#f1q717d59llv4m)" points="73.5,238.9063,98.5,238.9063,110.5,250.9063,98.5,262.9063,73.5,262.9063,61.5,250.9063,73.5,238.9063" style="stroke: #A80036; stroke-width: 1.5;"/><text fill="#000000" font-family="sans-serif" font-size="11" lengthAdjust="spacingAndGlyphs" textLength="25" x="73.5" y="254.7144">foo4</text><rect fill="#FEFECE" filter="url(#f1q717d59llv4m)" height="33.9688" rx="12.5" ry="12.5" style="stroke: #A80036; stroke-width: 1.5;" width="48" x="62" y="358.875"/><text fill="#000000" font-family="sans-serif" font-size="12" lengthAdjust="spacingAndGlyphs" textLength="28" x="72" y="380.0137">foo6</text><rect fill="#FEFECE" filter="url(#f1q717d59llv4m)" height="33.9688" rx="12.5" ry="12.5" style="stroke: #A80036; stroke-width: 1.5;" width="48" x="62" y="402.8438"/><text fill="#000000" font-family="sans-serif" font-size="12" lengthAdjust="spacingAndGlyphs" textLength="28" x="72" y="423.9824">foo7</text><ellipse cx="86" cy="466.8125" fill="none" filter="url(#f1q717d59llv4m)" rx="10" ry="10" style="stroke: #000000; stroke-width: 1.0;"/><ellipse cx="86.5" cy="467.3125" fill="#000000" filter="url(#f1q717d59llv4m)" rx="6" ry="6" style="stroke: none; stroke-width: 1.0;"/><line style="stroke: #A80036; stroke-width: 1.5;" x1="48" x2="48" y1="123.9375" y2="158.9375"/><polygon fill="#A80036" points="44,148.9375,48,158.9375,52,148.9375,48,152.9375" style="stroke: #A80036; stroke-width: 1.0;"/><line style="stroke: #A80036; stroke-width: 1.5;" x1="48" x2="48" y1="69.9688" y2="89.9688"/><polygon fill="#A80036" points="44,79.9688,48,89.9688,52,79.9688,48,83.9688" style="stroke: #A80036; stroke-width: 1.0;"/><line style="stroke: #A80036; stroke-width: 1.5;" x1="124" x2="124" y1="69.9688" y2="124.4531"/><polygon fill="#A80036" points="120,114.4531,124,124.4531,128,114.4531,124,118.4531" style="stroke: #A80036; stroke-width: 1.0;"/><line style="stroke: #A80036; stroke-width: 1.5;" x1="48" x2="48" y1="192.9063" y2="212.9063"/><polygon fill="#A80036" points="44,202.9063,48,212.9063,52,202.9063,48,206.9063" style="stroke: #A80036; stroke-width: 1.0;"/><line style="stroke: #A80036; stroke-width: 1.5;" x1="86" x2="86" y1="43.9688" y2="63.9688"/><polygon fill="#A80036" points="82,53.9688,86,63.9688,90,53.9688,86,57.9688" style="stroke: #A80036; stroke-width: 1.0;"/><line style="stroke: #A80036; stroke-width: 1.5;" x1="86" x2="86" y1="262.9063" y2="282.9063"/><polygon fill="#A80036" points="82,272.9063,86,282.9063,90,272.9063,86,276.9063" style="stroke: #A80036; stroke-width: 1.0;"/><line style="stroke: #A80036; stroke-width: 1.5;" x1="110.5" x2="122.5" y1="250.9063" y2="250.9063"/><polygon fill="#A80036" points="118.5,286.8906,122.5,296.8906,126.5,286.8906,122.5,290.8906" style="stroke: #A80036; stroke-width: 1.5;"/><line style="stroke: #A80036; stroke-width: 1.5;" x1="122.5" x2="122.5" y1="250.9063" y2="338.875"/><line style="stroke: #A80036; stroke-width: 1.5;" x1="122.5" x2="86" y1="338.875" y2="338.875"/><line style="stroke: #A80036; stroke-width: 1.5;" x1="86" x2="86" y1="338.875" y2="358.875"/><polygon fill="#A80036" points="82,348.875,86,358.875,90,348.875,86,352.875" style="stroke: #A80036; stroke-width: 1.0;"/><line style="stroke: #A80036; stroke-width: 1.5;" x1="86" x2="86" y1="218.9063" y2="238.9063"/><polygon fill="#A80036" points="82,228.9063,86,238.9063,90,228.9063,86,232.9063" style="stroke: #A80036; stroke-width: 1.0;"/><line style="stroke: #A80036; stroke-width: 1.5;" x1="86" x2="86" y1="436.8125" y2="456.8125"/><polygon fill="#A80036" points="82,446.8125,86,456.8125,90,446.8125,86,450.8125" style="stroke: #A80036; stroke-width: 1.0;"/><!--
@startuml
:start;
fork
:foo1;
:foo2;
fork again
:foo3;
detach
endfork
if (foo4) then
:foo5;
detach
endif
:foo6;
detach
:foo7;
stop
@enduml

PlantUML version 1.2019.01(Sat Feb 09 16:32:04 CET 2019)
(GPL source distribution)
Java Runtime: OpenJDK Runtime Environment
JVM: OpenJDK 64-Bit Server VM
Java Version: 11.0.1+13-Ubuntu-3ubuntu3.18.10.1
Operating System: Linux
OS Version: 4.18.0-16-generic
Default Encoding: UTF-8
Language: fr
Country: FR
--></g></svg>