<?xml version="1.0" encoding="UTF-8" standalone="no"?><svg xmlns="http://www.w3.org/2000/svg" xmlns:xlink="http://www.w3.org/1999/xlink" contentScriptType="application/ecmascript" contentStyleType="text/css" height="230px" preserveAspectRatio="none" style="width:222px;height:230px;" version="1.1" viewBox="0 0 222 230" width="222px" zoomAndPan="magnify"><defs><filter height="300%" id="fdrztipyky8rn" width="300%" x="-1" y="-1"><feGaussianBlur result="blurOut" stdDeviation="2.0"/><feColorMatrix in="blurOut" result="blurOut2" type="matrix" values="0 0 0 0 0 0 0 0 0 0 0 0 0 0 0 0 0 0 .4 0"/><feOffset dx="4.0" dy="4.0" in="blurOut2" result="blurOut3"/><feBlend in="SourceGraphic" in2="blurOut3" mode="normal"/></filter></defs><g><ellipse cx="114" cy="20" fill="#000000" filter="url(#fdrztipyky8rn)" rx="10" ry="10" style="stroke: none; stroke-width: 1.0;"/><rect fill="#FEFECE" filter="url(#fdrztipyky8rn)" height="33.9688" rx="12.5" ry="12.5" style="stroke: #A80036; stroke-width: 1.5;" width="82" x="73" y="94"/><text fill="#000000" font-family="sans-serif" font-size="12" lengthAdjust="spacingAndGlyphs" textLength="62" x="83" y="115.1387">read data</text><rect fill="#FEFECE" filter="url(#fdrztipyky8rn)" height="33.9688" rx="12.5" ry="12.5" style="stroke: #A80036; stroke-width: 1.5;" width="140" x="44" y="162.9688"/><text fill="#000000" font-family="sans-serif" font-size="12" lengthAdjust="spacingAndGlyphs" textLength="120" x="54" y="184.1074">generate diagrams</text><polygon fill="#FEFECE" filter="url(#fdrztipyky8rn)" points="71.5,50,156.5,50,168.5,62,156.5,74,71.5,74,59.5,62,71.5,50" style="stroke: #A80036; stroke-width: 1.5;"/><text fill="#000000" font-family="sans-serif" font-size="11" lengthAdjust="spacingAndGlyphs" textLength="85" x="71.5" y="65.8081">data available?</text><ellipse cx="24" cy="104" fill="none" filter="url(#fdrztipyky8rn)" rx="10" ry="10" style="stroke: #000000; stroke-width: 1.0;"/><ellipse cx="24.5" cy="104.5" fill="#000000" filter="url(#fdrztipyky8rn)" rx="6" ry="6" style="stroke: none; stroke-width: 1.0;"/><line style="stroke: #A80036; stroke-width: 1.5;" x1="114" x2="114" y1="127.9688" y2="162.9688"/><polygon fill="#A80036" points="110,152.9688,114,162.9688,118,152.9688,114,156.9688" style="stroke: #A80036; stroke-width: 1.0;"/><line style="stroke: #A80036; stroke-width: 1.5;" x1="114" x2="114" y1="74" y2="94"/><polygon fill="#A80036" points="110,84,114,94,118,84,114,88" style="stroke: #A80036; stroke-width: 1.0;"/><line style="stroke: #A80036; stroke-width: 1.5;" x1="114" x2="114" y1="196.9375" y2="206.9375"/><line style="stroke: #A80036; stroke-width: 1.5;" x1="114" x2="196" y1="206.9375" y2="206.9375"/><polygon fill="#A80036" points="192,143.4688,196,133.4688,200,143.4688,196,139.4688" style="stroke: #A80036; stroke-width: 1.5;"/><line style="stroke: #A80036; stroke-width: 1.5;" x1="196" x2="196" y1="62" y2="206.9375"/><line style="stroke: #A80036; stroke-width: 1.5;" x1="196" x2="168.5" y1="62" y2="62"/><polygon fill="#A80036" points="178.5,58,168.5,62,178.5,66,174.5,62" style="stroke: #A80036; stroke-width: 1.0;"/><line style="stroke: #A80036; stroke-width: 1.5;" x1="59.5" x2="24" y1="62" y2="62"/><line style="stroke: #A80036; stroke-width: 1.5;" x1="24" x2="24" y1="62" y2="94"/><polygon fill="#A80036" points="20,84,24,94,28,84,24,88" style="stroke: #A80036; stroke-width: 1.0;"/><line style="stroke: #A80036; stroke-width: 1.5;" x1="114" x2="114" y1="30" y2="50"/><polygon fill="#A80036" points="110,40,114,50,118,40,114,44" style="stroke: #A80036; stroke-width: 1.0;"/><!--
@startuml
start

while (data available?)
    :read data;
    :generate diagrams;
endwhile

stop
@enduml

PlantUML version 1.2019.01(Sat Feb 09 16:32:04 CET 2019)
(GPL source distribution)
Java Runtime: OpenJDK Runtime Environment
JVM: OpenJDK 64-Bit Server VM
Java Version: 11.0.1+13-Ubuntu-3ubuntu3.18.10.1
Operating System: Linux
OS Version: 4.18.0-16-generic
Default Encoding: UTF-8
Language: fr
Country: FR
--></g></svg>