<?xml version="1.0" encoding="UTF-8" standalone="no"?><svg xmlns="http://www.w3.org/2000/svg" xmlns:xlink="http://www.w3.org/1999/xlink" contentScriptType="application/ecmascript" contentStyleType="text/css" height="225px" preserveAspectRatio="none" style="width:494px;height:225px;" version="1.1" viewBox="0 0 494 225" width="494px" zoomAndPan="magnify"><defs><filter height="300%" id="f6icsxidh6o3y" width="300%" x="-1" y="-1"><feGaussianBlur result="blurOut" stdDeviation="2.0"/><feColorMatrix in="blurOut" result="blurOut2" type="matrix" values="0 0 0 0 0 0 0 0 0 0 0 0 0 0 0 0 0 0 .4 0"/><feOffset dx="4.0" dy="4.0" in="blurOut2" result="blurOut3"/><feBlend in="SourceGraphic" in2="blurOut3" mode="normal"/></filter></defs><g><ellipse cx="159" cy="20" fill="#000000" filter="url(#f6icsxidh6o3y)" rx="10" ry="10" style="stroke: none; stroke-width: 1.0;"/><path d="M10,54.418 L10,79.5508 A0,0 0 0 0 10,79.5508 L115,79.5508 A0,0 0 0 0 115,79.5508 L115,72.418 L135,66.9844 L115,64.418 L115,64.418 L105,54.418 L10,54.418 A0,0 0 0 0 10,54.418 " fill="#FBFB77" filter="url(#f6icsxidh6o3y)" style="stroke: #A80036; stroke-width: 1.0;"/><path d="M105,54.418 L105,64.418 L115,64.418 L105,54.418 " fill="#FBFB77" style="stroke: #A80036; stroke-width: 1.0;"/><text fill="#000000" font-family="sans-serif" font-size="13" lengthAdjust="spacingAndGlyphs" textLength="84" x="16" y="71.4849">This is a note</text><rect fill="#FEFECE" filter="url(#f6icsxidh6o3y)" height="33.9688" rx="12.5" ry="12.5" style="stroke: #A80036; stroke-width: 1.5;" width="48" x="135" y="50"/><text fill="#000000" font-family="sans-serif" font-size="12" lengthAdjust="spacingAndGlyphs" textLength="28" x="145" y="71.1387">foo1</text><path d="M203,93.9688 L203,130.2344 L183,134.2344 L203,138.2344 L203,174.5 A0,0 0 0 0 203,174.5 L482,174.5 A0,0 0 0 0 482,174.5 L482,103.9688 L472,93.9688 L203,93.9688 A0,0 0 0 0 203,93.9688 " fill="#008000" filter="url(#f6icsxidh6o3y)" style="stroke: #A80036; stroke-width: 1.0;"/><path d="M472,93.9688 L472,103.9688 L482,103.9688 L472,93.9688 " fill="#008000" style="stroke: #A80036; stroke-width: 1.0;"/><text fill="#000000" font-family="sans-serif" font-size="13" lengthAdjust="spacingAndGlyphs" textLength="142" x="209" y="111.0356">This note is on several</text><text fill="#000000" font-family="sans-serif" font-size="13" font-style="italic" lengthAdjust="spacingAndGlyphs" textLength="29" x="209" y="126.1685">lines</text><text fill="#000000" font-family="sans-serif" font-size="13" lengthAdjust="spacingAndGlyphs" textLength="51" x="242" y="126.1685">and can</text><text fill="#000000" font-family="sans-serif" font-size="13" lengthAdjust="spacingAndGlyphs" textLength="47" x="209" y="141.3013">contain</text><text fill="#000000" font-family="sans-serif" font-size="13" font-weight="bold" lengthAdjust="spacingAndGlyphs" textLength="39" x="260" y="141.3013">HTML</text><line style="stroke: #A80036; stroke-width: 1.0;" x1="203" x2="482" y1="149.3672" y2="149.3672"/><line style="stroke: #A80036; stroke-width: 1.0;" x1="203" x2="482" y1="151.3672" y2="151.3672"/><ellipse cx="214.5" cy="162" fill="#000000" rx="2.5" ry="2.5" style="stroke: #000000; stroke-width: 0.0;"/><text fill="#000000" font-family="sans-serif" font-size="13" lengthAdjust="spacingAndGlyphs" textLength="121" x="220" y="166.4341">Calling the method</text><text fill="#000000" font-family="monospace" font-size="13" lengthAdjust="spacingAndGlyphs" textLength="40" x="345" y="166.4341">foo()</text><text fill="#000000" font-family="sans-serif" font-size="13" lengthAdjust="spacingAndGlyphs" textLength="78" x="389" y="166.4341">is prohibited</text><rect fill="#FEFECE" filter="url(#f6icsxidh6o3y)" height="33.9688" rx="12.5" ry="12.5" style="stroke: #A80036; stroke-width: 1.5;" width="48" x="135" y="117.25"/><text fill="#000000" font-family="sans-serif" font-size="12" lengthAdjust="spacingAndGlyphs" textLength="28" x="145" y="138.3887">foo2</text><ellipse cx="159" cy="204.5" fill="none" filter="url(#f6icsxidh6o3y)" rx="10" ry="10" style="stroke: #000000; stroke-width: 1.0;"/><ellipse cx="159.5" cy="205" fill="#000000" filter="url(#f6icsxidh6o3y)" rx="6" ry="6" style="stroke: none; stroke-width: 1.0;"/><line style="stroke: #A80036; stroke-width: 1.5;" x1="159" x2="159" y1="30" y2="50"/><polygon fill="#A80036" points="155,40,159,50,163,40,159,44" style="stroke: #A80036; stroke-width: 1.0;"/><line style="stroke: #A80036; stroke-width: 1.5;" x1="159" x2="159" y1="83.9688" y2="117.25"/><polygon fill="#A80036" points="155,107.25,159,117.25,163,107.25,159,111.25" style="stroke: #A80036; stroke-width: 1.0;"/><line style="stroke: #A80036; stroke-width: 1.5;" x1="159" x2="159" y1="151.2188" y2="194.5"/><polygon fill="#A80036" points="155,184.5,159,194.5,163,184.5,159,188.5" style="stroke: #A80036; stroke-width: 1.0;"/><!--
@startuml
start
:foo1;
note left: This is a note
:foo2;
note right #green
This note is on several
//lines// and can
contain <b>HTML</b>
====
* Calling the method ""foo()"" is prohibited
end note
stop
@enduml

PlantUML version 1.2019.01(Sat Feb 09 16:32:04 CET 2019)
(GPL source distribution)
Java Runtime: OpenJDK Runtime Environment
JVM: OpenJDK 64-Bit Server VM
Java Version: 11.0.1+13-Ubuntu-3ubuntu3.18.10.1
Operating System: Linux
OS Version: 4.18.0-16-generic
Default Encoding: UTF-8
Language: fr
Country: FR
--></g></svg>