<?xml version="1.0" encoding="UTF-8" standalone="no"?><svg xmlns="http://www.w3.org/2000/svg" xmlns:xlink="http://www.w3.org/1999/xlink" contentScriptType="application/ecmascript" contentStyleType="text/css" height="904px" preserveAspectRatio="none" style="width:478px;height:904px;" version="1.1" viewBox="0 0 478 904" width="478px" zoomAndPan="magnify"><defs><filter height="300%" id="fddvwdpc7t2c0" width="300%" x="-1" y="-1"><feGaussianBlur result="blurOut" stdDeviation="2.0"/><feColorMatrix in="blurOut" result="blurOut2" type="matrix" values="0 0 0 0 0 0 0 0 0 0 0 0 0 0 0 0 0 0 .4 0"/><feOffset dx="4.0" dy="4.0" in="blurOut2" result="blurOut3"/><feBlend in="SourceGraphic" in2="blurOut3" mode="normal"/></filter></defs><g><ellipse cx="188.5" cy="20" fill="#000000" filter="url(#fddvwdpc7t2c0)" rx="10" ry="10" style="stroke: none; stroke-width: 1.0;"/><rect fill="#FEFECE" filter="url(#fddvwdpc7t2c0)" height="33.9688" rx="12.5" ry="12.5" style="stroke: #A80036; stroke-width: 1.5;" width="200" x="88.5" y="50"/><text fill="#000000" font-family="sans-serif" font-size="12" lengthAdjust="spacingAndGlyphs" textLength="180" x="98.5" y="71.1387">ClickServlet.handleRequest()</text><rect fill="#FEFECE" filter="url(#fddvwdpc7t2c0)" height="33.9688" rx="12.5" ry="12.5" style="stroke: #A80036; stroke-width: 1.5;" width="81" x="148" y="103.9688"/><text fill="#000000" font-family="sans-serif" font-size="12" lengthAdjust="spacingAndGlyphs" textLength="61" x="158" y="125.1074">new page</text><rect fill="#FEFECE" filter="url(#fddvwdpc7t2c0)" height="33.9688" rx="12.5" ry="12.5" style="stroke: #A80036; stroke-width: 1.5;" width="101" x="138" y="206.3398"/><text fill="#000000" font-family="sans-serif" font-size="12" lengthAdjust="spacingAndGlyphs" textLength="81" x="148" y="227.4785">Page.onInit()</text><rect fill="#FEFECE" filter="url(#fddvwdpc7t2c0)" height="33.9688" rx="12.5" ry="12.5" style="stroke: #A80036; stroke-width: 1.5;" width="125" x="126" y="308.7109"/><text fill="#000000" font-family="sans-serif" font-size="12" lengthAdjust="spacingAndGlyphs" textLength="105" x="136" y="329.8496">Process controls</text><polygon fill="#FEFECE" filter="url(#fddvwdpc7t2c0)" points="128,362.6797,249,362.6797,261,374.6797,249,386.6797,128,386.6797,116,374.6797,128,362.6797" style="stroke: #A80036; stroke-width: 1.5;"/><text fill="#000000" font-family="sans-serif" font-size="11" lengthAdjust="spacingAndGlyphs" textLength="121" x="128" y="378.4878">continue processing?</text><text fill="#000000" font-family="sans-serif" font-size="11" lengthAdjust="spacingAndGlyphs" textLength="14" x="261" y="372.0854">no</text><ellipse cx="295" cy="374.6797" fill="none" filter="url(#fddvwdpc7t2c0)" rx="10" ry="10" style="stroke: #000000; stroke-width: 1.0;"/><ellipse cx="295.5" cy="375.1797" fill="#000000" filter="url(#fddvwdpc7t2c0)" rx="6" ry="6" style="stroke: none; stroke-width: 1.0;"/><polygon fill="#FEFECE" filter="url(#fddvwdpc7t2c0)" points="168,431.1953,209,431.1953,221,443.1953,209,455.1953,168,455.1953,156,443.1953,168,431.1953" style="stroke: #A80036; stroke-width: 1.5;"/><text fill="#000000" font-family="sans-serif" font-size="11" lengthAdjust="spacingAndGlyphs" textLength="41" x="168" y="447.0034">isPost?</text><text fill="#000000" font-family="sans-serif" font-size="11" lengthAdjust="spacingAndGlyphs" textLength="20" x="136" y="440.6011">yes</text><text fill="#000000" font-family="sans-serif" font-size="11" lengthAdjust="spacingAndGlyphs" textLength="14" x="221" y="440.6011">no</text><rect fill="#FEFECE" filter="url(#fddvwdpc7t2c0)" height="33.9688" rx="12.5" ry="12.5" style="stroke: #A80036; stroke-width: 1.5;" width="110" x="70" y="465.1953"/><text fill="#000000" font-family="sans-serif" font-size="12" lengthAdjust="spacingAndGlyphs" textLength="90" x="80" y="486.334">Page.onPost()</text><rect fill="#FEFECE" filter="url(#fddvwdpc7t2c0)" height="33.9688" rx="12.5" ry="12.5" style="stroke: #A80036; stroke-width: 1.5;" width="104" x="200" y="465.1953"/><text fill="#000000" font-family="sans-serif" font-size="12" lengthAdjust="spacingAndGlyphs" textLength="84" x="210" y="486.334">Page.onGet()</text><polygon fill="#FEFECE" filter="url(#fddvwdpc7t2c0)" points="188.5,505.1641,200.5,517.1641,188.5,529.1641,176.5,517.1641,188.5,505.1641" style="stroke: #A80036; stroke-width: 1.5;"/><rect fill="#FEFECE" filter="url(#fddvwdpc7t2c0)" height="33.9688" rx="12.5" ry="12.5" style="stroke: #A80036; stroke-width: 1.5;" width="127" x="125" y="549.1641"/><text fill="#000000" font-family="sans-serif" font-size="12" lengthAdjust="spacingAndGlyphs" textLength="107" x="135" y="570.3027">Page.onRender()</text><polygon fill="#FEFECE" filter="url(#fddvwdpc7t2c0)" points="157.5,260.3086,219.5,260.3086,231.5,272.3086,219.5,284.3086,157.5,284.3086,145.5,272.3086,157.5,260.3086" style="stroke: #A80036; stroke-width: 1.5;"/><text fill="#000000" font-family="sans-serif" font-size="11" lengthAdjust="spacingAndGlyphs" textLength="14" x="192.5" y="294.519">no</text><text fill="#000000" font-family="sans-serif" font-size="11" lengthAdjust="spacingAndGlyphs" textLength="62" x="157.5" y="276.1167">isForward?</text><polygon fill="#FEFECE" filter="url(#fddvwdpc7t2c0)" points="188.5,603.1328,200.5,615.1328,188.5,627.1328,176.5,615.1328,188.5,603.1328" style="stroke: #A80036; stroke-width: 1.5;"/><polygon fill="#FEFECE" filter="url(#fddvwdpc7t2c0)" points="125.5,157.9375,251.5,157.9375,263.5,169.9375,251.5,181.9375,125.5,181.9375,113.5,169.9375,125.5,157.9375" style="stroke: #A80036; stroke-width: 1.5;"/><text fill="#000000" font-family="sans-serif" font-size="11" lengthAdjust="spacingAndGlyphs" textLength="23" x="192.5" y="192.1479">true</text><text fill="#000000" font-family="sans-serif" font-size="11" lengthAdjust="spacingAndGlyphs" textLength="126" x="125.5" y="173.7456">Page.onSecurityCheck</text><text fill="#000000" font-family="sans-serif" font-size="11" lengthAdjust="spacingAndGlyphs" textLength="28" x="263.5" y="167.3433">false</text><polygon fill="#FEFECE" filter="url(#fddvwdpc7t2c0)" points="188.5,647.1328,200.5,659.1328,188.5,671.1328,176.5,659.1328,188.5,647.1328" style="stroke: #A80036; stroke-width: 1.5;"/><polygon fill="#FEFECE" filter="url(#fddvwdpc7t2c0)" points="154.5,691.1328,222.5,691.1328,234.5,703.1328,222.5,715.1328,154.5,715.1328,142.5,703.1328,154.5,691.1328" style="stroke: #A80036; stroke-width: 1.5;"/><text fill="#000000" font-family="sans-serif" font-size="11" lengthAdjust="spacingAndGlyphs" textLength="68" x="154.5" y="706.9409">do redirect?</text><text fill="#000000" font-family="sans-serif" font-size="11" lengthAdjust="spacingAndGlyphs" textLength="20" x="122.5" y="700.5386">yes</text><rect fill="#FEFECE" filter="url(#fddvwdpc7t2c0)" height="33.9688" rx="12.5" ry="12.5" style="stroke: #A80036; stroke-width: 1.5;" width="123" x="10" y="725.1328"/><text fill="#000000" font-family="sans-serif" font-size="12" lengthAdjust="spacingAndGlyphs" textLength="103" x="20" y="746.2715">redirect process</text><polygon fill="#FEFECE" filter="url(#fddvwdpc7t2c0)" points="271.5,725.1328,339.5,725.1328,351.5,737.1328,339.5,749.1328,271.5,749.1328,259.5,737.1328,271.5,725.1328" style="stroke: #A80036; stroke-width: 1.5;"/><text fill="#000000" font-family="sans-serif" font-size="11" lengthAdjust="spacingAndGlyphs" textLength="68" x="271.5" y="740.9409">do forward?</text><text fill="#000000" font-family="sans-serif" font-size="11" lengthAdjust="spacingAndGlyphs" textLength="20" x="239.5" y="734.5386">yes</text><text fill="#000000" font-family="sans-serif" font-size="11" lengthAdjust="spacingAndGlyphs" textLength="14" x="351.5" y="734.5386">no</text><rect fill="#FEFECE" filter="url(#fddvwdpc7t2c0)" height="33.9688" rx="12.5" ry="12.5" style="stroke: #A80036; stroke-width: 1.5;" width="123" x="163" y="759.1328"/><text fill="#000000" font-family="sans-serif" font-size="12" lengthAdjust="spacingAndGlyphs" textLength="103" x="173" y="780.2715">Forward request</text><rect fill="#FEFECE" filter="url(#fddvwdpc7t2c0)" height="33.9688" rx="12.5" ry="12.5" style="stroke: #A80036; stroke-width: 1.5;" width="161" x="306" y="759.1328"/><text fill="#000000" font-family="sans-serif" font-size="12" lengthAdjust="spacingAndGlyphs" textLength="141" x="316" y="780.2715">Render page template</text><polygon fill="#FEFECE" filter="url(#fddvwdpc7t2c0)" points="305.5,799.1016,317.5,811.1016,305.5,823.1016,293.5,811.1016,305.5,799.1016" style="stroke: #A80036; stroke-width: 1.5;"/><polygon fill="#FEFECE" filter="url(#fddvwdpc7t2c0)" points="188.5,829.1016,200.5,841.1016,188.5,853.1016,176.5,841.1016,188.5,829.1016" style="stroke: #A80036; stroke-width: 1.5;"/><ellipse cx="188.5" cy="883.1016" fill="none" filter="url(#fddvwdpc7t2c0)" rx="10" ry="10" style="stroke: #000000; stroke-width: 1.0;"/><ellipse cx="189" cy="883.6016" fill="#000000" filter="url(#fddvwdpc7t2c0)" rx="6" ry="6" style="stroke: none; stroke-width: 1.0;"/><line style="stroke: #A80036; stroke-width: 1.5;" x1="188.5" x2="188.5" y1="30" y2="50"/><polygon fill="#A80036" points="184.5,40,188.5,50,192.5,40,188.5,44" style="stroke: #A80036; stroke-width: 1.0;"/><line style="stroke: #A80036; stroke-width: 1.5;" x1="188.5" x2="188.5" y1="83.9688" y2="103.9688"/><polygon fill="#A80036" points="184.5,93.9688,188.5,103.9688,192.5,93.9688,188.5,97.9688" style="stroke: #A80036; stroke-width: 1.0;"/><line style="stroke: #A80036; stroke-width: 1.5;" x1="188.5" x2="188.5" y1="386.6797" y2="431.1953"/><polygon fill="#A80036" points="184.5,421.1953,188.5,431.1953,192.5,421.1953,188.5,425.1953" style="stroke: #A80036; stroke-width: 1.0;"/><line style="stroke: #A80036; stroke-width: 1.5;" x1="261" x2="285" y1="374.6797" y2="374.6797"/><polygon fill="#A80036" points="275,370.6797,285,374.6797,275,378.6797,279,374.6797" style="stroke: #A80036; stroke-width: 1.0;"/><line style="stroke: #A80036; stroke-width: 1.5;" x1="188.5" x2="188.5" y1="342.6797" y2="362.6797"/><polygon fill="#A80036" points="184.5,352.6797,188.5,362.6797,192.5,352.6797,188.5,356.6797" style="stroke: #A80036; stroke-width: 1.0;"/><line style="stroke: #A80036; stroke-width: 1.5;" x1="156" x2="125" y1="443.1953" y2="443.1953"/><line style="stroke: #A80036; stroke-width: 1.5;" x1="125" x2="125" y1="443.1953" y2="465.1953"/><polygon fill="#A80036" points="121,455.1953,125,465.1953,129,455.1953,125,459.1953" style="stroke: #A80036; stroke-width: 1.0;"/><line style="stroke: #A80036; stroke-width: 1.5;" x1="221" x2="252" y1="443.1953" y2="443.1953"/><line style="stroke: #A80036; stroke-width: 1.5;" x1="252" x2="252" y1="443.1953" y2="465.1953"/><polygon fill="#A80036" points="248,455.1953,252,465.1953,256,455.1953,252,459.1953" style="stroke: #A80036; stroke-width: 1.0;"/><line style="stroke: #A80036; stroke-width: 1.5;" x1="125" x2="125" y1="499.1641" y2="517.1641"/><line style="stroke: #A80036; stroke-width: 1.5;" x1="125" x2="176.5" y1="517.1641" y2="517.1641"/><polygon fill="#A80036" points="166.5,513.1641,176.5,517.1641,166.5,521.1641,170.5,517.1641" style="stroke: #A80036; stroke-width: 1.0;"/><line style="stroke: #A80036; stroke-width: 1.5;" x1="252" x2="252" y1="499.1641" y2="517.1641"/><line style="stroke: #A80036; stroke-width: 1.5;" x1="252" x2="200.5" y1="517.1641" y2="517.1641"/><polygon fill="#A80036" points="210.5,513.1641,200.5,517.1641,210.5,521.1641,206.5,517.1641" style="stroke: #A80036; stroke-width: 1.0;"/><line style="stroke: #A80036; stroke-width: 1.5;" x1="188.5" x2="188.5" y1="529.1641" y2="549.1641"/><polygon fill="#A80036" points="184.5,539.1641,188.5,549.1641,192.5,539.1641,188.5,543.1641" style="stroke: #A80036; stroke-width: 1.0;"/><line style="stroke: #A80036; stroke-width: 1.5;" x1="188.5" x2="188.5" y1="284.3086" y2="308.7109"/><polygon fill="#A80036" points="184.5,298.7109,188.5,308.7109,192.5,298.7109,188.5,302.7109" style="stroke: #A80036; stroke-width: 1.0;"/><line style="stroke: #A80036; stroke-width: 1.5;" x1="231.5" x2="327" y1="272.3086" y2="272.3086"/><polygon fill="#A80036" points="323,416.6797,327,426.6797,331,416.6797,327,420.6797" style="stroke: #A80036; stroke-width: 1.5;"/><line style="stroke: #A80036; stroke-width: 1.5;" x1="327" x2="327" y1="272.3086" y2="615.1328"/><line style="stroke: #A80036; stroke-width: 1.5;" x1="327" x2="200.5" y1="615.1328" y2="615.1328"/><polygon fill="#A80036" points="210.5,611.1328,200.5,615.1328,210.5,619.1328,206.5,615.1328" style="stroke: #A80036; stroke-width: 1.0;"/><line style="stroke: #A80036; stroke-width: 1.5;" x1="188.5" x2="188.5" y1="583.1328" y2="603.1328"/><polygon fill="#A80036" points="184.5,593.1328,188.5,603.1328,192.5,593.1328,188.5,597.1328" style="stroke: #A80036; stroke-width: 1.0;"/><line style="stroke: #A80036; stroke-width: 1.5;" x1="188.5" x2="188.5" y1="240.3086" y2="260.3086"/><polygon fill="#A80036" points="184.5,250.3086,188.5,260.3086,192.5,250.3086,188.5,254.3086" style="stroke: #A80036; stroke-width: 1.0;"/><line style="stroke: #A80036; stroke-width: 1.5;" x1="188.5" x2="188.5" y1="181.9375" y2="206.3398"/><polygon fill="#A80036" points="184.5,196.3398,188.5,206.3398,192.5,196.3398,188.5,200.3398" style="stroke: #A80036; stroke-width: 1.0;"/><line style="stroke: #A80036; stroke-width: 1.5;" x1="263.5" x2="349" y1="169.9375" y2="169.9375"/><polygon fill="#A80036" points="345,396.6797,349,406.6797,353,396.6797,349,400.6797" style="stroke: #A80036; stroke-width: 1.5;"/><line style="stroke: #A80036; stroke-width: 1.5;" x1="349" x2="349" y1="169.9375" y2="659.1328"/><line style="stroke: #A80036; stroke-width: 1.5;" x1="349" x2="200.5" y1="659.1328" y2="659.1328"/><polygon fill="#A80036" points="210.5,655.1328,200.5,659.1328,210.5,663.1328,206.5,659.1328" style="stroke: #A80036; stroke-width: 1.0;"/><line style="stroke: #A80036; stroke-width: 1.5;" x1="188.5" x2="188.5" y1="627.1328" y2="647.1328"/><polygon fill="#A80036" points="184.5,637.1328,188.5,647.1328,192.5,637.1328,188.5,641.1328" style="stroke: #A80036; stroke-width: 1.0;"/><line style="stroke: #A80036; stroke-width: 1.5;" x1="188.5" x2="188.5" y1="137.9375" y2="157.9375"/><polygon fill="#A80036" points="184.5,147.9375,188.5,157.9375,192.5,147.9375,188.5,151.9375" style="stroke: #A80036; stroke-width: 1.0;"/><line style="stroke: #A80036; stroke-width: 1.5;" x1="259.5" x2="224.5" y1="737.1328" y2="737.1328"/><line style="stroke: #A80036; stroke-width: 1.5;" x1="224.5" x2="224.5" y1="737.1328" y2="759.1328"/><polygon fill="#A80036" points="220.5,749.1328,224.5,759.1328,228.5,749.1328,224.5,753.1328" style="stroke: #A80036; stroke-width: 1.0;"/><line style="stroke: #A80036; stroke-width: 1.5;" x1="351.5" x2="386.5" y1="737.1328" y2="737.1328"/><line style="stroke: #A80036; stroke-width: 1.5;" x1="386.5" x2="386.5" y1="737.1328" y2="759.1328"/><polygon fill="#A80036" points="382.5,749.1328,386.5,759.1328,390.5,749.1328,386.5,753.1328" style="stroke: #A80036; stroke-width: 1.0;"/><line style="stroke: #A80036; stroke-width: 1.5;" x1="224.5" x2="224.5" y1="793.1016" y2="811.1016"/><line style="stroke: #A80036; stroke-width: 1.5;" x1="224.5" x2="293.5" y1="811.1016" y2="811.1016"/><polygon fill="#A80036" points="283.5,807.1016,293.5,811.1016,283.5,815.1016,287.5,811.1016" style="stroke: #A80036; stroke-width: 1.0;"/><line style="stroke: #A80036; stroke-width: 1.5;" x1="386.5" x2="386.5" y1="793.1016" y2="811.1016"/><line style="stroke: #A80036; stroke-width: 1.5;" x1="386.5" x2="317.5" y1="811.1016" y2="811.1016"/><polygon fill="#A80036" points="327.5,807.1016,317.5,811.1016,327.5,815.1016,323.5,811.1016" style="stroke: #A80036; stroke-width: 1.0;"/><line style="stroke: #A80036; stroke-width: 1.5;" x1="142.5" x2="71.5" y1="703.1328" y2="703.1328"/><line style="stroke: #A80036; stroke-width: 1.5;" x1="71.5" x2="71.5" y1="703.1328" y2="725.1328"/><polygon fill="#A80036" points="67.5,715.1328,71.5,725.1328,75.5,715.1328,71.5,719.1328" style="stroke: #A80036; stroke-width: 1.0;"/><line style="stroke: #A80036; stroke-width: 1.5;" x1="234.5" x2="305.5" y1="703.1328" y2="703.1328"/><line style="stroke: #A80036; stroke-width: 1.5;" x1="305.5" x2="305.5" y1="703.1328" y2="725.1328"/><polygon fill="#A80036" points="301.5,715.1328,305.5,725.1328,309.5,715.1328,305.5,719.1328" style="stroke: #A80036; stroke-width: 1.0;"/><line style="stroke: #A80036; stroke-width: 1.5;" x1="71.5" x2="71.5" y1="759.1016" y2="841.1016"/><line style="stroke: #A80036; stroke-width: 1.5;" x1="71.5" x2="176.5" y1="841.1016" y2="841.1016"/><polygon fill="#A80036" points="166.5,837.1016,176.5,841.1016,166.5,845.1016,170.5,841.1016" style="stroke: #A80036; stroke-width: 1.0;"/><line style="stroke: #A80036; stroke-width: 1.5;" x1="305.5" x2="305.5" y1="823.1016" y2="841.1016"/><line style="stroke: #A80036; stroke-width: 1.5;" x1="305.5" x2="200.5" y1="841.1016" y2="841.1016"/><polygon fill="#A80036" points="210.5,837.1016,200.5,841.1016,210.5,845.1016,206.5,841.1016" style="stroke: #A80036; stroke-width: 1.0;"/><line style="stroke: #A80036; stroke-width: 1.5;" x1="188.5" x2="188.5" y1="671.1328" y2="691.1328"/><polygon fill="#A80036" points="184.5,681.1328,188.5,691.1328,192.5,681.1328,188.5,685.1328" style="stroke: #A80036; stroke-width: 1.0;"/><line style="stroke: #A80036; stroke-width: 1.5;" x1="188.5" x2="188.5" y1="853.1016" y2="873.1016"/><polygon fill="#A80036" points="184.5,863.1016,188.5,873.1016,192.5,863.1016,188.5,867.1016" style="stroke: #A80036; stroke-width: 1.0;"/><!--
@startuml
start
:ClickServlet.handleRequest();
:new page;
if (Page.onSecurityCheck) then (true)
  :Page.onInit();

if (isForward?) then (no)
  :Process controls;
  if (continue processing?) then (no)
    stop
  endif

  if (isPost?) then (yes)
    :Page.onPost();
  else (no)
    :Page.onGet();
  endif
  :Page.onRender();
endif
else (false)
endif

if (do redirect?) then (yes)
  :redirect process;
else
if (do forward?) then (yes)
  :Forward request;
else (no)
  :Render page template;
endif
endif

stop
@enduml

PlantUML version 1.2019.01(Sat Feb 09 16:32:04 CET 2019)
(GPL source distribution)
Java Runtime: OpenJDK Runtime Environment
JVM: OpenJDK 64-Bit Server VM
Java Version: 11.0.1+13-Ubuntu-3ubuntu3.18.10.1
Operating System: Linux
OS Version: 4.18.0-16-generic
Default Encoding: UTF-8
Language: fr
Country: FR
--></g></svg>