<?xml version="1.0" encoding="UTF-8" standalone="no"?><svg xmlns="http://www.w3.org/2000/svg" xmlns:xlink="http://www.w3.org/1999/xlink" contentScriptType="application/ecmascript" contentStyleType="text/css" height="346px" preserveAspectRatio="none" style="width:384px;height:346px;" version="1.1" viewBox="0 0 384 346" width="384px" zoomAndPan="magnify"><defs><filter height="300%" id="fm56thxzcma0w" width="300%" x="-1" y="-1"><feGaussianBlur result="blurOut" stdDeviation="2.0"/><feColorMatrix in="blurOut" result="blurOut2" type="matrix" values="0 0 0 0 0 0 0 0 0 0 0 0 0 0 0 0 0 0 .4 0"/><feOffset dx="4.0" dy="4.0" in="blurOut2" result="blurOut3"/><feBlend in="SourceGraphic" in2="blurOut3" mode="normal"/></filter></defs><g><!--class AbstractList--><rect fill="#FEFECE" filter="url(#fm56thxzcma0w)" height="48" id="AbstractList" style="stroke: #A80036; stroke-width: 1.5;" width="105" x="186" y="154"/><ellipse cx="201" cy="170" fill="#A9DCDF" rx="11" ry="11" style="stroke: #A80036; stroke-width: 1.0;"/><path d="M200.9531,165.2656 L199.6406,169.9844 L202.2656,169.9844 L200.9531,165.2656 Z M199.6875,162.1719 L202.2344,162.1719 L206.2344,175.25 L203.7656,175.25 L202.8594,172.0156 L199.0469,172.0156 L198.1563,175.25 L195.6875,175.25 L199.6875,162.1719 Z "/><text fill="#000000" font-family="sans-serif" font-size="12" font-style="italic" lengthAdjust="spacingAndGlyphs" textLength="73" x="215" y="174.1543">AbstractList</text><line style="stroke: #A80036; stroke-width: 1.5;" x1="187" x2="290" y1="186" y2="186"/><line style="stroke: #A80036; stroke-width: 1.5;" x1="187" x2="290" y1="194" y2="194"/><!--class AbstractCollection--><rect fill="#FEFECE" filter="url(#fm56thxzcma0w)" height="48" id="AbstractCollection" style="stroke: #A80036; stroke-width: 1.5;" width="145" x="6" y="154"/><ellipse cx="21" cy="170" fill="#A9DCDF" rx="11" ry="11" style="stroke: #A80036; stroke-width: 1.0;"/><path d="M20.9531,165.2656 L19.6406,169.9844 L22.2656,169.9844 L20.9531,165.2656 Z M19.6875,162.1719 L22.2344,162.1719 L26.2344,175.25 L23.7656,175.25 L22.8594,172.0156 L19.0469,172.0156 L18.1563,175.25 L15.6875,175.25 L19.6875,162.1719 Z "/><text fill="#000000" font-family="sans-serif" font-size="12" font-style="italic" lengthAdjust="spacingAndGlyphs" textLength="113" x="35" y="174.1543">AbstractCollection</text><line style="stroke: #A80036; stroke-width: 1.5;" x1="7" x2="150" y1="186" y2="186"/><line style="stroke: #A80036; stroke-width: 1.5;" x1="7" x2="150" y1="194" y2="194"/><!--class List--><rect fill="#FEFECE" filter="url(#fm56thxzcma0w)" height="48" id="List" style="stroke: #A80036; stroke-width: 1.5;" width="53" x="199" y="27"/><ellipse cx="214" cy="43" fill="#B4A7E5" rx="11" ry="11" style="stroke: #A80036; stroke-width: 1.0;"/><path d="M210.1719,35.9219 L217.7344,35.9219 L217.7344,38.0156 L215.1406,38.0156 L215.1406,46.9063 L217.7344,46.9063 L217.7344,49 L210.1719,49 L210.1719,46.9063 L212.7656,46.9063 L212.7656,38.0156 L210.1719,38.0156 L210.1719,35.9219 Z "/><text fill="#000000" font-family="sans-serif" font-size="12" font-style="italic" lengthAdjust="spacingAndGlyphs" textLength="21" x="228" y="47.1543">List</text><line style="stroke: #A80036; stroke-width: 1.5;" x1="200" x2="251" y1="59" y2="59"/><line style="stroke: #A80036; stroke-width: 1.5;" x1="200" x2="251" y1="67" y2="67"/><!--class Collection--><rect fill="#FEFECE" filter="url(#fm56thxzcma0w)" height="48" id="Collection" style="stroke: #A80036; stroke-width: 1.5;" width="93" x="58" y="27"/><ellipse cx="73" cy="43" fill="#B4A7E5" rx="11" ry="11" style="stroke: #A80036; stroke-width: 1.0;"/><path d="M69.1719,35.9219 L76.7344,35.9219 L76.7344,38.0156 L74.1406,38.0156 L74.1406,46.9063 L76.7344,46.9063 L76.7344,49 L69.1719,49 L69.1719,46.9063 L71.7656,46.9063 L71.7656,38.0156 L69.1719,38.0156 L69.1719,35.9219 Z "/><text fill="#000000" font-family="sans-serif" font-size="12" font-style="italic" lengthAdjust="spacingAndGlyphs" textLength="61" x="87" y="47.1543">Collection</text><line style="stroke: #A80036; stroke-width: 1.5;" x1="59" x2="150" y1="59" y2="59"/><line style="stroke: #A80036; stroke-width: 1.5;" x1="59" x2="150" y1="67" y2="67"/><!--class ArrayList--><rect fill="#FEFECE" filter="url(#fm56thxzcma0w)" height="73.6094" id="ArrayList" style="stroke: #A80036; stroke-width: 1.5;" width="132" x="172.5" y="262"/><ellipse cx="208.65" cy="278" fill="#ADD1B2" rx="11" ry="11" style="stroke: #A80036; stroke-width: 1.0;"/><path d="M211.9938,283.4219 Q211.1344,283.8906 210.4156,284.0625 Q209.7125,284.2344 208.9156,284.2344 Q206.3531,284.2344 204.9469,282.4531 Q203.5563,280.6563 203.5563,277.4688 Q203.5563,274.3125 204.9625,272.5 Q206.3688,270.6875 208.9156,270.6875 Q209.7125,270.6875 210.4156,270.875 Q211.1344,271.0469 211.9938,271.5156 L211.9938,274.1719 Q210.8688,273.2344 210.2125,273 Q209.5563,272.75 208.9156,272.75 Q207.4625,272.75 206.7281,273.8906 Q205.9938,275.0156 205.9938,277.4688 Q205.9938,279.9219 206.7281,281.0625 Q207.4625,282.1875 208.9156,282.1875 Q209.5719,282.1875 210.2125,281.9531 Q210.8688,281.7031 211.9938,280.7656 L211.9938,283.4219 Z "/><text fill="#000000" font-family="sans-serif" font-size="12" lengthAdjust="spacingAndGlyphs" textLength="53" x="227.35" y="282.1543">ArrayList</text><line style="stroke: #A80036; stroke-width: 1.5;" x1="173.5" x2="303.5" y1="294" y2="294"/><text fill="#000000" font-family="sans-serif" font-size="11" lengthAdjust="spacingAndGlyphs" textLength="120" x="178.5" y="308.2104">Object[] elementData</text><line style="stroke: #A80036; stroke-width: 1.5;" x1="173.5" x2="303.5" y1="314.8047" y2="314.8047"/><text fill="#000000" font-family="sans-serif" font-size="11" lengthAdjust="spacingAndGlyphs" textLength="30" x="178.5" y="329.0151">size()</text><!--class TimeUnit--><rect fill="#FEFECE" filter="url(#fm56thxzcma0w)" height="86.4141" id="TimeUnit" style="stroke: #A80036; stroke-width: 1.5;" width="86" x="287.5" y="8"/><ellipse cx="302.5" cy="24" fill="#EB937F" rx="11" ry="11" style="stroke: #A80036; stroke-width: 1.0;"/><path d="M298.6406,16.9219 L306.6719,16.9219 L306.6719,19.0156 L301,19.0156 L301,22 L306.4219,22 L306.4219,24.0938 L301,24.0938 L301,27.9063 L306.8281,27.9063 L306.8281,30 L298.6406,30 L298.6406,16.9219 Z "/><text fill="#000000" font-family="sans-serif" font-size="12" lengthAdjust="spacingAndGlyphs" textLength="54" x="316.5" y="28.1543">TimeUnit</text><line style="stroke: #A80036; stroke-width: 1.5;" x1="288.5" x2="372.5" y1="40" y2="40"/><text fill="#000000" font-family="sans-serif" font-size="11" lengthAdjust="spacingAndGlyphs" textLength="30" x="293.5" y="54.2104">DAYS</text><text fill="#000000" font-family="sans-serif" font-size="11" lengthAdjust="spacingAndGlyphs" textLength="40" x="293.5" y="67.0151">HOURS</text><text fill="#000000" font-family="sans-serif" font-size="11" lengthAdjust="spacingAndGlyphs" textLength="50" x="293.5" y="79.8198">MINUTES</text><line style="stroke: #A80036; stroke-width: 1.5;" x1="288.5" x2="372.5" y1="86.4141" y2="86.4141"/><!--link List to AbstractList--><path d="M230.0143,95.1016 C232.0341,114.8333 234.3369,137.3293 236.0334,153.9034 " fill="none" id="List-AbstractList" style="stroke: #A80036; stroke-width: 1.0;"/><polygon fill="none" points="223.0489,95.7955,227.9758,75.1867,236.9761,94.3699,223.0489,95.7955" style="stroke: #A80036; stroke-width: 1.0;"/><!--link Collection to AbstractCollection--><path d="M95.5357,94.787 C91.4808,114.5938 86.8443,137.2411 83.4332,153.9034 " fill="none" id="Collection-AbstractCollection" style="stroke: #A80036; stroke-width: 1.0;"/><polygon fill="none" points="88.6793,93.3763,99.5484,75.1867,102.3948,96.1843,88.6793,93.3763" style="stroke: #A80036; stroke-width: 1.0;"/><!--link Collection to List--><path d="M171.3484,51 C180.5096,51 189.6707,51 198.8318,51 " fill="none" id="Collection-List" style="stroke: #A80036; stroke-width: 1.0;"/><polygon fill="none" points="171.293,57.9999,151.293,51,171.2929,43.9999,171.293,57.9999" style="stroke: #A80036; stroke-width: 1.0;"/><!--link AbstractCollection to AbstractList--><path d="M171.4677,178 C176.2154,178 180.963,178 185.7107,178 " fill="none" id="AbstractCollection-AbstractList" style="stroke: #A80036; stroke-width: 1.0;"/><polygon fill="none" points="171.3125,184.9999,151.3125,178,171.3125,170.9999,171.3125,184.9999" style="stroke: #A80036; stroke-width: 1.0;"/><!--link AbstractList to ArrayList--><path d="M238.5,222.5529 C238.5,235.5142 238.5,249.5269 238.5,261.9716 " fill="none" id="AbstractList-ArrayList" style="stroke: #A80036; stroke-width: 1.0;"/><polygon fill="none" points="231.5001,222.1954,238.5,202.1953,245.5001,222.1953,231.5001,222.1954" style="stroke: #A80036; stroke-width: 1.0;"/><!--
@startuml
abstract class AbstractList
abstract AbstractCollection
interface List
interface Collection

List <|- - AbstractList
Collection <|- - AbstractCollection

Collection <|- List
AbstractCollection <|- AbstractList
AbstractList <|- - ArrayList

class ArrayList {
Object[] elementData
size()
}

enum TimeUnit {
DAYS
HOURS
MINUTES
}
@enduml

PlantUML version 1.2019.01(Sat Feb 09 16:32:04 CET 2019)
(GPL source distribution)
Java Runtime: OpenJDK Runtime Environment
JVM: OpenJDK 64-Bit Server VM
Java Version: 11.0.1+13-Ubuntu-3ubuntu3.18.10.1
Operating System: Linux
OS Version: 4.18.0-16-generic
Default Encoding: UTF-8
Language: fr
Country: FR
--></g></svg>