<?xml version="1.0" encoding="UTF-8" standalone="no"?><svg xmlns="http://www.w3.org/2000/svg" xmlns:xlink="http://www.w3.org/1999/xlink" contentScriptType="application/ecmascript" contentStyleType="text/css" height="219px" preserveAspectRatio="none" style="width:425px;height:219px;" version="1.1" viewBox="0 0 425 219" width="425px" zoomAndPan="magnify"><defs><filter height="300%" id="f1k0cs0yqekgyt" width="300%" x="-1" y="-1"><feGaussianBlur result="blurOut" stdDeviation="2.0"/><feColorMatrix in="blurOut" result="blurOut2" type="matrix" values="0 0 0 0 0 0 0 0 0 0 0 0 0 0 0 0 0 0 .4 0"/><feOffset dx="4.0" dy="4.0" in="blurOut2" result="blurOut3"/><feBlend in="SourceGraphic" in2="blurOut3" mode="normal"/></filter></defs><g><!--cluster Classic Collections--><polygon fill="#DDDDDD" filter="url(#f1k0cs0yqekgyt)" points="14,16,166,16,173,38.2969,176,38.2969,176,207,14,207,14,16" style="stroke: #000000; stroke-width: 1.5;"/><line style="stroke: #000000; stroke-width: 1.5;" x1="14" x2="173" y1="38.2969" y2="38.2969"/><text fill="#000000" font-family="sans-serif" font-size="14" font-weight="bold" lengthAdjust="spacingAndGlyphs" textLength="146" x="18" y="30.9951">Classic Collections</text><!--cluster net.sourceforge.plantuml--><polygon fill="#FFFFFF" filter="url(#f1k0cs0yqekgyt)" points="189,124,393,124,400,146.2969,403,146.2969,403,207,189,207,189,124" style="stroke: #000000; stroke-width: 1.5;"/><line style="stroke: #000000; stroke-width: 1.5;" x1="189" x2="400" y1="146.2969" y2="146.2969"/><text fill="#000000" font-family="sans-serif" font-size="14" font-weight="bold" lengthAdjust="spacingAndGlyphs" textLength="198" x="193" y="138.9951">net.sourceforge.plantuml</text><!--class Object--><rect fill="#FEFECE" filter="url(#f1k0cs0yqekgyt)" height="48" id="Object" style="stroke: #A80036; stroke-width: 1.5;" width="72" x="91" y="43"/><ellipse cx="106" cy="59" fill="#ADD1B2" rx="11" ry="11" style="stroke: #A80036; stroke-width: 1.0;"/><path d="M109.3438,64.4219 Q108.4844,64.8906 107.7656,65.0625 Q107.0625,65.2344 106.2656,65.2344 Q103.7031,65.2344 102.2969,63.4531 Q100.9063,61.6563 100.9063,58.4688 Q100.9063,55.3125 102.3125,53.5 Q103.7188,51.6875 106.2656,51.6875 Q107.0625,51.6875 107.7656,51.875 Q108.4844,52.0469 109.3438,52.5156 L109.3438,55.1719 Q108.2188,54.2344 107.5625,54 Q106.9063,53.75 106.2656,53.75 Q104.8125,53.75 104.0781,54.8906 Q103.3438,56.0156 103.3438,58.4688 Q103.3438,60.9219 104.0781,62.0625 Q104.8125,63.1875 106.2656,63.1875 Q106.9219,63.1875 107.5625,62.9531 Q108.2188,62.7031 109.3438,61.7656 L109.3438,64.4219 Z "/><text fill="#000000" font-family="sans-serif" font-size="12" lengthAdjust="spacingAndGlyphs" textLength="40" x="120" y="63.1543">Object</text><line style="stroke: #A80036; stroke-width: 1.5;" x1="92" x2="162" y1="75" y2="75"/><line style="stroke: #A80036; stroke-width: 1.5;" x1="92" x2="162" y1="83" y2="83"/><!--class ArrayList--><rect fill="#FEFECE" filter="url(#f1k0cs0yqekgyt)" height="48" id="ArrayList" style="stroke: #A80036; stroke-width: 1.5;" width="85" x="79.5" y="151"/><ellipse cx="94.5" cy="167" fill="#ADD1B2" rx="11" ry="11" style="stroke: #A80036; stroke-width: 1.0;"/><path d="M97.8438,172.4219 Q96.9844,172.8906 96.2656,173.0625 Q95.5625,173.2344 94.7656,173.2344 Q92.2031,173.2344 90.7969,171.4531 Q89.4063,169.6563 89.4063,166.4688 Q89.4063,163.3125 90.8125,161.5 Q92.2188,159.6875 94.7656,159.6875 Q95.5625,159.6875 96.2656,159.875 Q96.9844,160.0469 97.8438,160.5156 L97.8438,163.1719 Q96.7188,162.2344 96.0625,162 Q95.4063,161.75 94.7656,161.75 Q93.3125,161.75 92.5781,162.8906 Q91.8438,164.0156 91.8438,166.4688 Q91.8438,168.9219 92.5781,170.0625 Q93.3125,171.1875 94.7656,171.1875 Q95.4219,171.1875 96.0625,170.9531 Q96.7188,170.7031 97.8438,169.7656 L97.8438,172.4219 Z "/><text fill="#000000" font-family="sans-serif" font-size="12" lengthAdjust="spacingAndGlyphs" textLength="53" x="108.5" y="171.1543">ArrayList</text><line style="stroke: #A80036; stroke-width: 1.5;" x1="80.5" x2="163.5" y1="183" y2="183"/><line style="stroke: #A80036; stroke-width: 1.5;" x1="80.5" x2="163.5" y1="191" y2="191"/><!--class Demo1--><rect fill="#FEFECE" filter="url(#f1k0cs0yqekgyt)" height="48" id="Demo1" style="stroke: #A80036; stroke-width: 1.5;" width="76" x="200" y="151"/><ellipse cx="215" cy="167" fill="#ADD1B2" rx="11" ry="11" style="stroke: #A80036; stroke-width: 1.0;"/><path d="M218.3438,172.4219 Q217.4844,172.8906 216.7656,173.0625 Q216.0625,173.2344 215.2656,173.2344 Q212.7031,173.2344 211.2969,171.4531 Q209.9063,169.6563 209.9063,166.4688 Q209.9063,163.3125 211.3125,161.5 Q212.7188,159.6875 215.2656,159.6875 Q216.0625,159.6875 216.7656,159.875 Q217.4844,160.0469 218.3438,160.5156 L218.3438,163.1719 Q217.2188,162.2344 216.5625,162 Q215.9063,161.75 215.2656,161.75 Q213.8125,161.75 213.0781,162.8906 Q212.3438,164.0156 212.3438,166.4688 Q212.3438,168.9219 213.0781,170.0625 Q213.8125,171.1875 215.2656,171.1875 Q215.9219,171.1875 216.5625,170.9531 Q217.2188,170.7031 218.3438,169.7656 L218.3438,172.4219 Z "/><text fill="#000000" font-family="sans-serif" font-size="12" lengthAdjust="spacingAndGlyphs" textLength="44" x="229" y="171.1543">Demo1</text><line style="stroke: #A80036; stroke-width: 1.5;" x1="201" x2="275" y1="183" y2="183"/><line style="stroke: #A80036; stroke-width: 1.5;" x1="201" x2="275" y1="191" y2="191"/><!--class Demo2--><rect fill="#FEFECE" filter="url(#f1k0cs0yqekgyt)" height="48" id="Demo2" style="stroke: #A80036; stroke-width: 1.5;" width="76" x="311" y="151"/><ellipse cx="326" cy="167" fill="#ADD1B2" rx="11" ry="11" style="stroke: #A80036; stroke-width: 1.0;"/><path d="M329.3438,172.4219 Q328.4844,172.8906 327.7656,173.0625 Q327.0625,173.2344 326.2656,173.2344 Q323.7031,173.2344 322.2969,171.4531 Q320.9063,169.6563 320.9063,166.4688 Q320.9063,163.3125 322.3125,161.5 Q323.7188,159.6875 326.2656,159.6875 Q327.0625,159.6875 327.7656,159.875 Q328.4844,160.0469 329.3438,160.5156 L329.3438,163.1719 Q328.2188,162.2344 327.5625,162 Q326.9063,161.75 326.2656,161.75 Q324.8125,161.75 324.0781,162.8906 Q323.3438,164.0156 323.3438,166.4688 Q323.3438,168.9219 324.0781,170.0625 Q324.8125,171.1875 326.2656,171.1875 Q326.9219,171.1875 327.5625,170.9531 Q328.2188,170.7031 329.3438,169.7656 L329.3438,172.4219 Z "/><text fill="#000000" font-family="sans-serif" font-size="12" lengthAdjust="spacingAndGlyphs" textLength="44" x="340" y="171.1543">Demo2</text><line style="stroke: #A80036; stroke-width: 1.5;" x1="312" x2="386" y1="183" y2="183"/><line style="stroke: #A80036; stroke-width: 1.5;" x1="312" x2="386" y1="191" y2="191"/><!--link Object to ArrayList--><path d="M124.9495,111.2911 C124.3233,124.8171 123.6582,139.1835 123.1184,150.8436 " fill="none" id="Object-ArrayList" style="stroke: #A80036; stroke-width: 1.0;"/><polygon fill="none" points="117.9604,110.8921,125.8779,91.2373,131.9454,111.5397,117.9604,110.8921" style="stroke: #A80036; stroke-width: 1.0;"/><!--link Object to Demo1--><path d="M166.627,105.556 C182.1477,120.6572 199.4766,137.5178 213.1726,150.8436 " fill="none" id="Object-Demo1" style="stroke: #A80036; stroke-width: 1.0;"/><polygon fill="none" points="161.3636,110.2015,151.9106,91.2373,171.1266,100.1673,161.3636,110.2015" style="stroke: #A80036; stroke-width: 1.0;"/><!--link Demo1 to Demo2--><path d="M289.1742,175 C296.4064,175 303.6386,175 310.8708,175 " fill="none" id="Demo1-Demo2" style="stroke: #A80036; stroke-width: 1.0;"/><polygon fill="#A80036" points="276.1563,175,282.1563,179,288.1563,175,282.1563,171,276.1563,175" style="stroke: #A80036; stroke-width: 1.0;"/><!--
@startuml
package "Classic Collections" #DDDDDD {
    Object <|- - ArrayList
}

package net.sourceforge.plantuml {
    Object <|- - Demo1
    Demo1 *- Demo2
}
@enduml

PlantUML version 1.2019.01(Sat Feb 09 16:32:04 CET 2019)
(GPL source distribution)
Java Runtime: OpenJDK Runtime Environment
JVM: OpenJDK 64-Bit Server VM
Java Version: 11.0.1+13-Ubuntu-3ubuntu3.18.10.1
Operating System: Linux
OS Version: 4.18.0-16-generic
Default Encoding: UTF-8
Language: fr
Country: FR
--></g></svg>