<?xml version="1.0" encoding="UTF-8" standalone="no"?><svg xmlns="http://www.w3.org/2000/svg" xmlns:xlink="http://www.w3.org/1999/xlink" contentScriptType="application/ecmascript" contentStyleType="text/css" height="190px" preserveAspectRatio="none" style="width:236px;height:190px;" version="1.1" viewBox="0 0 236 190" width="236px" zoomAndPan="magnify"><defs><filter height="300%" id="f4a9pqzypwx8k" width="300%" x="-1" y="-1"><feGaussianBlur result="blurOut" stdDeviation="2.0"/><feColorMatrix in="blurOut" result="blurOut2" type="matrix" values="0 0 0 0 0 0 0 0 0 0 0 0 0 0 0 0 0 0 .4 0"/><feOffset dx="4.0" dy="4.0" in="blurOut2" result="blurOut3"/><feBlend in="SourceGraphic" in2="blurOut3" mode="normal"/></filter></defs><g><!--class Dummy1--><rect fill="#FEFECE" filter="url(#f4a9pqzypwx8k)" height="52.8047" id="Dummy1" style="stroke: #A80036; stroke-width: 1.5;" width="99" x="6" y="8"/><ellipse cx="27.3" cy="24" fill="#ADD1B2" rx="11" ry="11" style="stroke: #A80036; stroke-width: 1.0;"/><path d="M30.6438,29.4219 Q29.7844,29.8906 29.0656,30.0625 Q28.3625,30.2344 27.5656,30.2344 Q25.0031,30.2344 23.5969,28.4531 Q22.2063,26.6563 22.2063,23.4688 Q22.2063,20.3125 23.6125,18.5 Q25.0188,16.6875 27.5656,16.6875 Q28.3625,16.6875 29.0656,16.875 Q29.7844,17.0469 30.6438,17.5156 L30.6438,20.1719 Q29.5188,19.2344 28.8625,19 Q28.2063,18.75 27.5656,18.75 Q26.1125,18.75 25.3781,19.8906 Q24.6438,21.0156 24.6438,23.4688 Q24.6438,25.9219 25.3781,27.0625 Q26.1125,28.1875 27.5656,28.1875 Q28.2219,28.1875 28.8625,27.9531 Q29.5188,27.7031 30.6438,26.7656 L30.6438,29.4219 Z "/><text fill="#000000" font-family="sans-serif" font-size="12" lengthAdjust="spacingAndGlyphs" textLength="53" x="42.7" y="28.1543">Dummy1</text><line style="stroke: #A80036; stroke-width: 1.5;" x1="7" x2="104" y1="40" y2="40"/><ellipse cx="17" cy="51.9023" fill="#84BE84" rx="3" ry="3" style="stroke: #038048; stroke-width: 1.0;"/><text fill="#000000" font-family="sans-serif" font-size="11" lengthAdjust="spacingAndGlyphs" textLength="73" x="26" y="54.2104">myMethods()</text><!--class Dummy2--><rect fill="#FEFECE" filter="url(#f4a9pqzypwx8k)" height="32" id="Dummy2" style="stroke: #A80036; stroke-width: 1.5;" width="85" x="140" y="18.5"/><ellipse cx="155" cy="34.5" fill="#ADD1B2" rx="11" ry="11" style="stroke: #A80036; stroke-width: 1.0;"/><path d="M158.3438,39.9219 Q157.4844,40.3906 156.7656,40.5625 Q156.0625,40.7344 155.2656,40.7344 Q152.7031,40.7344 151.2969,38.9531 Q149.9063,37.1563 149.9063,33.9688 Q149.9063,30.8125 151.3125,29 Q152.7188,27.1875 155.2656,27.1875 Q156.0625,27.1875 156.7656,27.375 Q157.4844,27.5469 158.3438,28.0156 L158.3438,30.6719 Q157.2188,29.7344 156.5625,29.5 Q155.9063,29.25 155.2656,29.25 Q153.8125,29.25 153.0781,30.3906 Q152.3438,31.5156 152.3438,33.9688 Q152.3438,36.4219 153.0781,37.5625 Q153.8125,38.6875 155.2656,38.6875 Q155.9219,38.6875 156.5625,38.4531 Q157.2188,38.2031 158.3438,37.2656 L158.3438,39.9219 Z "/><text fill="#000000" font-family="sans-serif" font-size="12" lengthAdjust="spacingAndGlyphs" textLength="53" x="169" y="38.6543">Dummy2</text><!--class Dummy3--><rect fill="#FEFECE" filter="url(#f4a9pqzypwx8k)" height="58.7422" id="Dummy3" style="stroke: #A80036; stroke-width: 1.5;" width="87" x="12" y="121"/><text fill="#000000" font-family="sans-serif" font-size="12" font-style="italic" lengthAdjust="spacingAndGlyphs" textLength="85" x="13" y="137.1387">«Serializable»</text><text fill="#000000" font-family="sans-serif" font-size="12" lengthAdjust="spacingAndGlyphs" textLength="53" x="29" y="151.1074">Dummy3</text><line style="stroke: #A80036; stroke-width: 1.5;" x1="13" x2="98" y1="158.9375" y2="158.9375"/><text fill="#000000" font-family="sans-serif" font-size="11" lengthAdjust="spacingAndGlyphs" textLength="70" x="18" y="173.1479">String name</text><!--link Dummy1 to Dummy2--><!--link Dummy1 to Dummy3--><!--
@startuml
class Dummy1 {
+myMethods()
}

class Dummy2 {
+hiddenMethod()
}

class Dummy3 <<Serializable>> {
    String name
}

hide members
hide <<Serializable>> circle
show Dummy1 method
show <<Serializable>> fields
@enduml

PlantUML version 1.2019.01(Sat Feb 09 16:32:04 CET 2019)
(GPL source distribution)
Java Runtime: OpenJDK Runtime Environment
JVM: OpenJDK 64-Bit Server VM
Java Version: 11.0.1+13-Ubuntu-3ubuntu3.18.10.1
Operating System: Linux
OS Version: 4.18.0-16-generic
Default Encoding: UTF-8
Language: fr
Country: FR
--></g></svg>