<?xml version="1.0" encoding="UTF-8" standalone="no"?><svg xmlns="http://www.w3.org/2000/svg" xmlns:xlink="http://www.w3.org/1999/xlink" contentScriptType="application/ecmascript" contentStyleType="text/css" height="79px" preserveAspectRatio="none" style="width:309px;height:79px;" version="1.1" viewBox="0 0 309 79" width="309px" zoomAndPan="magnify"><defs><filter height="300%" id="f176pstu8xy2io" width="300%" x="-1" y="-1"><feGaussianBlur result="blurOut" stdDeviation="2.0"/><feColorMatrix in="blurOut" result="blurOut2" type="matrix" values="0 0 0 0 0 0 0 0 0 0 0 0 0 0 0 0 0 0 .4 0"/><feOffset dx="4.0" dy="4.0" in="blurOut2" result="blurOut3"/><feBlend in="SourceGraphic" in2="blurOut3" mode="normal"/></filter></defs><g><!--class Foo--><rect fill="#FEFECE" filter="url(#f176pstu8xy2io)" height="60.8047" id="Foo" style="stroke: #A80036; stroke-width: 1.5;" width="174" x="6" y="8"/><ellipse cx="21" cy="24" fill="#ADD1B2" rx="11" ry="11" style="stroke: #A80036; stroke-width: 1.0;"/><path d="M24.3438,29.4219 Q23.4844,29.8906 22.7656,30.0625 Q22.0625,30.2344 21.2656,30.2344 Q18.7031,30.2344 17.2969,28.4531 Q15.9063,26.6563 15.9063,23.4688 Q15.9063,20.3125 17.3125,18.5 Q18.7188,16.6875 21.2656,16.6875 Q22.0625,16.6875 22.7656,16.875 Q23.4844,17.0469 24.3438,17.5156 L24.3438,20.1719 Q23.2188,19.2344 22.5625,19 Q21.9063,18.75 21.2656,18.75 Q19.8125,18.75 19.0781,19.8906 Q18.3438,21.0156 18.3438,23.4688 Q18.3438,25.9219 19.0781,27.0625 Q19.8125,28.1875 21.2656,28.1875 Q21.9219,28.1875 22.5625,27.9531 Q23.2188,27.7031 24.3438,26.7656 L24.3438,29.4219 Z "/><text fill="#000000" font-family="sans-serif" font-size="12" lengthAdjust="spacingAndGlyphs" textLength="23" x="35" y="28.1543">Foo</text><rect fill="#FFFFFF" height="15.9688" style="stroke: #000000; stroke-width: 1.0; stroke-dasharray: 2.0,2.0;" width="117" x="66" y="5"/><text fill="#000000" font-family="sans-serif" font-size="12" font-style="italic" lengthAdjust="spacingAndGlyphs" textLength="115" x="67" y="17.1387">? extends Element</text><line style="stroke: #A80036; stroke-width: 1.5;" x1="7" x2="179" y1="40" y2="40"/><line style="stroke: #A80036; stroke-width: 1.5;" x1="7" x2="179" y1="48" y2="48"/><text fill="#000000" font-family="sans-serif" font-size="11" lengthAdjust="spacingAndGlyphs" textLength="48" x="12" y="62.2104">int size()</text><!--class Element--><rect fill="#FEFECE" filter="url(#f176pstu8xy2io)" height="48" id="Element" style="stroke: #A80036; stroke-width: 1.5;" width="83" x="215.5" y="14.5"/><ellipse cx="230.5" cy="30.5" fill="#ADD1B2" rx="11" ry="11" style="stroke: #A80036; stroke-width: 1.0;"/><path d="M233.8438,35.9219 Q232.9844,36.3906 232.2656,36.5625 Q231.5625,36.7344 230.7656,36.7344 Q228.2031,36.7344 226.7969,34.9531 Q225.4063,33.1563 225.4063,29.9688 Q225.4063,26.8125 226.8125,25 Q228.2188,23.1875 230.7656,23.1875 Q231.5625,23.1875 232.2656,23.375 Q232.9844,23.5469 233.8438,24.0156 L233.8438,26.6719 Q232.7188,25.7344 232.0625,25.5 Q231.4063,25.25 230.7656,25.25 Q229.3125,25.25 228.5781,26.3906 Q227.8438,27.5156 227.8438,29.9688 Q227.8438,32.4219 228.5781,33.5625 Q229.3125,34.6875 230.7656,34.6875 Q231.4219,34.6875 232.0625,34.4531 Q232.7188,34.2031 233.8438,33.2656 L233.8438,35.9219 Z "/><text fill="#000000" font-family="sans-serif" font-size="12" lengthAdjust="spacingAndGlyphs" textLength="51" x="244.5" y="34.6543">Element</text><line style="stroke: #A80036; stroke-width: 1.5;" x1="216.5" x2="297.5" y1="46.5" y2="46.5"/><line style="stroke: #A80036; stroke-width: 1.5;" x1="216.5" x2="297.5" y1="54.5" y2="54.5"/><!--link Foo to Element--><path d="M193.3004,38.5 C200.62,38.5 207.9396,38.5 215.2593,38.5 " fill="none" id="Foo-Element" style="stroke: #A80036; stroke-width: 1.0;"/><polygon fill="#A80036" points="180.125,38.5,186.125,42.5,192.125,38.5,186.125,34.5,180.125,38.5" style="stroke: #A80036; stroke-width: 1.0;"/><!--
@startuml
class Foo<? extends Element> {
    int size()
}
Foo *- Element
@enduml

PlantUML version 1.2019.01(Sat Feb 09 16:32:04 CET 2019)
(GPL source distribution)
Java Runtime: OpenJDK Runtime Environment
JVM: OpenJDK 64-Bit Server VM
Java Version: 11.0.1+13-Ubuntu-3ubuntu3.18.10.1
Operating System: Linux
OS Version: 4.18.0-16-generic
Default Encoding: UTF-8
Language: fr
Country: FR
--></g></svg>