<?xml version="1.0" encoding="UTF-8" standalone="no"?><svg xmlns="http://www.w3.org/2000/svg" xmlns:xlink="http://www.w3.org/1999/xlink" contentScriptType="application/ecmascript" contentStyleType="text/css" height="193px" preserveAspectRatio="none" style="width:342px;height:193px;" version="1.1" viewBox="0 0 342 193" width="342px" zoomAndPan="magnify"><defs><filter height="300%" id="fwas9g6rfzwqg" width="300%" x="-1" y="-1"><feGaussianBlur result="blurOut" stdDeviation="2.0"/><feColorMatrix in="blurOut" result="blurOut2" type="matrix" values="0 0 0 0 0 0 0 0 0 0 0 0 0 0 0 0 0 0 .4 0"/><feOffset dx="4.0" dy="4.0" in="blurOut2" result="blurOut3"/><feBlend in="SourceGraphic" in2="blurOut3" mode="normal"/></filter></defs><g><!--class Foo1--><rect fill="#FEFECE" filter="url(#fwas9g6rfzwqg)" height="174.4375" id="Foo1" style="stroke: #A80036; stroke-width: 1.5;" width="185" x="6" y="8"/><ellipse cx="78.75" cy="24" fill="#ADD1B2" rx="11" ry="11" style="stroke: #A80036; stroke-width: 1.0;"/><path d="M82.0938,29.4219 Q81.2344,29.8906 80.5156,30.0625 Q79.8125,30.2344 79.0156,30.2344 Q76.4531,30.2344 75.0469,28.4531 Q73.6563,26.6563 73.6563,23.4688 Q73.6563,20.3125 75.0625,18.5 Q76.4688,16.6875 79.0156,16.6875 Q79.8125,16.6875 80.5156,16.875 Q81.2344,17.0469 82.0938,17.5156 L82.0938,20.1719 Q80.9688,19.2344 80.3125,19 Q79.6563,18.75 79.0156,18.75 Q77.5625,18.75 76.8281,19.8906 Q76.0938,21.0156 76.0938,23.4688 Q76.0938,25.9219 76.8281,27.0625 Q77.5625,28.1875 79.0156,28.1875 Q79.6719,28.1875 80.3125,27.9531 Q80.9688,27.7031 82.0938,26.7656 L82.0938,29.4219 Z "/><text fill="#000000" font-family="sans-serif" font-size="12" lengthAdjust="spacingAndGlyphs" textLength="31" x="99.25" y="28.1543">Foo1</text><line style="stroke: #A80036; stroke-width: 1.5;" x1="7" x2="190" y1="40" y2="40"/><text fill="#000000" font-family="sans-serif" font-size="11" lengthAdjust="spacingAndGlyphs" textLength="70" x="12" y="54.2104">You can use</text><text fill="#000000" font-family="sans-serif" font-size="11" lengthAdjust="spacingAndGlyphs" textLength="73" x="12" y="67.0151">several lines</text><line style="stroke: #A80036; stroke-width: 1.0; stroke-dasharray: 1.0,2.0;" x1="7" x2="190" y1="73.6094" y2="73.6094"/><text fill="#000000" font-family="sans-serif" font-size="11" lengthAdjust="spacingAndGlyphs" textLength="69" x="12" y="87.8198">as you want</text><text fill="#000000" font-family="sans-serif" font-size="11" lengthAdjust="spacingAndGlyphs" textLength="58" x="12" y="100.6245">and group</text><line style="stroke: #A80036; stroke-width: 1.0;" x1="7" x2="190" y1="107.2188" y2="107.2188"/><line style="stroke: #A80036; stroke-width: 1.0;" x1="7" x2="190" y1="109.2188" y2="109.2188"/><text fill="#000000" font-family="sans-serif" font-size="11" lengthAdjust="spacingAndGlyphs" textLength="91" x="12" y="121.4292">things together.</text><line style="stroke: #A80036; stroke-width: 1.5;" x1="7" x2="190" y1="128.0234" y2="128.0234"/><text fill="#000000" font-family="sans-serif" font-size="11" lengthAdjust="spacingAndGlyphs" textLength="173" x="12" y="142.2339">You can have as many groups</text><text fill="#000000" font-family="sans-serif" font-size="11" lengthAdjust="spacingAndGlyphs" textLength="69" x="12" y="155.0386">as you want</text><line style="stroke: #A80036; stroke-width: 1.0;" x1="7" x2="190" y1="161.6328" y2="161.6328"/><text fill="#000000" font-family="sans-serif" font-size="11" lengthAdjust="spacingAndGlyphs" textLength="70" x="12" y="175.8433">End of class</text><!--class User--><rect fill="#FEFECE" filter="url(#fwas9g6rfzwqg)" height="171.2422" id="User" style="stroke: #A80036; stroke-width: 1.5;" width="106" x="225.5" y="9.5"/><ellipse cx="260.75" cy="25.5" fill="#ADD1B2" rx="11" ry="11" style="stroke: #A80036; stroke-width: 1.0;"/><path d="M264.0938,30.9219 Q263.2344,31.3906 262.5156,31.5625 Q261.8125,31.7344 261.0156,31.7344 Q258.4531,31.7344 257.0469,29.9531 Q255.6563,28.1563 255.6563,24.9688 Q255.6563,21.8125 257.0625,20 Q258.4688,18.1875 261.0156,18.1875 Q261.8125,18.1875 262.5156,18.375 Q263.2344,18.5469 264.0938,19.0156 L264.0938,21.6719 Q262.9688,20.7344 262.3125,20.5 Q261.6563,20.25 261.0156,20.25 Q259.5625,20.25 258.8281,21.3906 Q258.0938,22.5156 258.0938,24.9688 Q258.0938,27.4219 258.8281,28.5625 Q259.5625,29.6875 261.0156,29.6875 Q261.6719,29.6875 262.3125,29.4531 Q262.9688,29.2031 264.0938,28.2656 L264.0938,30.9219 Z "/><text fill="#000000" font-family="sans-serif" font-size="12" lengthAdjust="spacingAndGlyphs" textLength="29" x="279.25" y="29.6543">User</text><line style="stroke: #A80036; stroke-width: 1.5;" x1="226.5" x2="330.5" y1="41.5" y2="41.5"/><ellipse cx="236.5" cy="70.207" fill="#84BE84" rx="3" ry="3" style="stroke: #038048; stroke-width: 1.0;"/><text fill="#000000" font-family="sans-serif" font-size="11" lengthAdjust="spacingAndGlyphs" textLength="59" x="245.5" y="72.5151">getName()</text><ellipse cx="236.5" cy="83.0117" fill="#84BE84" rx="3" ry="3" style="stroke: #038048; stroke-width: 1.0;"/><text fill="#000000" font-family="sans-serif" font-size="11" lengthAdjust="spacingAndGlyphs" textLength="73" x="245.5" y="85.3198">getAddress()</text><line style="stroke: #A80036; stroke-width: 1.0; stroke-dasharray: 1.0,2.0;" x1="226.5" x2="239" y1="55.9023" y2="55.9023"/><text fill="#000000" font-family="sans-serif" font-size="11" lengthAdjust="spacingAndGlyphs" textLength="79" x="239" y="59.2104">Simple Getter</text><line style="stroke: #A80036; stroke-width: 1.0; stroke-dasharray: 1.0,2.0;" x1="318" x2="330.5" y1="55.9023" y2="55.9023"/><ellipse cx="236.5" cy="112.6211" fill="#84BE84" rx="3" ry="3" style="stroke: #038048; stroke-width: 1.0;"/><text fill="#000000" font-family="sans-serif" font-size="11" lengthAdjust="spacingAndGlyphs" textLength="59" x="245.5" y="114.9292">setName()</text><line style="stroke: #A80036; stroke-width: 1.0; stroke-dasharray: 1.0,2.0;" x1="226.5" x2="243" y1="98.3164" y2="98.3164"/><text fill="#000000" font-family="sans-serif" font-size="11" lengthAdjust="spacingAndGlyphs" textLength="71" x="243" y="101.6245">Some setter</text><line style="stroke: #A80036; stroke-width: 1.0; stroke-dasharray: 1.0,2.0;" x1="314" x2="330.5" y1="98.3164" y2="98.3164"/><text fill="#000000" font-family="sans-serif" font-size="11" lengthAdjust="spacingAndGlyphs" textLength="39" x="231.5" y="144.5386">int age</text><line style="stroke: #A80036; stroke-width: 1.5;" x1="226.5" x2="244.5" y1="127.9258" y2="127.9258"/><text fill="#000000" font-family="sans-serif" font-size="11" lengthAdjust="spacingAndGlyphs" textLength="68" x="244.5" y="131.2339">private data</text><line style="stroke: #A80036; stroke-width: 1.5;" x1="312.5" x2="330.5" y1="127.9258" y2="127.9258"/><text fill="#000000" font-family="sans-serif" font-size="11" lengthAdjust="spacingAndGlyphs" textLength="94" x="231.5" y="174.1479">String password</text><line style="stroke: #A80036; stroke-width: 1.0;" x1="226.5" x2="257.5" y1="157.5352" y2="157.5352"/><text fill="#000000" font-family="sans-serif" font-size="11" lengthAdjust="spacingAndGlyphs" textLength="42" x="257.5" y="160.8433">crypted</text><line style="stroke: #A80036; stroke-width: 1.0;" x1="299.5" x2="330.5" y1="157.5352" y2="157.5352"/><!--
@startuml
class Foo1 {
You can use
several lines
..
as you want
and group
==
things together.
__
You can have as many groups
as you want
- -
End of class
}

class User {
.. Simple Getter ..
+ getName()
+ getAddress()
.. Some setter ..
+ setName()
__ private data __
int age
- - crypted - -
String password
}
@enduml

PlantUML version 1.2019.01(Sat Feb 09 16:32:04 CET 2019)
(GPL source distribution)
Java Runtime: OpenJDK Runtime Environment
JVM: OpenJDK 64-Bit Server VM
Java Version: 11.0.1+13-Ubuntu-3ubuntu3.18.10.1
Operating System: Linux
OS Version: 4.18.0-16-generic
Default Encoding: UTF-8
Language: fr
Country: FR
--></g></svg>