<?xml version="1.0" encoding="UTF-8" standalone="no"?><svg xmlns="http://www.w3.org/2000/svg" xmlns:xlink="http://www.w3.org/1999/xlink" contentScriptType="application/ecmascript" contentStyleType="text/css" height="192px" preserveAspectRatio="none" style="width:388px;height:192px;" version="1.1" viewBox="0 0 388 192" width="388px" zoomAndPan="magnify"><defs><filter height="300%" id="f1fbfkwplcf7tv" width="300%" x="-1" y="-1"><feGaussianBlur result="blurOut" stdDeviation="2.0"/><feColorMatrix in="blurOut" result="blurOut2" type="matrix" values="0 0 0 0 0 0 0 0 0 0 0 0 0 0 0 0 0 0 .4 0"/><feOffset dx="4.0" dy="4.0" in="blurOut2" result="blurOut3"/><feBlend in="SourceGraphic" in2="blurOut3" mode="normal"/></filter></defs><g><!--class Car--><rect fill="#FEFECE" filter="url(#f1fbfkwplcf7tv)" height="48" id="Car" style="stroke: #A80036; stroke-width: 1.5;" width="53" x="161.5" y="8"/><ellipse cx="176.5" cy="24" fill="#ADD1B2" rx="11" ry="11" style="stroke: #A80036; stroke-width: 1.0;"/><path d="M179.8438,29.4219 Q178.9844,29.8906 178.2656,30.0625 Q177.5625,30.2344 176.7656,30.2344 Q174.2031,30.2344 172.7969,28.4531 Q171.4063,26.6563 171.4063,23.4688 Q171.4063,20.3125 172.8125,18.5 Q174.2188,16.6875 176.7656,16.6875 Q177.5625,16.6875 178.2656,16.875 Q178.9844,17.0469 179.8438,17.5156 L179.8438,20.1719 Q178.7188,19.2344 178.0625,19 Q177.4063,18.75 176.7656,18.75 Q175.3125,18.75 174.5781,19.8906 Q173.8438,21.0156 173.8438,23.4688 Q173.8438,25.9219 174.5781,27.0625 Q175.3125,28.1875 176.7656,28.1875 Q177.4219,28.1875 178.0625,27.9531 Q178.7188,27.7031 179.8438,26.7656 L179.8438,29.4219 Z "/><text fill="#000000" font-family="sans-serif" font-size="12" lengthAdjust="spacingAndGlyphs" textLength="21" x="190.5" y="28.1543">Car</text><line style="stroke: #A80036; stroke-width: 1.5;" x1="162.5" x2="213.5" y1="40" y2="40"/><line style="stroke: #A80036; stroke-width: 1.5;" x1="162.5" x2="213.5" y1="48" y2="48"/><!--class Driver--><rect fill="#FEFECE" filter="url(#f1fbfkwplcf7tv)" height="48" id="Driver" style="stroke: #A80036; stroke-width: 1.5;" width="68" x="6" y="8"/><ellipse cx="21" cy="24" fill="#ADD1B2" rx="11" ry="11" style="stroke: #A80036; stroke-width: 1.0;"/><path d="M24.3438,29.4219 Q23.4844,29.8906 22.7656,30.0625 Q22.0625,30.2344 21.2656,30.2344 Q18.7031,30.2344 17.2969,28.4531 Q15.9063,26.6563 15.9063,23.4688 Q15.9063,20.3125 17.3125,18.5 Q18.7188,16.6875 21.2656,16.6875 Q22.0625,16.6875 22.7656,16.875 Q23.4844,17.0469 24.3438,17.5156 L24.3438,20.1719 Q23.2188,19.2344 22.5625,19 Q21.9063,18.75 21.2656,18.75 Q19.8125,18.75 19.0781,19.8906 Q18.3438,21.0156 18.3438,23.4688 Q18.3438,25.9219 19.0781,27.0625 Q19.8125,28.1875 21.2656,28.1875 Q21.9219,28.1875 22.5625,27.9531 Q23.2188,27.7031 24.3438,26.7656 L24.3438,29.4219 Z "/><text fill="#000000" font-family="sans-serif" font-size="12" lengthAdjust="spacingAndGlyphs" textLength="36" x="35" y="28.1543">Driver</text><line style="stroke: #A80036; stroke-width: 1.5;" x1="7" x2="73" y1="40" y2="40"/><line style="stroke: #A80036; stroke-width: 1.5;" x1="7" x2="73" y1="48" y2="48"/><!--class Wheel--><rect fill="#FEFECE" filter="url(#f1fbfkwplcf7tv)" height="48" id="Wheel" style="stroke: #A80036; stroke-width: 1.5;" width="70" x="307" y="8"/><ellipse cx="322" cy="24" fill="#ADD1B2" rx="11" ry="11" style="stroke: #A80036; stroke-width: 1.0;"/><path d="M325.3438,29.4219 Q324.4844,29.8906 323.7656,30.0625 Q323.0625,30.2344 322.2656,30.2344 Q319.7031,30.2344 318.2969,28.4531 Q316.9063,26.6563 316.9063,23.4688 Q316.9063,20.3125 318.3125,18.5 Q319.7188,16.6875 322.2656,16.6875 Q323.0625,16.6875 323.7656,16.875 Q324.4844,17.0469 325.3438,17.5156 L325.3438,20.1719 Q324.2188,19.2344 323.5625,19 Q322.9063,18.75 322.2656,18.75 Q320.8125,18.75 320.0781,19.8906 Q319.3438,21.0156 319.3438,23.4688 Q319.3438,25.9219 320.0781,27.0625 Q320.8125,28.1875 322.2656,28.1875 Q322.9219,28.1875 323.5625,27.9531 Q324.2188,27.7031 325.3438,26.7656 L325.3438,29.4219 Z "/><text fill="#000000" font-family="sans-serif" font-size="12" lengthAdjust="spacingAndGlyphs" textLength="38" x="336" y="28.1543">Wheel</text><line style="stroke: #A80036; stroke-width: 1.5;" x1="308" x2="376" y1="40" y2="40"/><line style="stroke: #A80036; stroke-width: 1.5;" x1="308" x2="376" y1="48" y2="48"/><!--class Person--><rect fill="#FEFECE" filter="url(#f1fbfkwplcf7tv)" height="48" id="Person" style="stroke: #A80036; stroke-width: 1.5;" width="76" x="150" y="133"/><ellipse cx="165" cy="149" fill="#ADD1B2" rx="11" ry="11" style="stroke: #A80036; stroke-width: 1.0;"/><path d="M168.3438,154.4219 Q167.4844,154.8906 166.7656,155.0625 Q166.0625,155.2344 165.2656,155.2344 Q162.7031,155.2344 161.2969,153.4531 Q159.9063,151.6563 159.9063,148.4688 Q159.9063,145.3125 161.3125,143.5 Q162.7188,141.6875 165.2656,141.6875 Q166.0625,141.6875 166.7656,141.875 Q167.4844,142.0469 168.3438,142.5156 L168.3438,145.1719 Q167.2188,144.2344 166.5625,144 Q165.9063,143.75 165.2656,143.75 Q163.8125,143.75 163.0781,144.8906 Q162.3438,146.0156 162.3438,148.4688 Q162.3438,150.9219 163.0781,152.0625 Q163.8125,153.1875 165.2656,153.1875 Q165.9219,153.1875 166.5625,152.9531 Q167.2188,152.7031 168.3438,151.7656 L168.3438,154.4219 Z "/><text fill="#000000" font-family="sans-serif" font-size="12" lengthAdjust="spacingAndGlyphs" textLength="44" x="179" y="153.1543">Person</text><line style="stroke: #A80036; stroke-width: 1.5;" x1="151" x2="225" y1="165" y2="165"/><line style="stroke: #A80036; stroke-width: 1.5;" x1="151" x2="225" y1="173" y2="173"/><!--link Driver to Car--><path d="M74.3262,32 C100.7977,32 136.8858,32 161.2412,32 " fill="none" id="Driver-Car" style="stroke: #A80036; stroke-width: 1.0;"/><text fill="#000000" font-family="sans-serif" font-size="13" lengthAdjust="spacingAndGlyphs" textLength="38" x="92.25" y="25.0669">drives</text><polygon fill="#000000" points="133.25,19.0664,139.25,22.0664,133.25,25.0664,133.25,19.0664" style="stroke: #000000; stroke-width: 1.0;"/><!--link Car to Wheel--><path d="M227.985,32 C252.4004,32 283.3309,32 306.8141,32 " fill="none" id="Car-Wheel" style="stroke: #A80036; stroke-width: 1.0;"/><polygon fill="#A80036" points="214.8248,32,220.8248,36,226.8248,32,220.8248,28,214.8248,32" style="stroke: #A80036; stroke-width: 1.0;"/><text fill="#000000" font-family="sans-serif" font-size="13" lengthAdjust="spacingAndGlyphs" textLength="43" x="232.75" y="25.0669">have 4</text><polygon fill="#000000" points="278.75,19.0664,284.75,22.0664,278.75,25.0664,278.75,19.0664" style="stroke: #000000; stroke-width: 1.0;"/><!--link Car to Person--><path d="M188,56.1013 C188,78.2359 188,110.8615 188,132.9727 " fill="none" id="Car-Person" style="stroke: #A80036; stroke-width: 1.0;"/><polygon fill="#000000" points="200.5,97,203.5,91,206.5,97,200.5,97" style="stroke: #000000; stroke-width: 1.0;"/><text fill="#000000" font-family="sans-serif" font-size="13" lengthAdjust="spacingAndGlyphs" textLength="32" x="189" y="112.0669">owns</text><!--
@startuml
class Car

Driver - Car : drives >
Car *- Wheel : have 4 >
Car - - Person : < owns
@enduml

PlantUML version 1.2019.01(Sat Feb 09 16:32:04 CET 2019)
(GPL source distribution)
Java Runtime: OpenJDK Runtime Environment
JVM: OpenJDK 64-Bit Server VM
Java Version: 11.0.1+13-Ubuntu-3ubuntu3.18.10.1
Operating System: Linux
OS Version: 4.18.0-16-generic
Default Encoding: UTF-8
Language: fr
Country: FR
--></g></svg>