<?xml version="1.0" encoding="UTF-8" standalone="no"?><svg xmlns="http://www.w3.org/2000/svg" xmlns:xlink="http://www.w3.org/1999/xlink" contentScriptType="application/ecmascript" contentStyleType="text/css" height="283px" preserveAspectRatio="none" style="width:346px;height:283px;" version="1.1" viewBox="0 0 346 283" width="346px" zoomAndPan="magnify"><defs><filter height="300%" id="f1j3cou3affugu" width="300%" x="-1" y="-1"><feGaussianBlur result="blurOut" stdDeviation="2.0"/><feColorMatrix in="blurOut" result="blurOut2" type="matrix" values="0 0 0 0 0 0 0 0 0 0 0 0 0 0 0 0 0 0 .4 0"/><feOffset dx="4.0" dy="4.0" in="blurOut2" result="blurOut3"/><feBlend in="SourceGraphic" in2="blurOut3" mode="normal"/></filter></defs><g><!--class foo--><rect fill="#FEFECE" filter="url(#f1j3cou3affugu)" height="48" id="foo" style="stroke: #A80036; stroke-width: 1.5;" width="52" x="140.5" y="116"/><ellipse cx="155.5" cy="132" fill="#ADD1B2" rx="11" ry="11" style="stroke: #A80036; stroke-width: 1.0;"/><path d="M158.8438,137.4219 Q157.9844,137.8906 157.2656,138.0625 Q156.5625,138.2344 155.7656,138.2344 Q153.2031,138.2344 151.7969,136.4531 Q150.4063,134.6563 150.4063,131.4688 Q150.4063,128.3125 151.8125,126.5 Q153.2188,124.6875 155.7656,124.6875 Q156.5625,124.6875 157.2656,124.875 Q157.9844,125.0469 158.8438,125.5156 L158.8438,128.1719 Q157.7188,127.2344 157.0625,127 Q156.4063,126.75 155.7656,126.75 Q154.3125,126.75 153.5781,127.8906 Q152.8438,129.0156 152.8438,131.4688 Q152.8438,133.9219 153.5781,135.0625 Q154.3125,136.1875 155.7656,136.1875 Q156.4219,136.1875 157.0625,135.9531 Q157.7188,135.7031 158.8438,134.7656 L158.8438,137.4219 Z "/><text fill="#000000" font-family="sans-serif" font-size="12" lengthAdjust="spacingAndGlyphs" textLength="20" x="169.5" y="136.1543">foo</text><line style="stroke: #A80036; stroke-width: 1.5;" x1="141.5" x2="191.5" y1="148" y2="148"/><line style="stroke: #A80036; stroke-width: 1.5;" x1="141.5" x2="191.5" y1="156" y2="156"/><!--class dummyLeft--><rect fill="#FEFECE" filter="url(#f1j3cou3affugu)" height="48" id="dummyLeft" style="stroke: #A80036; stroke-width: 1.5;" width="99" x="6" y="116"/><ellipse cx="21" cy="132" fill="#ADD1B2" rx="11" ry="11" style="stroke: #A80036; stroke-width: 1.0;"/><path d="M24.3438,137.4219 Q23.4844,137.8906 22.7656,138.0625 Q22.0625,138.2344 21.2656,138.2344 Q18.7031,138.2344 17.2969,136.4531 Q15.9063,134.6563 15.9063,131.4688 Q15.9063,128.3125 17.3125,126.5 Q18.7188,124.6875 21.2656,124.6875 Q22.0625,124.6875 22.7656,124.875 Q23.4844,125.0469 24.3438,125.5156 L24.3438,128.1719 Q23.2188,127.2344 22.5625,127 Q21.9063,126.75 21.2656,126.75 Q19.8125,126.75 19.0781,127.8906 Q18.3438,129.0156 18.3438,131.4688 Q18.3438,133.9219 19.0781,135.0625 Q19.8125,136.1875 21.2656,136.1875 Q21.9219,136.1875 22.5625,135.9531 Q23.2188,135.7031 24.3438,134.7656 L24.3438,137.4219 Z "/><text fill="#000000" font-family="sans-serif" font-size="12" lengthAdjust="spacingAndGlyphs" textLength="67" x="35" y="136.1543">dummyLeft</text><line style="stroke: #A80036; stroke-width: 1.5;" x1="7" x2="104" y1="148" y2="148"/><line style="stroke: #A80036; stroke-width: 1.5;" x1="7" x2="104" y1="156" y2="156"/><!--class dummyRight--><rect fill="#FEFECE" filter="url(#f1j3cou3affugu)" height="48" id="dummyRight" style="stroke: #A80036; stroke-width: 1.5;" width="108" x="227.5" y="116"/><ellipse cx="242.5" cy="132" fill="#ADD1B2" rx="11" ry="11" style="stroke: #A80036; stroke-width: 1.0;"/><path d="M245.8438,137.4219 Q244.9844,137.8906 244.2656,138.0625 Q243.5625,138.2344 242.7656,138.2344 Q240.2031,138.2344 238.7969,136.4531 Q237.4063,134.6563 237.4063,131.4688 Q237.4063,128.3125 238.8125,126.5 Q240.2188,124.6875 242.7656,124.6875 Q243.5625,124.6875 244.2656,124.875 Q244.9844,125.0469 245.8438,125.5156 L245.8438,128.1719 Q244.7188,127.2344 244.0625,127 Q243.4063,126.75 242.7656,126.75 Q241.3125,126.75 240.5781,127.8906 Q239.8438,129.0156 239.8438,131.4688 Q239.8438,133.9219 240.5781,135.0625 Q241.3125,136.1875 242.7656,136.1875 Q243.4219,136.1875 244.0625,135.9531 Q244.7188,135.7031 245.8438,134.7656 L245.8438,137.4219 Z "/><text fill="#000000" font-family="sans-serif" font-size="12" lengthAdjust="spacingAndGlyphs" textLength="76" x="256.5" y="136.1543">dummyRight</text><line style="stroke: #A80036; stroke-width: 1.5;" x1="228.5" x2="334.5" y1="148" y2="148"/><line style="stroke: #A80036; stroke-width: 1.5;" x1="228.5" x2="334.5" y1="156" y2="156"/><!--class dummyUp--><rect fill="#FEFECE" filter="url(#f1j3cou3affugu)" height="48" id="dummyUp" style="stroke: #A80036; stroke-width: 1.5;" width="93" x="120" y="8"/><ellipse cx="135" cy="24" fill="#ADD1B2" rx="11" ry="11" style="stroke: #A80036; stroke-width: 1.0;"/><path d="M138.3438,29.4219 Q137.4844,29.8906 136.7656,30.0625 Q136.0625,30.2344 135.2656,30.2344 Q132.7031,30.2344 131.2969,28.4531 Q129.9063,26.6563 129.9063,23.4688 Q129.9063,20.3125 131.3125,18.5 Q132.7188,16.6875 135.2656,16.6875 Q136.0625,16.6875 136.7656,16.875 Q137.4844,17.0469 138.3438,17.5156 L138.3438,20.1719 Q137.2188,19.2344 136.5625,19 Q135.9063,18.75 135.2656,18.75 Q133.8125,18.75 133.0781,19.8906 Q132.3438,21.0156 132.3438,23.4688 Q132.3438,25.9219 133.0781,27.0625 Q133.8125,28.1875 135.2656,28.1875 Q135.9219,28.1875 136.5625,27.9531 Q137.2188,27.7031 138.3438,26.7656 L138.3438,29.4219 Z "/><text fill="#000000" font-family="sans-serif" font-size="12" lengthAdjust="spacingAndGlyphs" textLength="61" x="149" y="28.1543">dummyUp</text><line style="stroke: #A80036; stroke-width: 1.5;" x1="121" x2="212" y1="40" y2="40"/><line style="stroke: #A80036; stroke-width: 1.5;" x1="121" x2="212" y1="48" y2="48"/><!--class dummyDown--><rect fill="#FEFECE" filter="url(#f1j3cou3affugu)" height="48" id="dummyDown" style="stroke: #A80036; stroke-width: 1.5;" width="110" x="111.5" y="224"/><ellipse cx="126.5" cy="240" fill="#ADD1B2" rx="11" ry="11" style="stroke: #A80036; stroke-width: 1.0;"/><path d="M129.8438,245.4219 Q128.9844,245.8906 128.2656,246.0625 Q127.5625,246.2344 126.7656,246.2344 Q124.2031,246.2344 122.7969,244.4531 Q121.4063,242.6563 121.4063,239.4688 Q121.4063,236.3125 122.8125,234.5 Q124.2188,232.6875 126.7656,232.6875 Q127.5625,232.6875 128.2656,232.875 Q128.9844,233.0469 129.8438,233.5156 L129.8438,236.1719 Q128.7188,235.2344 128.0625,235 Q127.4063,234.75 126.7656,234.75 Q125.3125,234.75 124.5781,235.8906 Q123.8438,237.0156 123.8438,239.4688 Q123.8438,241.9219 124.5781,243.0625 Q125.3125,244.1875 126.7656,244.1875 Q127.4219,244.1875 128.0625,243.9531 Q128.7188,243.7031 129.8438,242.7656 L129.8438,245.4219 Z "/><text fill="#000000" font-family="sans-serif" font-size="12" lengthAdjust="spacingAndGlyphs" textLength="78" x="140.5" y="244.1543">dummyDown</text><line style="stroke: #A80036; stroke-width: 1.5;" x1="112.5" x2="220.5" y1="256" y2="256"/><line style="stroke: #A80036; stroke-width: 1.5;" x1="112.5" x2="220.5" y1="264" y2="264"/><!--link dummyLeft to foo--><path d="M110.5389,140 C120.436,140 130.3332,140 140.2303,140 " fill="none" id="dummyLeft-foo" style="stroke: #A80036; stroke-width: 1.0;"/><polygon fill="#A80036" points="105.3633,140,114.3633,144,110.3633,140,114.3633,136,105.3633,140" style="stroke: #A80036; stroke-width: 1.0;"/><!--link foo to dummyRight--><path d="M192.5547,140 C202.417,140 212.2793,140 222.1416,140 " fill="none" id="foo-dummyRight" style="stroke: #A80036; stroke-width: 1.0;"/><polygon fill="#A80036" points="227.299,140,218.299,136,222.299,140,218.299,144,227.299,140" style="stroke: #A80036; stroke-width: 1.0;"/><!--link dummyUp to foo--><path d="M166.5,61.3947 C166.5,78.4785 166.5,99.7416 166.5,115.8436 " fill="none" id="dummyUp-foo" style="stroke: #A80036; stroke-width: 1.0;"/><polygon fill="#A80036" points="166.5,56.2373,162.5,65.2373,166.5,61.2373,170.5,65.2373,166.5,56.2373" style="stroke: #A80036; stroke-width: 1.0;"/><!--link foo to dummyDown--><path d="M166.5,164.2373 C166.5,180.3565 166.5,201.6212 166.5,218.6911 " fill="none" id="foo-dummyDown" style="stroke: #A80036; stroke-width: 1.0;"/><polygon fill="#A80036" points="166.5,223.8436,170.5,214.8436,166.5,218.8436,162.5,214.8436,166.5,223.8436" style="stroke: #A80036; stroke-width: 1.0;"/><!--
@startuml
foo -left-> dummyLeft
foo -right-> dummyRight
foo -up-> dummyUp
foo -down-> dummyDown
@enduml

PlantUML version 1.2019.01(Sat Feb 09 16:32:04 CET 2019)
(GPL source distribution)
Java Runtime: OpenJDK Runtime Environment
JVM: OpenJDK 64-Bit Server VM
Java Version: 11.0.1+13-Ubuntu-3ubuntu3.18.10.1
Operating System: Linux
OS Version: 4.18.0-16-generic
Default Encoding: UTF-8
Language: fr
Country: FR
--></g></svg>