<?xml version="1.0" encoding="UTF-8" standalone="no"?><svg xmlns="http://www.w3.org/2000/svg" xmlns:xlink="http://www.w3.org/1999/xlink" contentScriptType="application/ecmascript" contentStyleType="text/css" height="192px" preserveAspectRatio="none" style="width:255px;height:192px;" version="1.1" viewBox="0 0 255 192" width="255px" zoomAndPan="magnify"><defs><filter height="300%" id="f17h9ah5zj3wtj" width="300%" x="-1" y="-1"><feGaussianBlur result="blurOut" stdDeviation="2.0"/><feColorMatrix in="blurOut" result="blurOut2" type="matrix" values="0 0 0 0 0 0 0 0 0 0 0 0 0 0 0 0 0 0 .4 0"/><feOffset dx="4.0" dy="4.0" in="blurOut2" result="blurOut3"/><feBlend in="SourceGraphic" in2="blurOut3" mode="normal"/></filter></defs><g><!--class Class01--><rect fill="#98FB98" filter="url(#f17h9ah5zj3wtj)" height="48" id="Class01" style="stroke: #00FF7F; stroke-width: 1.5;" width="81" x="16.5" y="8"/><ellipse cx="31.5" cy="24" fill="#9ACD32" rx="11" ry="11" style="stroke: #00FF7F; stroke-width: 1.0;"/><path d="M34.8438,29.4219 Q33.9844,29.8906 33.2656,30.0625 Q32.5625,30.2344 31.7656,30.2344 Q29.2031,30.2344 27.7969,28.4531 Q26.4063,26.6563 26.4063,23.4688 Q26.4063,20.3125 27.8125,18.5 Q29.2188,16.6875 31.7656,16.6875 Q32.5625,16.6875 33.2656,16.875 Q33.9844,17.0469 34.8438,17.5156 L34.8438,20.1719 Q33.7188,19.2344 33.0625,19 Q32.4063,18.75 31.7656,18.75 Q30.3125,18.75 29.5781,19.8906 Q28.8438,21.0156 28.8438,23.4688 Q28.8438,25.9219 29.5781,27.0625 Q30.3125,28.1875 31.7656,28.1875 Q32.4219,28.1875 33.0625,27.9531 Q33.7188,27.7031 34.8438,26.7656 L34.8438,29.4219 Z "/><text fill="#000000" font-family="sans-serif" font-size="12" lengthAdjust="spacingAndGlyphs" textLength="49" x="45.5" y="28.1543">Class01</text><line style="stroke: #00FF7F; stroke-width: 1.5;" x1="17.5" x2="96.5" y1="40" y2="40"/><line style="stroke: #00FF7F; stroke-width: 1.5;" x1="17.5" x2="96.5" y1="48" y2="48"/><!--class Class02--><rect fill="#98FB98" filter="url(#f17h9ah5zj3wtj)" height="48" id="Class02" style="stroke: #00FF7F; stroke-width: 1.5;" width="81" x="16.5" y="133"/><ellipse cx="31.5" cy="149" fill="#9ACD32" rx="11" ry="11" style="stroke: #00FF7F; stroke-width: 1.0;"/><path d="M34.8438,154.4219 Q33.9844,154.8906 33.2656,155.0625 Q32.5625,155.2344 31.7656,155.2344 Q29.2031,155.2344 27.7969,153.4531 Q26.4063,151.6563 26.4063,148.4688 Q26.4063,145.3125 27.8125,143.5 Q29.2188,141.6875 31.7656,141.6875 Q32.5625,141.6875 33.2656,141.875 Q33.9844,142.0469 34.8438,142.5156 L34.8438,145.1719 Q33.7188,144.2344 33.0625,144 Q32.4063,143.75 31.7656,143.75 Q30.3125,143.75 29.5781,144.8906 Q28.8438,146.0156 28.8438,148.4688 Q28.8438,150.9219 29.5781,152.0625 Q30.3125,153.1875 31.7656,153.1875 Q32.4219,153.1875 33.0625,152.9531 Q33.7188,152.7031 34.8438,151.7656 L34.8438,154.4219 Z "/><text fill="#000000" font-family="sans-serif" font-size="12" lengthAdjust="spacingAndGlyphs" textLength="49" x="45.5" y="153.1543">Class02</text><line style="stroke: #00FF7F; stroke-width: 1.5;" x1="17.5" x2="96.5" y1="165" y2="165"/><line style="stroke: #00FF7F; stroke-width: 1.5;" x1="17.5" x2="96.5" y1="173" y2="173"/><!--class Class03--><rect fill="#98FB98" filter="url(#f17h9ah5zj3wtj)" height="48" id="Class03" style="stroke: #00FF7F; stroke-width: 1.5;" width="81" x="132.5" y="8"/><ellipse cx="147.5" cy="24" fill="#9ACD32" rx="11" ry="11" style="stroke: #00FF7F; stroke-width: 1.0;"/><path d="M150.8438,29.4219 Q149.9844,29.8906 149.2656,30.0625 Q148.5625,30.2344 147.7656,30.2344 Q145.2031,30.2344 143.7969,28.4531 Q142.4063,26.6563 142.4063,23.4688 Q142.4063,20.3125 143.8125,18.5 Q145.2188,16.6875 147.7656,16.6875 Q148.5625,16.6875 149.2656,16.875 Q149.9844,17.0469 150.8438,17.5156 L150.8438,20.1719 Q149.7188,19.2344 149.0625,19 Q148.4063,18.75 147.7656,18.75 Q146.3125,18.75 145.5781,19.8906 Q144.8438,21.0156 144.8438,23.4688 Q144.8438,25.9219 145.5781,27.0625 Q146.3125,28.1875 147.7656,28.1875 Q148.4219,28.1875 149.0625,27.9531 Q149.7188,27.7031 150.8438,26.7656 L150.8438,29.4219 Z "/><text fill="#000000" font-family="sans-serif" font-size="12" lengthAdjust="spacingAndGlyphs" textLength="49" x="161.5" y="28.1543">Class03</text><line style="stroke: #00FF7F; stroke-width: 1.5;" x1="133.5" x2="212.5" y1="40" y2="40"/><line style="stroke: #00FF7F; stroke-width: 1.5;" x1="133.5" x2="212.5" y1="48" y2="48"/><!--class Class04--><rect fill="#98FB98" filter="url(#f17h9ah5zj3wtj)" height="48" id="Class04" style="stroke: #00FF7F; stroke-width: 1.5;" width="81" x="132.5" y="133"/><ellipse cx="147.5" cy="149" fill="#9ACD32" rx="11" ry="11" style="stroke: #00FF7F; stroke-width: 1.0;"/><path d="M150.8438,154.4219 Q149.9844,154.8906 149.2656,155.0625 Q148.5625,155.2344 147.7656,155.2344 Q145.2031,155.2344 143.7969,153.4531 Q142.4063,151.6563 142.4063,148.4688 Q142.4063,145.3125 143.8125,143.5 Q145.2188,141.6875 147.7656,141.6875 Q148.5625,141.6875 149.2656,141.875 Q149.9844,142.0469 150.8438,142.5156 L150.8438,145.1719 Q149.7188,144.2344 149.0625,144 Q148.4063,143.75 147.7656,143.75 Q146.3125,143.75 145.5781,144.8906 Q144.8438,146.0156 144.8438,148.4688 Q144.8438,150.9219 145.5781,152.0625 Q146.3125,153.1875 147.7656,153.1875 Q148.4219,153.1875 149.0625,152.9531 Q149.7188,152.7031 150.8438,151.7656 L150.8438,154.4219 Z "/><text fill="#000000" font-family="sans-serif" font-size="12" lengthAdjust="spacingAndGlyphs" textLength="49" x="161.5" y="153.1543">Class04</text><line style="stroke: #00FF7F; stroke-width: 1.5;" x1="133.5" x2="212.5" y1="165" y2="165"/><line style="stroke: #00FF7F; stroke-width: 1.5;" x1="133.5" x2="212.5" y1="173" y2="173"/><!--link Class01 to Class02--><path d="M57,69.2235 C57,89.8612 57,114.921 57,132.9727 " fill="none" id="Class01-Class02" style="stroke: #2E8B57; stroke-width: 1.0;"/><polygon fill="#2E8B57" points="57,56.1013,53,62.1013,57,68.1013,61,62.1013,57,56.1013" style="stroke: #2E8B57; stroke-width: 1.0;"/><text fill="#000000" font-family="sans-serif" font-size="13" lengthAdjust="spacingAndGlyphs" textLength="54" x="58" y="99.0669">contains</text><text fill="#000000" font-family="sans-serif" font-size="13" lengthAdjust="spacingAndGlyphs" textLength="8" x="48.025" y="75.8872">1</text><text fill="#000000" font-family="sans-serif" font-size="13" lengthAdjust="spacingAndGlyphs" textLength="36" x="16.3875" y="121.9777">many</text><!--link Class03 to Class04--><path d="M173,69.2235 C173,89.8612 173,114.921 173,132.9727 " fill="none" id="Class03-Class04" style="stroke: #2E8B57; stroke-width: 1.0;"/><polygon fill="#FFFFFF" points="173,56.1013,169,62.1013,173,68.1013,177,62.1013,173,56.1013" style="stroke: #2E8B57; stroke-width: 1.0;"/><text fill="#000000" font-family="sans-serif" font-size="13" lengthAdjust="spacingAndGlyphs" textLength="69" x="174" y="99.0669">agregation</text><!--
@startuml
skinparam class {
    BackgroundColor PaleGreen
    ArrowColor SeaGreen
    BorderColor SpringGreen
}
skinparam stereotypeCBackgroundColor YellowGreen

Class01 "1" *- - "many" Class02 : contains

Class03 o- - Class04 : agregation
@enduml

PlantUML version 1.2019.01(Sat Feb 09 16:32:04 CET 2019)
(GPL source distribution)
Java Runtime: OpenJDK Runtime Environment
JVM: OpenJDK 64-Bit Server VM
Java Version: 11.0.1+13-Ubuntu-3ubuntu3.18.10.1
Operating System: Linux
OS Version: 4.18.0-16-generic
Default Encoding: UTF-8
Language: fr
Country: FR
--></g></svg>