<?xml version="1.0" encoding="UTF-8" standalone="no"?><svg xmlns="http://www.w3.org/2000/svg" xmlns:xlink="http://www.w3.org/1999/xlink" contentScriptType="application/ecmascript" contentStyleType="text/css" height="389px" preserveAspectRatio="none" style="width:628px;height:389px;" version="1.1" viewBox="0 0 628 389" width="628px" zoomAndPan="magnify"><defs><filter height="300%" id="f1h7i6iawattej" width="300%" x="-1" y="-1"><feGaussianBlur result="blurOut" stdDeviation="2.0"/><feColorMatrix in="blurOut" result="blurOut2" type="matrix" values="0 0 0 0 0 0 0 0 0 0 0 0 0 0 0 0 0 0 .4 0"/><feOffset dx="4.0" dy="4.0" in="blurOut2" result="blurOut3"/><feBlend in="SourceGraphic" in2="blurOut3" mode="normal"/></filter></defs><g><!--class Object--><rect fill="#FEFECE" filter="url(#f1h7i6iawattej)" height="53.9375" id="Object" style="stroke: #A80036; stroke-width: 1.5;" width="90" x="309.5" y="116"/><ellipse cx="324.5" cy="134.9688" fill="#ADD1B2" rx="11" ry="11" style="stroke: #A80036; stroke-width: 1.0;"/><path d="M327.8438,140.3906 Q326.9844,140.8594 326.2656,141.0313 Q325.5625,141.2031 324.7656,141.2031 Q322.2031,141.2031 320.7969,139.4219 Q319.4063,137.625 319.4063,134.4375 Q319.4063,131.2813 320.8125,129.4688 Q322.2188,127.6563 324.7656,127.6563 Q325.5625,127.6563 326.2656,127.8438 Q326.9844,128.0156 327.8438,128.4844 L327.8438,131.1406 Q326.7188,130.2031 326.0625,129.9688 Q325.4063,129.7188 324.7656,129.7188 Q323.3125,129.7188 322.5781,130.8594 Q321.8438,131.9844 321.8438,134.4375 Q321.8438,136.8906 322.5781,138.0313 Q323.3125,139.1563 324.7656,139.1563 Q325.4219,139.1563 326.0625,138.9219 Q326.7188,138.6719 327.8438,137.7344 L327.8438,140.3906 Z "/><text fill="#000000" font-family="sans-serif" font-size="12" font-style="italic" lengthAdjust="spacingAndGlyphs" textLength="62" x="336.5" y="132.1387">«general»</text><text fill="#000000" font-family="sans-serif" font-size="12" lengthAdjust="spacingAndGlyphs" textLength="40" x="347.5" y="146.1074">Object</text><line style="stroke: #A80036; stroke-width: 1.5;" x1="310.5" x2="398.5" y1="153.9375" y2="153.9375"/><line style="stroke: #A80036; stroke-width: 1.5;" x1="310.5" x2="398.5" y1="161.9375" y2="161.9375"/><!--class ArrayList--><rect fill="#FEFECE" filter="url(#f1h7i6iawattej)" height="48" id="ArrayList" style="stroke: #A80036; stroke-width: 1.5;" width="85" x="312" y="330"/><ellipse cx="327" cy="346" fill="#ADD1B2" rx="11" ry="11" style="stroke: #A80036; stroke-width: 1.0;"/><path d="M330.3438,351.4219 Q329.4844,351.8906 328.7656,352.0625 Q328.0625,352.2344 327.2656,352.2344 Q324.7031,352.2344 323.2969,350.4531 Q321.9063,348.6563 321.9063,345.4688 Q321.9063,342.3125 323.3125,340.5 Q324.7188,338.6875 327.2656,338.6875 Q328.0625,338.6875 328.7656,338.875 Q329.4844,339.0469 330.3438,339.5156 L330.3438,342.1719 Q329.2188,341.2344 328.5625,341 Q327.9063,340.75 327.2656,340.75 Q325.8125,340.75 325.0781,341.8906 Q324.3438,343.0156 324.3438,345.4688 Q324.3438,347.9219 325.0781,349.0625 Q325.8125,350.1875 327.2656,350.1875 Q327.9219,350.1875 328.5625,349.9531 Q329.2188,349.7031 330.3438,348.7656 L330.3438,351.4219 Z "/><text fill="#000000" font-family="sans-serif" font-size="12" lengthAdjust="spacingAndGlyphs" textLength="53" x="341" y="350.1543">ArrayList</text><line style="stroke: #A80036; stroke-width: 1.5;" x1="313" x2="396" y1="362" y2="362"/><line style="stroke: #A80036; stroke-width: 1.5;" x1="313" x2="396" y1="370" y2="370"/><path d="M284,12 L284,52.2656 A0,0 0 0 0 284,52.2656 L350.5,52.2656 L354.5,115.9473 L358.5,52.2656 L425,52.2656 A0,0 0 0 0 425,52.2656 L425,22 L415,12 L284,12 A0,0 0 0 0 284,12 " fill="#FBFB77" filter="url(#f1h7i6iawattej)" style="stroke: #A80036; stroke-width: 1.0;"/><path d="M415,12 L415,22 L425,22 L415,12 " fill="#FBFB77" style="stroke: #A80036; stroke-width: 1.0;"/><text fill="#000000" font-family="sans-serif" font-size="13" lengthAdjust="spacingAndGlyphs" textLength="120" x="290" y="29.0669">In java, every class</text><text fill="#000000" font-family="sans-serif" font-size="13" lengthAdjust="spacingAndGlyphs" textLength="110" x="290" y="44.1997">extends this one.</text><path d="M460.5,19.5 L460.5,44.6328 L616.5,44.6328 L616.5,29.5 L606.5,19.5 L460.5,19.5 " fill="#FBFB77" filter="url(#f1h7i6iawattej)" style="stroke: #A80036; stroke-width: 1.0;"/><path d="M606.5,19.5 L606.5,29.5 L616.5,29.5 L606.5,19.5 " fill="#FBFB77" style="stroke: #A80036; stroke-width: 1.0;"/><text fill="#000000" font-family="sans-serif" font-size="13" lengthAdjust="spacingAndGlyphs" textLength="135" x="466.5" y="36.5669">This is a floating note</text><path d="M340.5,230 L340.5,270.2656 L504.5,270.2656 L504.5,240 L494.5,230 L340.5,230 " fill="#FBFB77" filter="url(#f1h7i6iawattej)" style="stroke: #A80036; stroke-width: 1.0;"/><path d="M494.5,230 L494.5,240 L504.5,240 L494.5,230 " fill="#FBFB77" style="stroke: #A80036; stroke-width: 1.0;"/><text fill="#000000" font-family="sans-serif" font-size="13" lengthAdjust="spacingAndGlyphs" textLength="143" x="346.5" y="247.0669">This note is connected</text><text fill="#000000" font-family="sans-serif" font-size="13" lengthAdjust="spacingAndGlyphs" textLength="117" x="346.5" y="262.1997">to several objects.</text><!--class Foo--><rect fill="#FEFECE" filter="url(#f1h7i6iawattej)" height="48" id="Foo" style="stroke: #A80036; stroke-width: 1.5;" width="55" x="194" y="8"/><ellipse cx="209" cy="24" fill="#ADD1B2" rx="11" ry="11" style="stroke: #A80036; stroke-width: 1.0;"/><path d="M212.3438,29.4219 Q211.4844,29.8906 210.7656,30.0625 Q210.0625,30.2344 209.2656,30.2344 Q206.7031,30.2344 205.2969,28.4531 Q203.9063,26.6563 203.9063,23.4688 Q203.9063,20.3125 205.3125,18.5 Q206.7188,16.6875 209.2656,16.6875 Q210.0625,16.6875 210.7656,16.875 Q211.4844,17.0469 212.3438,17.5156 L212.3438,20.1719 Q211.2188,19.2344 210.5625,19 Q209.9063,18.75 209.2656,18.75 Q207.8125,18.75 207.0781,19.8906 Q206.3438,21.0156 206.3438,23.4688 Q206.3438,25.9219 207.0781,27.0625 Q207.8125,28.1875 209.2656,28.1875 Q209.9219,28.1875 210.5625,27.9531 Q211.2188,27.7031 212.3438,26.7656 L212.3438,29.4219 Z "/><text fill="#000000" font-family="sans-serif" font-size="12" lengthAdjust="spacingAndGlyphs" textLength="23" x="223" y="28.1543">Foo</text><line style="stroke: #A80036; stroke-width: 1.5;" x1="195" x2="248" y1="40" y2="40"/><line style="stroke: #A80036; stroke-width: 1.5;" x1="195" x2="248" y1="48" y2="48"/><path d="M6,19.5 L6,44.6328 A0,0 0 0 0 6,44.6328 L159,44.6328 A0,0 0 0 0 159,44.6328 L159,37.5 L193.6941,32 L159,29.5 L159,29.5 L149,19.5 L6,19.5 A0,0 0 0 0 6,19.5 " fill="#FBFB77" filter="url(#f1h7i6iawattej)" style="stroke: #A80036; stroke-width: 1.0;"/><path d="M149,19.5 L149,29.5 L159,29.5 L149,19.5 " fill="#FBFB77" style="stroke: #A80036; stroke-width: 1.0;"/><text fill="#000000" font-family="sans-serif" font-size="13" lengthAdjust="spacingAndGlyphs" textLength="132" x="12" y="36.5669">On last defined class</text><!--link Object to ArrayList--><path d="M333.756,188.9921 C325.3615,212.984 318.6601,242.9065 323.5,270 C327.2177,290.8114 335.7343,313.2177 342.9018,329.6508 " fill="none" id="Object-ArrayList" style="stroke: #A80036; stroke-width: 1.0;"/><polygon fill="none" points="327.3603,186.1262,341.1547,170.0415,340.4016,191.2178,327.3603,186.1262" style="stroke: #A80036; stroke-width: 1.0;"/><!--link Object to N2--><path d="M371.6593,170.0006 C383.4627,188.5736 398.8887,212.847 409.6398,229.7641 " fill="none" id="Object-N2" style="stroke: #A80036; stroke-width: 1.0; stroke-dasharray: 7.0,7.0;"/><!--link N2 to ArrayList--><path d="M409.3889,270.0522 C398.1967,287.1697 382.0739,311.8281 370.1966,329.9934 " fill="none" id="N2-ArrayList" style="stroke: #A80036; stroke-width: 1.0; stroke-dasharray: 7.0,7.0;"/><!--
@startuml
class Object << general >>
Object <|- - - ArrayList

note top of Object : In java, every class\nextends this one.

note "This is a floating note" as N1
note "This note is connected\nto several objects." as N2
Object .. N2
N2 .. ArrayList

class Foo
note left: On last defined class
@enduml

PlantUML version 1.2019.01(Sat Feb 09 16:32:04 CET 2019)
(GPL source distribution)
Java Runtime: OpenJDK Runtime Environment
JVM: OpenJDK 64-Bit Server VM
Java Version: 11.0.1+13-Ubuntu-3ubuntu3.18.10.1
Operating System: Linux
OS Version: 4.18.0-16-generic
Default Encoding: UTF-8
Language: fr
Country: FR
--></g></svg>