<?xml version="1.0" encoding="UTF-8" standalone="no"?><svg xmlns="http://www.w3.org/2000/svg" xmlns:xlink="http://www.w3.org/1999/xlink" contentScriptType="application/ecmascript" contentStyleType="text/css" height="175px" preserveAspectRatio="none" style="width:204px;height:175px;" version="1.1" viewBox="0 0 204 175" width="204px" zoomAndPan="magnify"><defs><filter height="300%" id="f1nsib0jex0x2f" width="300%" x="-1" y="-1"><feGaussianBlur result="blurOut" stdDeviation="2.0"/><feColorMatrix in="blurOut" result="blurOut2" type="matrix" values="0 0 0 0 0 0 0 0 0 0 0 0 0 0 0 0 0 0 .4 0"/><feOffset dx="4.0" dy="4.0" in="blurOut2" result="blurOut3"/><feBlend in="SourceGraphic" in2="blurOut3" mode="normal"/></filter></defs><g><!--class Room--><rect fill="#FEFECE" filter="url(#f1nsib0jex0x2f)" height="48" id="Room" style="stroke: #A80036; stroke-width: 1.5;" width="67" x="6" y="8"/><ellipse cx="21" cy="24" fill="#ADD1B2" rx="11" ry="11" style="stroke: #A80036; stroke-width: 1.0;"/><path d="M24.3438,29.4219 Q23.4844,29.8906 22.7656,30.0625 Q22.0625,30.2344 21.2656,30.2344 Q18.7031,30.2344 17.2969,28.4531 Q15.9063,26.6563 15.9063,23.4688 Q15.9063,20.3125 17.3125,18.5 Q18.7188,16.6875 21.2656,16.6875 Q22.0625,16.6875 22.7656,16.875 Q23.4844,17.0469 24.3438,17.5156 L24.3438,20.1719 Q23.2188,19.2344 22.5625,19 Q21.9063,18.75 21.2656,18.75 Q19.8125,18.75 19.0781,19.8906 Q18.3438,21.0156 18.3438,23.4688 Q18.3438,25.9219 19.0781,27.0625 Q19.8125,28.1875 21.2656,28.1875 Q21.9219,28.1875 22.5625,27.9531 Q23.2188,27.7031 24.3438,26.7656 L24.3438,29.4219 Z "/><text fill="#000000" font-family="sans-serif" font-size="12" lengthAdjust="spacingAndGlyphs" textLength="35" x="35" y="28.1543">Room</text><line style="stroke: #A80036; stroke-width: 1.5;" x1="7" x2="72" y1="40" y2="40"/><line style="stroke: #A80036; stroke-width: 1.5;" x1="7" x2="72" y1="48" y2="48"/><!--class Studient--><rect fill="#FEFECE" filter="url(#f1nsib0jex0x2f)" height="48" id="Studient" style="stroke: #A80036; stroke-width: 1.5;" width="85" x="108" y="8"/><ellipse cx="123" cy="24" fill="#ADD1B2" rx="11" ry="11" style="stroke: #A80036; stroke-width: 1.0;"/><path d="M126.3438,29.4219 Q125.4844,29.8906 124.7656,30.0625 Q124.0625,30.2344 123.2656,30.2344 Q120.7031,30.2344 119.2969,28.4531 Q117.9063,26.6563 117.9063,23.4688 Q117.9063,20.3125 119.3125,18.5 Q120.7188,16.6875 123.2656,16.6875 Q124.0625,16.6875 124.7656,16.875 Q125.4844,17.0469 126.3438,17.5156 L126.3438,20.1719 Q125.2188,19.2344 124.5625,19 Q123.9063,18.75 123.2656,18.75 Q121.8125,18.75 121.0781,19.8906 Q120.3438,21.0156 120.3438,23.4688 Q120.3438,25.9219 121.0781,27.0625 Q121.8125,28.1875 123.2656,28.1875 Q123.9219,28.1875 124.5625,27.9531 Q125.2188,27.7031 126.3438,26.7656 L126.3438,29.4219 Z "/><text fill="#000000" font-family="sans-serif" font-size="12" lengthAdjust="spacingAndGlyphs" textLength="53" x="137" y="28.1543">Studient</text><line style="stroke: #A80036; stroke-width: 1.5;" x1="109" x2="192" y1="40" y2="40"/><line style="stroke: #A80036; stroke-width: 1.5;" x1="109" x2="192" y1="48" y2="48"/><!--class Chair--><rect fill="#FEFECE" filter="url(#f1nsib0jex0x2f)" height="48" id="Chair" style="stroke: #A80036; stroke-width: 1.5;" width="64" x="7.5" y="116"/><ellipse cx="22.5" cy="132" fill="#ADD1B2" rx="11" ry="11" style="stroke: #A80036; stroke-width: 1.0;"/><path d="M25.8438,137.4219 Q24.9844,137.8906 24.2656,138.0625 Q23.5625,138.2344 22.7656,138.2344 Q20.2031,138.2344 18.7969,136.4531 Q17.4063,134.6563 17.4063,131.4688 Q17.4063,128.3125 18.8125,126.5 Q20.2188,124.6875 22.7656,124.6875 Q23.5625,124.6875 24.2656,124.875 Q24.9844,125.0469 25.8438,125.5156 L25.8438,128.1719 Q24.7188,127.2344 24.0625,127 Q23.4063,126.75 22.7656,126.75 Q21.3125,126.75 20.5781,127.8906 Q19.8438,129.0156 19.8438,131.4688 Q19.8438,133.9219 20.5781,135.0625 Q21.3125,136.1875 22.7656,136.1875 Q23.4219,136.1875 24.0625,135.9531 Q24.7188,135.7031 25.8438,134.7656 L25.8438,137.4219 Z "/><text fill="#000000" font-family="sans-serif" font-size="12" lengthAdjust="spacingAndGlyphs" textLength="32" x="36.5" y="136.1543">Chair</text><line style="stroke: #A80036; stroke-width: 1.5;" x1="8.5" x2="70.5" y1="148" y2="148"/><line style="stroke: #A80036; stroke-width: 1.5;" x1="8.5" x2="70.5" y1="156" y2="156"/><!--link Room to Studient--><path d="M86.3218,32 C93.5448,32 100.7678,32 107.9909,32 " fill="none" id="Room-Studient" style="stroke: #A80036; stroke-width: 1.0;"/><polygon fill="#FFFFFF" points="73.3203,32,79.3203,36,85.3203,32,79.3203,28,73.3203,32" style="stroke: #A80036; stroke-width: 1.0;"/><!--link Room to Chair--><path d="M39.5,69.6145 C39.5,84.9531 39.5,102.2402 39.5,115.8436 " fill="none" id="Room-Chair" style="stroke: #A80036; stroke-width: 1.0;"/><polygon fill="#A80036" points="39.5,56.2373,35.5,62.2373,39.5,68.2373,43.5,62.2373,39.5,56.2373" style="stroke: #A80036; stroke-width: 1.0;"/><!--
@startuml
Room o- Studient
Room *- - Chair
@enduml

PlantUML version 1.2019.01(Sat Feb 09 16:32:04 CET 2019)
(GPL source distribution)
Java Runtime: OpenJDK Runtime Environment
JVM: OpenJDK 64-Bit Server VM
Java Version: 11.0.1+13-Ubuntu-3ubuntu3.18.10.1
Operating System: Linux
OS Version: 4.18.0-16-generic
Default Encoding: UTF-8
Language: fr
Country: FR
--></g></svg>