<?xml version="1.0" encoding="UTF-8" standalone="no"?><svg xmlns="http://www.w3.org/2000/svg" xmlns:xlink="http://www.w3.org/1999/xlink" contentScriptType="application/ecmascript" contentStyleType="text/css" height="188px" preserveAspectRatio="none" style="width:193px;height:188px;" version="1.1" viewBox="0 0 193 188" width="193px" zoomAndPan="magnify"><defs><filter height="300%" id="f1ij1uh4pvpzbf" width="300%" x="-1" y="-1"><feGaussianBlur result="blurOut" stdDeviation="2.0"/><feColorMatrix in="blurOut" result="blurOut2" type="matrix" values="0 0 0 0 0 0 0 0 0 0 0 0 0 0 0 0 0 0 .4 0"/><feOffset dx="4.0" dy="4.0" in="blurOut2" result="blurOut3"/><feBlend in="SourceGraphic" in2="blurOut3" mode="normal"/></filter></defs><g><!--cluster foo1.foo2.foo3--><rect fill="#FFFFFF" filter="url(#f1ij1uh4pvpzbf)" height="83" style="stroke: #000000; stroke-width: 1.5;" width="131" x="14" y="94"/><text fill="#000000" font-family="sans-serif" font-size="14" font-weight="bold" lengthAdjust="spacingAndGlyphs" textLength="115" x="22" y="108.9951">foo1.foo2.foo3</text><rect fill="#FFFFFF" filter="url(#f1ij1uh4pvpzbf)" height="52.5938" style="stroke: #000000; stroke-width: 1.5;" width="95" x="87.5" y="8"/><text fill="#000000" font-family="sans-serif" font-size="14" font-weight="bold" lengthAdjust="spacingAndGlyphs" textLength="75" x="97.5" y="22.9951">foo1.foo2</text><!--class Object--><rect fill="#FEFECE" filter="url(#f1ij1uh4pvpzbf)" height="48" id="Object" style="stroke: #A80036; stroke-width: 1.5;" width="72" x="26" y="121"/><ellipse cx="41" cy="137" fill="#ADD1B2" rx="11" ry="11" style="stroke: #A80036; stroke-width: 1.0;"/><path d="M44.3438,142.4219 Q43.4844,142.8906 42.7656,143.0625 Q42.0625,143.2344 41.2656,143.2344 Q38.7031,143.2344 37.2969,141.4531 Q35.9063,139.6563 35.9063,136.4688 Q35.9063,133.3125 37.3125,131.5 Q38.7188,129.6875 41.2656,129.6875 Q42.0625,129.6875 42.7656,129.875 Q43.4844,130.0469 44.3438,130.5156 L44.3438,133.1719 Q43.2188,132.2344 42.5625,132 Q41.9063,131.75 41.2656,131.75 Q39.8125,131.75 39.0781,132.8906 Q38.3438,134.0156 38.3438,136.4688 Q38.3438,138.9219 39.0781,140.0625 Q39.8125,141.1875 41.2656,141.1875 Q41.9219,141.1875 42.5625,140.9531 Q43.2188,140.7031 44.3438,139.7656 L44.3438,142.4219 Z "/><text fill="#000000" font-family="sans-serif" font-size="12" lengthAdjust="spacingAndGlyphs" textLength="40" x="55" y="141.1543">Object</text><line style="stroke: #A80036; stroke-width: 1.5;" x1="27" x2="97" y1="153" y2="153"/><line style="stroke: #A80036; stroke-width: 1.5;" x1="27" x2="97" y1="161" y2="161"/><!--link foo1.foo2 to foo1.foo2.foo3--><path d="M135,76.5831 C135,80.2009 135,83.8986 135,87.6092 C135,89.4645 135,91.323 135,93.1764 C135,93.4081 135,93.6397 135,93.8712 " fill="none" id="foo1.foo2-foo1.foo2.foo3" style="stroke: #A80036; stroke-width: 1.0;"/><ellipse cx="135.0001" cy="69.249" fill="#FFFFFF" rx="8" ry="8" style="stroke: #A80036; stroke-width: 1.0;"/><line style="stroke: #A80036; stroke-width: 1.0;" x1="135.0002" x2="135" y1="77.249" y2="61.249"/><line style="stroke: #A80036; stroke-width: 1.0;" x1="127.0001" x2="143.0001" y1="69.2491" y2="69.2489"/><!--
@startuml
skinparam packageStyle rect

package foo1.foo2 {
}

package foo1.foo2.foo3 {
    class Object
}

foo1.foo2 +- - foo1.foo2.foo3
@enduml

PlantUML version 1.2019.01(Sat Feb 09 16:32:04 CET 2019)
(GPL source distribution)
Java Runtime: OpenJDK Runtime Environment
JVM: OpenJDK 64-Bit Server VM
Java Version: 11.0.1+13-Ubuntu-3ubuntu3.18.10.1
Operating System: Linux
OS Version: 4.18.0-16-generic
Default Encoding: UTF-8
Language: fr
Country: FR
--></g></svg>