<?xml version="1.0" encoding="UTF-8" standalone="no"?><svg xmlns="http://www.w3.org/2000/svg" xmlns:xlink="http://www.w3.org/1999/xlink" contentScriptType="application/ecmascript" contentStyleType="text/css" height="213px" preserveAspectRatio="none" style="width:149px;height:213px;" version="1.1" viewBox="0 0 149 213" width="149px" zoomAndPan="magnify"><defs><filter height="300%" id="f117g7dxaywto9" width="300%" x="-1" y="-1"><feGaussianBlur result="blurOut" stdDeviation="2.0"/><feColorMatrix in="blurOut" result="blurOut2" type="matrix" values="0 0 0 0 0 0 0 0 0 0 0 0 0 0 0 0 0 0 .4 0"/><feOffset dx="4.0" dy="4.0" in="blurOut2" result="blurOut3"/><feBlend in="SourceGraphic" in2="blurOut3" mode="normal"/></filter></defs><g><!--class Object--><rect fill="#FEFECE" filter="url(#f117g7dxaywto9)" height="60.8047" id="Object" style="stroke: #A80036; stroke-width: 1.5;" width="72" x="36" y="8"/><ellipse cx="51" cy="24" fill="#ADD1B2" rx="11" ry="11" style="stroke: #A80036; stroke-width: 1.0;"/><path d="M54.3438,29.4219 Q53.4844,29.8906 52.7656,30.0625 Q52.0625,30.2344 51.2656,30.2344 Q48.7031,30.2344 47.2969,28.4531 Q45.9063,26.6563 45.9063,23.4688 Q45.9063,20.3125 47.3125,18.5 Q48.7188,16.6875 51.2656,16.6875 Q52.0625,16.6875 52.7656,16.875 Q53.4844,17.0469 54.3438,17.5156 L54.3438,20.1719 Q53.2188,19.2344 52.5625,19 Q51.9063,18.75 51.2656,18.75 Q49.8125,18.75 49.0781,19.8906 Q48.3438,21.0156 48.3438,23.4688 Q48.3438,25.9219 49.0781,27.0625 Q49.8125,28.1875 51.2656,28.1875 Q51.9219,28.1875 52.5625,27.9531 Q53.2188,27.7031 54.3438,26.7656 L54.3438,29.4219 Z "/><text fill="#000000" font-family="sans-serif" font-size="12" lengthAdjust="spacingAndGlyphs" textLength="40" x="65" y="28.1543">Object</text><line style="stroke: #A80036; stroke-width: 1.5;" x1="37" x2="107" y1="40" y2="40"/><line style="stroke: #A80036; stroke-width: 1.5;" x1="37" x2="107" y1="48" y2="48"/><text fill="#000000" font-family="sans-serif" font-size="11" lengthAdjust="spacingAndGlyphs" textLength="46" x="42" y="62.2104">equals()</text><!--class ArrayList--><rect fill="#FEFECE" filter="url(#f117g7dxaywto9)" height="73.6094" id="ArrayList" style="stroke: #A80036; stroke-width: 1.5;" width="132" x="6" y="129"/><ellipse cx="42.15" cy="145" fill="#ADD1B2" rx="11" ry="11" style="stroke: #A80036; stroke-width: 1.0;"/><path d="M45.4938,150.4219 Q44.6344,150.8906 43.9156,151.0625 Q43.2125,151.2344 42.4156,151.2344 Q39.8531,151.2344 38.4469,149.4531 Q37.0563,147.6563 37.0563,144.4688 Q37.0563,141.3125 38.4625,139.5 Q39.8688,137.6875 42.4156,137.6875 Q43.2125,137.6875 43.9156,137.875 Q44.6344,138.0469 45.4938,138.5156 L45.4938,141.1719 Q44.3688,140.2344 43.7125,140 Q43.0563,139.75 42.4156,139.75 Q40.9625,139.75 40.2281,140.8906 Q39.4938,142.0156 39.4938,144.4688 Q39.4938,146.9219 40.2281,148.0625 Q40.9625,149.1875 42.4156,149.1875 Q43.0719,149.1875 43.7125,148.9531 Q44.3688,148.7031 45.4938,147.7656 L45.4938,150.4219 Z "/><text fill="#000000" font-family="sans-serif" font-size="12" lengthAdjust="spacingAndGlyphs" textLength="53" x="60.85" y="149.1543">ArrayList</text><line style="stroke: #A80036; stroke-width: 1.5;" x1="7" x2="137" y1="161" y2="161"/><text fill="#000000" font-family="sans-serif" font-size="11" lengthAdjust="spacingAndGlyphs" textLength="120" x="12" y="175.2104">Object[] elementData</text><line style="stroke: #A80036; stroke-width: 1.5;" x1="7" x2="137" y1="181.8047" y2="181.8047"/><text fill="#000000" font-family="sans-serif" font-size="11" lengthAdjust="spacingAndGlyphs" textLength="30" x="12" y="196.0151">size()</text><!--link Object to ArrayList--><path d="M72,89.4308 C72,102.6149 72,116.562 72,128.8888 " fill="none" id="Object-ArrayList" style="stroke: #A80036; stroke-width: 1.0;"/><polygon fill="none" points="65.0001,89.0395,72,69.0394,79.0001,89.0394,65.0001,89.0395" style="stroke: #A80036; stroke-width: 1.0;"/><!--
@startuml
Object <|- - ArrayList

Object : equals()
ArrayList : Object[] elementData
ArrayList : size()
@enduml

PlantUML version 1.2019.01(Sat Feb 09 16:32:04 CET 2019)
(GPL source distribution)
Java Runtime: OpenJDK Runtime Environment
JVM: OpenJDK 64-Bit Server VM
Java Version: 11.0.1+13-Ubuntu-3ubuntu3.18.10.1
Operating System: Linux
OS Version: 4.18.0-16-generic
Default Encoding: UTF-8
Language: fr
Country: FR
--></g></svg>