<?xml version="1.0" encoding="UTF-8" standalone="no"?><svg xmlns="http://www.w3.org/2000/svg" xmlns:xlink="http://www.w3.org/1999/xlink" contentScriptType="application/ecmascript" contentStyleType="text/css" height="118px" preserveAspectRatio="none" style="width:101px;height:118px;" version="1.1" viewBox="0 0 101 118" width="101px" zoomAndPan="magnify"><defs><filter height="300%" id="f1nxm4v53fesbv" width="300%" x="-1" y="-1"><feGaussianBlur result="blurOut" stdDeviation="2.0"/><feColorMatrix in="blurOut" result="blurOut2" type="matrix" values="0 0 0 0 0 0 0 0 0 0 0 0 0 0 0 0 0 0 .4 0"/><feOffset dx="4.0" dy="4.0" in="blurOut2" result="blurOut3"/><feBlend in="SourceGraphic" in2="blurOut3" mode="normal"/></filter></defs><g><!--class Dummy--><rect fill="#FEFECE" filter="url(#f1nxm4v53fesbv)" height="99.2188" id="Dummy" style="stroke: #A80036; stroke-width: 1.5;" width="84" x="6" y="8"/><ellipse cx="24.15" cy="24" fill="#ADD1B2" rx="11" ry="11" style="stroke: #A80036; stroke-width: 1.0;"/><path d="M27.4938,29.4219 Q26.6344,29.8906 25.9156,30.0625 Q25.2125,30.2344 24.4156,30.2344 Q21.8531,30.2344 20.4469,28.4531 Q19.0563,26.6563 19.0563,23.4688 Q19.0563,20.3125 20.4625,18.5 Q21.8688,16.6875 24.4156,16.6875 Q25.2125,16.6875 25.9156,16.875 Q26.6344,17.0469 27.4938,17.5156 L27.4938,20.1719 Q26.3688,19.2344 25.7125,19 Q25.0563,18.75 24.4156,18.75 Q22.9625,18.75 22.2281,19.8906 Q21.4938,21.0156 21.4938,23.4688 Q21.4938,25.9219 22.2281,27.0625 Q22.9625,28.1875 24.4156,28.1875 Q25.0719,28.1875 25.7125,27.9531 Q26.3688,27.7031 27.4938,26.7656 L27.4938,29.4219 Z "/><text fill="#000000" font-family="sans-serif" font-size="12" lengthAdjust="spacingAndGlyphs" textLength="45" x="38.85" y="28.1543">Dummy</text><line style="stroke: #A80036; stroke-width: 1.5;" x1="7" x2="89" y1="40" y2="40"/><rect fill="none" height="6" style="stroke: #C82930; stroke-width: 1.0;" width="6" x="14" y="48.9023"/><text fill="#000000" font-family="sans-serif" font-size="11" lengthAdjust="spacingAndGlyphs" textLength="31" x="26" y="54.2104">field1</text><polygon fill="none" points="17,59.707,21,63.707,17,67.707,13,63.707" style="stroke: #B38D22; stroke-width: 1.0;"/><text fill="#000000" font-family="sans-serif" font-size="11" lengthAdjust="spacingAndGlyphs" textLength="31" x="26" y="67.0151">field2</text><line style="stroke: #A80036; stroke-width: 1.5;" x1="7" x2="89" y1="73.6094" y2="73.6094"/><polygon fill="#4177AF" points="17,81.5117,13,87.5117,21,87.5117" style="stroke: #1963A0; stroke-width: 1.0;"/><text fill="#000000" font-family="sans-serif" font-size="11" lengthAdjust="spacingAndGlyphs" textLength="58" x="26" y="87.8198">method1()</text><ellipse cx="17" cy="98.3164" fill="#84BE84" rx="3" ry="3" style="stroke: #038048; stroke-width: 1.0;"/><text fill="#000000" font-family="sans-serif" font-size="11" lengthAdjust="spacingAndGlyphs" textLength="58" x="26" y="100.6245">method2()</text><!--
@startuml
class Dummy {
-field1
#field2
~method1()
+method2()
}
@enduml

PlantUML version 1.2019.01(Sat Feb 09 16:32:04 CET 2019)
(GPL source distribution)
Java Runtime: OpenJDK Runtime Environment
JVM: OpenJDK 64-Bit Server VM
Java Version: 11.0.1+13-Ubuntu-3ubuntu3.18.10.1
Operating System: Linux
OS Version: 4.18.0-16-generic
Default Encoding: UTF-8
Language: fr
Country: FR
--></g></svg>