<?xml version="1.0" encoding="UTF-8" standalone="no"?><svg xmlns="http://www.w3.org/2000/svg" xmlns:xlink="http://www.w3.org/1999/xlink" contentScriptType="application/ecmascript" contentStyleType="text/css" height="213px" preserveAspectRatio="none" style="width:249px;height:213px;" version="1.1" viewBox="0 0 249 213" width="249px" zoomAndPan="magnify"><defs><filter height="300%" id="fptv8mkga00vk" width="300%" x="-1" y="-1"><feGaussianBlur result="blurOut" stdDeviation="2.0"/><feColorMatrix in="blurOut" result="blurOut2" type="matrix" values="0 0 0 0 0 0 0 0 0 0 0 0 0 0 0 0 0 0 .4 0"/><feOffset dx="4.0" dy="4.0" in="blurOut2" result="blurOut3"/><feBlend in="SourceGraphic" in2="blurOut3" mode="normal"/></filter></defs><g><!--class Student--><rect fill="#FEFECE" filter="url(#fptv8mkga00vk)" height="60.8047" id="Student" style="stroke: #A80036; stroke-width: 1.5;" width="82" x="6" y="8"/><ellipse cx="21" cy="24" fill="#ADD1B2" rx="11" ry="11" style="stroke: #A80036; stroke-width: 1.0;"/><path d="M24.3438,29.4219 Q23.4844,29.8906 22.7656,30.0625 Q22.0625,30.2344 21.2656,30.2344 Q18.7031,30.2344 17.2969,28.4531 Q15.9063,26.6563 15.9063,23.4688 Q15.9063,20.3125 17.3125,18.5 Q18.7188,16.6875 21.2656,16.6875 Q22.0625,16.6875 22.7656,16.875 Q23.4844,17.0469 24.3438,17.5156 L24.3438,20.1719 Q23.2188,19.2344 22.5625,19 Q21.9063,18.75 21.2656,18.75 Q19.8125,18.75 19.0781,19.8906 Q18.3438,21.0156 18.3438,23.4688 Q18.3438,25.9219 19.0781,27.0625 Q19.8125,28.1875 21.2656,28.1875 Q21.9219,28.1875 22.5625,27.9531 Q23.2188,27.7031 24.3438,26.7656 L24.3438,29.4219 Z "/><text fill="#000000" font-family="sans-serif" font-size="12" lengthAdjust="spacingAndGlyphs" textLength="50" x="35" y="28.1543">Student</text><line style="stroke: #A80036; stroke-width: 1.5;" x1="7" x2="87" y1="40" y2="40"/><text fill="#000000" font-family="sans-serif" font-size="11" lengthAdjust="spacingAndGlyphs" textLength="33" x="12" y="54.2104">Name</text><line style="stroke: #A80036; stroke-width: 1.5;" x1="7" x2="87" y1="60.8047" y2="60.8047"/><!--class Course--><rect fill="#FEFECE" filter="url(#fptv8mkga00vk)" height="48" id="Course" style="stroke: #A80036; stroke-width: 1.5;" width="76" x="162" y="14.5"/><ellipse cx="177" cy="30.5" fill="#ADD1B2" rx="11" ry="11" style="stroke: #A80036; stroke-width: 1.0;"/><path d="M180.3438,35.9219 Q179.4844,36.3906 178.7656,36.5625 Q178.0625,36.7344 177.2656,36.7344 Q174.7031,36.7344 173.2969,34.9531 Q171.9063,33.1563 171.9063,29.9688 Q171.9063,26.8125 173.3125,25 Q174.7188,23.1875 177.2656,23.1875 Q178.0625,23.1875 178.7656,23.375 Q179.4844,23.5469 180.3438,24.0156 L180.3438,26.6719 Q179.2188,25.7344 178.5625,25.5 Q177.9063,25.25 177.2656,25.25 Q175.8125,25.25 175.0781,26.3906 Q174.3438,27.5156 174.3438,29.9688 Q174.3438,32.4219 175.0781,33.5625 Q175.8125,34.6875 177.2656,34.6875 Q177.9219,34.6875 178.5625,34.4531 Q179.2188,34.2031 180.3438,33.2656 L180.3438,35.9219 Z "/><text fill="#000000" font-family="sans-serif" font-size="12" lengthAdjust="spacingAndGlyphs" textLength="44" x="191" y="34.6543">Course</text><line style="stroke: #A80036; stroke-width: 1.5;" x1="163" x2="237" y1="46.5" y2="46.5"/><line style="stroke: #A80036; stroke-width: 1.5;" x1="163" x2="237" y1="54.5" y2="54.5"/><!--class Enrollment--><rect fill="#FEFECE" filter="url(#fptv8mkga00vk)" height="73.6094" id="Enrollment" style="stroke: #A80036; stroke-width: 1.5;" width="99" x="75.5" y="129"/><ellipse cx="90.5" cy="145" fill="#ADD1B2" rx="11" ry="11" style="stroke: #A80036; stroke-width: 1.0;"/><path d="M93.8438,150.4219 Q92.9844,150.8906 92.2656,151.0625 Q91.5625,151.2344 90.7656,151.2344 Q88.2031,151.2344 86.7969,149.4531 Q85.4063,147.6563 85.4063,144.4688 Q85.4063,141.3125 86.8125,139.5 Q88.2188,137.6875 90.7656,137.6875 Q91.5625,137.6875 92.2656,137.875 Q92.9844,138.0469 93.8438,138.5156 L93.8438,141.1719 Q92.7188,140.2344 92.0625,140 Q91.4063,139.75 90.7656,139.75 Q89.3125,139.75 88.5781,140.8906 Q87.8438,142.0156 87.8438,144.4688 Q87.8438,146.9219 88.5781,148.0625 Q89.3125,149.1875 90.7656,149.1875 Q91.4219,149.1875 92.0625,148.9531 Q92.7188,148.7031 93.8438,147.7656 L93.8438,150.4219 Z "/><text fill="#000000" font-family="sans-serif" font-size="12" lengthAdjust="spacingAndGlyphs" textLength="67" x="104.5" y="149.1543">Enrollment</text><line style="stroke: #A80036; stroke-width: 1.5;" x1="76.5" x2="173.5" y1="161" y2="161"/><line style="stroke: #A80036; stroke-width: 1.5;" x1="76.5" x2="173.5" y1="169" y2="169"/><text fill="#000000" font-family="sans-serif" font-size="11" lengthAdjust="spacingAndGlyphs" textLength="34" x="81.5" y="183.2104">drop()</text><text fill="#000000" font-family="sans-serif" font-size="11" lengthAdjust="spacingAndGlyphs" textLength="44" x="81.5" y="196.0151">cancel()</text><ellipse cx="125" cy="38.5" fill="#000000" rx="2" ry="2" style="stroke: none; stroke-width: 1.0;"/><!--link Student to apoint6--><path d="M88.1328,38.5 C99.7498,38.5 111.3668,38.5 122.9838,38.5 " fill="none" id="Student-apoint6" style="stroke: #A80036; stroke-width: 1.0;"/><text fill="#000000" font-family="sans-serif" font-size="13" lengthAdjust="spacingAndGlyphs" textLength="23" x="92.0052" y="32.6276">0..*</text><!--link apoint6 to Course--><path d="M127.0508,38.5 C138.6391,38.5 150.2274,38.5 161.8156,38.5 " fill="none" id="apoint6-Course" style="stroke: #A80036; stroke-width: 1.0;"/><text fill="#000000" font-family="sans-serif" font-size="13" lengthAdjust="spacingAndGlyphs" textLength="23" x="134.9202" y="32.3892">1..*</text><!--link apoint6 to Enrollment--><path d="M125,40.713 C125,51.0963 125,95.866 125,128.9397 " fill="none" id="apoint6-Enrollment" style="stroke: #A80036; stroke-width: 1.0; stroke-dasharray: 7.0,7.0;"/><!--
@startuml
class Student {
    Name
}
Student "0..*" - "1..*" Course
(Student, Course) .. Enrollment

class Enrollment {
    drop()
    cancel()
}
@enduml

PlantUML version 1.2019.01(Sat Feb 09 16:32:04 CET 2019)
(GPL source distribution)
Java Runtime: OpenJDK Runtime Environment
JVM: OpenJDK 64-Bit Server VM
Java Version: 11.0.1+13-Ubuntu-3ubuntu3.18.10.1
Operating System: Linux
OS Version: 4.18.0-16-generic
Default Encoding: UTF-8
Language: fr
Country: FR
--></g></svg>