<?xml version="1.0" encoding="UTF-8" standalone="no"?><svg xmlns="http://www.w3.org/2000/svg" xmlns:xlink="http://www.w3.org/1999/xlink" contentScriptType="application/ecmascript" contentStyleType="text/css" height="67px" preserveAspectRatio="none" style="width:114px;height:67px;" version="1.1" viewBox="0 0 114 67" width="114px" zoomAndPan="magnify"><defs><filter height="300%" id="f10afqo7z9rt7f" width="300%" x="-1" y="-1"><feGaussianBlur result="blurOut" stdDeviation="2.0"/><feColorMatrix in="blurOut" result="blurOut2" type="matrix" values="0 0 0 0 0 0 0 0 0 0 0 0 0 0 0 0 0 0 .4 0"/><feOffset dx="4.0" dy="4.0" in="blurOut2" result="blurOut3"/><feBlend in="SourceGraphic" in2="blurOut3" mode="normal"/></filter></defs><g><!--class foo--><rect fill="#FEFECE" filter="url(#f10afqo7z9rt7f)" height="48" id="foo" style="stroke: #A80036; stroke-width: 1.5;" width="52" x="51" y="8"/><ellipse cx="66" cy="24" fill="#ADD1B2" rx="11" ry="11" style="stroke: #A80036; stroke-width: 1.0;"/><path d="M69.3438,29.4219 Q68.4844,29.8906 67.7656,30.0625 Q67.0625,30.2344 66.2656,30.2344 Q63.7031,30.2344 62.2969,28.4531 Q60.9063,26.6563 60.9063,23.4688 Q60.9063,20.3125 62.3125,18.5 Q63.7188,16.6875 66.2656,16.6875 Q67.0625,16.6875 67.7656,16.875 Q68.4844,17.0469 69.3438,17.5156 L69.3438,20.1719 Q68.2188,19.2344 67.5625,19 Q66.9063,18.75 66.2656,18.75 Q64.8125,18.75 64.0781,19.8906 Q63.3438,21.0156 63.3438,23.4688 Q63.3438,25.9219 64.0781,27.0625 Q64.8125,28.1875 66.2656,28.1875 Q66.9219,28.1875 67.5625,27.9531 Q68.2188,27.7031 69.3438,26.7656 L69.3438,29.4219 Z "/><text fill="#000000" font-family="sans-serif" font-size="12" lengthAdjust="spacingAndGlyphs" textLength="20" x="80" y="28.1543">foo</text><line style="stroke: #A80036; stroke-width: 1.5;" x1="52" x2="102" y1="40" y2="40"/><line style="stroke: #A80036; stroke-width: 1.5;" x1="52" x2="102" y1="48" y2="48"/><ellipse cx="11" cy="32" fill="#FEFECE" filter="url(#f10afqo7z9rt7f)" rx="5" ry="5" style="stroke: #A80036; stroke-width: 1.5;"/><text fill="#000000" font-family="sans-serif" font-size="12" lengthAdjust="spacingAndGlyphs" textLength="21" x="0.5" y="48.1387">bar</text><!--link foolol3 to foo--><path d="M16.1563,32 C27.7229,32 39.2896,32 50.8562,32 " fill="none" id="foolol3-foo" style="stroke: #A80036; stroke-width: 1.0;"/><!--
@startuml
class foo
bar ()- foo
@enduml

PlantUML version 1.2019.01(Sat Feb 09 16:32:04 CET 2019)
(GPL source distribution)
Java Runtime: OpenJDK Runtime Environment
JVM: OpenJDK 64-Bit Server VM
Java Version: 11.0.1+13-Ubuntu-3ubuntu3.18.10.1
Operating System: Linux
OS Version: 4.18.0-16-generic
Default Encoding: UTF-8
Language: fr
Country: FR
--></g></svg>