<?xml version="1.0" encoding="UTF-8" standalone="no"?><svg xmlns="http://www.w3.org/2000/svg" xmlns:xlink="http://www.w3.org/1999/xlink" contentScriptType="application/ecmascript" contentStyleType="text/css" height="199px" preserveAspectRatio="none" style="width:1311px;height:199px;" version="1.1" viewBox="0 0 1311 199" width="1311px" zoomAndPan="magnify"><defs><filter height="300%" id="f1dgfm5ickpbk1" width="300%" x="-1" y="-1"><feGaussianBlur result="blurOut" stdDeviation="2.0"/><feColorMatrix in="blurOut" result="blurOut2" type="matrix" values="0 0 0 0 0 0 0 0 0 0 0 0 0 0 0 0 0 0 .4 0"/><feOffset dx="4.0" dy="4.0" in="blurOut2" result="blurOut3"/><feBlend in="SourceGraphic" in2="blurOut3" mode="normal"/></filter></defs><g><!--class Foo--><rect fill="#FEFECE" filter="url(#f1dgfm5ickpbk1)" height="48" id="Foo" style="stroke: #A80036; stroke-width: 1.5;" width="55" x="194" y="20"/><ellipse cx="209" cy="36" fill="#ADD1B2" rx="11" ry="11" style="stroke: #A80036; stroke-width: 1.0;"/><path d="M212.3438,41.4219 Q211.4844,41.8906 210.7656,42.0625 Q210.0625,42.2344 209.2656,42.2344 Q206.7031,42.2344 205.2969,40.4531 Q203.9063,38.6563 203.9063,35.4688 Q203.9063,32.3125 205.3125,30.5 Q206.7188,28.6875 209.2656,28.6875 Q210.0625,28.6875 210.7656,28.875 Q211.4844,29.0469 212.3438,29.5156 L212.3438,32.1719 Q211.2188,31.2344 210.5625,31 Q209.9063,30.75 209.2656,30.75 Q207.8125,30.75 207.0781,31.8906 Q206.3438,33.0156 206.3438,35.4688 Q206.3438,37.9219 207.0781,39.0625 Q207.8125,40.1875 209.2656,40.1875 Q209.9219,40.1875 210.5625,39.9531 Q211.2188,39.7031 212.3438,38.7656 L212.3438,41.4219 Z "/><text fill="#000000" font-family="sans-serif" font-size="12" lengthAdjust="spacingAndGlyphs" textLength="23" x="223" y="40.1543">Foo</text><line style="stroke: #A80036; stroke-width: 1.5;" x1="195" x2="248" y1="52" y2="52"/><line style="stroke: #A80036; stroke-width: 1.5;" x1="195" x2="248" y1="60" y2="60"/><path d="M6,31.5 L6,56.6328 A0,0 0 0 0 6,56.6328 L159,56.6328 A0,0 0 0 0 159,56.6328 L159,49.5 L193.6941,44 L159,41.5 L159,41.5 L149,31.5 L6,31.5 A0,0 0 0 0 6,31.5 " fill="#FBFB77" filter="url(#f1dgfm5ickpbk1)" style="stroke: #A80036; stroke-width: 1.0;"/><path d="M149,31.5 L149,41.5 L159,41.5 L149,31.5 " fill="#FBFB77" style="stroke: #A80036; stroke-width: 1.0;"/><text fill="#000000" font-family="sans-serif" font-size="13" lengthAdjust="spacingAndGlyphs" textLength="132" x="12" y="48.5669">On last defined class</text><!--class Object--><rect fill="#FEFECE" filter="url(#f1dgfm5ickpbk1)" height="48" id="Object" style="stroke: #A80036; stroke-width: 1.5;" width="72" x="327.5" y="140"/><ellipse cx="342.5" cy="156" fill="#ADD1B2" rx="11" ry="11" style="stroke: #A80036; stroke-width: 1.0;"/><path d="M345.8438,161.4219 Q344.9844,161.8906 344.2656,162.0625 Q343.5625,162.2344 342.7656,162.2344 Q340.2031,162.2344 338.7969,160.4531 Q337.4063,158.6563 337.4063,155.4688 Q337.4063,152.3125 338.8125,150.5 Q340.2188,148.6875 342.7656,148.6875 Q343.5625,148.6875 344.2656,148.875 Q344.9844,149.0469 345.8438,149.5156 L345.8438,152.1719 Q344.7188,151.2344 344.0625,151 Q343.4063,150.75 342.7656,150.75 Q341.3125,150.75 340.5781,151.8906 Q339.8438,153.0156 339.8438,155.4688 Q339.8438,157.9219 340.5781,159.0625 Q341.3125,160.1875 342.7656,160.1875 Q343.4219,160.1875 344.0625,159.9531 Q344.7188,159.7031 345.8438,158.7656 L345.8438,161.4219 Z "/><text fill="#000000" font-family="sans-serif" font-size="12" lengthAdjust="spacingAndGlyphs" textLength="40" x="356.5" y="160.1543">Object</text><line style="stroke: #A80036; stroke-width: 1.5;" x1="328.5" x2="398.5" y1="172" y2="172"/><line style="stroke: #A80036; stroke-width: 1.5;" x1="328.5" x2="398.5" y1="180" y2="180"/><path d="M284.5,13.5 L284.5,74.7188 A0,0 0 0 0 284.5,74.7188 L359.5,74.7188 L363.5,139.8944 L367.5,74.7188 L442.5,74.7188 A0,0 0 0 0 442.5,74.7188 L442.5,23.5 L432.5,13.5 L284.5,13.5 A0,0 0 0 0 284.5,13.5 " fill="#FBFB77" filter="url(#f1dgfm5ickpbk1)" style="stroke: #A80036; stroke-width: 1.0;"/><path d="M432.5,13.5 L432.5,23.5 L442.5,23.5 L432.5,13.5 " fill="#FBFB77" style="stroke: #A80036; stroke-width: 1.0;"/><text fill="#000000" font-family="sans-serif" font-size="13" lengthAdjust="spacingAndGlyphs" textLength="45" x="290.5" y="36.3872">In java,</text><text fill="#000000" font-family="sans-serif" font-size="18" lengthAdjust="spacingAndGlyphs" textLength="52" x="339.5" y="35.208">every</text><text fill="#000000" font-family="sans-serif" font-size="13" lengthAdjust="spacingAndGlyphs" textLength="0" x="395.5" y="36.3872"/><text fill="#000000" font-family="sans-serif" font-size="13" lengthAdjust="spacingAndGlyphs" text-decoration="underline" textLength="32" x="395.5" y="36.3872">class</text><line style="stroke: #000000; stroke-width: 1.0;" x1="395.5" x2="427.5" y1="38.3872" y2="38.3872"/><text fill="#000000" font-family="sans-serif" font-size="13" font-weight="bold" lengthAdjust="spacingAndGlyphs" textLength="58" x="290.5" y="51.52">extends</text><text fill="#000000" font-family="sans-serif" font-size="13" font-style="italic" lengthAdjust="spacingAndGlyphs" textLength="23" x="290.5" y="66.6528">this</text><text fill="#000000" font-family="sans-serif" font-size="13" lengthAdjust="spacingAndGlyphs" textLength="28" x="317.5" y="66.6528">one.</text><path d="M477.5,8 L477.5,79.6953 L1299.5,79.6953 L1299.5,18 L1289.5,8 L477.5,8 " fill="#FBFB77" filter="url(#f1dgfm5ickpbk1)" style="stroke: #A80036; stroke-width: 1.0;"/><path d="M1289.5,8 L1289.5,18 L1299.5,18 L1289.5,8 " fill="#FBFB77" style="stroke: #A80036; stroke-width: 1.0;"/><text fill="#000000" font-family="sans-serif" font-size="13" lengthAdjust="spacingAndGlyphs" textLength="72" x="483.5" y="25.0669">This note is</text><text fill="#000000" font-family="sans-serif" font-size="13" lengthAdjust="spacingAndGlyphs" text-decoration="underline" textLength="26" x="559.5" y="25.0669">also</text><line style="stroke: #000000; stroke-width: 1.0;" x1="559.5" x2="585.5" y1="27.0669" y2="27.0669"/><text fill="#4169E1" font-family="sans-serif" font-size="13" font-weight="bold" lengthAdjust="spacingAndGlyphs" textLength="75" x="483.5" y="40.1997">on several</text><text fill="#000000" font-family="sans-serif" font-size="13" lengthAdjust="spacingAndGlyphs" text-decoration="line-through" textLength="37" x="483.5" y="55.3325">words</text><text fill="#000000" font-family="sans-serif" font-size="13" lengthAdjust="spacingAndGlyphs" textLength="29" x="524.5" y="55.3325">lines</text><text fill="#000000" font-family="sans-serif" font-size="13" lengthAdjust="spacingAndGlyphs" textLength="133" x="483.5" y="71.6294">And this is hosted by</text><text fill="#000000" font-family="monospace" font-size="14" lengthAdjust="spacingAndGlyphs" textLength="664" x="620.5" y="71.3936">(File not found: /home/edegoute/Repositories/plantumlqeditor/icons/sourceforge.jpg)</text><!--
@startuml
class Foo
note left: On last defined class

note top of Object
In java, <size:18>every</size> <u>class</u>
<b>extends</b>
<i>this</i> one.
end note

note as N1
This note is <u>also</u>
<b><color:royalBlue>on several</color>
<s>words</s> lines
And this is hosted by <img:sourceforge.jpg>
end note
@enduml

PlantUML version 1.2019.01(Sat Feb 09 16:32:04 CET 2019)
(GPL source distribution)
Java Runtime: OpenJDK Runtime Environment
JVM: OpenJDK 64-Bit Server VM
Java Version: 11.0.1+13-Ubuntu-3ubuntu3.18.10.1
Operating System: Linux
OS Version: 4.18.0-16-generic
Default Encoding: UTF-8
Language: fr
Country: FR
--></g></svg>