<?xml version="1.0" encoding="UTF-8" standalone="no"?><svg xmlns="http://www.w3.org/2000/svg" xmlns:xlink="http://www.w3.org/1999/xlink" contentScriptType="application/ecmascript" contentStyleType="text/css" height="92px" preserveAspectRatio="none" style="width:114px;height:92px;" version="1.1" viewBox="0 0 114 92" width="114px" zoomAndPan="magnify"><defs><filter height="300%" id="ftd45uf8ktv93" width="300%" x="-1" y="-1"><feGaussianBlur result="blurOut" stdDeviation="2.0"/><feColorMatrix in="blurOut" result="blurOut2" type="matrix" values="0 0 0 0 0 0 0 0 0 0 0 0 0 0 0 0 0 0 .4 0"/><feOffset dx="4.0" dy="4.0" in="blurOut2" result="blurOut3"/><feBlend in="SourceGraphic" in2="blurOut3" mode="normal"/></filter></defs><g><!--class Dummy--><rect fill="#FEFECE" filter="url(#ftd45uf8ktv93)" height="73.6094" id="Dummy" style="stroke: #A80036; stroke-width: 1.5;" width="97" x="6" y="8"/><ellipse cx="30" cy="24" fill="#ADD1B2" rx="11" ry="11" style="stroke: #A80036; stroke-width: 1.0;"/><path d="M33.3438,29.4219 Q32.4844,29.8906 31.7656,30.0625 Q31.0625,30.2344 30.2656,30.2344 Q27.7031,30.2344 26.2969,28.4531 Q24.9063,26.6563 24.9063,23.4688 Q24.9063,20.3125 26.3125,18.5 Q27.7188,16.6875 30.2656,16.6875 Q31.0625,16.6875 31.7656,16.875 Q32.4844,17.0469 33.3438,17.5156 L33.3438,20.1719 Q32.2188,19.2344 31.5625,19 Q30.9063,18.75 30.2656,18.75 Q28.8125,18.75 28.0781,19.8906 Q27.3438,21.0156 27.3438,23.4688 Q27.3438,25.9219 28.0781,27.0625 Q28.8125,28.1875 30.2656,28.1875 Q30.9219,28.1875 31.5625,27.9531 Q32.2188,27.7031 33.3438,26.7656 L33.3438,29.4219 Z "/><text fill="#000000" font-family="sans-serif" font-size="12" lengthAdjust="spacingAndGlyphs" textLength="45" x="46" y="28.1543">Dummy</text><line style="stroke: #A80036; stroke-width: 1.5;" x1="7" x2="102" y1="40" y2="40"/><text fill="#000000" font-family="sans-serif" font-size="11" lengthAdjust="spacingAndGlyphs" text-decoration="underline" textLength="48" x="12" y="54.2104">String id</text><line style="stroke: #000000; stroke-width: 1.0;" x1="12" x2="60" y1="56.2104" y2="56.2104"/><line style="stroke: #A80036; stroke-width: 1.5;" x1="7" x2="102" y1="60.8047" y2="60.8047"/><text fill="#000000" font-family="sans-serif" font-size="11" font-style="italic" lengthAdjust="spacingAndGlyphs" textLength="85" x="12" y="75.0151">void methods()</text><!--
@startuml
class Dummy {
{static} String id
{abstract} void methods()
}
@enduml

PlantUML version 1.2019.01(Sat Feb 09 16:32:04 CET 2019)
(GPL source distribution)
Java Runtime: OpenJDK Runtime Environment
JVM: OpenJDK 64-Bit Server VM
Java Version: 11.0.1+13-Ubuntu-3ubuntu3.18.10.1
Operating System: Linux
OS Version: 4.18.0-16-generic
Default Encoding: UTF-8
Language: fr
Country: FR
--></g></svg>