<?xml version="1.0" encoding="UTF-8" standalone="no"?><svg xmlns="http://www.w3.org/2000/svg" xmlns:xlink="http://www.w3.org/1999/xlink" contentScriptType="application/ecmascript" contentStyleType="text/css" height="219px" preserveAspectRatio="none" style="width:363px;height:219px;" version="1.1" viewBox="0 0 363 219" width="363px" zoomAndPan="magnify"><defs><filter height="300%" id="fipdbahf0gmou" width="300%" x="-1" y="-1"><feGaussianBlur result="blurOut" stdDeviation="2.0"/><feColorMatrix in="blurOut" result="blurOut2" type="matrix" values="0 0 0 0 0 0 0 0 0 0 0 0 0 0 0 0 0 0 .4 0"/><feOffset dx="4.0" dy="4.0" in="blurOut2" result="blurOut3"/><feBlend in="SourceGraphic" in2="blurOut3" mode="normal"/></filter></defs><g><!--cluster net.dummy--><polygon fill="#DDDDDD" filter="url(#fipdbahf0gmou)" points="14,16,107,16,114,38.2969,117,38.2969,117,207,14,207,14,16" style="stroke: #000000; stroke-width: 1.5;"/><line style="stroke: #000000; stroke-width: 1.5;" x1="14" x2="114" y1="38.2969" y2="38.2969"/><text fill="#000000" font-family="sans-serif" font-size="14" font-weight="bold" lengthAdjust="spacingAndGlyphs" textLength="87" x="18" y="30.9951">net.dummy</text><!--cluster net.foo--><polygon fill="#FFFFFF" filter="url(#fipdbahf0gmou)" points="130,124,192,124,199,146.2969,222,146.2969,222,207,130,207,130,124" style="stroke: #000000; stroke-width: 1.5;"/><line style="stroke: #000000; stroke-width: 1.5;" x1="130" x2="199" y1="146.2969" y2="146.2969"/><text fill="#000000" font-family="sans-serif" font-size="14" font-weight="bold" lengthAdjust="spacingAndGlyphs" textLength="56" x="134" y="138.9951">net.foo</text><!--cluster net.unused--><polygon fill="#FFFFFF" filter="url(#fipdbahf0gmou)" points="235,124,331,124,338,146.2969,341,146.2969,341,207,235,207,235,124" style="stroke: #000000; stroke-width: 1.5;"/><line style="stroke: #000000; stroke-width: 1.5;" x1="235" x2="338" y1="146.2969" y2="146.2969"/><text fill="#000000" font-family="sans-serif" font-size="14" font-weight="bold" lengthAdjust="spacingAndGlyphs" textLength="90" x="239" y="138.9951">net.unused</text><!--class net.dummy.Person--><rect fill="#FEFECE" filter="url(#fipdbahf0gmou)" height="48" id="net.dummy.Person" style="stroke: #A80036; stroke-width: 1.5;" width="76" x="27" y="151"/><ellipse cx="42" cy="167" fill="#ADD1B2" rx="11" ry="11" style="stroke: #A80036; stroke-width: 1.0;"/><path d="M45.3438,172.4219 Q44.4844,172.8906 43.7656,173.0625 Q43.0625,173.2344 42.2656,173.2344 Q39.7031,173.2344 38.2969,171.4531 Q36.9063,169.6563 36.9063,166.4688 Q36.9063,163.3125 38.3125,161.5 Q39.7188,159.6875 42.2656,159.6875 Q43.0625,159.6875 43.7656,159.875 Q44.4844,160.0469 45.3438,160.5156 L45.3438,163.1719 Q44.2188,162.2344 43.5625,162 Q42.9063,161.75 42.2656,161.75 Q40.8125,161.75 40.0781,162.8906 Q39.3438,164.0156 39.3438,166.4688 Q39.3438,168.9219 40.0781,170.0625 Q40.8125,171.1875 42.2656,171.1875 Q42.9219,171.1875 43.5625,170.9531 Q44.2188,170.7031 45.3438,169.7656 L45.3438,172.4219 Z "/><text fill="#000000" font-family="sans-serif" font-size="12" lengthAdjust="spacingAndGlyphs" textLength="44" x="56" y="171.1543">Person</text><line style="stroke: #A80036; stroke-width: 1.5;" x1="28" x2="102" y1="183" y2="183"/><line style="stroke: #A80036; stroke-width: 1.5;" x1="28" x2="102" y1="191" y2="191"/><!--class net.dummy.Meeting--><rect fill="#FEFECE" filter="url(#fipdbahf0gmou)" height="48" id="net.dummy.Meeting" style="stroke: #A80036; stroke-width: 1.5;" width="82" x="24" y="43"/><ellipse cx="39" cy="59" fill="#ADD1B2" rx="11" ry="11" style="stroke: #A80036; stroke-width: 1.0;"/><path d="M42.3438,64.4219 Q41.4844,64.8906 40.7656,65.0625 Q40.0625,65.2344 39.2656,65.2344 Q36.7031,65.2344 35.2969,63.4531 Q33.9063,61.6563 33.9063,58.4688 Q33.9063,55.3125 35.3125,53.5 Q36.7188,51.6875 39.2656,51.6875 Q40.0625,51.6875 40.7656,51.875 Q41.4844,52.0469 42.3438,52.5156 L42.3438,55.1719 Q41.2188,54.2344 40.5625,54 Q39.9063,53.75 39.2656,53.75 Q37.8125,53.75 37.0781,54.8906 Q36.3438,56.0156 36.3438,58.4688 Q36.3438,60.9219 37.0781,62.0625 Q37.8125,63.1875 39.2656,63.1875 Q39.9219,63.1875 40.5625,62.9531 Q41.2188,62.7031 42.3438,61.7656 L42.3438,64.4219 Z "/><text fill="#000000" font-family="sans-serif" font-size="12" lengthAdjust="spacingAndGlyphs" textLength="50" x="53" y="63.1543">Meeting</text><line style="stroke: #A80036; stroke-width: 1.5;" x1="25" x2="105" y1="75" y2="75"/><line style="stroke: #A80036; stroke-width: 1.5;" x1="25" x2="105" y1="83" y2="83"/><!--class net.foo.Person--><rect fill="#FEFECE" filter="url(#fipdbahf0gmou)" height="48" id="net.foo.Person" style="stroke: #A80036; stroke-width: 1.5;" width="76" x="138" y="151"/><ellipse cx="153" cy="167" fill="#ADD1B2" rx="11" ry="11" style="stroke: #A80036; stroke-width: 1.0;"/><path d="M156.3438,172.4219 Q155.4844,172.8906 154.7656,173.0625 Q154.0625,173.2344 153.2656,173.2344 Q150.7031,173.2344 149.2969,171.4531 Q147.9063,169.6563 147.9063,166.4688 Q147.9063,163.3125 149.3125,161.5 Q150.7188,159.6875 153.2656,159.6875 Q154.0625,159.6875 154.7656,159.875 Q155.4844,160.0469 156.3438,160.5156 L156.3438,163.1719 Q155.2188,162.2344 154.5625,162 Q153.9063,161.75 153.2656,161.75 Q151.8125,161.75 151.0781,162.8906 Q150.3438,164.0156 150.3438,166.4688 Q150.3438,168.9219 151.0781,170.0625 Q151.8125,171.1875 153.2656,171.1875 Q153.9219,171.1875 154.5625,170.9531 Q155.2188,170.7031 156.3438,169.7656 L156.3438,172.4219 Z "/><text fill="#000000" font-family="sans-serif" font-size="12" lengthAdjust="spacingAndGlyphs" textLength="44" x="167" y="171.1543">Person</text><line style="stroke: #A80036; stroke-width: 1.5;" x1="139" x2="213" y1="183" y2="183"/><line style="stroke: #A80036; stroke-width: 1.5;" x1="139" x2="213" y1="191" y2="191"/><!--class net.unused.Person--><rect fill="#FEFECE" filter="url(#fipdbahf0gmou)" height="48" id="net.unused.Person" style="stroke: #A80036; stroke-width: 1.5;" width="76" x="249" y="151"/><ellipse cx="264" cy="167" fill="#ADD1B2" rx="11" ry="11" style="stroke: #A80036; stroke-width: 1.0;"/><path d="M267.3438,172.4219 Q266.4844,172.8906 265.7656,173.0625 Q265.0625,173.2344 264.2656,173.2344 Q261.7031,173.2344 260.2969,171.4531 Q258.9063,169.6563 258.9063,166.4688 Q258.9063,163.3125 260.3125,161.5 Q261.7188,159.6875 264.2656,159.6875 Q265.0625,159.6875 265.7656,159.875 Q266.4844,160.0469 267.3438,160.5156 L267.3438,163.1719 Q266.2188,162.2344 265.5625,162 Q264.9063,161.75 264.2656,161.75 Q262.8125,161.75 262.0781,162.8906 Q261.3438,164.0156 261.3438,166.4688 Q261.3438,168.9219 262.0781,170.0625 Q262.8125,171.1875 264.2656,171.1875 Q264.9219,171.1875 265.5625,170.9531 Q266.2188,170.7031 267.3438,169.7656 L267.3438,172.4219 Z "/><text fill="#000000" font-family="sans-serif" font-size="12" lengthAdjust="spacingAndGlyphs" textLength="44" x="278" y="171.1543">Person</text><line style="stroke: #A80036; stroke-width: 1.5;" x1="250" x2="324" y1="183" y2="183"/><line style="stroke: #A80036; stroke-width: 1.5;" x1="250" x2="324" y1="191" y2="191"/><!--class BaseClass--><rect fill="#FEFECE" filter="url(#fipdbahf0gmou)" height="48" id="BaseClass" style="stroke: #A80036; stroke-width: 1.5;" width="96" x="141" y="43"/><ellipse cx="156" cy="59" fill="#ADD1B2" rx="11" ry="11" style="stroke: #A80036; stroke-width: 1.0;"/><path d="M159.3438,64.4219 Q158.4844,64.8906 157.7656,65.0625 Q157.0625,65.2344 156.2656,65.2344 Q153.7031,65.2344 152.2969,63.4531 Q150.9063,61.6563 150.9063,58.4688 Q150.9063,55.3125 152.3125,53.5 Q153.7188,51.6875 156.2656,51.6875 Q157.0625,51.6875 157.7656,51.875 Q158.4844,52.0469 159.3438,52.5156 L159.3438,55.1719 Q158.2188,54.2344 157.5625,54 Q156.9063,53.75 156.2656,53.75 Q154.8125,53.75 154.0781,54.8906 Q153.3438,56.0156 153.3438,58.4688 Q153.3438,60.9219 154.0781,62.0625 Q154.8125,63.1875 156.2656,63.1875 Q156.9219,63.1875 157.5625,62.9531 Q158.2188,62.7031 159.3438,61.7656 L159.3438,64.4219 Z "/><text fill="#000000" font-family="sans-serif" font-size="12" lengthAdjust="spacingAndGlyphs" textLength="64" x="170" y="63.1543">BaseClass</text><line style="stroke: #A80036; stroke-width: 1.5;" x1="142" x2="236" y1="75" y2="75"/><line style="stroke: #A80036; stroke-width: 1.5;" x1="142" x2="236" y1="83" y2="83"/><!--link BaseClass to net.dummy.Person--><path d="M144.6386,104.4709 C137.058,110.951 129.2821,117.6464 122,124 C111.9944,132.7299 101.1081,142.4216 91.556,150.9915 " fill="none" id="BaseClass-net.dummy.Person" style="stroke: #A80036; stroke-width: 1.0;"/><polygon fill="none" points="140.4052,98.882,160.1738,91.2527,149.4776,109.5446,140.4052,98.882" style="stroke: #A80036; stroke-width: 1.0;"/><!--link net.dummy.Meeting to net.dummy.Person--><path d="M65,104.6145 C65,119.9531 65,137.2402 65,150.8436 " fill="none" id="net.dummy.Meeting-net.dummy.Person" style="stroke: #A80036; stroke-width: 1.0;"/><polygon fill="#FFFFFF" points="65,91.2373,61,97.2373,65,103.2373,69,97.2373,65,91.2373" style="stroke: #A80036; stroke-width: 1.0;"/><!--link BaseClass to net.dummy.Meeting--><path d="M120.777,67 C115.9086,67 111.0403,67 106.1719,67 " fill="none" id="BaseClass-net.dummy.Meeting" style="stroke: #A80036; stroke-width: 1.0;"/><polygon fill="none" points="120.7915,59.9999,140.7914,67,120.7914,73.9999,120.7915,59.9999" style="stroke: #A80036; stroke-width: 1.0;"/><!--link net.dummy.Person to net.foo.Person--><path d="M123.2256,175 C128.1074,175 132.9891,175 137.8708,175 " fill="none" id="net.dummy.Person-net.foo.Person" style="stroke: #A80036; stroke-width: 1.0;"/><polygon fill="none" points="123.1563,181.9999,103.1563,175,123.1562,167.9999,123.1563,181.9999" style="stroke: #A80036; stroke-width: 1.0;"/><!--link BaseClass to net.foo.Person--><path d="M183.6687,111.2911 C182.0405,124.8171 180.3112,139.1835 178.9077,150.8436 " fill="none" id="BaseClass-net.foo.Person" style="stroke: #A80036; stroke-width: 1.0;"/><polygon fill="none" points="176.7425,110.2574,186.0825,91.2373,190.6421,111.9306,176.7425,110.2574" style="stroke: #A80036; stroke-width: 1.0;"/><!--link net.dummy.Meeting to net.foo.Person--><path d="M100.4301,100.3718 C108.5415,108.0913 117.1,116.3 125,124 C133.8773,132.6526 143.5156,142.24 151.9988,150.7453 " fill="none" id="net.dummy.Meeting-net.foo.Person" style="stroke: #A80036; stroke-width: 1.0;"/><polygon fill="#FFFFFF" points="90.8321,91.2654,92.4315,98.2969,99.5373,99.5249,97.9379,92.4934,90.8321,91.2654" style="stroke: #A80036; stroke-width: 1.0;"/><!--link BaseClass to net.unused.Person--><path d="M224.8445,106.5021 C238.325,121.3582 253.2403,137.7954 265.0803,150.8436 " fill="none" id="BaseClass-net.unused.Person" style="stroke: #A80036; stroke-width: 1.0;"/><polygon fill="none" points="219.249,110.7525,210.9931,91.2373,229.6169,101.3446,219.249,110.7525" style="stroke: #A80036; stroke-width: 1.0;"/><!--
@startuml
class BaseClass

namespace net.dummy #DDDDDD {
    .BaseClass <|- - Person
    Meeting o- - Person

    .BaseClass <|- Meeting
}

namespace net.foo {
    net.dummy.Person  <|- Person
    .BaseClass <|- - Person

    net.dummy.Meeting o- - Person
}

BaseClass <|- - net.unused.Person
@enduml

PlantUML version 1.2019.01(Sat Feb 09 16:32:04 CET 2019)
(GPL source distribution)
Java Runtime: OpenJDK Runtime Environment
JVM: OpenJDK 64-Bit Server VM
Java Version: 11.0.1+13-Ubuntu-3ubuntu3.18.10.1
Operating System: Linux
OS Version: 4.18.0-16-generic
Default Encoding: UTF-8
Language: fr
Country: FR
--></g></svg>