<?xml version="1.0" encoding="UTF-8" standalone="no"?><svg xmlns="http://www.w3.org/2000/svg" xmlns:xlink="http://www.w3.org/1999/xlink" contentScriptType="application/ecmascript" contentStyleType="text/css" height="175px" preserveAspectRatio="none" style="width:1142px;height:175px;" version="1.1" viewBox="0 0 1142 175" width="1142px" zoomAndPan="magnify"><defs><filter height="300%" id="f131csqpr56ltb" width="300%" x="-1" y="-1"><feGaussianBlur result="blurOut" stdDeviation="2.0"/><feColorMatrix in="blurOut" result="blurOut2" type="matrix" values="0 0 0 0 0 0 0 0 0 0 0 0 0 0 0 0 0 0 .4 0"/><feOffset dx="4.0" dy="4.0" in="blurOut2" result="blurOut3"/><feBlend in="SourceGraphic" in2="blurOut3" mode="normal"/></filter></defs><g><!--class Class01--><rect fill="#FEFECE" filter="url(#f131csqpr56ltb)" height="48" id="Class01" style="stroke: #A80036; stroke-width: 1.5;" width="81" x="6" y="8"/><ellipse cx="21" cy="24" fill="#ADD1B2" rx="11" ry="11" style="stroke: #A80036; stroke-width: 1.0;"/><path d="M24.3438,29.4219 Q23.4844,29.8906 22.7656,30.0625 Q22.0625,30.2344 21.2656,30.2344 Q18.7031,30.2344 17.2969,28.4531 Q15.9063,26.6563 15.9063,23.4688 Q15.9063,20.3125 17.3125,18.5 Q18.7188,16.6875 21.2656,16.6875 Q22.0625,16.6875 22.7656,16.875 Q23.4844,17.0469 24.3438,17.5156 L24.3438,20.1719 Q23.2188,19.2344 22.5625,19 Q21.9063,18.75 21.2656,18.75 Q19.8125,18.75 19.0781,19.8906 Q18.3438,21.0156 18.3438,23.4688 Q18.3438,25.9219 19.0781,27.0625 Q19.8125,28.1875 21.2656,28.1875 Q21.9219,28.1875 22.5625,27.9531 Q23.2188,27.7031 24.3438,26.7656 L24.3438,29.4219 Z "/><text fill="#000000" font-family="sans-serif" font-size="12" lengthAdjust="spacingAndGlyphs" textLength="49" x="35" y="28.1543">Class01</text><line style="stroke: #A80036; stroke-width: 1.5;" x1="7" x2="86" y1="40" y2="40"/><line style="stroke: #A80036; stroke-width: 1.5;" x1="7" x2="86" y1="48" y2="48"/><!--class Class02--><rect fill="#FEFECE" filter="url(#f131csqpr56ltb)" height="48" id="Class02" style="stroke: #A80036; stroke-width: 1.5;" width="81" x="6" y="116"/><ellipse cx="21" cy="132" fill="#ADD1B2" rx="11" ry="11" style="stroke: #A80036; stroke-width: 1.0;"/><path d="M24.3438,137.4219 Q23.4844,137.8906 22.7656,138.0625 Q22.0625,138.2344 21.2656,138.2344 Q18.7031,138.2344 17.2969,136.4531 Q15.9063,134.6563 15.9063,131.4688 Q15.9063,128.3125 17.3125,126.5 Q18.7188,124.6875 21.2656,124.6875 Q22.0625,124.6875 22.7656,124.875 Q23.4844,125.0469 24.3438,125.5156 L24.3438,128.1719 Q23.2188,127.2344 22.5625,127 Q21.9063,126.75 21.2656,126.75 Q19.8125,126.75 19.0781,127.8906 Q18.3438,129.0156 18.3438,131.4688 Q18.3438,133.9219 19.0781,135.0625 Q19.8125,136.1875 21.2656,136.1875 Q21.9219,136.1875 22.5625,135.9531 Q23.2188,135.7031 24.3438,134.7656 L24.3438,137.4219 Z "/><text fill="#000000" font-family="sans-serif" font-size="12" lengthAdjust="spacingAndGlyphs" textLength="49" x="35" y="136.1543">Class02</text><line style="stroke: #A80036; stroke-width: 1.5;" x1="7" x2="86" y1="148" y2="148"/><line style="stroke: #A80036; stroke-width: 1.5;" x1="7" x2="86" y1="156" y2="156"/><!--class Class03--><rect fill="#FEFECE" filter="url(#f131csqpr56ltb)" height="48" id="Class03" style="stroke: #A80036; stroke-width: 1.5;" width="81" x="122" y="8"/><ellipse cx="137" cy="24" fill="#ADD1B2" rx="11" ry="11" style="stroke: #A80036; stroke-width: 1.0;"/><path d="M140.3438,29.4219 Q139.4844,29.8906 138.7656,30.0625 Q138.0625,30.2344 137.2656,30.2344 Q134.7031,30.2344 133.2969,28.4531 Q131.9063,26.6563 131.9063,23.4688 Q131.9063,20.3125 133.3125,18.5 Q134.7188,16.6875 137.2656,16.6875 Q138.0625,16.6875 138.7656,16.875 Q139.4844,17.0469 140.3438,17.5156 L140.3438,20.1719 Q139.2188,19.2344 138.5625,19 Q137.9063,18.75 137.2656,18.75 Q135.8125,18.75 135.0781,19.8906 Q134.3438,21.0156 134.3438,23.4688 Q134.3438,25.9219 135.0781,27.0625 Q135.8125,28.1875 137.2656,28.1875 Q137.9219,28.1875 138.5625,27.9531 Q139.2188,27.7031 140.3438,26.7656 L140.3438,29.4219 Z "/><text fill="#000000" font-family="sans-serif" font-size="12" lengthAdjust="spacingAndGlyphs" textLength="49" x="151" y="28.1543">Class03</text><line style="stroke: #A80036; stroke-width: 1.5;" x1="123" x2="202" y1="40" y2="40"/><line style="stroke: #A80036; stroke-width: 1.5;" x1="123" x2="202" y1="48" y2="48"/><!--class Class04--><rect fill="#FEFECE" filter="url(#f131csqpr56ltb)" height="48" id="Class04" style="stroke: #A80036; stroke-width: 1.5;" width="81" x="122" y="116"/><ellipse cx="137" cy="132" fill="#ADD1B2" rx="11" ry="11" style="stroke: #A80036; stroke-width: 1.0;"/><path d="M140.3438,137.4219 Q139.4844,137.8906 138.7656,138.0625 Q138.0625,138.2344 137.2656,138.2344 Q134.7031,138.2344 133.2969,136.4531 Q131.9063,134.6563 131.9063,131.4688 Q131.9063,128.3125 133.3125,126.5 Q134.7188,124.6875 137.2656,124.6875 Q138.0625,124.6875 138.7656,124.875 Q139.4844,125.0469 140.3438,125.5156 L140.3438,128.1719 Q139.2188,127.2344 138.5625,127 Q137.9063,126.75 137.2656,126.75 Q135.8125,126.75 135.0781,127.8906 Q134.3438,129.0156 134.3438,131.4688 Q134.3438,133.9219 135.0781,135.0625 Q135.8125,136.1875 137.2656,136.1875 Q137.9219,136.1875 138.5625,135.9531 Q139.2188,135.7031 140.3438,134.7656 L140.3438,137.4219 Z "/><text fill="#000000" font-family="sans-serif" font-size="12" lengthAdjust="spacingAndGlyphs" textLength="49" x="151" y="136.1543">Class04</text><line style="stroke: #A80036; stroke-width: 1.5;" x1="123" x2="202" y1="148" y2="148"/><line style="stroke: #A80036; stroke-width: 1.5;" x1="123" x2="202" y1="156" y2="156"/><!--class Class05--><rect fill="#FEFECE" filter="url(#f131csqpr56ltb)" height="48" id="Class05" style="stroke: #A80036; stroke-width: 1.5;" width="81" x="238" y="8"/><ellipse cx="253" cy="24" fill="#ADD1B2" rx="11" ry="11" style="stroke: #A80036; stroke-width: 1.0;"/><path d="M256.3438,29.4219 Q255.4844,29.8906 254.7656,30.0625 Q254.0625,30.2344 253.2656,30.2344 Q250.7031,30.2344 249.2969,28.4531 Q247.9063,26.6563 247.9063,23.4688 Q247.9063,20.3125 249.3125,18.5 Q250.7188,16.6875 253.2656,16.6875 Q254.0625,16.6875 254.7656,16.875 Q255.4844,17.0469 256.3438,17.5156 L256.3438,20.1719 Q255.2188,19.2344 254.5625,19 Q253.9063,18.75 253.2656,18.75 Q251.8125,18.75 251.0781,19.8906 Q250.3438,21.0156 250.3438,23.4688 Q250.3438,25.9219 251.0781,27.0625 Q251.8125,28.1875 253.2656,28.1875 Q253.9219,28.1875 254.5625,27.9531 Q255.2188,27.7031 256.3438,26.7656 L256.3438,29.4219 Z "/><text fill="#000000" font-family="sans-serif" font-size="12" lengthAdjust="spacingAndGlyphs" textLength="49" x="267" y="28.1543">Class05</text><line style="stroke: #A80036; stroke-width: 1.5;" x1="239" x2="318" y1="40" y2="40"/><line style="stroke: #A80036; stroke-width: 1.5;" x1="239" x2="318" y1="48" y2="48"/><!--class Class06--><rect fill="#FEFECE" filter="url(#f131csqpr56ltb)" height="48" id="Class06" style="stroke: #A80036; stroke-width: 1.5;" width="81" x="238" y="116"/><ellipse cx="253" cy="132" fill="#ADD1B2" rx="11" ry="11" style="stroke: #A80036; stroke-width: 1.0;"/><path d="M256.3438,137.4219 Q255.4844,137.8906 254.7656,138.0625 Q254.0625,138.2344 253.2656,138.2344 Q250.7031,138.2344 249.2969,136.4531 Q247.9063,134.6563 247.9063,131.4688 Q247.9063,128.3125 249.3125,126.5 Q250.7188,124.6875 253.2656,124.6875 Q254.0625,124.6875 254.7656,124.875 Q255.4844,125.0469 256.3438,125.5156 L256.3438,128.1719 Q255.2188,127.2344 254.5625,127 Q253.9063,126.75 253.2656,126.75 Q251.8125,126.75 251.0781,127.8906 Q250.3438,129.0156 250.3438,131.4688 Q250.3438,133.9219 251.0781,135.0625 Q251.8125,136.1875 253.2656,136.1875 Q253.9219,136.1875 254.5625,135.9531 Q255.2188,135.7031 256.3438,134.7656 L256.3438,137.4219 Z "/><text fill="#000000" font-family="sans-serif" font-size="12" lengthAdjust="spacingAndGlyphs" textLength="49" x="267" y="136.1543">Class06</text><line style="stroke: #A80036; stroke-width: 1.5;" x1="239" x2="318" y1="148" y2="148"/><line style="stroke: #A80036; stroke-width: 1.5;" x1="239" x2="318" y1="156" y2="156"/><!--class Class07--><rect fill="#FEFECE" filter="url(#f131csqpr56ltb)" height="48" id="Class07" style="stroke: #A80036; stroke-width: 1.5;" width="81" x="354" y="8"/><ellipse cx="369" cy="24" fill="#ADD1B2" rx="11" ry="11" style="stroke: #A80036; stroke-width: 1.0;"/><path d="M372.3438,29.4219 Q371.4844,29.8906 370.7656,30.0625 Q370.0625,30.2344 369.2656,30.2344 Q366.7031,30.2344 365.2969,28.4531 Q363.9063,26.6563 363.9063,23.4688 Q363.9063,20.3125 365.3125,18.5 Q366.7188,16.6875 369.2656,16.6875 Q370.0625,16.6875 370.7656,16.875 Q371.4844,17.0469 372.3438,17.5156 L372.3438,20.1719 Q371.2188,19.2344 370.5625,19 Q369.9063,18.75 369.2656,18.75 Q367.8125,18.75 367.0781,19.8906 Q366.3438,21.0156 366.3438,23.4688 Q366.3438,25.9219 367.0781,27.0625 Q367.8125,28.1875 369.2656,28.1875 Q369.9219,28.1875 370.5625,27.9531 Q371.2188,27.7031 372.3438,26.7656 L372.3438,29.4219 Z "/><text fill="#000000" font-family="sans-serif" font-size="12" lengthAdjust="spacingAndGlyphs" textLength="49" x="383" y="28.1543">Class07</text><line style="stroke: #A80036; stroke-width: 1.5;" x1="355" x2="434" y1="40" y2="40"/><line style="stroke: #A80036; stroke-width: 1.5;" x1="355" x2="434" y1="48" y2="48"/><!--class Class08--><rect fill="#FEFECE" filter="url(#f131csqpr56ltb)" height="48" id="Class08" style="stroke: #A80036; stroke-width: 1.5;" width="81" x="354" y="116"/><ellipse cx="369" cy="132" fill="#ADD1B2" rx="11" ry="11" style="stroke: #A80036; stroke-width: 1.0;"/><path d="M372.3438,137.4219 Q371.4844,137.8906 370.7656,138.0625 Q370.0625,138.2344 369.2656,138.2344 Q366.7031,138.2344 365.2969,136.4531 Q363.9063,134.6563 363.9063,131.4688 Q363.9063,128.3125 365.3125,126.5 Q366.7188,124.6875 369.2656,124.6875 Q370.0625,124.6875 370.7656,124.875 Q371.4844,125.0469 372.3438,125.5156 L372.3438,128.1719 Q371.2188,127.2344 370.5625,127 Q369.9063,126.75 369.2656,126.75 Q367.8125,126.75 367.0781,127.8906 Q366.3438,129.0156 366.3438,131.4688 Q366.3438,133.9219 367.0781,135.0625 Q367.8125,136.1875 369.2656,136.1875 Q369.9219,136.1875 370.5625,135.9531 Q371.2188,135.7031 372.3438,134.7656 L372.3438,137.4219 Z "/><text fill="#000000" font-family="sans-serif" font-size="12" lengthAdjust="spacingAndGlyphs" textLength="49" x="383" y="136.1543">Class08</text><line style="stroke: #A80036; stroke-width: 1.5;" x1="355" x2="434" y1="148" y2="148"/><line style="stroke: #A80036; stroke-width: 1.5;" x1="355" x2="434" y1="156" y2="156"/><!--class Class09--><rect fill="#FEFECE" filter="url(#f131csqpr56ltb)" height="48" id="Class09" style="stroke: #A80036; stroke-width: 1.5;" width="81" x="470" y="8"/><ellipse cx="485" cy="24" fill="#ADD1B2" rx="11" ry="11" style="stroke: #A80036; stroke-width: 1.0;"/><path d="M488.3438,29.4219 Q487.4844,29.8906 486.7656,30.0625 Q486.0625,30.2344 485.2656,30.2344 Q482.7031,30.2344 481.2969,28.4531 Q479.9063,26.6563 479.9063,23.4688 Q479.9063,20.3125 481.3125,18.5 Q482.7188,16.6875 485.2656,16.6875 Q486.0625,16.6875 486.7656,16.875 Q487.4844,17.0469 488.3438,17.5156 L488.3438,20.1719 Q487.2188,19.2344 486.5625,19 Q485.9063,18.75 485.2656,18.75 Q483.8125,18.75 483.0781,19.8906 Q482.3438,21.0156 482.3438,23.4688 Q482.3438,25.9219 483.0781,27.0625 Q483.8125,28.1875 485.2656,28.1875 Q485.9219,28.1875 486.5625,27.9531 Q487.2188,27.7031 488.3438,26.7656 L488.3438,29.4219 Z "/><text fill="#000000" font-family="sans-serif" font-size="12" lengthAdjust="spacingAndGlyphs" textLength="49" x="499" y="28.1543">Class09</text><line style="stroke: #A80036; stroke-width: 1.5;" x1="471" x2="550" y1="40" y2="40"/><line style="stroke: #A80036; stroke-width: 1.5;" x1="471" x2="550" y1="48" y2="48"/><!--class Class10--><rect fill="#FEFECE" filter="url(#f131csqpr56ltb)" height="48" id="Class10" style="stroke: #A80036; stroke-width: 1.5;" width="81" x="470" y="116"/><ellipse cx="485" cy="132" fill="#ADD1B2" rx="11" ry="11" style="stroke: #A80036; stroke-width: 1.0;"/><path d="M488.3438,137.4219 Q487.4844,137.8906 486.7656,138.0625 Q486.0625,138.2344 485.2656,138.2344 Q482.7031,138.2344 481.2969,136.4531 Q479.9063,134.6563 479.9063,131.4688 Q479.9063,128.3125 481.3125,126.5 Q482.7188,124.6875 485.2656,124.6875 Q486.0625,124.6875 486.7656,124.875 Q487.4844,125.0469 488.3438,125.5156 L488.3438,128.1719 Q487.2188,127.2344 486.5625,127 Q485.9063,126.75 485.2656,126.75 Q483.8125,126.75 483.0781,127.8906 Q482.3438,129.0156 482.3438,131.4688 Q482.3438,133.9219 483.0781,135.0625 Q483.8125,136.1875 485.2656,136.1875 Q485.9219,136.1875 486.5625,135.9531 Q487.2188,135.7031 488.3438,134.7656 L488.3438,137.4219 Z "/><text fill="#000000" font-family="sans-serif" font-size="12" lengthAdjust="spacingAndGlyphs" textLength="49" x="499" y="136.1543">Class10</text><line style="stroke: #A80036; stroke-width: 1.5;" x1="471" x2="550" y1="148" y2="148"/><line style="stroke: #A80036; stroke-width: 1.5;" x1="471" x2="550" y1="156" y2="156"/><!--class Class11--><rect fill="#FEFECE" filter="url(#f131csqpr56ltb)" height="48" id="Class11" style="stroke: #A80036; stroke-width: 1.5;" width="81" x="586" y="8"/><ellipse cx="601" cy="24" fill="#ADD1B2" rx="11" ry="11" style="stroke: #A80036; stroke-width: 1.0;"/><path d="M604.3438,29.4219 Q603.4844,29.8906 602.7656,30.0625 Q602.0625,30.2344 601.2656,30.2344 Q598.7031,30.2344 597.2969,28.4531 Q595.9063,26.6563 595.9063,23.4688 Q595.9063,20.3125 597.3125,18.5 Q598.7188,16.6875 601.2656,16.6875 Q602.0625,16.6875 602.7656,16.875 Q603.4844,17.0469 604.3438,17.5156 L604.3438,20.1719 Q603.2188,19.2344 602.5625,19 Q601.9063,18.75 601.2656,18.75 Q599.8125,18.75 599.0781,19.8906 Q598.3438,21.0156 598.3438,23.4688 Q598.3438,25.9219 599.0781,27.0625 Q599.8125,28.1875 601.2656,28.1875 Q601.9219,28.1875 602.5625,27.9531 Q603.2188,27.7031 604.3438,26.7656 L604.3438,29.4219 Z "/><text fill="#000000" font-family="sans-serif" font-size="12" lengthAdjust="spacingAndGlyphs" textLength="49" x="615" y="28.1543">Class11</text><line style="stroke: #A80036; stroke-width: 1.5;" x1="587" x2="666" y1="40" y2="40"/><line style="stroke: #A80036; stroke-width: 1.5;" x1="587" x2="666" y1="48" y2="48"/><!--class Class12--><rect fill="#FEFECE" filter="url(#f131csqpr56ltb)" height="48" id="Class12" style="stroke: #A80036; stroke-width: 1.5;" width="81" x="586" y="116"/><ellipse cx="601" cy="132" fill="#ADD1B2" rx="11" ry="11" style="stroke: #A80036; stroke-width: 1.0;"/><path d="M604.3438,137.4219 Q603.4844,137.8906 602.7656,138.0625 Q602.0625,138.2344 601.2656,138.2344 Q598.7031,138.2344 597.2969,136.4531 Q595.9063,134.6563 595.9063,131.4688 Q595.9063,128.3125 597.3125,126.5 Q598.7188,124.6875 601.2656,124.6875 Q602.0625,124.6875 602.7656,124.875 Q603.4844,125.0469 604.3438,125.5156 L604.3438,128.1719 Q603.2188,127.2344 602.5625,127 Q601.9063,126.75 601.2656,126.75 Q599.8125,126.75 599.0781,127.8906 Q598.3438,129.0156 598.3438,131.4688 Q598.3438,133.9219 599.0781,135.0625 Q599.8125,136.1875 601.2656,136.1875 Q601.9219,136.1875 602.5625,135.9531 Q603.2188,135.7031 604.3438,134.7656 L604.3438,137.4219 Z "/><text fill="#000000" font-family="sans-serif" font-size="12" lengthAdjust="spacingAndGlyphs" textLength="49" x="615" y="136.1543">Class12</text><line style="stroke: #A80036; stroke-width: 1.5;" x1="587" x2="666" y1="148" y2="148"/><line style="stroke: #A80036; stroke-width: 1.5;" x1="587" x2="666" y1="156" y2="156"/><!--class Class13--><rect fill="#FEFECE" filter="url(#f131csqpr56ltb)" height="48" id="Class13" style="stroke: #A80036; stroke-width: 1.5;" width="81" x="702" y="8"/><ellipse cx="717" cy="24" fill="#ADD1B2" rx="11" ry="11" style="stroke: #A80036; stroke-width: 1.0;"/><path d="M720.3438,29.4219 Q719.4844,29.8906 718.7656,30.0625 Q718.0625,30.2344 717.2656,30.2344 Q714.7031,30.2344 713.2969,28.4531 Q711.9063,26.6563 711.9063,23.4688 Q711.9063,20.3125 713.3125,18.5 Q714.7188,16.6875 717.2656,16.6875 Q718.0625,16.6875 718.7656,16.875 Q719.4844,17.0469 720.3438,17.5156 L720.3438,20.1719 Q719.2188,19.2344 718.5625,19 Q717.9063,18.75 717.2656,18.75 Q715.8125,18.75 715.0781,19.8906 Q714.3438,21.0156 714.3438,23.4688 Q714.3438,25.9219 715.0781,27.0625 Q715.8125,28.1875 717.2656,28.1875 Q717.9219,28.1875 718.5625,27.9531 Q719.2188,27.7031 720.3438,26.7656 L720.3438,29.4219 Z "/><text fill="#000000" font-family="sans-serif" font-size="12" lengthAdjust="spacingAndGlyphs" textLength="49" x="731" y="28.1543">Class13</text><line style="stroke: #A80036; stroke-width: 1.5;" x1="703" x2="782" y1="40" y2="40"/><line style="stroke: #A80036; stroke-width: 1.5;" x1="703" x2="782" y1="48" y2="48"/><!--class Class14--><rect fill="#FEFECE" filter="url(#f131csqpr56ltb)" height="48" id="Class14" style="stroke: #A80036; stroke-width: 1.5;" width="81" x="702" y="116"/><ellipse cx="717" cy="132" fill="#ADD1B2" rx="11" ry="11" style="stroke: #A80036; stroke-width: 1.0;"/><path d="M720.3438,137.4219 Q719.4844,137.8906 718.7656,138.0625 Q718.0625,138.2344 717.2656,138.2344 Q714.7031,138.2344 713.2969,136.4531 Q711.9063,134.6563 711.9063,131.4688 Q711.9063,128.3125 713.3125,126.5 Q714.7188,124.6875 717.2656,124.6875 Q718.0625,124.6875 718.7656,124.875 Q719.4844,125.0469 720.3438,125.5156 L720.3438,128.1719 Q719.2188,127.2344 718.5625,127 Q717.9063,126.75 717.2656,126.75 Q715.8125,126.75 715.0781,127.8906 Q714.3438,129.0156 714.3438,131.4688 Q714.3438,133.9219 715.0781,135.0625 Q715.8125,136.1875 717.2656,136.1875 Q717.9219,136.1875 718.5625,135.9531 Q719.2188,135.7031 720.3438,134.7656 L720.3438,137.4219 Z "/><text fill="#000000" font-family="sans-serif" font-size="12" lengthAdjust="spacingAndGlyphs" textLength="49" x="731" y="136.1543">Class14</text><line style="stroke: #A80036; stroke-width: 1.5;" x1="703" x2="782" y1="148" y2="148"/><line style="stroke: #A80036; stroke-width: 1.5;" x1="703" x2="782" y1="156" y2="156"/><!--class Class15--><rect fill="#FEFECE" filter="url(#f131csqpr56ltb)" height="48" id="Class15" style="stroke: #A80036; stroke-width: 1.5;" width="81" x="818" y="8"/><ellipse cx="833" cy="24" fill="#ADD1B2" rx="11" ry="11" style="stroke: #A80036; stroke-width: 1.0;"/><path d="M836.3438,29.4219 Q835.4844,29.8906 834.7656,30.0625 Q834.0625,30.2344 833.2656,30.2344 Q830.7031,30.2344 829.2969,28.4531 Q827.9063,26.6563 827.9063,23.4688 Q827.9063,20.3125 829.3125,18.5 Q830.7188,16.6875 833.2656,16.6875 Q834.0625,16.6875 834.7656,16.875 Q835.4844,17.0469 836.3438,17.5156 L836.3438,20.1719 Q835.2188,19.2344 834.5625,19 Q833.9063,18.75 833.2656,18.75 Q831.8125,18.75 831.0781,19.8906 Q830.3438,21.0156 830.3438,23.4688 Q830.3438,25.9219 831.0781,27.0625 Q831.8125,28.1875 833.2656,28.1875 Q833.9219,28.1875 834.5625,27.9531 Q835.2188,27.7031 836.3438,26.7656 L836.3438,29.4219 Z "/><text fill="#000000" font-family="sans-serif" font-size="12" lengthAdjust="spacingAndGlyphs" textLength="49" x="847" y="28.1543">Class15</text><line style="stroke: #A80036; stroke-width: 1.5;" x1="819" x2="898" y1="40" y2="40"/><line style="stroke: #A80036; stroke-width: 1.5;" x1="819" x2="898" y1="48" y2="48"/><!--class Class16--><rect fill="#FEFECE" filter="url(#f131csqpr56ltb)" height="48" id="Class16" style="stroke: #A80036; stroke-width: 1.5;" width="81" x="818" y="116"/><ellipse cx="833" cy="132" fill="#ADD1B2" rx="11" ry="11" style="stroke: #A80036; stroke-width: 1.0;"/><path d="M836.3438,137.4219 Q835.4844,137.8906 834.7656,138.0625 Q834.0625,138.2344 833.2656,138.2344 Q830.7031,138.2344 829.2969,136.4531 Q827.9063,134.6563 827.9063,131.4688 Q827.9063,128.3125 829.3125,126.5 Q830.7188,124.6875 833.2656,124.6875 Q834.0625,124.6875 834.7656,124.875 Q835.4844,125.0469 836.3438,125.5156 L836.3438,128.1719 Q835.2188,127.2344 834.5625,127 Q833.9063,126.75 833.2656,126.75 Q831.8125,126.75 831.0781,127.8906 Q830.3438,129.0156 830.3438,131.4688 Q830.3438,133.9219 831.0781,135.0625 Q831.8125,136.1875 833.2656,136.1875 Q833.9219,136.1875 834.5625,135.9531 Q835.2188,135.7031 836.3438,134.7656 L836.3438,137.4219 Z "/><text fill="#000000" font-family="sans-serif" font-size="12" lengthAdjust="spacingAndGlyphs" textLength="49" x="847" y="136.1543">Class16</text><line style="stroke: #A80036; stroke-width: 1.5;" x1="819" x2="898" y1="148" y2="148"/><line style="stroke: #A80036; stroke-width: 1.5;" x1="819" x2="898" y1="156" y2="156"/><!--class Class17--><rect fill="#FEFECE" filter="url(#f131csqpr56ltb)" height="48" id="Class17" style="stroke: #A80036; stroke-width: 1.5;" width="81" x="934" y="8"/><ellipse cx="949" cy="24" fill="#ADD1B2" rx="11" ry="11" style="stroke: #A80036; stroke-width: 1.0;"/><path d="M952.3438,29.4219 Q951.4844,29.8906 950.7656,30.0625 Q950.0625,30.2344 949.2656,30.2344 Q946.7031,30.2344 945.2969,28.4531 Q943.9063,26.6563 943.9063,23.4688 Q943.9063,20.3125 945.3125,18.5 Q946.7188,16.6875 949.2656,16.6875 Q950.0625,16.6875 950.7656,16.875 Q951.4844,17.0469 952.3438,17.5156 L952.3438,20.1719 Q951.2188,19.2344 950.5625,19 Q949.9063,18.75 949.2656,18.75 Q947.8125,18.75 947.0781,19.8906 Q946.3438,21.0156 946.3438,23.4688 Q946.3438,25.9219 947.0781,27.0625 Q947.8125,28.1875 949.2656,28.1875 Q949.9219,28.1875 950.5625,27.9531 Q951.2188,27.7031 952.3438,26.7656 L952.3438,29.4219 Z "/><text fill="#000000" font-family="sans-serif" font-size="12" lengthAdjust="spacingAndGlyphs" textLength="49" x="963" y="28.1543">Class17</text><line style="stroke: #A80036; stroke-width: 1.5;" x1="935" x2="1014" y1="40" y2="40"/><line style="stroke: #A80036; stroke-width: 1.5;" x1="935" x2="1014" y1="48" y2="48"/><!--class Class18--><rect fill="#FEFECE" filter="url(#f131csqpr56ltb)" height="48" id="Class18" style="stroke: #A80036; stroke-width: 1.5;" width="81" x="934" y="116"/><ellipse cx="949" cy="132" fill="#ADD1B2" rx="11" ry="11" style="stroke: #A80036; stroke-width: 1.0;"/><path d="M952.3438,137.4219 Q951.4844,137.8906 950.7656,138.0625 Q950.0625,138.2344 949.2656,138.2344 Q946.7031,138.2344 945.2969,136.4531 Q943.9063,134.6563 943.9063,131.4688 Q943.9063,128.3125 945.3125,126.5 Q946.7188,124.6875 949.2656,124.6875 Q950.0625,124.6875 950.7656,124.875 Q951.4844,125.0469 952.3438,125.5156 L952.3438,128.1719 Q951.2188,127.2344 950.5625,127 Q949.9063,126.75 949.2656,126.75 Q947.8125,126.75 947.0781,127.8906 Q946.3438,129.0156 946.3438,131.4688 Q946.3438,133.9219 947.0781,135.0625 Q947.8125,136.1875 949.2656,136.1875 Q949.9219,136.1875 950.5625,135.9531 Q951.2188,135.7031 952.3438,134.7656 L952.3438,137.4219 Z "/><text fill="#000000" font-family="sans-serif" font-size="12" lengthAdjust="spacingAndGlyphs" textLength="49" x="963" y="136.1543">Class18</text><line style="stroke: #A80036; stroke-width: 1.5;" x1="935" x2="1014" y1="148" y2="148"/><line style="stroke: #A80036; stroke-width: 1.5;" x1="935" x2="1014" y1="156" y2="156"/><!--class Class19--><rect fill="#FEFECE" filter="url(#f131csqpr56ltb)" height="48" id="Class19" style="stroke: #A80036; stroke-width: 1.5;" width="81" x="1050" y="8"/><ellipse cx="1065" cy="24" fill="#ADD1B2" rx="11" ry="11" style="stroke: #A80036; stroke-width: 1.0;"/><path d="M1068.3438,29.4219 Q1067.4844,29.8906 1066.7656,30.0625 Q1066.0625,30.2344 1065.2656,30.2344 Q1062.7031,30.2344 1061.2969,28.4531 Q1059.9063,26.6563 1059.9063,23.4688 Q1059.9063,20.3125 1061.3125,18.5 Q1062.7188,16.6875 1065.2656,16.6875 Q1066.0625,16.6875 1066.7656,16.875 Q1067.4844,17.0469 1068.3438,17.5156 L1068.3438,20.1719 Q1067.2188,19.2344 1066.5625,19 Q1065.9063,18.75 1065.2656,18.75 Q1063.8125,18.75 1063.0781,19.8906 Q1062.3438,21.0156 1062.3438,23.4688 Q1062.3438,25.9219 1063.0781,27.0625 Q1063.8125,28.1875 1065.2656,28.1875 Q1065.9219,28.1875 1066.5625,27.9531 Q1067.2188,27.7031 1068.3438,26.7656 L1068.3438,29.4219 Z "/><text fill="#000000" font-family="sans-serif" font-size="12" lengthAdjust="spacingAndGlyphs" textLength="49" x="1079" y="28.1543">Class19</text><line style="stroke: #A80036; stroke-width: 1.5;" x1="1051" x2="1130" y1="40" y2="40"/><line style="stroke: #A80036; stroke-width: 1.5;" x1="1051" x2="1130" y1="48" y2="48"/><!--class Class20--><rect fill="#FEFECE" filter="url(#f131csqpr56ltb)" height="48" id="Class20" style="stroke: #A80036; stroke-width: 1.5;" width="81" x="1050" y="116"/><ellipse cx="1065" cy="132" fill="#ADD1B2" rx="11" ry="11" style="stroke: #A80036; stroke-width: 1.0;"/><path d="M1068.3438,137.4219 Q1067.4844,137.8906 1066.7656,138.0625 Q1066.0625,138.2344 1065.2656,138.2344 Q1062.7031,138.2344 1061.2969,136.4531 Q1059.9063,134.6563 1059.9063,131.4688 Q1059.9063,128.3125 1061.3125,126.5 Q1062.7188,124.6875 1065.2656,124.6875 Q1066.0625,124.6875 1066.7656,124.875 Q1067.4844,125.0469 1068.3438,125.5156 L1068.3438,128.1719 Q1067.2188,127.2344 1066.5625,127 Q1065.9063,126.75 1065.2656,126.75 Q1063.8125,126.75 1063.0781,127.8906 Q1062.3438,129.0156 1062.3438,131.4688 Q1062.3438,133.9219 1063.0781,135.0625 Q1063.8125,136.1875 1065.2656,136.1875 Q1065.9219,136.1875 1066.5625,135.9531 Q1067.2188,135.7031 1068.3438,134.7656 L1068.3438,137.4219 Z "/><text fill="#000000" font-family="sans-serif" font-size="12" lengthAdjust="spacingAndGlyphs" textLength="49" x="1079" y="136.1543">Class20</text><line style="stroke: #A80036; stroke-width: 1.5;" x1="1051" x2="1130" y1="148" y2="148"/><line style="stroke: #A80036; stroke-width: 1.5;" x1="1051" x2="1130" y1="156" y2="156"/><!--link Class01 to Class02--><path d="M46.5,76.2911 C46.5,89.8171 46.5,104.1835 46.5,115.8436 " fill="none" id="Class01-Class02" style="stroke: #A80036; stroke-width: 1.0;"/><polygon fill="none" points="39.5001,76.2373,46.5,56.2373,53.5001,76.2373,39.5001,76.2373" style="stroke: #A80036; stroke-width: 1.0;"/><!--link Class03 to Class04--><path d="M162.5,69.6145 C162.5,84.9531 162.5,102.2402 162.5,115.8436 " fill="none" id="Class03-Class04" style="stroke: #A80036; stroke-width: 1.0;"/><polygon fill="#A80036" points="162.5,56.2373,158.5,62.2373,162.5,68.2373,166.5,62.2373,162.5,56.2373" style="stroke: #A80036; stroke-width: 1.0;"/><!--link Class05 to Class06--><path d="M278.5,69.6145 C278.5,84.9531 278.5,102.2402 278.5,115.8436 " fill="none" id="Class05-Class06" style="stroke: #A80036; stroke-width: 1.0;"/><polygon fill="#FFFFFF" points="278.5,56.2373,274.5,62.2373,278.5,68.2373,282.5,62.2373,278.5,56.2373" style="stroke: #A80036; stroke-width: 1.0;"/><!--link Class07 to Class08--><path d="M394.5,56.2373 C394.5,74.024 394.5,98.0759 394.5,115.8436 " fill="none" id="Class07-Class08" style="stroke: #A80036; stroke-width: 1.0; stroke-dasharray: 7.0,7.0;"/><!--link Class09 to Class10--><path d="M510.5,56.2373 C510.5,74.024 510.5,98.0759 510.5,115.8436 " fill="none" id="Class09-Class10" style="stroke: #A80036; stroke-width: 1.0;"/><!--link Class11 to Class12--><path d="M626.5,76.2911 C626.5,89.8171 626.5,104.1835 626.5,115.8436 " fill="none" id="Class11-Class12" style="stroke: #A80036; stroke-width: 1.0; stroke-dasharray: 7.0,7.0;"/><polygon fill="none" points="619.5001,76.2373,626.5,56.2373,633.5001,76.2373,619.5001,76.2373" style="stroke: #A80036; stroke-width: 1.0;"/><!--link Class13 to Class14--><path d="M742.5,56.2373 C742.5,72.3565 742.5,93.6212 742.5,110.6911 " fill="none" id="Class13-Class14" style="stroke: #A80036; stroke-width: 1.0;"/><polygon fill="#A80036" points="742.5,115.8436,746.5,106.8436,742.5,110.8436,738.5,106.8436,742.5,115.8436" style="stroke: #A80036; stroke-width: 1.0;"/><!--link Class15 to Class16--><path d="M858.5,56.2373 C858.5,72.3565 858.5,93.6212 858.5,110.6911 " fill="none" id="Class15-Class16" style="stroke: #A80036; stroke-width: 1.0; stroke-dasharray: 7.0,7.0;"/><polygon fill="#A80036" points="858.5,115.8436,862.5,106.8436,858.5,110.8436,854.5,106.8436,858.5,115.8436" style="stroke: #A80036; stroke-width: 1.0;"/><!--link Class17 to Class18--><path d="M974.5,56.2373 C974.5,67.9099 974.5,82.2806 974.5,95.8027 " fill="none" id="Class17-Class18" style="stroke: #A80036; stroke-width: 1.0; stroke-dasharray: 7.0,7.0;"/><polygon fill="none" points="981.5001,95.8436,974.5,115.8436,967.5001,95.8436,981.5001,95.8436" style="stroke: #A80036; stroke-width: 1.0;"/><!--link Class19 to Class20--><path d="M1090.5,69.6145 C1090.5,80.2797 1090.5,91.8868 1090.5,102.5426 " fill="none" id="Class19-Class20" style="stroke: #A80036; stroke-width: 1.0;"/><polygon fill="#A80036" points="1090.5,115.8436,1094.5,109.8436,1090.5,103.8436,1086.5,109.8436,1090.5,115.8436" style="stroke: #A80036; stroke-width: 1.0;"/><polygon fill="#A80036" points="1090.5,56.2373,1086.5,65.2373,1090.5,61.2373,1094.5,65.2373,1090.5,56.2373" style="stroke: #A80036; stroke-width: 1.0;"/><line style="stroke: #A80036; stroke-width: 1.0;" x1="1090.5" x2="1090.5001" y1="61.2373" y2="69.2373"/><!--
@startuml
Class01 <|- - Class02
Class03 *- - Class04
Class05 o- - Class06
Class07 .. Class08
Class09 - - Class10
Class11 <|.. Class12
Class13 - -> Class14
Class15 ..> Class16
Class17 ..|> Class18
Class19 <- -* Class20
@enduml

PlantUML version 1.2019.01(Sat Feb 09 16:32:04 CET 2019)
(GPL source distribution)
Java Runtime: OpenJDK Runtime Environment
JVM: OpenJDK 64-Bit Server VM
Java Version: 11.0.1+13-Ubuntu-3ubuntu3.18.10.1
Operating System: Linux
OS Version: 4.18.0-16-generic
Default Encoding: UTF-8
Language: fr
Country: FR
--></g></svg>