<?xml version="1.0" encoding="UTF-8" standalone="no"?><svg xmlns="http://www.w3.org/2000/svg" xmlns:xlink="http://www.w3.org/1999/xlink" contentScriptType="application/ecmascript" contentStyleType="text/css" height="175px" preserveAspectRatio="none" style="width:204px;height:175px;" version="1.1" viewBox="0 0 204 175" width="204px" zoomAndPan="magnify"><defs><filter height="300%" id="f1jab4ke4lbhph" width="300%" x="-1" y="-1"><feGaussianBlur result="blurOut" stdDeviation="2.0"/><feColorMatrix in="blurOut" result="blurOut2" type="matrix" values="0 0 0 0 0 0 0 0 0 0 0 0 0 0 0 0 0 0 .4 0"/><feOffset dx="4.0" dy="4.0" in="blurOut2" result="blurOut3"/><feBlend in="SourceGraphic" in2="blurOut3" mode="normal"/></filter></defs><g><!--class Studient--><rect fill="#FEFECE" filter="url(#f1jab4ke4lbhph)" height="48" id="Studient" style="stroke: #A80036; stroke-width: 1.5;" width="85" x="6" y="116"/><ellipse cx="21" cy="132" fill="#ADD1B2" rx="11" ry="11" style="stroke: #A80036; stroke-width: 1.0;"/><path d="M24.3438,137.4219 Q23.4844,137.8906 22.7656,138.0625 Q22.0625,138.2344 21.2656,138.2344 Q18.7031,138.2344 17.2969,136.4531 Q15.9063,134.6563 15.9063,131.4688 Q15.9063,128.3125 17.3125,126.5 Q18.7188,124.6875 21.2656,124.6875 Q22.0625,124.6875 22.7656,124.875 Q23.4844,125.0469 24.3438,125.5156 L24.3438,128.1719 Q23.2188,127.2344 22.5625,127 Q21.9063,126.75 21.2656,126.75 Q19.8125,126.75 19.0781,127.8906 Q18.3438,129.0156 18.3438,131.4688 Q18.3438,133.9219 19.0781,135.0625 Q19.8125,136.1875 21.2656,136.1875 Q21.9219,136.1875 22.5625,135.9531 Q23.2188,135.7031 24.3438,134.7656 L24.3438,137.4219 Z "/><text fill="#000000" font-family="sans-serif" font-size="12" lengthAdjust="spacingAndGlyphs" textLength="53" x="35" y="136.1543">Studient</text><line style="stroke: #A80036; stroke-width: 1.5;" x1="7" x2="90" y1="148" y2="148"/><line style="stroke: #A80036; stroke-width: 1.5;" x1="7" x2="90" y1="156" y2="156"/><!--class Room--><rect fill="#FEFECE" filter="url(#f1jab4ke4lbhph)" height="48" id="Room" style="stroke: #A80036; stroke-width: 1.5;" width="67" x="126" y="116"/><ellipse cx="141" cy="132" fill="#ADD1B2" rx="11" ry="11" style="stroke: #A80036; stroke-width: 1.0;"/><path d="M144.3438,137.4219 Q143.4844,137.8906 142.7656,138.0625 Q142.0625,138.2344 141.2656,138.2344 Q138.7031,138.2344 137.2969,136.4531 Q135.9063,134.6563 135.9063,131.4688 Q135.9063,128.3125 137.3125,126.5 Q138.7188,124.6875 141.2656,124.6875 Q142.0625,124.6875 142.7656,124.875 Q143.4844,125.0469 144.3438,125.5156 L144.3438,128.1719 Q143.2188,127.2344 142.5625,127 Q141.9063,126.75 141.2656,126.75 Q139.8125,126.75 139.0781,127.8906 Q138.3438,129.0156 138.3438,131.4688 Q138.3438,133.9219 139.0781,135.0625 Q139.8125,136.1875 141.2656,136.1875 Q141.9219,136.1875 142.5625,135.9531 Q143.2188,135.7031 144.3438,134.7656 L144.3438,137.4219 Z "/><text fill="#000000" font-family="sans-serif" font-size="12" lengthAdjust="spacingAndGlyphs" textLength="35" x="155" y="136.1543">Room</text><line style="stroke: #A80036; stroke-width: 1.5;" x1="127" x2="192" y1="148" y2="148"/><line style="stroke: #A80036; stroke-width: 1.5;" x1="127" x2="192" y1="156" y2="156"/><!--class Chair--><rect fill="#FEFECE" filter="url(#f1jab4ke4lbhph)" height="48" id="Chair" style="stroke: #A80036; stroke-width: 1.5;" width="64" x="127.5" y="8"/><ellipse cx="142.5" cy="24" fill="#ADD1B2" rx="11" ry="11" style="stroke: #A80036; stroke-width: 1.0;"/><path d="M145.8438,29.4219 Q144.9844,29.8906 144.2656,30.0625 Q143.5625,30.2344 142.7656,30.2344 Q140.2031,30.2344 138.7969,28.4531 Q137.4063,26.6563 137.4063,23.4688 Q137.4063,20.3125 138.8125,18.5 Q140.2188,16.6875 142.7656,16.6875 Q143.5625,16.6875 144.2656,16.875 Q144.9844,17.0469 145.8438,17.5156 L145.8438,20.1719 Q144.7188,19.2344 144.0625,19 Q143.4063,18.75 142.7656,18.75 Q141.3125,18.75 140.5781,19.8906 Q139.8438,21.0156 139.8438,23.4688 Q139.8438,25.9219 140.5781,27.0625 Q141.3125,28.1875 142.7656,28.1875 Q143.4219,28.1875 144.0625,27.9531 Q144.7188,27.7031 145.8438,26.7656 L145.8438,29.4219 Z "/><text fill="#000000" font-family="sans-serif" font-size="12" lengthAdjust="spacingAndGlyphs" textLength="32" x="156.5" y="28.1543">Chair</text><line style="stroke: #A80036; stroke-width: 1.5;" x1="128.5" x2="190.5" y1="40" y2="40"/><line style="stroke: #A80036; stroke-width: 1.5;" x1="128.5" x2="190.5" y1="48" y2="48"/><!--link Studient to Room--><path d="M91.4258,140 C98.5376,140 105.6495,140 112.7613,140 " fill="none" id="Studient-Room" style="stroke: #A80036; stroke-width: 1.0;"/><polygon fill="#FFFFFF" points="125.9947,140,119.9947,136,113.9947,140,119.9947,144,125.9947,140" style="stroke: #A80036; stroke-width: 1.0;"/><!--link Chair to Room--><path d="M159.5,56.2373 C159.5,69.8553 159.5,87.1457 159.5,102.4766 " fill="none" id="Chair-Room" style="stroke: #A80036; stroke-width: 1.0;"/><polygon fill="#A80036" points="159.5,115.8436,163.5,109.8436,159.5,103.8436,155.5,109.8436,159.5,115.8436" style="stroke: #A80036; stroke-width: 1.0;"/><!--
@startuml
Studient -o Room
Chair - -* Room
@enduml

PlantUML version 1.2019.01(Sat Feb 09 16:32:04 CET 2019)
(GPL source distribution)
Java Runtime: OpenJDK Runtime Environment
JVM: OpenJDK 64-Bit Server VM
Java Version: 11.0.1+13-Ubuntu-3ubuntu3.18.10.1
Operating System: Linux
OS Version: 4.18.0-16-generic
Default Encoding: UTF-8
Language: fr
Country: FR
--></g></svg>