<?xml version="1.0" encoding="UTF-8" standalone="no"?><svg xmlns="http://www.w3.org/2000/svg" xmlns:xlink="http://www.w3.org/1999/xlink" contentScriptType="application/ecmascript" contentStyleType="text/css" height="216px" preserveAspectRatio="none" style="width:163px;height:216px;" version="1.1" viewBox="0 0 163 216" width="163px" zoomAndPan="magnify"><defs><filter height="300%" id="f1g3yse9ti80pl" width="300%" x="-1" y="-1"><feGaussianBlur result="blurOut" stdDeviation="2.0"/><feColorMatrix in="blurOut" result="blurOut2" type="matrix" values="0 0 0 0 0 0 0 0 0 0 0 0 0 0 0 0 0 0 .4 0"/><feOffset dx="4.0" dy="4.0" in="blurOut2" result="blurOut3"/><feBlend in="SourceGraphic" in2="blurOut3" mode="normal"/></filter></defs><g><text fill="#000000" font-family="sans-serif" font-size="18" lengthAdjust="spacingAndGlyphs" textLength="60" x="2" y="16.708">Simple</text><text fill="#000000" font-family="sans-serif" font-size="18" font-weight="bold" lengthAdjust="spacingAndGlyphs" textLength="83" x="68" y="16.708">example</text><text fill="#000000" font-family="sans-serif" font-size="18" lengthAdjust="spacingAndGlyphs" textLength="58" x="47.5" y="37.6611">of title</text><!--class Object--><rect fill="#FEFECE" filter="url(#f1g3yse9ti80pl)" height="48" id="Object" style="stroke: #A80036; stroke-width: 1.5;" width="72" x="34.5" y="49.9063"/><ellipse cx="49.5" cy="65.9063" fill="#ADD1B2" rx="11" ry="11" style="stroke: #A80036; stroke-width: 1.0;"/><path d="M52.8438,71.3281 Q51.9844,71.7969 51.2656,71.9688 Q50.5625,72.1406 49.7656,72.1406 Q47.2031,72.1406 45.7969,70.3594 Q44.4063,68.5625 44.4063,65.375 Q44.4063,62.2188 45.8125,60.4063 Q47.2188,58.5938 49.7656,58.5938 Q50.5625,58.5938 51.2656,58.7813 Q51.9844,58.9531 52.8438,59.4219 L52.8438,62.0781 Q51.7188,61.1406 51.0625,60.9063 Q50.4063,60.6563 49.7656,60.6563 Q48.3125,60.6563 47.5781,61.7969 Q46.8438,62.9219 46.8438,65.375 Q46.8438,67.8281 47.5781,68.9688 Q48.3125,70.0938 49.7656,70.0938 Q50.4219,70.0938 51.0625,69.8594 Q51.7188,69.6094 52.8438,68.6719 L52.8438,71.3281 Z "/><text fill="#000000" font-family="sans-serif" font-size="12" lengthAdjust="spacingAndGlyphs" textLength="40" x="63.5" y="70.0605">Object</text><line style="stroke: #A80036; stroke-width: 1.5;" x1="35.5" x2="105.5" y1="81.9063" y2="81.9063"/><line style="stroke: #A80036; stroke-width: 1.5;" x1="35.5" x2="105.5" y1="89.9063" y2="89.9063"/><!--class ArrayList--><rect fill="#FEFECE" filter="url(#f1g3yse9ti80pl)" height="48" id="ArrayList" style="stroke: #A80036; stroke-width: 1.5;" width="85" x="28" y="157.9063"/><ellipse cx="43" cy="173.9063" fill="#ADD1B2" rx="11" ry="11" style="stroke: #A80036; stroke-width: 1.0;"/><path d="M46.3438,179.3281 Q45.4844,179.7969 44.7656,179.9688 Q44.0625,180.1406 43.2656,180.1406 Q40.7031,180.1406 39.2969,178.3594 Q37.9063,176.5625 37.9063,173.375 Q37.9063,170.2188 39.3125,168.4063 Q40.7188,166.5938 43.2656,166.5938 Q44.0625,166.5938 44.7656,166.7813 Q45.4844,166.9531 46.3438,167.4219 L46.3438,170.0781 Q45.2188,169.1406 44.5625,168.9063 Q43.9063,168.6563 43.2656,168.6563 Q41.8125,168.6563 41.0781,169.7969 Q40.3438,170.9219 40.3438,173.375 Q40.3438,175.8281 41.0781,176.9688 Q41.8125,178.0938 43.2656,178.0938 Q43.9219,178.0938 44.5625,177.8594 Q45.2188,177.6094 46.3438,176.6719 L46.3438,179.3281 Z "/><text fill="#000000" font-family="sans-serif" font-size="12" lengthAdjust="spacingAndGlyphs" textLength="53" x="57" y="178.0605">ArrayList</text><line style="stroke: #A80036; stroke-width: 1.5;" x1="29" x2="112" y1="189.9063" y2="189.9063"/><line style="stroke: #A80036; stroke-width: 1.5;" x1="29" x2="112" y1="197.9063" y2="197.9063"/><!--link Object to ArrayList--><path d="M70.5,118.1974 C70.5,131.7233 70.5,146.0898 70.5,157.7499 " fill="none" id="Object-ArrayList" style="stroke: #A80036; stroke-width: 1.0;"/><polygon fill="none" points="63.5001,118.1436,70.5,98.1436,77.5001,118.1436,63.5001,118.1436" style="stroke: #A80036; stroke-width: 1.0;"/><!--
@startuml
title Simple <b>example</b>\nof title

Object <|- - ArrayList
@enduml

PlantUML version 1.2019.01(Sat Feb 09 16:32:04 CET 2019)
(GPL source distribution)
Java Runtime: OpenJDK Runtime Environment
JVM: OpenJDK 64-Bit Server VM
Java Version: 11.0.1+13-Ubuntu-3ubuntu3.18.10.1
Operating System: Linux
OS Version: 4.18.0-16-generic
Default Encoding: UTF-8
Language: fr
Country: FR
--></g></svg>