<?xml version="1.0" encoding="UTF-8" standalone="no"?><svg xmlns="http://www.w3.org/2000/svg" xmlns:xlink="http://www.w3.org/1999/xlink" contentScriptType="application/ecmascript" contentStyleType="text/css" height="192px" preserveAspectRatio="none" style="width:339px;height:192px;" version="1.1" viewBox="0 0 339 192" width="339px" zoomAndPan="magnify"><defs><filter height="300%" id="fscfnvza271il" width="300%" x="-1" y="-1"><feGaussianBlur result="blurOut" stdDeviation="2.0"/><feColorMatrix in="blurOut" result="blurOut2" type="matrix" values="0 0 0 0 0 0 0 0 0 0 0 0 0 0 0 0 0 0 .4 0"/><feOffset dx="4.0" dy="4.0" in="blurOut2" result="blurOut3"/><feBlend in="SourceGraphic" in2="blurOut3" mode="normal"/></filter></defs><g><!--class class1--><rect fill="#FEFECE" filter="url(#fscfnvza271il)" height="48" id="class1" style="stroke: #A80036; stroke-width: 1.5;" width="128" x="6" y="8"/><ellipse cx="21" cy="24" fill="#ADD1B2" rx="11" ry="11" style="stroke: #A80036; stroke-width: 1.0;"/><path d="M24.3438,29.4219 Q23.4844,29.8906 22.7656,30.0625 Q22.0625,30.2344 21.2656,30.2344 Q18.7031,30.2344 17.2969,28.4531 Q15.9063,26.6563 15.9063,23.4688 Q15.9063,20.3125 17.3125,18.5 Q18.7188,16.6875 21.2656,16.6875 Q22.0625,16.6875 22.7656,16.875 Q23.4844,17.0469 24.3438,17.5156 L24.3438,20.1719 Q23.2188,19.2344 22.5625,19 Q21.9063,18.75 21.2656,18.75 Q19.8125,18.75 19.0781,19.8906 Q18.3438,21.0156 18.3438,23.4688 Q18.3438,25.9219 19.0781,27.0625 Q19.8125,28.1875 21.2656,28.1875 Q21.9219,28.1875 22.5625,27.9531 Q23.2188,27.7031 24.3438,26.7656 L24.3438,29.4219 Z "/><text fill="#000000" font-family="sans-serif" font-size="12" lengthAdjust="spacingAndGlyphs" textLength="96" x="35" y="28.1543">This is my class</text><line style="stroke: #A80036; stroke-width: 1.5;" x1="7" x2="133" y1="40" y2="40"/><line style="stroke: #A80036; stroke-width: 1.5;" x1="7" x2="133" y1="48" y2="48"/><!--class class2--><rect fill="#FEFECE" filter="url(#fscfnvza271il)" height="48" id="class2" style="stroke: #A80036; stroke-width: 1.5;" width="159" x="169.5" y="8"/><ellipse cx="184.5" cy="24" fill="#ADD1B2" rx="11" ry="11" style="stroke: #A80036; stroke-width: 1.0;"/><path d="M187.8438,29.4219 Q186.9844,29.8906 186.2656,30.0625 Q185.5625,30.2344 184.7656,30.2344 Q182.2031,30.2344 180.7969,28.4531 Q179.4063,26.6563 179.4063,23.4688 Q179.4063,20.3125 180.8125,18.5 Q182.2188,16.6875 184.7656,16.6875 Q185.5625,16.6875 186.2656,16.875 Q186.9844,17.0469 187.8438,17.5156 L187.8438,20.1719 Q186.7188,19.2344 186.0625,19 Q185.4063,18.75 184.7656,18.75 Q183.3125,18.75 182.5781,19.8906 Q181.8438,21.0156 181.8438,23.4688 Q181.8438,25.9219 182.5781,27.0625 Q183.3125,28.1875 184.7656,28.1875 Q185.4219,28.1875 186.0625,27.9531 Q186.7188,27.7031 187.8438,26.7656 L187.8438,29.4219 Z "/><text fill="#000000" font-family="sans-serif" font-size="12" lengthAdjust="spacingAndGlyphs" textLength="127" x="198.5" y="28.1543">It works this way too</text><line style="stroke: #A80036; stroke-width: 1.5;" x1="170.5" x2="327.5" y1="40" y2="40"/><line style="stroke: #A80036; stroke-width: 1.5;" x1="170.5" x2="327.5" y1="48" y2="48"/><!--class foo/dummy--><rect fill="#FEFECE" filter="url(#fscfnvza271il)" height="48" id="foo/dummy" style="stroke: #A80036; stroke-width: 1.5;" width="100" x="199" y="133"/><ellipse cx="214" cy="149" fill="#ADD1B2" rx="11" ry="11" style="stroke: #A80036; stroke-width: 1.0;"/><path d="M217.3438,154.4219 Q216.4844,154.8906 215.7656,155.0625 Q215.0625,155.2344 214.2656,155.2344 Q211.7031,155.2344 210.2969,153.4531 Q208.9063,151.6563 208.9063,148.4688 Q208.9063,145.3125 210.3125,143.5 Q211.7188,141.6875 214.2656,141.6875 Q215.0625,141.6875 215.7656,141.875 Q216.4844,142.0469 217.3438,142.5156 L217.3438,145.1719 Q216.2188,144.2344 215.5625,144 Q214.9063,143.75 214.2656,143.75 Q212.8125,143.75 212.0781,144.8906 Q211.3438,146.0156 211.3438,148.4688 Q211.3438,150.9219 212.0781,152.0625 Q212.8125,153.1875 214.2656,153.1875 Q214.9219,153.1875 215.5625,152.9531 Q216.2188,152.7031 217.3438,151.7656 L217.3438,154.4219 Z "/><text fill="#000000" font-family="sans-serif" font-size="12" lengthAdjust="spacingAndGlyphs" textLength="68" x="228" y="153.1543">foo/dummy</text><line style="stroke: #A80036; stroke-width: 1.5;" x1="200" x2="298" y1="165" y2="165"/><line style="stroke: #A80036; stroke-width: 1.5;" x1="200" x2="298" y1="173" y2="173"/><!--link class2 to foo/dummy--><path d="M249,69.2235 C249,89.8612 249,114.921 249,132.9727 " fill="none" id="class2-foo/dummy" style="stroke: #A80036; stroke-width: 1.0;"/><polygon fill="#A80036" points="249,56.1013,245,62.1013,249,68.1013,253,62.1013,249,56.1013" style="stroke: #A80036; stroke-width: 1.0;"/><text fill="#000000" font-family="sans-serif" font-size="13" lengthAdjust="spacingAndGlyphs" textLength="23" x="250" y="99.0669">use</text><!--
@startuml
class "This is my class" as class1
class class2 as "It works this way too"

class2 *- - "foo/dummy" : use
@enduml

PlantUML version 1.2019.01(Sat Feb 09 16:32:04 CET 2019)
(GPL source distribution)
Java Runtime: OpenJDK Runtime Environment
JVM: OpenJDK 64-Bit Server VM
Java Version: 11.0.1+13-Ubuntu-3ubuntu3.18.10.1
Operating System: Linux
OS Version: 4.18.0-16-generic
Default Encoding: UTF-8
Language: fr
Country: FR
--></g></svg>