<?xml version="1.0" encoding="UTF-8" standalone="no"?><svg xmlns="http://www.w3.org/2000/svg" xmlns:xlink="http://www.w3.org/1999/xlink" contentScriptType="application/ecmascript" contentStyleType="text/css" height="231px" preserveAspectRatio="none" style="width:479px;height:231px;" version="1.1" viewBox="0 0 479 231" width="479px" zoomAndPan="magnify"><defs><filter height="300%" id="fl9lvkqlbsvbg" width="300%" x="-1" y="-1"><feGaussianBlur result="blurOut" stdDeviation="2.0"/><feColorMatrix in="blurOut" result="blurOut2" type="matrix" values="0 0 0 0 0 0 0 0 0 0 0 0 0 0 0 0 0 0 .4 0"/><feOffset dx="4.0" dy="4.0" in="blurOut2" result="blurOut3"/><feBlend in="SourceGraphic" in2="blurOut3" mode="normal"/></filter></defs><g><!--class Dummy--><rect fill="#FEFECE" filter="url(#fl9lvkqlbsvbg)" height="48" id="Dummy" style="stroke: #A80036; stroke-width: 1.5;" width="77" x="81" y="8"/><ellipse cx="96" cy="24" fill="#ADD1B2" rx="11" ry="11" style="stroke: #A80036; stroke-width: 1.0;"/><path d="M99.3438,29.4219 Q98.4844,29.8906 97.7656,30.0625 Q97.0625,30.2344 96.2656,30.2344 Q93.7031,30.2344 92.2969,28.4531 Q90.9063,26.6563 90.9063,23.4688 Q90.9063,20.3125 92.3125,18.5 Q93.7188,16.6875 96.2656,16.6875 Q97.0625,16.6875 97.7656,16.875 Q98.4844,17.0469 99.3438,17.5156 L99.3438,20.1719 Q98.2188,19.2344 97.5625,19 Q96.9063,18.75 96.2656,18.75 Q94.8125,18.75 94.0781,19.8906 Q93.3438,21.0156 93.3438,23.4688 Q93.3438,25.9219 94.0781,27.0625 Q94.8125,28.1875 96.2656,28.1875 Q96.9219,28.1875 97.5625,27.9531 Q98.2188,27.7031 99.3438,26.7656 L99.3438,29.4219 Z "/><text fill="#000000" font-family="sans-serif" font-size="12" lengthAdjust="spacingAndGlyphs" textLength="45" x="110" y="28.1543">Dummy</text><line style="stroke: #A80036; stroke-width: 1.5;" x1="82" x2="157" y1="40" y2="40"/><line style="stroke: #A80036; stroke-width: 1.5;" x1="82" x2="157" y1="48" y2="48"/><!--class Foo--><rect fill="#FEFECE" filter="url(#fl9lvkqlbsvbg)" height="48" id="Foo" style="stroke: #A80036; stroke-width: 1.5;" width="55" x="6" y="172"/><ellipse cx="21" cy="188" fill="#ADD1B2" rx="11" ry="11" style="stroke: #A80036; stroke-width: 1.0;"/><path d="M24.3438,193.4219 Q23.4844,193.8906 22.7656,194.0625 Q22.0625,194.2344 21.2656,194.2344 Q18.7031,194.2344 17.2969,192.4531 Q15.9063,190.6563 15.9063,187.4688 Q15.9063,184.3125 17.3125,182.5 Q18.7188,180.6875 21.2656,180.6875 Q22.0625,180.6875 22.7656,180.875 Q23.4844,181.0469 24.3438,181.5156 L24.3438,184.1719 Q23.2188,183.2344 22.5625,183 Q21.9063,182.75 21.2656,182.75 Q19.8125,182.75 19.0781,183.8906 Q18.3438,185.0156 18.3438,187.4688 Q18.3438,189.9219 19.0781,191.0625 Q19.8125,192.1875 21.2656,192.1875 Q21.9219,192.1875 22.5625,191.9531 Q23.2188,191.7031 24.3438,190.7656 L24.3438,193.4219 Z "/><text fill="#000000" font-family="sans-serif" font-size="12" lengthAdjust="spacingAndGlyphs" textLength="23" x="35" y="192.1543">Foo</text><line style="stroke: #A80036; stroke-width: 1.5;" x1="7" x2="60" y1="204" y2="204"/><line style="stroke: #A80036; stroke-width: 1.5;" x1="7" x2="60" y1="212" y2="212"/><!--class Foo2--><rect fill="#FEFECE" filter="url(#fl9lvkqlbsvbg)" height="48" id="Foo2" style="stroke: #A80036; stroke-width: 1.5;" width="63" x="175" y="172"/><ellipse cx="190" cy="188" fill="#ADD1B2" rx="11" ry="11" style="stroke: #A80036; stroke-width: 1.0;"/><path d="M193.3438,193.4219 Q192.4844,193.8906 191.7656,194.0625 Q191.0625,194.2344 190.2656,194.2344 Q187.7031,194.2344 186.2969,192.4531 Q184.9063,190.6563 184.9063,187.4688 Q184.9063,184.3125 186.3125,182.5 Q187.7188,180.6875 190.2656,180.6875 Q191.0625,180.6875 191.7656,180.875 Q192.4844,181.0469 193.3438,181.5156 L193.3438,184.1719 Q192.2188,183.2344 191.5625,183 Q190.9063,182.75 190.2656,182.75 Q188.8125,182.75 188.0781,183.8906 Q187.3438,185.0156 187.3438,187.4688 Q187.3438,189.9219 188.0781,191.0625 Q188.8125,192.1875 190.2656,192.1875 Q190.9219,192.1875 191.5625,191.9531 Q192.2188,191.7031 193.3438,190.7656 L193.3438,193.4219 Z "/><text fill="#000000" font-family="sans-serif" font-size="12" lengthAdjust="spacingAndGlyphs" textLength="31" x="204" y="192.1543">Foo2</text><line style="stroke: #A80036; stroke-width: 1.5;" x1="176" x2="237" y1="204" y2="204"/><line style="stroke: #A80036; stroke-width: 1.5;" x1="176" x2="237" y1="212" y2="212"/><!--link Dummy to Foo--><path d="M80.7638,45.1039 C62.0361,53.6214 41.3161,66.786 30.5,86 C16.6469,110.6088 19.7923,143.4742 24.9243,166.856 " fill="none" id="Dummy-Foo" style="stroke: #A80036; stroke-width: 1.0;"/><polygon fill="#A80036" points="26.1164,171.9907,27.9775,162.3193,24.9857,167.1202,20.1848,164.1284,26.1164,171.9907" style="stroke: #A80036; stroke-width: 1.0;"/><text fill="#000000" font-family="sans-serif" font-size="13" lengthAdjust="spacingAndGlyphs" textLength="34" x="80" y="99.0669">A link</text><path d="M35.5,108.1328 L35.5,133.1328 L154.5,133.1328 L154.5,118.1328 L144.5,108.1328 L35.5,108.1328 " fill="#FF0000" filter="url(#fl9lvkqlbsvbg)" style="stroke: #A80036; stroke-width: 1.0;"/><path d="M144.5,108.1328 L144.5,118.1328 L154.5,118.1328 L144.5,108.1328 " fill="#FF0000" style="stroke: #A80036; stroke-width: 1.0;"/><text fill="#000000" font-family="sans-serif" font-size="13" lengthAdjust="spacingAndGlyphs" textLength="98" x="41.5" y="125.1997">note that is red</text><!--link Dummy to Foo2--><path d="M144.637,56.2244 C152.747,65.0231 161.2468,75.4169 167.5,86 C182.5448,111.462 193.1119,143.6482 199.4165,166.6137 " fill="none" id="Dummy-Foo2" style="stroke: #A80036; stroke-width: 1.0;"/><polygon fill="#A80036" points="200.774,171.6592,202.2984,161.929,199.475,166.8309,194.5731,164.0074,200.774,171.6592" style="stroke: #A80036; stroke-width: 1.0;"/><text fill="#000000" font-family="sans-serif" font-size="13" lengthAdjust="spacingAndGlyphs" textLength="76" x="192.5" y="118.6333">Another link</text><path d="M274.5,92 L274.5,132 L467.5,132 L467.5,102 L457.5,92 L274.5,92 " fill="#0000FF" filter="url(#fl9lvkqlbsvbg)" style="stroke: #A80036; stroke-width: 1.0;"/><path d="M457.5,92 L457.5,102 L467.5,102 L457.5,92 " fill="#0000FF" style="stroke: #A80036; stroke-width: 1.0;"/><text fill="#000000" font-family="sans-serif" font-size="13" lengthAdjust="spacingAndGlyphs" textLength="172" x="280.5" y="109.0669">this is my note on right link</text><text fill="#000000" font-family="sans-serif" font-size="13" lengthAdjust="spacingAndGlyphs" textLength="70" x="280.5" y="124.1997">and in blue</text><!--
@startuml
class Dummy
Dummy - -> Foo : A link
note on link #red: note that is red

Dummy - -> Foo2 : Another link
note right on link #blue
this is my note on right link
and in blue
end note
@enduml

PlantUML version 1.2019.01(Sat Feb 09 16:32:04 CET 2019)
(GPL source distribution)
Java Runtime: OpenJDK Runtime Environment
JVM: OpenJDK 64-Bit Server VM
Java Version: 11.0.1+13-Ubuntu-3ubuntu3.18.10.1
Operating System: Linux
OS Version: 4.18.0-16-generic
Default Encoding: UTF-8
Language: fr
Country: FR
--></g></svg>