<?xml version="1.0" encoding="UTF-8" standalone="no"?><svg xmlns="http://www.w3.org/2000/svg" xmlns:xlink="http://www.w3.org/1999/xlink" contentScriptType="application/ecmascript" contentStyleType="text/css" height="127px" preserveAspectRatio="none" style="width:667px;height:127px;" version="1.1" viewBox="0 0 667 127" width="667px" zoomAndPan="magnify"><defs><filter height="300%" id="f822nbx69rmyy" width="300%" x="-1" y="-1"><feGaussianBlur result="blurOut" stdDeviation="2.0"/><feColorMatrix in="blurOut" result="blurOut2" type="matrix" values="0 0 0 0 0 0 0 0 0 0 0 0 0 0 0 0 0 0 .4 0"/><feOffset dx="4.0" dy="4.0" in="blurOut2" result="blurOut3"/><feBlend in="SourceGraphic" in2="blurOut3" mode="normal"/></filter></defs><g><!--cluster foo1--><polygon fill="#FFFFFF" filter="url(#f822nbx69rmyy)" points="14,37,24,27,125,27,125,105,115,115,14,115,14,37" style="stroke: #000000; stroke-width: 1.5;"/><line style="stroke: #000000; stroke-width: 1.5;" x1="115" x2="124" y1="37" y2="28"/><line style="stroke: #000000; stroke-width: 1.5;" x1="14" x2="115" y1="37" y2="37"/><line style="stroke: #000000; stroke-width: 1.5;" x1="115" x2="115" y1="37" y2="115"/><text fill="#000000" font-family="sans-serif" font-size="14" font-weight="bold" lengthAdjust="spacingAndGlyphs" textLength="35" x="48" y="52.9951">foo1</text><!--cluster foo2--><polygon fill="#FFFFFF" filter="url(#f822nbx69rmyy)" points="133,16,174,16,181,38.2969,223,38.2969,223,115,133,115,133,16" style="stroke: #000000; stroke-width: 1.5;"/><line style="stroke: #000000; stroke-width: 1.5;" x1="133" x2="181" y1="38.2969" y2="38.2969"/><text fill="#000000" font-family="sans-serif" font-size="14" font-weight="bold" lengthAdjust="spacingAndGlyphs" textLength="35" x="137" y="30.9951">foo2</text><text fill="#000000" font-family="sans-serif" font-size="14" font-style="italic" lengthAdjust="spacingAndGlyphs" textLength="50" x="157" y="53.292">«Rect»</text><!--cluster foo3--><polygon fill="#FFFFFF" filter="url(#f822nbx69rmyy)" points="241,32,282,32,289,54.2969,331,54.2969,331,115,241,115,241,32" style="stroke: #000000; stroke-width: 1.5;"/><line style="stroke: #000000; stroke-width: 1.5;" x1="241" x2="289" y1="54.2969" y2="54.2969"/><text fill="#000000" font-family="sans-serif" font-size="14" font-weight="bold" lengthAdjust="spacingAndGlyphs" textLength="35" x="245" y="46.9951">foo3</text><!--cluster foo4--><rect fill="#FFFFFF" filter="url(#f822nbx69rmyy)" height="83" style="stroke: #000000; stroke-width: 1.5;" width="90" x="349" y="32"/><path d="M394,33 L394,41.2969 L384,51.2969 L349,51.2969 " fill="none" style="stroke: #000000; stroke-width: 1.5;"/><text fill="#000000" font-family="sans-serif" font-size="14" font-weight="bold" lengthAdjust="spacingAndGlyphs" textLength="35" x="352" y="45.9951">foo4</text><!--cluster foo5--><path d="M460,39 C460,36 462,34 465,34 C468,34 470,36 470,39 C470,36 472,34 475,34 C478,34 480,36 480,39 C480,36 482,34 485,34 C488,34 490,36 490,39 C490,36 492,34 495,34 C498,34 500,36 500,39 C500,36 502,34 505,34 C508,34 510,36 510,39 C510,36 512,34 515,34 C518,34 520,36 520,39 C520,36 522,34 525,34 C528,34 530,36 530,39 C530,36 532,34 535,34 C538,34 540,36 540,39 C540,36 542,34 545,34 C548,34 550,36 550,39 C553,39 555,41 555,44 C555,47 553,49 550,49 C553,49 555,51 555,54 C555,57 553,59 550,59 C553,59 555,61 555,64 C555,67 553,69 550,69 C553,69 555,71 555,74 C555,77 553,79 550,79 C553,79 555,81 555,84 C555,87 553,89 550,89 C553,89 555,91 555,94 C555,97 553,99 550,99 C553,99 555,101 555,104 C555,107 553,109 550,109 C550,112 547,114 545,114 C542,114 540,112 540,109 C540,112 537,114 535,114 C532,114 530,112 530,109 C530,112 527,114 525,114 C522,114 520,112 520,109 C520,112 517,114 515,114 C512,114 510,112 510,109 C510,112 507,114 505,114 C502,114 500,112 500,109 C500,112 497,114 495,114 C492,114 490,112 490,109 C490,112 487,114 485,114 C482,114 480,112 480,109 C480,112 477,114 475,114 C472,114 470,112 470,109 C470,112 467,114 465,114 C462,114 460,112 460,109 C457,109 455,107 455,104 C455,101 457,99 460,99 C457,99 455,97 455,94 C455,91 457,89 460,89 C457,89 455,87 455,84 C455,81 457,79 460,79 C457,79 455,77 455,74 C455,71 457,69 460,69 C457,69 455,67 455,64 C455,61 457,59 460,59 C457,59 455,57 455,54 C455,51 457,49 460,49 C457,49 455,47 455,44 C455,41 457,39 460,39 " fill="#FFFFFF" filter="url(#f822nbx69rmyy)" style="stroke: #000000; stroke-width: 1.5;"/><text fill="#000000" font-family="sans-serif" font-size="14" font-weight="bold" lengthAdjust="spacingAndGlyphs" textLength="35" x="484.5" y="57.9951">foo5</text><!--cluster foo6--><path d="M565,27 C565,17 610,17 610,17 C610,17 655,17 655,27 L655,105 C655,115 610,115 610,115 C610,115 565,115 565,105 L565,27 " fill="#FFFFFF" filter="url(#f822nbx69rmyy)" style="stroke: #000000; stroke-width: 1.5;"/><path d="M565,27 C565,37 610,37 610,37 C610,37 655,37 655,27 " fill="none" style="stroke: #000000; stroke-width: 1.5;"/><text fill="#000000" font-family="sans-serif" font-size="14" font-weight="bold" lengthAdjust="spacingAndGlyphs" textLength="35" x="592.5" y="51.9951">foo6</text><!--class Class1--><rect fill="#FEFECE" filter="url(#f822nbx69rmyy)" height="48" id="Class1" style="stroke: #A80036; stroke-width: 1.5;" width="73" x="27.5" y="59"/><ellipse cx="42.5" cy="75" fill="#ADD1B2" rx="11" ry="11" style="stroke: #A80036; stroke-width: 1.0;"/><path d="M45.8438,80.4219 Q44.9844,80.8906 44.2656,81.0625 Q43.5625,81.2344 42.7656,81.2344 Q40.2031,81.2344 38.7969,79.4531 Q37.4063,77.6563 37.4063,74.4688 Q37.4063,71.3125 38.8125,69.5 Q40.2188,67.6875 42.7656,67.6875 Q43.5625,67.6875 44.2656,67.875 Q44.9844,68.0469 45.8438,68.5156 L45.8438,71.1719 Q44.7188,70.2344 44.0625,70 Q43.4063,69.75 42.7656,69.75 Q41.3125,69.75 40.5781,70.8906 Q39.8438,72.0156 39.8438,74.4688 Q39.8438,76.9219 40.5781,78.0625 Q41.3125,79.1875 42.7656,79.1875 Q43.4219,79.1875 44.0625,78.9531 Q44.7188,78.7031 45.8438,77.7656 L45.8438,80.4219 Z "/><text fill="#000000" font-family="sans-serif" font-size="12" lengthAdjust="spacingAndGlyphs" textLength="41" x="56.5" y="79.1543">Class1</text><line style="stroke: #A80036; stroke-width: 1.5;" x1="28.5" x2="99.5" y1="91" y2="91"/><line style="stroke: #A80036; stroke-width: 1.5;" x1="28.5" x2="99.5" y1="99" y2="99"/><!--class Class2--><rect fill="#FEFECE" filter="url(#f822nbx69rmyy)" height="48" id="Class2" style="stroke: #A80036; stroke-width: 1.5;" width="73" x="141.5" y="59"/><ellipse cx="156.5" cy="75" fill="#ADD1B2" rx="11" ry="11" style="stroke: #A80036; stroke-width: 1.0;"/><path d="M159.8438,80.4219 Q158.9844,80.8906 158.2656,81.0625 Q157.5625,81.2344 156.7656,81.2344 Q154.2031,81.2344 152.7969,79.4531 Q151.4063,77.6563 151.4063,74.4688 Q151.4063,71.3125 152.8125,69.5 Q154.2188,67.6875 156.7656,67.6875 Q157.5625,67.6875 158.2656,67.875 Q158.9844,68.0469 159.8438,68.5156 L159.8438,71.1719 Q158.7188,70.2344 158.0625,70 Q157.4063,69.75 156.7656,69.75 Q155.3125,69.75 154.5781,70.8906 Q153.8438,72.0156 153.8438,74.4688 Q153.8438,76.9219 154.5781,78.0625 Q155.3125,79.1875 156.7656,79.1875 Q157.4219,79.1875 158.0625,78.9531 Q158.7188,78.7031 159.8438,77.7656 L159.8438,80.4219 Z "/><text fill="#000000" font-family="sans-serif" font-size="12" lengthAdjust="spacingAndGlyphs" textLength="41" x="170.5" y="79.1543">Class2</text><line style="stroke: #A80036; stroke-width: 1.5;" x1="142.5" x2="213.5" y1="91" y2="91"/><line style="stroke: #A80036; stroke-width: 1.5;" x1="142.5" x2="213.5" y1="99" y2="99"/><!--class Class3--><rect fill="#FEFECE" filter="url(#f822nbx69rmyy)" height="48" id="Class3" style="stroke: #A80036; stroke-width: 1.5;" width="73" x="249.5" y="59"/><ellipse cx="264.5" cy="75" fill="#ADD1B2" rx="11" ry="11" style="stroke: #A80036; stroke-width: 1.0;"/><path d="M267.8438,80.4219 Q266.9844,80.8906 266.2656,81.0625 Q265.5625,81.2344 264.7656,81.2344 Q262.2031,81.2344 260.7969,79.4531 Q259.4063,77.6563 259.4063,74.4688 Q259.4063,71.3125 260.8125,69.5 Q262.2188,67.6875 264.7656,67.6875 Q265.5625,67.6875 266.2656,67.875 Q266.9844,68.0469 267.8438,68.5156 L267.8438,71.1719 Q266.7188,70.2344 266.0625,70 Q265.4063,69.75 264.7656,69.75 Q263.3125,69.75 262.5781,70.8906 Q261.8438,72.0156 261.8438,74.4688 Q261.8438,76.9219 262.5781,78.0625 Q263.3125,79.1875 264.7656,79.1875 Q265.4219,79.1875 266.0625,78.9531 Q266.7188,78.7031 267.8438,77.7656 L267.8438,80.4219 Z "/><text fill="#000000" font-family="sans-serif" font-size="12" lengthAdjust="spacingAndGlyphs" textLength="41" x="278.5" y="79.1543">Class3</text><line style="stroke: #A80036; stroke-width: 1.5;" x1="250.5" x2="321.5" y1="91" y2="91"/><line style="stroke: #A80036; stroke-width: 1.5;" x1="250.5" x2="321.5" y1="99" y2="99"/><!--class Class4--><rect fill="#FEFECE" filter="url(#f822nbx69rmyy)" height="48" id="Class4" style="stroke: #A80036; stroke-width: 1.5;" width="73" x="357.5" y="59"/><ellipse cx="372.5" cy="75" fill="#ADD1B2" rx="11" ry="11" style="stroke: #A80036; stroke-width: 1.0;"/><path d="M375.8438,80.4219 Q374.9844,80.8906 374.2656,81.0625 Q373.5625,81.2344 372.7656,81.2344 Q370.2031,81.2344 368.7969,79.4531 Q367.4063,77.6563 367.4063,74.4688 Q367.4063,71.3125 368.8125,69.5 Q370.2188,67.6875 372.7656,67.6875 Q373.5625,67.6875 374.2656,67.875 Q374.9844,68.0469 375.8438,68.5156 L375.8438,71.1719 Q374.7188,70.2344 374.0625,70 Q373.4063,69.75 372.7656,69.75 Q371.3125,69.75 370.5781,70.8906 Q369.8438,72.0156 369.8438,74.4688 Q369.8438,76.9219 370.5781,78.0625 Q371.3125,79.1875 372.7656,79.1875 Q373.4219,79.1875 374.0625,78.9531 Q374.7188,78.7031 375.8438,77.7656 L375.8438,80.4219 Z "/><text fill="#000000" font-family="sans-serif" font-size="12" lengthAdjust="spacingAndGlyphs" textLength="41" x="386.5" y="79.1543">Class4</text><line style="stroke: #A80036; stroke-width: 1.5;" x1="358.5" x2="429.5" y1="91" y2="91"/><line style="stroke: #A80036; stroke-width: 1.5;" x1="358.5" x2="429.5" y1="99" y2="99"/><!--class Class5--><rect fill="#FEFECE" filter="url(#f822nbx69rmyy)" height="48" id="Class5" style="stroke: #A80036; stroke-width: 1.5;" width="73" x="465.5" y="59"/><ellipse cx="480.5" cy="75" fill="#ADD1B2" rx="11" ry="11" style="stroke: #A80036; stroke-width: 1.0;"/><path d="M483.8438,80.4219 Q482.9844,80.8906 482.2656,81.0625 Q481.5625,81.2344 480.7656,81.2344 Q478.2031,81.2344 476.7969,79.4531 Q475.4063,77.6563 475.4063,74.4688 Q475.4063,71.3125 476.8125,69.5 Q478.2188,67.6875 480.7656,67.6875 Q481.5625,67.6875 482.2656,67.875 Q482.9844,68.0469 483.8438,68.5156 L483.8438,71.1719 Q482.7188,70.2344 482.0625,70 Q481.4063,69.75 480.7656,69.75 Q479.3125,69.75 478.5781,70.8906 Q477.8438,72.0156 477.8438,74.4688 Q477.8438,76.9219 478.5781,78.0625 Q479.3125,79.1875 480.7656,79.1875 Q481.4219,79.1875 482.0625,78.9531 Q482.7188,78.7031 483.8438,77.7656 L483.8438,80.4219 Z "/><text fill="#000000" font-family="sans-serif" font-size="12" lengthAdjust="spacingAndGlyphs" textLength="41" x="494.5" y="79.1543">Class5</text><line style="stroke: #A80036; stroke-width: 1.5;" x1="466.5" x2="537.5" y1="91" y2="91"/><line style="stroke: #A80036; stroke-width: 1.5;" x1="466.5" x2="537.5" y1="99" y2="99"/><!--class Class6--><rect fill="#FEFECE" filter="url(#f822nbx69rmyy)" height="48" id="Class6" style="stroke: #A80036; stroke-width: 1.5;" width="73" x="573.5" y="59"/><ellipse cx="588.5" cy="75" fill="#ADD1B2" rx="11" ry="11" style="stroke: #A80036; stroke-width: 1.0;"/><path d="M591.8438,80.4219 Q590.9844,80.8906 590.2656,81.0625 Q589.5625,81.2344 588.7656,81.2344 Q586.2031,81.2344 584.7969,79.4531 Q583.4063,77.6563 583.4063,74.4688 Q583.4063,71.3125 584.8125,69.5 Q586.2188,67.6875 588.7656,67.6875 Q589.5625,67.6875 590.2656,67.875 Q590.9844,68.0469 591.8438,68.5156 L591.8438,71.1719 Q590.7188,70.2344 590.0625,70 Q589.4063,69.75 588.7656,69.75 Q587.3125,69.75 586.5781,70.8906 Q585.8438,72.0156 585.8438,74.4688 Q585.8438,76.9219 586.5781,78.0625 Q587.3125,79.1875 588.7656,79.1875 Q589.4219,79.1875 590.0625,78.9531 Q590.7188,78.7031 591.8438,77.7656 L591.8438,80.4219 Z "/><text fill="#000000" font-family="sans-serif" font-size="12" lengthAdjust="spacingAndGlyphs" textLength="41" x="602.5" y="79.1543">Class6</text><line style="stroke: #A80036; stroke-width: 1.5;" x1="574.5" x2="645.5" y1="91" y2="91"/><line style="stroke: #A80036; stroke-width: 1.5;" x1="574.5" x2="645.5" y1="99" y2="99"/><!--
@startuml
package foo1 <<Node>> {
    class Class1
}

package foo2 <<Rect>> {
    class Class2
}

package foo3 <<Folder>> {
    class Class3
}

package foo4 <<Frame>> {
    class Class4
}

package foo5 <<Cloud>> {
    class Class5
}

package foo6 <<Database>> {
    class Class6
}
@enduml

PlantUML version 1.2019.01(Sat Feb 09 16:32:04 CET 2019)
(GPL source distribution)
Java Runtime: OpenJDK Runtime Environment
JVM: OpenJDK 64-Bit Server VM
Java Version: 11.0.1+13-Ubuntu-3ubuntu3.18.10.1
Operating System: Linux
OS Version: 4.18.0-16-generic
Default Encoding: UTF-8
Language: fr
Country: FR
--></g></svg>