<?xml version="1.0" encoding="UTF-8" standalone="no"?><svg xmlns="http://www.w3.org/2000/svg" xmlns:xlink="http://www.w3.org/1999/xlink" contentScriptType="application/ecmascript" contentStyleType="text/css" height="118px" preserveAspectRatio="none" style="width:96px;height:118px;" version="1.1" viewBox="0 0 96 118" width="96px" zoomAndPan="magnify"><defs><filter height="300%" id="fqt28m5hobtib" width="300%" x="-1" y="-1"><feGaussianBlur result="blurOut" stdDeviation="2.0"/><feColorMatrix in="blurOut" result="blurOut2" type="matrix" values="0 0 0 0 0 0 0 0 0 0 0 0 0 0 0 0 0 0 .4 0"/><feOffset dx="4.0" dy="4.0" in="blurOut2" result="blurOut3"/><feBlend in="SourceGraphic" in2="blurOut3" mode="normal"/></filter></defs><g><!--class Dummy--><rect fill="#FEFECE" filter="url(#fqt28m5hobtib)" height="99.2188" id="Dummy" style="stroke: #A80036; stroke-width: 1.5;" width="79" x="6" y="8"/><ellipse cx="21.9" cy="24" fill="#ADD1B2" rx="11" ry="11" style="stroke: #A80036; stroke-width: 1.0;"/><path d="M25.2438,29.4219 Q24.3844,29.8906 23.6656,30.0625 Q22.9625,30.2344 22.1656,30.2344 Q19.6031,30.2344 18.1969,28.4531 Q16.8063,26.6563 16.8063,23.4688 Q16.8063,20.3125 18.2125,18.5 Q19.6188,16.6875 22.1656,16.6875 Q22.9625,16.6875 23.6656,16.875 Q24.3844,17.0469 25.2438,17.5156 L25.2438,20.1719 Q24.1188,19.2344 23.4625,19 Q22.8063,18.75 22.1656,18.75 Q20.7125,18.75 19.9781,19.8906 Q19.2438,21.0156 19.2438,23.4688 Q19.2438,25.9219 19.9781,27.0625 Q20.7125,28.1875 22.1656,28.1875 Q22.8219,28.1875 23.4625,27.9531 Q24.1188,27.7031 25.2438,26.7656 L25.2438,29.4219 Z "/><text fill="#000000" font-family="sans-serif" font-size="12" lengthAdjust="spacingAndGlyphs" textLength="45" x="36.1" y="28.1543">Dummy</text><line style="stroke: #A80036; stroke-width: 1.5;" x1="7" x2="84" y1="40" y2="40"/><text fill="#000000" font-family="sans-serif" font-size="11" lengthAdjust="spacingAndGlyphs" textLength="35" x="12" y="54.2104">-field1</text><text fill="#000000" font-family="sans-serif" font-size="11" lengthAdjust="spacingAndGlyphs" textLength="40" x="12" y="67.0151">#field2</text><line style="stroke: #A80036; stroke-width: 1.5;" x1="7" x2="84" y1="73.6094" y2="73.6094"/><text fill="#000000" font-family="sans-serif" font-size="11" lengthAdjust="spacingAndGlyphs" textLength="67" x="12" y="87.8198">~method1()</text><text fill="#000000" font-family="sans-serif" font-size="11" lengthAdjust="spacingAndGlyphs" textLength="67" x="12" y="100.6245">+method2()</text><!--
@startuml
skinparam classAttributeIconSize 0

class Dummy {
-field1
#field2
~method1()
+method2()
}
@enduml

PlantUML version 1.2019.01(Sat Feb 09 16:32:04 CET 2019)
(GPL source distribution)
Java Runtime: OpenJDK Runtime Environment
JVM: OpenJDK 64-Bit Server VM
Java Version: 11.0.1+13-Ubuntu-3ubuntu3.18.10.1
Operating System: Linux
OS Version: 4.18.0-16-generic
Default Encoding: UTF-8
Language: fr
Country: FR
--></g></svg>