<?xml version="1.0" encoding="UTF-8" standalone="no"?><svg xmlns="http://www.w3.org/2000/svg" xmlns:xlink="http://www.w3.org/1999/xlink" contentScriptType="application/ecmascript" contentStyleType="text/css" height="322px" preserveAspectRatio="none" style="width:194px;height:322px;" version="1.1" viewBox="0 0 194 322" width="194px" zoomAndPan="magnify"><defs><filter height="300%" id="f1iqk4rfwp716u" width="300%" x="-1" y="-1"><feGaussianBlur result="blurOut" stdDeviation="2.0"/><feColorMatrix in="blurOut" result="blurOut2" type="matrix" values="0 0 0 0 0 0 0 0 0 0 0 0 0 0 0 0 0 0 .4 0"/><feOffset dx="4.0" dy="4.0" in="blurOut2" result="blurOut3"/><feBlend in="SourceGraphic" in2="blurOut3" mode="normal"/></filter></defs><g><!--class Student--><rect fill="#FEFECE" filter="url(#f1iqk4rfwp716u)" height="60.8047" id="Student" style="stroke: #A80036; stroke-width: 1.5;" width="82" x="6" y="8"/><ellipse cx="21" cy="24" fill="#ADD1B2" rx="11" ry="11" style="stroke: #A80036; stroke-width: 1.0;"/><path d="M24.3438,29.4219 Q23.4844,29.8906 22.7656,30.0625 Q22.0625,30.2344 21.2656,30.2344 Q18.7031,30.2344 17.2969,28.4531 Q15.9063,26.6563 15.9063,23.4688 Q15.9063,20.3125 17.3125,18.5 Q18.7188,16.6875 21.2656,16.6875 Q22.0625,16.6875 22.7656,16.875 Q23.4844,17.0469 24.3438,17.5156 L24.3438,20.1719 Q23.2188,19.2344 22.5625,19 Q21.9063,18.75 21.2656,18.75 Q19.8125,18.75 19.0781,19.8906 Q18.3438,21.0156 18.3438,23.4688 Q18.3438,25.9219 19.0781,27.0625 Q19.8125,28.1875 21.2656,28.1875 Q21.9219,28.1875 22.5625,27.9531 Q23.2188,27.7031 24.3438,26.7656 L24.3438,29.4219 Z "/><text fill="#000000" font-family="sans-serif" font-size="12" lengthAdjust="spacingAndGlyphs" textLength="50" x="35" y="28.1543">Student</text><line style="stroke: #A80036; stroke-width: 1.5;" x1="7" x2="87" y1="40" y2="40"/><text fill="#000000" font-family="sans-serif" font-size="11" lengthAdjust="spacingAndGlyphs" textLength="33" x="12" y="54.2104">Name</text><line style="stroke: #A80036; stroke-width: 1.5;" x1="7" x2="87" y1="60.8047" y2="60.8047"/><!--class Course--><rect fill="#FEFECE" filter="url(#f1iqk4rfwp716u)" height="48" id="Course" style="stroke: #A80036; stroke-width: 1.5;" width="76" x="9" y="263"/><ellipse cx="24" cy="279" fill="#ADD1B2" rx="11" ry="11" style="stroke: #A80036; stroke-width: 1.0;"/><path d="M27.3438,284.4219 Q26.4844,284.8906 25.7656,285.0625 Q25.0625,285.2344 24.2656,285.2344 Q21.7031,285.2344 20.2969,283.4531 Q18.9063,281.6563 18.9063,278.4688 Q18.9063,275.3125 20.3125,273.5 Q21.7188,271.6875 24.2656,271.6875 Q25.0625,271.6875 25.7656,271.875 Q26.4844,272.0469 27.3438,272.5156 L27.3438,275.1719 Q26.2188,274.2344 25.5625,274 Q24.9063,273.75 24.2656,273.75 Q22.8125,273.75 22.0781,274.8906 Q21.3438,276.0156 21.3438,278.4688 Q21.3438,280.9219 22.0781,282.0625 Q22.8125,283.1875 24.2656,283.1875 Q24.9219,283.1875 25.5625,282.9531 Q26.2188,282.7031 27.3438,281.7656 L27.3438,284.4219 Z "/><text fill="#000000" font-family="sans-serif" font-size="12" lengthAdjust="spacingAndGlyphs" textLength="44" x="38" y="283.1543">Course</text><line style="stroke: #A80036; stroke-width: 1.5;" x1="10" x2="84" y1="295" y2="295"/><line style="stroke: #A80036; stroke-width: 1.5;" x1="10" x2="84" y1="303" y2="303"/><!--class Enrollment--><rect fill="#FEFECE" filter="url(#f1iqk4rfwp716u)" height="73.6094" id="Enrollment" style="stroke: #A80036; stroke-width: 1.5;" width="99" x="84.5" y="129"/><ellipse cx="99.5" cy="145" fill="#ADD1B2" rx="11" ry="11" style="stroke: #A80036; stroke-width: 1.0;"/><path d="M102.8438,150.4219 Q101.9844,150.8906 101.2656,151.0625 Q100.5625,151.2344 99.7656,151.2344 Q97.2031,151.2344 95.7969,149.4531 Q94.4063,147.6563 94.4063,144.4688 Q94.4063,141.3125 95.8125,139.5 Q97.2188,137.6875 99.7656,137.6875 Q100.5625,137.6875 101.2656,137.875 Q101.9844,138.0469 102.8438,138.5156 L102.8438,141.1719 Q101.7188,140.2344 101.0625,140 Q100.4063,139.75 99.7656,139.75 Q98.3125,139.75 97.5781,140.8906 Q96.8438,142.0156 96.8438,144.4688 Q96.8438,146.9219 97.5781,148.0625 Q98.3125,149.1875 99.7656,149.1875 Q100.4219,149.1875 101.0625,148.9531 Q101.7188,148.7031 102.8438,147.7656 L102.8438,150.4219 Z "/><text fill="#000000" font-family="sans-serif" font-size="12" lengthAdjust="spacingAndGlyphs" textLength="67" x="113.5" y="149.1543">Enrollment</text><line style="stroke: #A80036; stroke-width: 1.5;" x1="85.5" x2="182.5" y1="161" y2="161"/><line style="stroke: #A80036; stroke-width: 1.5;" x1="85.5" x2="182.5" y1="169" y2="169"/><text fill="#000000" font-family="sans-serif" font-size="11" lengthAdjust="spacingAndGlyphs" textLength="34" x="90.5" y="183.2104">drop()</text><text fill="#000000" font-family="sans-serif" font-size="11" lengthAdjust="spacingAndGlyphs" textLength="44" x="90.5" y="196.0151">cancel()</text><ellipse cx="47" cy="166" fill="#000000" rx="2" ry="2" style="stroke: none; stroke-width: 1.0;"/><!--link Student to apoint6--><path d="M47,69.0394 C47,102.6336 47,153.2985 47,163.9796 " fill="none" id="Student-apoint6" style="stroke: #A80036; stroke-width: 1.0;"/><text fill="#000000" font-family="sans-serif" font-size="13" lengthAdjust="spacingAndGlyphs" textLength="23" x="21.6281" y="88.9858">0..*</text><!--link apoint6 to Course--><path d="M47,168.1002 C47,179.178 47,231.4991 47,262.927 " fill="none" id="apoint6-Course" style="stroke: #A80036; stroke-width: 1.0;"/><text fill="#000000" font-family="sans-serif" font-size="13" lengthAdjust="spacingAndGlyphs" textLength="23" x="21.0531" y="251.9203">1..*</text><!--link apoint6 to Enrollment--><path d="M49.0391,166 C60.7654,166 72.4918,166 84.2182,166 " fill="none" id="apoint6-Enrollment" style="stroke: #A80036; stroke-width: 1.0; stroke-dasharray: 7.0,7.0;"/><!--
@startuml

    class Student {
        Name
    }
    Student "0..*" - - "1..*" Course
    (Student, Course) . Enrollment

    class Enrollment {
        drop()
        cancel()
    }
    @enduml

PlantUML version 1.2019.01(Sat Feb 09 16:32:04 CET 2019)
(GPL source distribution)
Java Runtime: OpenJDK Runtime Environment
JVM: OpenJDK 64-Bit Server VM
Java Version: 11.0.1+13-Ubuntu-3ubuntu3.18.10.1
Operating System: Linux
OS Version: 4.18.0-16-generic
Default Encoding: UTF-8
Language: fr
Country: FR
--></g></svg>