<?xml version="1.0" encoding="UTF-8" standalone="no"?><svg xmlns="http://www.w3.org/2000/svg" xmlns:xlink="http://www.w3.org/1999/xlink" contentScriptType="application/ecmascript" contentStyleType="text/css" height="72px" preserveAspectRatio="none" style="width:215px;height:72px;" version="1.1" viewBox="0 0 215 72" width="215px" zoomAndPan="magnify"><defs><filter height="300%" id="fmbr06ova3ob3" width="300%" x="-1" y="-1"><feGaussianBlur result="blurOut" stdDeviation="2.0"/><feColorMatrix in="blurOut" result="blurOut2" type="matrix" values="0 0 0 0 0 0 0 0 0 0 0 0 0 0 0 0 0 0 .4 0"/><feOffset dx="4.0" dy="4.0" in="blurOut2" result="blurOut3"/><feBlend in="SourceGraphic" in2="blurOut3" mode="normal"/></filter></defs><g><!--class System--><rect fill="#FEFECE" filter="url(#fmbr06ova3ob3)" height="53.9375" id="System" style="stroke: #A80036; stroke-width: 1.5;" width="101" x="6" y="8"/><ellipse cx="21" cy="26.9688" fill="#FF7700" rx="11" ry="11" style="stroke: #A80036; stroke-width: 1.0;"/><path d="M24.5938,20.1719 L24.5938,22.75 Q23.3438,21.9219 22.6094,21.7031 Q21.8906,21.4688 21.1719,21.4688 Q20.1094,21.4688 19.5156,21.9375 Q18.9375,22.3906 18.9375,23.1563 Q18.9375,23.8438 19.2969,24.1875 Q19.6719,24.5313 20.8125,24.8125 L21.7031,25 Q23.5469,25.4375 24.4219,26.3906 Q25.2969,27.3438 25.2969,28.9844 Q25.2969,30.9063 24.0938,31.9375 Q22.8906,32.9531 20.6719,32.9531 Q19.7656,32.9531 18.8594,32.75 Q17.9531,32.5625 16.8125,32.1094 L16.8125,29.4531 Q18.2656,30.375 19.0625,30.6406 Q19.875,30.9063 20.6719,30.9063 Q21.8125,30.9063 22.4063,30.4219 Q23.0156,29.9375 23.0156,29.0938 Q23.0156,28.3125 22.6094,27.9063 Q22.2188,27.5 21.1094,27.25 L20.2031,27.0469 Q18.3906,26.6406 17.5156,25.7656 Q16.6563,24.8906 16.6563,23.4219 Q16.6563,21.6094 17.875,20.5156 Q19.1094,19.4063 21.0781,19.4063 Q21.8281,19.4063 22.6406,19.5781 Q23.4688,19.75 24.5938,20.1719 Z "/><text fill="#000000" font-family="sans-serif" font-size="12" font-style="italic" lengthAdjust="spacingAndGlyphs" textLength="73" x="33" y="24.1387">«Singleton»</text><text fill="#000000" font-family="sans-serif" font-size="12" lengthAdjust="spacingAndGlyphs" textLength="45" x="47" y="38.1074">System</text><line style="stroke: #A80036; stroke-width: 1.5;" x1="7" x2="106" y1="45.9375" y2="45.9375"/><line style="stroke: #A80036; stroke-width: 1.5;" x1="7" x2="106" y1="53.9375" y2="53.9375"/><!--class Date--><rect fill="#FEFECE" filter="url(#fmbr06ova3ob3)" height="48" id="Date" style="stroke: #A80036; stroke-width: 1.5;" width="62" x="142.5" y="11"/><ellipse cx="157.5" cy="27" fill="#DA70D6" rx="11" ry="11" style="stroke: #A80036; stroke-width: 1.0;"/><path d="M157.2188,30.9375 Q159.1563,30.9375 159.9063,30 Q160.6563,29.0625 160.6563,26.4688 Q160.6563,23.8438 159.9063,22.9219 Q159.1719,21.9844 157.2188,21.9844 L156.7656,21.9844 L156.7656,30.9375 L157.2188,30.9375 Z M157.25,19.9219 Q160.2344,19.9219 161.6719,21.5469 Q163.125,23.1563 163.125,26.4688 Q163.125,29.7656 161.6719,31.3906 Q160.2344,33 157.25,33 L154.3906,33 L154.3906,19.9219 L157.25,19.9219 Z "/><text fill="#000000" font-family="sans-serif" font-size="12" lengthAdjust="spacingAndGlyphs" textLength="30" x="171.5" y="31.1543">Date</text><line style="stroke: #A80036; stroke-width: 1.5;" x1="143.5" x2="203.5" y1="43" y2="43"/><line style="stroke: #A80036; stroke-width: 1.5;" x1="143.5" x2="203.5" y1="51" y2="51"/><!--
@startuml
class System << (S,#FF7700) Singleton >>
class Date << (D,orchid) >>
@enduml

PlantUML version 1.2019.01(Sat Feb 09 16:32:04 CET 2019)
(GPL source distribution)
Java Runtime: OpenJDK Runtime Environment
JVM: OpenJDK 64-Bit Server VM
Java Version: 11.0.1+13-Ubuntu-3ubuntu3.18.10.1
Operating System: Linux
OS Version: 4.18.0-16-generic
Default Encoding: UTF-8
Language: fr
Country: FR
--></g></svg>