<?xml version="1.0" encoding="UTF-8" standalone="no"?><svg xmlns="http://www.w3.org/2000/svg" xmlns:xlink="http://www.w3.org/1999/xlink" contentScriptType="application/ecmascript" contentStyleType="text/css" height="172px" preserveAspectRatio="none" style="width:473px;height:172px;" version="1.1" viewBox="0 0 473 172" width="473px" zoomAndPan="magnify"><defs><filter height="300%" id="f1srof9duwqn7p" width="300%" x="-1" y="-1"><feGaussianBlur result="blurOut" stdDeviation="2.0"/><feColorMatrix in="blurOut" result="blurOut2" type="matrix" values="0 0 0 0 0 0 0 0 0 0 0 0 0 0 0 0 0 0 .4 0"/><feOffset dx="4.0" dy="4.0" in="blurOut2" result="blurOut3"/><feBlend in="SourceGraphic" in2="blurOut3" mode="normal"/></filter></defs><g><!--entity node1--><polygon fill="#FEFECE" filter="url(#f1srof9duwqn7p)" points="186,18,196,8,271,8,271,44.2969,261,54.2969,186,54.2969,186,18" style="stroke: #000000; stroke-width: 1.5;"/><line style="stroke: #000000; stroke-width: 1.5;" x1="261" x2="270" y1="18" y2="9"/><line style="stroke: #000000; stroke-width: 1.5;" x1="186" x2="261" y1="18" y2="18"/><line style="stroke: #000000; stroke-width: 1.5;" x1="261" x2="261" y1="18" y2="54.2969"/><text fill="#000000" font-family="sans-serif" font-size="14" lengthAdjust="spacingAndGlyphs" textLength="45" x="201" y="40.9951">node1</text><!--entity node2--><polygon fill="#FEFECE" filter="url(#f1srof9duwqn7p)" points="6,124,16,114,91,114,91,150.2969,81,160.2969,6,160.2969,6,124" style="stroke: #000000; stroke-width: 1.5;"/><line style="stroke: #000000; stroke-width: 1.5;" x1="81" x2="90" y1="124" y2="115"/><line style="stroke: #000000; stroke-width: 1.5;" x1="6" x2="81" y1="124" y2="124"/><line style="stroke: #000000; stroke-width: 1.5;" x1="81" x2="81" y1="124" y2="160.2969"/><text fill="#000000" font-family="sans-serif" font-size="14" lengthAdjust="spacingAndGlyphs" textLength="45" x="21" y="146.9951">node2</text><!--entity node3--><polygon fill="#FEFECE" filter="url(#f1srof9duwqn7p)" points="126,124,136,114,211,114,211,150.2969,201,160.2969,126,160.2969,126,124" style="stroke: #000000; stroke-width: 1.5;"/><line style="stroke: #000000; stroke-width: 1.5;" x1="201" x2="210" y1="124" y2="115"/><line style="stroke: #000000; stroke-width: 1.5;" x1="126" x2="201" y1="124" y2="124"/><line style="stroke: #000000; stroke-width: 1.5;" x1="201" x2="201" y1="124" y2="160.2969"/><text fill="#000000" font-family="sans-serif" font-size="14" lengthAdjust="spacingAndGlyphs" textLength="45" x="141" y="146.9951">node3</text><!--entity node4--><polygon fill="#FEFECE" filter="url(#f1srof9duwqn7p)" points="246,124,256,114,331,114,331,150.2969,321,160.2969,246,160.2969,246,124" style="stroke: #000000; stroke-width: 1.5;"/><line style="stroke: #000000; stroke-width: 1.5;" x1="321" x2="330" y1="124" y2="115"/><line style="stroke: #000000; stroke-width: 1.5;" x1="246" x2="321" y1="124" y2="124"/><line style="stroke: #000000; stroke-width: 1.5;" x1="321" x2="321" y1="124" y2="160.2969"/><text fill="#000000" font-family="sans-serif" font-size="14" lengthAdjust="spacingAndGlyphs" textLength="45" x="261" y="146.9951">node4</text><!--entity node5--><polygon fill="#FEFECE" filter="url(#f1srof9duwqn7p)" points="366,124,376,114,451,114,451,150.2969,441,160.2969,366,160.2969,366,124" style="stroke: #000000; stroke-width: 1.5;"/><line style="stroke: #000000; stroke-width: 1.5;" x1="441" x2="450" y1="124" y2="115"/><line style="stroke: #000000; stroke-width: 1.5;" x1="366" x2="441" y1="124" y2="124"/><line style="stroke: #000000; stroke-width: 1.5;" x1="441" x2="441" y1="124" y2="160.2969"/><text fill="#000000" font-family="sans-serif" font-size="14" lengthAdjust="spacingAndGlyphs" textLength="45" x="381" y="146.9951">node5</text><!--link node1 to node2--><path d="M189.4427,54.0004 C159.3541,71.7193 117.9387,96.1083 87.7915,113.8617 " fill="none" id="node1-node2" style="stroke: #A80036; stroke-width: 1.0;"/><!--link node1 to node3--><path d="M215.4809,54.0004 C205.4858,71.6584 191.7411,95.9408 181.7009,113.6784 " fill="none" id="node1-node3" style="stroke: #A80036; stroke-width: 1.0; stroke-dasharray: 7.0,7.0;"/><!--link node1 to node4--><path d="M241.5191,54.0004 C251.5142,71.6584 265.2589,95.9408 275.2991,113.6784 " fill="none" id="node1-node4" style="stroke: #A80036; stroke-width: 1.0; stroke-dasharray: 1.0,3.0;"/><!--link node1 to node5--><path d="M267.5573,54.0004 C297.6459,71.7193 339.0613,96.1083 369.2085,113.8617 " fill="none" id="node1-node5" style="stroke: #A80036; stroke-width: 2.0;"/><!--
@startuml
node node1
node node2
node node3
node node4
node node5
node1 - - node2
node1 .. node3
node1 ~~ node4
node1 == node5
	@enduml

PlantUML version 1.2019.01(Sat Feb 09 16:32:04 CET 2019)
(GPL source distribution)
Java Runtime: OpenJDK Runtime Environment
JVM: OpenJDK 64-Bit Server VM
Java Version: 11.0.1+13-Ubuntu-3ubuntu3.18.10.1
Operating System: Linux
OS Version: 4.18.0-16-generic
Default Encoding: UTF-8
Language: fr
Country: FR
--></g></svg>