<?xml version="1.0" encoding="UTF-8" standalone="no"?><svg xmlns="http://www.w3.org/2000/svg" xmlns:xlink="http://www.w3.org/1999/xlink" contentScriptType="application/ecmascript" contentStyleType="text/css" height="148px" preserveAspectRatio="none" style="width:392px;height:148px;" version="1.1" viewBox="0 0 392 148" width="392px" zoomAndPan="magnify"><defs><filter height="300%" id="fryumed5uraj0" width="300%" x="-1" y="-1"><feGaussianBlur result="blurOut" stdDeviation="2.0"/><feColorMatrix in="blurOut" result="blurOut2" type="matrix" values="0 0 0 0 0 0 0 0 0 0 0 0 0 0 0 0 0 0 .4 0"/><feOffset dx="4.0" dy="4.0" in="blurOut2" result="blurOut3"/><feBlend in="SourceGraphic" in2="blurOut3" mode="normal"/></filter></defs><g><!--entity cloud1--><path d="M162,15 C162,12 164,10 167,10 C170,10 172,12 172,15 C172,12 174,10 177,10 C180,10 182,12 182,15 C182,12 184,10 187,10 C190,10 192,12 192,15 C192,12 194,10 197,10 C200,10 202,12 202,15 C202,12 204,10 207,10 C210,10 212,12 212,15 C212,12 214,10 217,10 C220,10 222,12 222,15 C225,15 227,17 227,20 C227,23 225,25 222,25 C225,25 227,27 227,30 C227,33 225,35 222,35 C222,38 219,40 217,40 C214,40 212,38 212,35 C212,38 209,40 207,40 C204,40 202,38 202,35 C202,38 199,40 197,40 C194,40 192,38 192,35 C192,38 189,40 187,40 C184,40 182,38 182,35 C182,38 179,40 177,40 C174,40 172,38 172,35 C172,38 169,40 167,40 C164,40 162,38 162,35 C159,35 157,33 157,30 C157,27 159,25 162,25 C159,25 157,23 157,20 C157,17 159,15 162,15 " fill="#FEFECE" filter="url(#fryumed5uraj0)" style="stroke: #000000; stroke-width: 1.5;"/><text fill="#000000" font-family="sans-serif" font-size="14" lengthAdjust="spacingAndGlyphs" textLength="47" x="169" y="30.9951">cloud1</text><!--entity cloud2--><path d="M9,111 C9,108 11,106 14,106 C17,106 19,108 19,111 C19,108 21,106 24,106 C27,106 29,108 29,111 C29,108 31,106 34,106 C37,106 39,108 39,111 C39,108 41,106 44,106 C47,106 49,108 49,111 C49,108 51,106 54,106 C57,106 59,108 59,111 C59,108 61,106 64,106 C67,106 69,108 69,111 C72,111 74,113 74,116 C74,119 72,121 69,121 C72,121 74,123 74,126 C74,129 72,131 69,131 C69,134 66,136 64,136 C61,136 59,134 59,131 C59,134 56,136 54,136 C51,136 49,134 49,131 C49,134 46,136 44,136 C41,136 39,134 39,131 C39,134 36,136 34,136 C31,136 29,134 29,131 C29,134 26,136 24,136 C21,136 19,134 19,131 C19,134 16,136 14,136 C11,136 9,134 9,131 C6,131 4,129 4,126 C4,123 6,121 9,121 C6,121 4,119 4,116 C4,113 6,111 9,111 " fill="#FEFECE" filter="url(#fryumed5uraj0)" style="stroke: #000000; stroke-width: 1.5;"/><text fill="#000000" font-family="sans-serif" font-size="14" lengthAdjust="spacingAndGlyphs" textLength="47" x="16" y="126.9951">cloud2</text><!--entity cloud3--><path d="M111,111 C111,108 113,106 116,106 C119,106 121,108 121,111 C121,108 123,106 126,106 C129,106 131,108 131,111 C131,108 133,106 136,106 C139,106 141,108 141,111 C141,108 143,106 146,106 C149,106 151,108 151,111 C151,108 153,106 156,106 C159,106 161,108 161,111 C161,108 163,106 166,106 C169,106 171,108 171,111 C174,111 176,113 176,116 C176,119 174,121 171,121 C174,121 176,123 176,126 C176,129 174,131 171,131 C171,134 168,136 166,136 C163,136 161,134 161,131 C161,134 158,136 156,136 C153,136 151,134 151,131 C151,134 148,136 146,136 C143,136 141,134 141,131 C141,134 138,136 136,136 C133,136 131,134 131,131 C131,134 128,136 126,136 C123,136 121,134 121,131 C121,134 118,136 116,136 C113,136 111,134 111,131 C108,131 106,129 106,126 C106,123 108,121 111,121 C108,121 106,119 106,116 C106,113 108,111 111,111 " fill="#FEFECE" filter="url(#fryumed5uraj0)" style="stroke: #000000; stroke-width: 1.5;"/><text fill="#000000" font-family="sans-serif" font-size="14" lengthAdjust="spacingAndGlyphs" textLength="47" x="118" y="126.9951">cloud3</text><!--entity cloud4--><path d="M213,111 C213,108 215,106 218,106 C221,106 223,108 223,111 C223,108 225,106 228,106 C231,106 233,108 233,111 C233,108 235,106 238,106 C241,106 243,108 243,111 C243,108 245,106 248,106 C251,106 253,108 253,111 C253,108 255,106 258,106 C261,106 263,108 263,111 C263,108 265,106 268,106 C271,106 273,108 273,111 C276,111 278,113 278,116 C278,119 276,121 273,121 C276,121 278,123 278,126 C278,129 276,131 273,131 C273,134 270,136 268,136 C265,136 263,134 263,131 C263,134 260,136 258,136 C255,136 253,134 253,131 C253,134 250,136 248,136 C245,136 243,134 243,131 C243,134 240,136 238,136 C235,136 233,134 233,131 C233,134 230,136 228,136 C225,136 223,134 223,131 C223,134 220,136 218,136 C215,136 213,134 213,131 C210,131 208,129 208,126 C208,123 210,121 213,121 C210,121 208,119 208,116 C208,113 210,111 213,111 " fill="#FEFECE" filter="url(#fryumed5uraj0)" style="stroke: #000000; stroke-width: 1.5;"/><text fill="#000000" font-family="sans-serif" font-size="14" lengthAdjust="spacingAndGlyphs" textLength="47" x="220" y="126.9951">cloud4</text><!--entity cloud5--><path d="M315,111 C315,108 317,106 320,106 C323,106 325,108 325,111 C325,108 327,106 330,106 C333,106 335,108 335,111 C335,108 337,106 340,106 C343,106 345,108 345,111 C345,108 347,106 350,106 C353,106 355,108 355,111 C355,108 357,106 360,106 C363,106 365,108 365,111 C365,108 367,106 370,106 C373,106 375,108 375,111 C378,111 380,113 380,116 C380,119 378,121 375,121 C378,121 380,123 380,126 C380,129 378,131 375,131 C375,134 372,136 370,136 C367,136 365,134 365,131 C365,134 362,136 360,136 C357,136 355,134 355,131 C355,134 352,136 350,136 C347,136 345,134 345,131 C345,134 342,136 340,136 C337,136 335,134 335,131 C335,134 332,136 330,136 C327,136 325,134 325,131 C325,134 322,136 320,136 C317,136 315,134 315,131 C312,131 310,129 310,126 C310,123 312,121 315,121 C312,121 310,119 310,116 C310,113 312,111 315,111 " fill="#FEFECE" filter="url(#fryumed5uraj0)" style="stroke: #000000; stroke-width: 1.5;"/><text fill="#000000" font-family="sans-serif" font-size="14" lengthAdjust="spacingAndGlyphs" textLength="47" x="322" y="126.9951">cloud5</text><!--link cloud1 to cloud2--><path d="M163.7219,44.0569 C136.4545,61.1658 95.7191,86.7253 68.4088,103.8612 " fill="none" id="cloud1-cloud2" style="stroke: #A80036; stroke-width: 1.0;"/><ellipse cx="116.0814" cy="73.9489" fill="#FFFFFF" rx="6" ry="6" style="stroke: #A80036; stroke-width: 1.5;"/><!--link cloud1 to cloud3--><path d="M182.9073,44.0569 C173.847,61.1115 160.3259,86.5631 151.2231,103.6977 " fill="none" id="cloud1-cloud3" style="stroke: #A80036; stroke-width: 1.0;"/><path d="M157.5191,76.7744 A10,10 0 0 0 170.0083 83.4093" fill="#FFFFFF" style="stroke: #A80036; stroke-width: 1.5;"/><ellipse cx="167.0811" cy="73.8473" fill="#FFFFFF" rx="6" ry="6" style="stroke: #A80036; stroke-width: 1.5;"/><!--link cloud1 to cloud4--><path d="M202.0927,44.0569 C211.153,61.1115 224.6741,86.5631 233.7769,103.6977 " fill="none" id="cloud1-cloud4" style="stroke: #A80036; stroke-width: 1.0;"/><path d="M220.846,64.2853 A10,10 0 0 0 208.3569 70.9202" fill="#FFFFFF" style="stroke: #A80036; stroke-width: 1.5;"/><ellipse cx="217.9189" cy="73.8473" fill="#FFFFFF" rx="6" ry="6" style="stroke: #A80036; stroke-width: 1.5;"/><!--link cloud1 to cloud5--><path d="M221.2781,44.0569 C248.5455,61.1658 289.2809,86.7253 316.5912,103.8612 " fill="none" id="cloud1-cloud5" style="stroke: #A80036; stroke-width: 1.0;"/><ellipse cx="268.9186" cy="73.9489" fill="#FFFFFF" rx="10" ry="10" style="stroke: #FFFFFF; stroke-width: 1.0;"/><path d="M271.15,83.6968 A10,10 0 0 0 278.6664 71.7175" fill="#FFFFFF" style="stroke: #A80036; stroke-width: 1.5;"/><path d="M266.6871,64.2011 A10,10 0 0 0 259.1707 76.1804" fill="#FFFFFF" style="stroke: #A80036; stroke-width: 1.5;"/><ellipse cx="268.9186" cy="73.9489" fill="#FFFFFF" rx="6" ry="6" style="stroke: #A80036; stroke-width: 1.5;"/><!--
@startuml
	cloud cloud1
	cloud cloud2
	cloud cloud3
	cloud cloud4
	cloud cloud5
	cloud1 -0- cloud2
	cloud1 -0)- cloud3
	cloud1 -(0- cloud4
	cloud1 -(0)- cloud5
	@enduml

PlantUML version 1.2019.01(Sat Feb 09 16:32:04 CET 2019)
(GPL source distribution)
Java Runtime: OpenJDK Runtime Environment
JVM: OpenJDK 64-Bit Server VM
Java Version: 11.0.1+13-Ubuntu-3ubuntu3.18.10.1
Operating System: Linux
OS Version: 4.18.0-16-generic
Default Encoding: UTF-8
Language: fr
Country: FR
--></g></svg>