<?xml version="1.0" encoding="UTF-8" standalone="no"?><svg xmlns="http://www.w3.org/2000/svg" xmlns:xlink="http://www.w3.org/1999/xlink" contentScriptType="application/ecmascript" contentStyleType="text/css" height="420px" preserveAspectRatio="none" style="width:460px;height:420px;" version="1.1" viewBox="0 0 460 420" width="460px" zoomAndPan="magnify"><defs><filter height="300%" id="f189wqvrqvg47d" width="300%" x="-1" y="-1"><feGaussianBlur result="blurOut" stdDeviation="2.0"/><feColorMatrix in="blurOut" result="blurOut2" type="matrix" values="0 0 0 0 0 0 0 0 0 0 0 0 0 0 0 0 0 0 .4 0"/><feOffset dx="4.0" dy="4.0" in="blurOut2" result="blurOut3"/><feBlend in="SourceGraphic" in2="blurOut3" mode="normal"/></filter></defs><g><!--cluster Some Group--><polygon fill="#FFFFFF" filter="url(#f189wqvrqvg47d)" points="14,16,116,16,123,38.2969,416,38.2969,416,87,14,87,14,16" style="stroke: #000000; stroke-width: 1.5;"/><line style="stroke: #000000; stroke-width: 1.5;" x1="14" x2="123" y1="38.2969" y2="38.2969"/><text fill="#000000" font-family="sans-serif" font-size="14" font-weight="bold" lengthAdjust="spacingAndGlyphs" textLength="96" x="18" y="30.9951">Some Group</text><!--cluster Other Groups--><polygon fill="#FFFFFF" filter="url(#f189wqvrqvg47d)" points="50,117,60,107,277,107,277,173,267,183,50,183,50,117" style="stroke: #000000; stroke-width: 1.5;"/><line style="stroke: #000000; stroke-width: 1.5;" x1="267" x2="276" y1="117" y2="108"/><line style="stroke: #000000; stroke-width: 1.5;" x1="50" x2="267" y1="117" y2="117"/><line style="stroke: #000000; stroke-width: 1.5;" x1="267" x2="267" y1="117" y2="183"/><text fill="#000000" font-family="sans-serif" font-size="14" font-weight="bold" lengthAdjust="spacingAndGlyphs" textLength="105" x="107" y="132.9951">Other Groups</text><path d="M299,138 C299,135 301,133 304,133 C307,133 309,135 309,138 C309,135 311,133 314,133 C317,133 319,135 319,138 C319,135 321,133 324,133 C327,133 329,135 329,138 C329,135 331,133 334,133 C337,133 339,135 339,138 C339,135 341,133 344,133 C347,133 349,135 349,138 C349,135 351,133 354,133 C357,133 359,135 359,138 C359,135 361,133 364,133 C367,133 369,135 369,138 C369,135 371,133 374,133 C377,133 379,135 379,138 C379,135 381,133 384,133 C387,133 389,135 389,138 C389,135 391,133 394,133 C397,133 399,135 399,138 C402,138 404,140 404,143 C404,146 402,148 399,148 C402,148 404,150 404,153 C404,156 402,158 399,158 C402,158 404,160 404,163 C404,166 402,168 399,168 C402,168 404,170 404,173 C404,176 402,178 399,178 C399,181 396,183 394,183 C391,183 389,181 389,178 C389,181 386,183 384,183 C381,183 379,181 379,178 C379,181 376,183 374,183 C371,183 369,181 369,178 C369,181 366,183 364,183 C361,183 359,181 359,178 C359,181 356,183 354,183 C351,183 349,181 349,178 C349,181 346,183 344,183 C341,183 339,181 339,178 C339,181 336,183 334,183 C331,183 329,181 329,178 C329,181 326,183 324,183 C321,183 319,181 319,178 C319,181 316,183 314,183 C311,183 309,181 309,178 C309,181 306,183 304,183 C301,183 299,181 299,178 C296,178 294,176 294,173 C294,170 296,168 299,168 C296,168 294,166 294,163 C294,160 296,158 299,158 C296,158 294,156 294,153 C294,150 296,148 299,148 C296,148 294,146 294,143 C294,140 296,138 299,138 " fill="#FFFFFF" filter="url(#f189wqvrqvg47d)" style="stroke: #000000; stroke-width: 1.5;"/><!--cluster MySql--><path d="M289,201 C289,191 367.5,191 367.5,191 C367.5,191 446,191 446,201 L446,398 C446,408 367.5,408 367.5,408 C367.5,408 289,408 289,398 L289,201 " fill="#FFFFFF" filter="url(#f189wqvrqvg47d)" style="stroke: #000000; stroke-width: 1.5;"/><path d="M289,201 C289,211 367.5,211 367.5,211 C367.5,211 446,211 446,201 " fill="none" style="stroke: #000000; stroke-width: 1.5;"/><text fill="#000000" font-family="sans-serif" font-size="14" font-weight="bold" lengthAdjust="spacingAndGlyphs" textLength="45" x="345" y="225.9951">MySql</text><!--cluster This is my folder--><polygon fill="#FFFFFF" filter="url(#f189wqvrqvg47d)" points="297,233,428,233,435,255.2969,438,255.2969,438,304,297,304,297,233" style="stroke: #000000; stroke-width: 1.5;"/><line style="stroke: #000000; stroke-width: 1.5;" x1="297" x2="435" y1="255.2969" y2="255.2969"/><text fill="#000000" font-family="sans-serif" font-size="14" font-weight="bold" lengthAdjust="spacingAndGlyphs" textLength="125" x="301" y="247.9951">This is my folder</text><!--cluster Foo--><rect fill="#FFFFFF" filter="url(#f189wqvrqvg47d)" height="71" style="stroke: #000000; stroke-width: 1.5;" width="92" x="304" y="329"/><path d="M343,330 L343,338.2969 L333,348.2969 L304,348.2969 " fill="none" style="stroke: #000000; stroke-width: 1.5;"/><text fill="#000000" font-family="sans-serif" font-size="14" font-weight="bold" lengthAdjust="spacingAndGlyphs" textLength="29" x="307" y="342.9951">Foo</text><!--entity HTTP--><ellipse cx="202" cy="61" fill="#FEFECE" filter="url(#f189wqvrqvg47d)" rx="8" ry="8" style="stroke: #A80036; stroke-width: 2.0;"/><text fill="#000000" font-family="sans-serif" font-size="14" lengthAdjust="spacingAndGlyphs" textLength="37" x="183.5" y="90.9951">HTTP</text><!--entity First Component--><rect fill="#FEFECE" filter="url(#f189wqvrqvg47d)" height="36.2969" style="stroke: #A80036; stroke-width: 1.5;" width="135" x="22.5" y="43"/><rect fill="#FEFECE" height="5" style="stroke: #A80036; stroke-width: 1.5;" width="10" x="17.5" y="48"/><rect fill="#FEFECE" height="5" style="stroke: #A80036; stroke-width: 1.5;" width="10" x="17.5" y="69.2969"/><text fill="#000000" font-family="sans-serif" font-size="14" lengthAdjust="spacingAndGlyphs" textLength="115" x="32.5" y="65.9951">First Component</text><!--entity Another Component--><rect fill="#FEFECE" filter="url(#f189wqvrqvg47d)" height="36.2969" style="stroke: #A80036; stroke-width: 1.5;" width="161" x="246.5" y="43"/><rect fill="#FEFECE" height="5" style="stroke: #A80036; stroke-width: 1.5;" width="10" x="241.5" y="48"/><rect fill="#FEFECE" height="5" style="stroke: #A80036; stroke-width: 1.5;" width="10" x="241.5" y="69.2969"/><text fill="#000000" font-family="sans-serif" font-size="14" lengthAdjust="spacingAndGlyphs" textLength="141" x="256.5" y="65.9951">Another Component</text><!--entity FTP--><ellipse cx="67" cy="157" fill="#FEFECE" filter="url(#f189wqvrqvg47d)" rx="8" ry="8" style="stroke: #A80036; stroke-width: 2.0;"/><text fill="#000000" font-family="sans-serif" font-size="14" lengthAdjust="spacingAndGlyphs" textLength="26" x="54" y="186.9951">FTP</text><!--entity Second Component--><rect fill="#FEFECE" filter="url(#f189wqvrqvg47d)" height="36.2969" style="stroke: #A80036; stroke-width: 1.5;" width="159" x="110.5" y="139"/><rect fill="#FEFECE" height="5" style="stroke: #A80036; stroke-width: 1.5;" width="10" x="105.5" y="144"/><rect fill="#FEFECE" height="5" style="stroke: #A80036; stroke-width: 1.5;" width="10" x="105.5" y="165.2969"/><text fill="#000000" font-family="sans-serif" font-size="14" lengthAdjust="spacingAndGlyphs" textLength="139" x="120.5" y="161.9951">Second Component</text><!--entity Example 1--><rect fill="#FEFECE" filter="url(#f189wqvrqvg47d)" height="36.2969" style="stroke: #A80036; stroke-width: 1.5;" width="91" x="304.5" y="139"/><rect fill="#FEFECE" height="5" style="stroke: #A80036; stroke-width: 1.5;" width="10" x="299.5" y="144"/><rect fill="#FEFECE" height="5" style="stroke: #A80036; stroke-width: 1.5;" width="10" x="299.5" y="165.2969"/><text fill="#000000" font-family="sans-serif" font-size="14" lengthAdjust="spacingAndGlyphs" textLength="71" x="314.5" y="161.9951">Example 1</text><!--entity Folder 3--><rect fill="#FEFECE" filter="url(#f189wqvrqvg47d)" height="36.2969" style="stroke: #A80036; stroke-width: 1.5;" width="76" x="312" y="260"/><rect fill="#FEFECE" height="5" style="stroke: #A80036; stroke-width: 1.5;" width="10" x="307" y="265"/><rect fill="#FEFECE" height="5" style="stroke: #A80036; stroke-width: 1.5;" width="10" x="307" y="286.2969"/><text fill="#000000" font-family="sans-serif" font-size="14" lengthAdjust="spacingAndGlyphs" textLength="56" x="322" y="282.9951">Folder 3</text><!--entity Frame 4--><rect fill="#FEFECE" filter="url(#f189wqvrqvg47d)" height="36.2969" style="stroke: #A80036; stroke-width: 1.5;" width="76" x="312" y="356"/><rect fill="#FEFECE" height="5" style="stroke: #A80036; stroke-width: 1.5;" width="10" x="307" y="361"/><rect fill="#FEFECE" height="5" style="stroke: #A80036; stroke-width: 1.5;" width="10" x="307" y="382.2969"/><text fill="#000000" font-family="sans-serif" font-size="14" lengthAdjust="spacingAndGlyphs" textLength="56" x="322" y="378.9951">Frame 4</text><!--link HTTP to First Component--><path d="M192.6792,61 C181.057,61 169.4347,61 157.8125,61 " fill="none" id="HTTP-First Component" style="stroke: #A80036; stroke-width: 1.0;"/><!--link FTP to Second Component--><path d="M76.1289,157 C87.5457,157 98.9624,157 110.3792,157 " fill="none" id="FTP-Second Component" style="stroke: #A80036; stroke-width: 1.0;"/><!--link First Component to FTP--><path d="M85.6739,79.0569 C81.278,97.4049 74.5537,125.4716 70.4871,142.4452 " fill="none" id="First Component-FTP" style="stroke: #A80036; stroke-width: 1.0;"/><polygon fill="#A80036" points="69.2171,147.7461,75.2043,139.926,70.3823,142.8838,67.4245,138.0618,69.2171,147.7461" style="stroke: #A80036; stroke-width: 1.0;"/><!--link Another Component to Example 1--><path d="M331.3261,79.0569 C335.0291,94.5126 340.3843,116.8647 344.4113,133.6731 " fill="none" id="Another Component-Example 1" style="stroke: #A80036; stroke-width: 1.0;"/><polygon fill="#A80036" points="345.6151,138.6977,347.4078,129.0134,344.45,133.8353,339.628,130.8776,345.6151,138.6977" style="stroke: #A80036; stroke-width: 1.0;"/><!--link Example 1 to Folder 3--><path d="M350,175.1149 C350,196.322 350,231.4923 350,254.7097 " fill="none" id="Example 1-Folder 3" style="stroke: #A80036; stroke-width: 1.0;"/><polygon fill="#A80036" points="350,259.7612,354,250.7612,350,254.7612,346,250.7612,350,259.7612" style="stroke: #A80036; stroke-width: 1.0;"/><!--link Folder 3 to Frame 4--><path d="M350,296.0569 C350,311.5126 350,333.8647 350,350.6731 " fill="none" id="Folder 3-Frame 4" style="stroke: #A80036; stroke-width: 1.0;"/><polygon fill="#A80036" points="350,355.6977,354,346.6977,350,350.6977,346,346.6977,350,355.6977" style="stroke: #A80036; stroke-width: 1.0;"/><!--
@startuml
package "Some Group" {
    HTTP - [First Component]
    [Another Component]
}

node "Other Groups" {
    FTP - [Second Component]
    [First Component] - -> FTP
}

cloud {
    [Example 1]
}

database "MySql" {
    folder "This is my folder" {
        [Folder 3]
    }
    frame "Foo" {
        [Frame 4]
    }
}

[Another Component] - -> [Example 1]
[Example 1] - -> [Folder 3]
[Folder 3] - -> [Frame 4]
@enduml

PlantUML version 1.2019.01(Sat Feb 09 16:32:04 CET 2019)
(GPL source distribution)
Java Runtime: OpenJDK Runtime Environment
JVM: OpenJDK 64-Bit Server VM
Java Version: 11.0.1+13-Ubuntu-3ubuntu3.18.10.1
Operating System: Linux
OS Version: 4.18.0-16-generic
Default Encoding: UTF-8
Language: fr
Country: FR
--></g></svg>