<?xml version="1.0" encoding="UTF-8" standalone="no"?><svg xmlns="http://www.w3.org/2000/svg" xmlns:xlink="http://www.w3.org/1999/xlink" contentScriptType="application/ecmascript" contentStyleType="text/css" height="195px" preserveAspectRatio="none" style="width:417px;height:195px;" version="1.1" viewBox="0 0 417 195" width="417px" zoomAndPan="magnify"><defs><filter height="300%" id="f1ozu38129g15g" width="300%" x="-1" y="-1"><feGaussianBlur result="blurOut" stdDeviation="2.0"/><feColorMatrix in="blurOut" result="blurOut2" type="matrix" values="0 0 0 0 0 0 0 0 0 0 0 0 0 0 0 0 0 0 .4 0"/><feOffset dx="4.0" dy="4.0" in="blurOut2" result="blurOut3"/><feBlend in="SourceGraphic" in2="blurOut3" mode="normal"/></filter></defs><g><!--entity AA--><rect fill="#BDB76B" filter="url(#f1ozu38129g15g)" height="52.5938" style="stroke: #A80036; stroke-width: 1.5;" width="93" x="6" y="8"/><rect fill="#BDB76B" height="5" style="stroke: #A80036; stroke-width: 1.5;" width="10" x="1" y="13"/><rect fill="#BDB76B" height="5" style="stroke: #A80036; stroke-width: 1.5;" width="10" x="1" y="50.5938"/><text fill="#000000" font-family="sans-serif" font-size="14" font-style="italic" lengthAdjust="spacingAndGlyphs" textLength="73" x="16" y="30.9951">«static lib»</text><text fill="#000000" font-family="sans-serif" font-size="14" lengthAdjust="spacingAndGlyphs" textLength="18" x="43.5" y="47.292">AA</text><!--entity BB--><rect fill="#008000" filter="url(#f1ozu38129g15g)" height="52.5938" style="stroke: #A80036; stroke-width: 1.5;" width="104" x="134.5" y="8"/><rect fill="#008000" height="5" style="stroke: #A80036; stroke-width: 1.5;" width="10" x="129.5" y="13"/><rect fill="#008000" height="5" style="stroke: #A80036; stroke-width: 1.5;" width="10" x="129.5" y="50.5938"/><text fill="#000000" font-family="sans-serif" font-size="14" font-style="italic" lengthAdjust="spacingAndGlyphs" textLength="84" x="144.5" y="30.9951">«shared lib»</text><text fill="#000000" font-family="sans-serif" font-size="14" lengthAdjust="spacingAndGlyphs" textLength="20" x="176.5" y="47.292">BB</text><!--entity CC--><rect fill="#BDB76B" filter="url(#f1ozu38129g15g)" height="52.5938" style="stroke: #A80036; stroke-width: 1.5;" width="93" x="274" y="8"/><rect fill="#BDB76B" height="5" style="stroke: #A80036; stroke-width: 1.5;" width="10" x="269" y="13"/><rect fill="#BDB76B" height="5" style="stroke: #A80036; stroke-width: 1.5;" width="10" x="269" y="50.5938"/><text fill="#000000" font-family="sans-serif" font-size="14" font-style="italic" lengthAdjust="spacingAndGlyphs" textLength="73" x="284" y="30.9951">«static lib»</text><text fill="#000000" font-family="sans-serif" font-size="14" lengthAdjust="spacingAndGlyphs" textLength="20" x="310.5" y="47.292">CC</text><!--entity node1--><polygon fill="#FFFF00" filter="url(#f1ozu38129g15g)" points="10,139.5,20,129.5,95,129.5,95,165.7969,85,175.7969,10,175.7969,10,139.5" style="stroke: #008000; stroke-width: 1.5;"/><line style="stroke: #008000; stroke-width: 1.5;" x1="85" x2="94" y1="139.5" y2="130.5"/><line style="stroke: #008000; stroke-width: 1.5;" x1="10" x2="85" y1="139.5" y2="139.5"/><line style="stroke: #008000; stroke-width: 1.5;" x1="85" x2="85" y1="139.5" y2="175.7969"/><text fill="#000000" font-family="sans-serif" font-size="14" lengthAdjust="spacingAndGlyphs" textLength="45" x="25" y="162.4951">node1</text><!--entity node2--><polygon fill="#FF00FF" filter="url(#f1ozu38129g15g)" points="130,131,140,121,275,121,275,173.5938,265,183.5938,130,183.5938,130,131" style="stroke: #008000; stroke-width: 1.5;"/><line style="stroke: #008000; stroke-width: 1.5;" x1="265" x2="274" y1="131" y2="122"/><line style="stroke: #008000; stroke-width: 1.5;" x1="130" x2="265" y1="131" y2="131"/><line style="stroke: #008000; stroke-width: 1.5;" x1="265" x2="265" y1="131" y2="183.5938"/><text fill="#000000" font-family="sans-serif" font-size="14" font-style="italic" lengthAdjust="spacingAndGlyphs" textLength="105" x="145" y="153.9951">«shared node»</text><text fill="#000000" font-family="sans-serif" font-size="14" lengthAdjust="spacingAndGlyphs" textLength="45" x="175" y="170.292">node2</text><!--entity Production--><path d="M310,140 C310,130 357.5,130 357.5,130 C357.5,130 405,130 405,140 L405,165.2969 C405,175.2969 357.5,175.2969 357.5,175.2969 C357.5,175.2969 310,175.2969 310,165.2969 L310,140 " fill="#00FFFF" filter="url(#f1ozu38129g15g)" style="stroke: #000000; stroke-width: 1.5;"/><path d="M310,140 C310,150 357.5,150 357.5,150 C357.5,150 405,150 405,140 " fill="none" style="stroke: #000000; stroke-width: 1.5;"/><text fill="#000000" font-family="sans-serif" font-size="14" lengthAdjust="spacingAndGlyphs" textLength="75" x="320" y="166.9951">Production</text><!--link AA to BB--><!--link BB to CC--><!--link AA to node1--><!--link node1 to node2--><!--link node2 to Production--><!--
@startuml
[AA] <<static lib>>
[BB] <<shared lib>>
[CC] <<static lib>>

node node1
node node2 <<shared node>>
database Production

skinparam component {
backgroundColor<<static lib>> DarkKhaki
backgroundColor<<shared lib>> Green
}

skinparam node {
    borderColor Green
    backgroundColor Yellow
    backgroundColor<<shared node>> Magenta
}
skinparam databaseBackgroundColor Aqua
@enduml

PlantUML version 1.2019.01(Sat Feb 09 16:32:04 CET 2019)
(GPL source distribution)
Java Runtime: OpenJDK Runtime Environment
JVM: OpenJDK 64-Bit Server VM
Java Version: 11.0.1+13-Ubuntu-3ubuntu3.18.10.1
Operating System: Linux
OS Version: 4.18.0-16-generic
Default Encoding: UTF-8
Language: fr
Country: FR
--></g></svg>