<?xml version="1.0" encoding="UTF-8" standalone="no"?><svg xmlns="http://www.w3.org/2000/svg" xmlns:xlink="http://www.w3.org/1999/xlink" contentScriptType="application/ecmascript" contentStyleType="text/css" height="180px" preserveAspectRatio="none" style="width:434px;height:180px;" version="1.1" viewBox="0 0 434 180" width="434px" zoomAndPan="magnify"><defs><filter height="300%" id="f102temp1bre4n" width="300%" x="-1" y="-1"><feGaussianBlur result="blurOut" stdDeviation="2.0"/><feColorMatrix in="blurOut" result="blurOut2" type="matrix" values="0 0 0 0 0 0 0 0 0 0 0 0 0 0 0 0 0 0 .4 0"/><feOffset dx="4.0" dy="4.0" in="blurOut2" result="blurOut3"/><feBlend in="SourceGraphic" in2="blurOut3" mode="normal"/></filter></defs><g><!--entity DA--><ellipse cx="67.5" cy="28" fill="#FEFECE" filter="url(#f102temp1bre4n)" rx="8" ry="8" style="stroke: #A80036; stroke-width: 2.0;"/><text fill="#000000" font-family="sans-serif" font-size="14" lengthAdjust="spacingAndGlyphs" textLength="86" x="24.5" y="57.9951">Data Access</text><!--entity First Component--><rect fill="#FEFECE" filter="url(#f102temp1bre4n)" height="36.2969" style="stroke: #A80036; stroke-width: 1.5;" width="135" x="112" y="10"/><rect fill="#FEFECE" height="5" style="stroke: #A80036; stroke-width: 1.5;" width="10" x="107" y="15"/><rect fill="#FEFECE" height="5" style="stroke: #A80036; stroke-width: 1.5;" width="10" x="107" y="36.2969"/><text fill="#000000" font-family="sans-serif" font-size="14" lengthAdjust="spacingAndGlyphs" textLength="115" x="122" y="32.9951">First Component</text><!--entity HTTP--><ellipse cx="179.5" cy="137.5" fill="#FEFECE" filter="url(#f102temp1bre4n)" rx="8" ry="8" style="stroke: #A80036; stroke-width: 2.0;"/><text fill="#000000" font-family="sans-serif" font-size="14" lengthAdjust="spacingAndGlyphs" textLength="37" x="161" y="167.4951">HTTP</text><path d="M6,125 L6,150.1328 A0,0 0 0 0 6,150.1328 L135,150.1328 A0,0 0 0 0 135,150.1328 L135,143 L170.1594,137.5 L135,135 L135,135 L125,125 L6,125 A0,0 0 0 0 6,125 " fill="#FBFB77" filter="url(#f102temp1bre4n)" style="stroke: #A80036; stroke-width: 1.0;"/><path d="M125,125 L125,135 L135,135 L125,125 " fill="#FBFB77" style="stroke: #A80036; stroke-width: 1.0;"/><text fill="#000000" font-family="sans-serif" font-size="13" lengthAdjust="spacingAndGlyphs" textLength="108" x="12" y="142.0669">Web Service only</text><path d="M282.5,8 L282.5,24 L247.0781,28 L282.5,32 L282.5,48.2656 A0,0 0 0 0 282.5,48.2656 L422.5,48.2656 A0,0 0 0 0 422.5,48.2656 L422.5,18 L412.5,8 L282.5,8 A0,0 0 0 0 282.5,8 " fill="#FBFB77" filter="url(#f102temp1bre4n)" style="stroke: #A80036; stroke-width: 1.0;"/><path d="M412.5,8 L412.5,18 L422.5,18 L412.5,8 " fill="#FBFB77" style="stroke: #A80036; stroke-width: 1.0;"/><text fill="#000000" font-family="sans-serif" font-size="13" lengthAdjust="spacingAndGlyphs" textLength="99" x="288.5" y="25.0669">A note can also</text><text fill="#000000" font-family="sans-serif" font-size="13" lengthAdjust="spacingAndGlyphs" textLength="119" x="288.5" y="40.1997">be on several lines</text><!--link DA to First Component--><path d="M76.6875,28 C88.3342,28 99.981,28 111.6277,28 " fill="none" id="DA-First Component" style="stroke: #A80036; stroke-width: 1.0;"/><!--link First Component to HTTP--><path d="M179.5,46.0817 C179.5,67.7361 179.5,103.5538 179.5,123.3146 " fill="none" id="First Component-HTTP" style="stroke: #A80036; stroke-width: 1.0; stroke-dasharray: 7.0,7.0;"/><polygon fill="#A80036" points="179.5,128.4372,183.5,119.4372,179.5,123.4372,175.5,119.4372,179.5,128.4372" style="stroke: #A80036; stroke-width: 1.0;"/><text fill="#000000" font-family="sans-serif" font-size="13" lengthAdjust="spacingAndGlyphs" textLength="23" x="180.5" y="91.0669">use</text><!--
@startuml
interface "Data Access" as DA

DA - [First Component]
[First Component] ..> HTTP : use

note left of HTTP : Web Service only

note right of [First Component]
A note can also
be on several lines
end note
@enduml

PlantUML version 1.2019.01(Sat Feb 09 16:32:04 CET 2019)
(GPL source distribution)
Java Runtime: OpenJDK Runtime Environment
JVM: OpenJDK 64-Bit Server VM
Java Version: 11.0.1+13-Ubuntu-3ubuntu3.18.10.1
Operating System: Linux
OS Version: 4.18.0-16-generic
Default Encoding: UTF-8
Language: fr
Country: FR
--></g></svg>