<?xml version="1.0" encoding="UTF-8" standalone="no"?><svg xmlns="http://www.w3.org/2000/svg" xmlns:xlink="http://www.w3.org/1999/xlink" contentScriptType="application/ecmascript" contentStyleType="text/css" height="294px" preserveAspectRatio="none" style="width:234px;height:294px;" version="1.1" viewBox="0 0 234 294" width="234px" zoomAndPan="magnify"><defs><filter height="300%" id="fdvhszxute1q" width="300%" x="-1" y="-1"><feGaussianBlur result="blurOut" stdDeviation="2.0"/><feColorMatrix in="blurOut" result="blurOut2" type="matrix" values="0 0 0 0 0 0 0 0 0 0 0 0 0 0 0 0 0 0 .4 0"/><feOffset dx="4.0" dy="4.0" in="blurOut2" result="blurOut3"/><feBlend in="SourceGraphic" in2="blurOut3" mode="normal"/></filter></defs><g><!--entity Component--><rect fill="#FEFECE" filter="url(#fdvhszxute1q)" height="36.2969" style="stroke: #A80036; stroke-width: 1.5;" width="102" x="60.5" y="126"/><rect fill="#FEFECE" height="5" style="stroke: #A80036; stroke-width: 1.5;" width="10" x="55.5" y="131"/><rect fill="#FEFECE" height="5" style="stroke: #A80036; stroke-width: 1.5;" width="10" x="55.5" y="152.2969"/><text fill="#000000" font-family="sans-serif" font-size="14" lengthAdjust="spacingAndGlyphs" textLength="82" x="70.5" y="148.9951">Component</text><!--entity left--><ellipse cx="16.5" cy="144" fill="#FEFECE" filter="url(#fdvhszxute1q)" rx="8" ry="8" style="stroke: #A80036; stroke-width: 2.0;"/><text fill="#000000" font-family="sans-serif" font-size="14" lengthAdjust="spacingAndGlyphs" textLength="21" x="6" y="173.9951">left</text><!--entity right--><ellipse cx="206.5" cy="144" fill="#FEFECE" filter="url(#fdvhszxute1q)" rx="8" ry="8" style="stroke: #A80036; stroke-width: 2.0;"/><text fill="#000000" font-family="sans-serif" font-size="14" lengthAdjust="spacingAndGlyphs" textLength="31" x="191" y="173.9951">right</text><!--entity up--><ellipse cx="111.5" cy="37" fill="#FEFECE" filter="url(#fdvhszxute1q)" rx="8" ry="8" style="stroke: #A80036; stroke-width: 2.0;"/><text fill="#000000" font-family="sans-serif" font-size="14" lengthAdjust="spacingAndGlyphs" textLength="18" x="102.5" y="66.9951">up</text><!--entity down--><ellipse cx="111.5" cy="251" fill="#FEFECE" filter="url(#fdvhszxute1q)" rx="8" ry="8" style="stroke: #A80036; stroke-width: 2.0;"/><text fill="#000000" font-family="sans-serif" font-size="14" lengthAdjust="spacingAndGlyphs" textLength="38" x="92.5" y="280.9951">down</text><!--link left to Component--><path d="M30.8969,144 C40.6871,144 50.4772,144 60.2673,144 " fill="none" id="left-Component" style="stroke: #A80036; stroke-width: 1.0;"/><polygon fill="#A80036" points="25.7773,144,34.7773,148,30.7773,144,34.7773,140,25.7773,144" style="stroke: #A80036; stroke-width: 1.0;"/><!--link Component to right--><path d="M162.7109,144 C172.5188,144 182.3266,144 192.1344,144 " fill="none" id="Component-right" style="stroke: #A80036; stroke-width: 1.0;"/><polygon fill="#A80036" points="197.2632,144,188.2632,140,192.2632,144,188.2632,148,197.2632,144" style="stroke: #A80036; stroke-width: 1.0;"/><!--link up to Component--><path d="M111.5,51.6005 C111.5,70.8644 111.5,104.7734 111.5,125.72 " fill="none" id="up-Component" style="stroke: #A80036; stroke-width: 1.0;"/><polygon fill="#A80036" points="111.5,46.1228,107.5,55.1228,111.5,51.1228,115.5,55.1228,111.5,46.1228" style="stroke: #A80036; stroke-width: 1.0;"/><!--link Component to down--><path d="M111.5,162.1511 C111.5,183.1164 111.5,217.1907 111.5,236.48 " fill="none" id="Component-down" style="stroke: #A80036; stroke-width: 1.0;"/><polygon fill="#A80036" points="111.5,241.9608,115.5,232.9608,111.5,236.9608,107.5,232.9608,111.5,241.9608" style="stroke: #A80036; stroke-width: 1.0;"/><!--
@startuml
[Component] -left-> left
[Component] -right-> right
[Component] -up-> up
[Component] -down-> down
@enduml

PlantUML version 1.2019.01(Sat Feb 09 16:32:04 CET 2019)
(GPL source distribution)
Java Runtime: OpenJDK Runtime Environment
JVM: OpenJDK 64-Bit Server VM
Java Version: 11.0.1+13-Ubuntu-3ubuntu3.18.10.1
Operating System: Linux
OS Version: 4.18.0-16-generic
Default Encoding: UTF-8
Language: fr
Country: FR
--></g></svg>