<?xml version="1.0" encoding="UTF-8" standalone="no"?><svg xmlns="http://www.w3.org/2000/svg" xmlns:xlink="http://www.w3.org/1999/xlink" contentScriptType="application/ecmascript" contentStyleType="text/css" height="123px" preserveAspectRatio="none" style="width:772px;height:123px;" version="1.1" viewBox="0 0 772 123" width="772px" zoomAndPan="magnify"><defs><filter height="300%" id="f1nnbq7ykhtv1g" width="300%" x="-1" y="-1"><feGaussianBlur result="blurOut" stdDeviation="2.0"/><feColorMatrix in="blurOut" result="blurOut2" type="matrix" values="0 0 0 0 0 0 0 0 0 0 0 0 0 0 0 0 0 0 .4 0"/><feOffset dx="4.0" dy="4.0" in="blurOut2" result="blurOut3"/><feBlend in="SourceGraphic" in2="blurOut3" mode="normal"/></filter></defs><g><!--cluster FooA1--><rect fill="#FFFFFF" filter="url(#f1nnbq7ykhtv1g)" height="91" style="stroke: #000000; stroke-width: 1.5;" width="90" x="14" y="21"/><polygon fill="#FFFFFF" points="87,26,87,40,99,40,99,32,93,26,87,26" style="stroke: #000000; stroke-width: 1.5;"/><line style="stroke: #000000; stroke-width: 1.5;" x1="93" x2="93" y1="26" y2="32"/><line style="stroke: #000000; stroke-width: 1.5;" x1="99" x2="93" y1="32" y2="32"/><text fill="#000000" font-family="sans-serif" font-size="14" font-weight="bold" lengthAdjust="spacingAndGlyphs" textLength="49" x="34.5" y="35.9951">FooA1</text><!--cluster FooA3--><polygon fill="#FFFFFF" filter="url(#f1nnbq7ykhtv1g)" points="123,29.5,178,29.5,185,51.7969,213,51.7969,213,103.5,123,103.5,123,29.5" style="stroke: #000000; stroke-width: 1.5;"/><line style="stroke: #000000; stroke-width: 1.5;" x1="123" x2="185" y1="51.7969" y2="51.7969"/><text fill="#000000" font-family="sans-serif" font-size="14" font-weight="bold" lengthAdjust="spacingAndGlyphs" textLength="49" x="127" y="44.4951">FooA3</text><!--cluster FooA5--><rect fill="#FFFFFF" filter="url(#f1nnbq7ykhtv1g)" height="80" style="stroke: #000000; stroke-width: 1.5;" width="80" x="232" y="26.5"/><path d="M291,27.5 L291,35.7969 L281,45.7969 L232,45.7969 " fill="none" style="stroke: #000000; stroke-width: 1.5;"/><text fill="#000000" font-family="sans-serif" font-size="14" font-weight="bold" lengthAdjust="spacingAndGlyphs" textLength="49" x="235" y="40.4951">FooA5</text><!--cluster FooB1--><polygon fill="#FFFFFF" filter="url(#f1nnbq7ykhtv1g)" points="325,36,335,26,451,26,451,92,441,102,325,102,325,36" style="stroke: #000000; stroke-width: 1.5;"/><line style="stroke: #000000; stroke-width: 1.5;" x1="441" x2="450" y1="36" y2="27"/><line style="stroke: #000000; stroke-width: 1.5;" x1="325" x2="441" y1="36" y2="36"/><line style="stroke: #000000; stroke-width: 1.5;" x1="441" x2="441" y1="36" y2="102"/><text fill="#000000" font-family="sans-serif" font-size="14" font-weight="bold" lengthAdjust="spacingAndGlyphs" textLength="50" x="359" y="51.9951">FooB1</text><!--cluster FooB3--><path d="M462,33 C462,30 464,28 467,28 C470,28 472,30 472,33 C472,30 474,28 477,28 C480,28 482,30 482,33 C482,30 484,28 487,28 C490,28 492,30 492,33 C492,30 494,28 497,28 C500,28 502,30 502,33 C502,30 504,28 507,28 C510,28 512,30 512,33 C512,30 514,28 517,28 C520,28 522,30 522,33 C522,30 524,28 527,28 C530,28 532,30 532,33 C532,30 534,28 537,28 C540,28 542,30 542,33 C542,30 544,28 547,28 C550,28 552,30 552,33 C552,30 554,28 557,28 C560,28 562,30 562,33 C565,33 567,35 567,38 C567,41 565,43 562,43 C565,43 567,45 567,48 C567,51 565,53 562,53 C565,53 567,55 567,58 C567,61 565,63 562,63 C565,63 567,65 567,68 C567,71 565,73 562,73 C565,73 567,75 567,78 C567,81 565,83 562,83 C565,83 567,85 567,88 C567,91 565,93 562,93 C565,93 567,95 567,98 C567,101 565,103 562,103 C562,106 559,108 557,108 C554,108 552,106 552,103 C552,106 549,108 547,108 C544,108 542,106 542,103 C542,106 539,108 537,108 C534,108 532,106 532,103 C532,106 529,108 527,108 C524,108 522,106 522,103 C522,106 519,108 517,108 C514,108 512,106 512,103 C512,106 509,108 507,108 C504,108 502,106 502,103 C502,106 499,108 497,108 C494,108 492,106 492,103 C492,106 489,108 487,108 C484,108 482,106 482,103 C482,106 479,108 477,108 C474,108 472,106 472,103 C472,106 469,108 467,108 C464,108 462,106 462,103 C459,103 457,101 457,98 C457,95 459,93 462,93 C459,93 457,91 457,88 C457,85 459,83 462,83 C459,83 457,81 457,78 C457,75 459,73 462,73 C459,73 457,71 457,68 C457,65 459,63 462,63 C459,63 457,61 457,58 C457,55 459,53 462,53 C459,53 457,51 457,48 C457,45 459,43 462,43 C459,43 457,41 457,38 C457,35 459,33 462,33 " fill="#FFFFFF" filter="url(#f1nnbq7ykhtv1g)" style="stroke: #000000; stroke-width: 1.5;"/><text fill="#000000" font-family="sans-serif" font-size="14" font-weight="bold" lengthAdjust="spacingAndGlyphs" textLength="50" x="485" y="51.9951">FooB3</text><!--cluster FooB5--><path d="M579,26 C579,16 620,16 620,16 C620,16 661,16 661,26 L661,92 C661,102 620,102 620,102 C620,102 579,102 579,92 L579,26 " fill="#FFFFFF" filter="url(#f1nnbq7ykhtv1g)" style="stroke: #000000; stroke-width: 1.5;"/><path d="M579,26 C579,36 620,36 620,36 C620,36 661,36 661,26 " fill="none" style="stroke: #000000; stroke-width: 1.5;"/><text fill="#000000" font-family="sans-serif" font-size="14" font-weight="bold" lengthAdjust="spacingAndGlyphs" textLength="50" x="595" y="50.9951">FooB5</text><!--cluster FooB7--><rect fill="#FFFFFF" filter="url(#f1nnbq7ykhtv1g)" height="71" rx="35" ry="35" style="stroke: #000000; stroke-width: 1.5;" width="82" x="679" y="31"/><text fill="#000000" font-family="sans-serif" font-size="14" font-weight="bold" lengthAdjust="spacingAndGlyphs" textLength="50" x="695" y="50.9951">FooB7</text><!--entity FooA2--><polygon fill="#FEFECE" filter="url(#f1nnbq7ykhtv1g)" points="22,48,68,48,75,69,96,69,96,103.5938,22,103.5938,22,48" style="stroke: #000000; stroke-width: 1.5;"/><line style="stroke: #000000; stroke-width: 1.5;" x1="22" x2="75" y1="69" y2="69"/><text fill="#000000" font-family="sans-serif" font-size="14" lengthAdjust="spacingAndGlyphs" textLength="44" x="32" y="88.9951">FooA2</text><!--entity FooA4--><rect fill="#FEFECE" filter="url(#f1nnbq7ykhtv1g)" height="39.2969" style="stroke: #000000; stroke-width: 1.5;" width="74" x="131" y="56.5"/><polygon fill="#FEFECE" points="188,61.5,188,75.5,200,75.5,200,67.5,194,61.5,188,61.5" style="stroke: #000000; stroke-width: 1.5;"/><line style="stroke: #000000; stroke-width: 1.5;" x1="194" x2="194" y1="61.5" y2="67.5"/><line style="stroke: #000000; stroke-width: 1.5;" x1="200" x2="194" y1="67.5" y2="67.5"/><text fill="#000000" font-family="sans-serif" font-size="14" lengthAdjust="spacingAndGlyphs" textLength="44" x="141" y="82.4951">FooA4</text><!--entity FooA6--><path d="M240,63.5 C240,53.5 272,53.5 272,53.5 C272,53.5 304,53.5 304,63.5 L304,88.7969 C304,98.7969 272,98.7969 272,98.7969 C272,98.7969 240,98.7969 240,88.7969 L240,63.5 " fill="#FEFECE" filter="url(#f1nnbq7ykhtv1g)" style="stroke: #000000; stroke-width: 1.5;"/><path d="M240,63.5 C240,73.5 272,73.5 272,73.5 C272,73.5 304,73.5 304,63.5 " fill="none" style="stroke: #000000; stroke-width: 1.5;"/><text fill="#000000" font-family="sans-serif" font-size="14" lengthAdjust="spacingAndGlyphs" textLength="44" x="250" y="90.4951">FooA6</text><!--entity FooB2--><path d="M356.5,65 C356.5,62 358.5,60 361.5,60 C364.5,60 366.5,62 366.5,65 C366.5,62 368.5,60 371.5,60 C374.5,60 376.5,62 376.5,65 C376.5,62 378.5,60 381.5,60 C384.5,60 386.5,62 386.5,65 C386.5,62 388.5,60 391.5,60 C394.5,60 396.5,62 396.5,65 C396.5,62 398.5,60 401.5,60 C404.5,60 406.5,62 406.5,65 C406.5,62 408.5,60 411.5,60 C414.5,60 416.5,62 416.5,65 C419.5,65 421.5,67 421.5,70 C421.5,73 419.5,75 416.5,75 C419.5,75 421.5,77 421.5,80 C421.5,83 419.5,85 416.5,85 C416.5,88 413.5,90 411.5,90 C408.5,90 406.5,88 406.5,85 C406.5,88 403.5,90 401.5,90 C398.5,90 396.5,88 396.5,85 C396.5,88 393.5,90 391.5,90 C388.5,90 386.5,88 386.5,85 C386.5,88 383.5,90 381.5,90 C378.5,90 376.5,88 376.5,85 C376.5,88 373.5,90 371.5,90 C368.5,90 366.5,88 366.5,85 C366.5,88 363.5,90 361.5,90 C358.5,90 356.5,88 356.5,85 C353.5,85 351.5,83 351.5,80 C351.5,77 353.5,75 356.5,75 C353.5,75 351.5,73 351.5,70 C351.5,67 353.5,65 356.5,65 " fill="#FEFECE" filter="url(#f1nnbq7ykhtv1g)" style="stroke: #000000; stroke-width: 1.5;"/><text fill="#000000" font-family="sans-serif" font-size="14" lengthAdjust="spacingAndGlyphs" textLength="45" x="363.5" y="80.9951">FooB2</text><!--entity FooB4--><rect fill="#FEFECE" filter="url(#f1nnbq7ykhtv1g)" height="46.2969" style="stroke: #000000; stroke-width: 1.5;" width="85" x="467.5" y="53"/><path d="M495.8333,54 L495.8333,58 L488.8333,65 L467.5,65 " fill="none" style="stroke: #000000; stroke-width: 1.5;"/><text fill="#000000" font-family="sans-serif" font-size="14" lengthAdjust="spacingAndGlyphs" textLength="45" x="482.5" y="85.9951">FooB4</text><!--entity FooB6--><rect fill="#FEFECE" filter="url(#f1nnbq7ykhtv1g)" height="36.2969" rx="35" ry="35" style="stroke: #000000; stroke-width: 1.5;" width="65" x="587.5" y="58"/><text fill="#000000" font-family="sans-serif" font-size="14" lengthAdjust="spacingAndGlyphs" textLength="45" x="597.5" y="80.9951">FooB6</text><!--entity FooB8--><rect fill="#FEFECE" filter="url(#f1nnbq7ykhtv1g)" height="36.2969" rx="35" ry="35" style="stroke: #000000; stroke-width: 1.5;" width="65" x="687.5" y="58"/><text fill="#000000" font-family="sans-serif" font-size="14" lengthAdjust="spacingAndGlyphs" textLength="45" x="697.5" y="80.9951">FooB8</text><!--
@startuml
artifact FooA1 {
  folder FooA2
}

folder FooA3 {
  artifact FooA4
}

frame FooA5 {
  database FooA6
}

node FooB1 {
 cloud FooB2
}

cloud FooB3 {
  frame FooB4
}

database FooB5  {
  storage FooB6
}

storage FooB7 {
  storage FooB8
}
	@enduml

PlantUML version 1.2019.01(Sat Feb 09 16:32:04 CET 2019)
(GPL source distribution)
Java Runtime: OpenJDK Runtime Environment
JVM: OpenJDK 64-Bit Server VM
Java Version: 11.0.1+13-Ubuntu-3ubuntu3.18.10.1
Operating System: Linux
OS Version: 4.18.0-16-generic
Default Encoding: UTF-8
Language: fr
Country: FR
--></g></svg>