<?xml version="1.0" encoding="UTF-8" standalone="no"?><svg xmlns="http://www.w3.org/2000/svg" xmlns:xlink="http://www.w3.org/1999/xlink" contentScriptType="application/ecmascript" contentStyleType="text/css" height="437px" preserveAspectRatio="none" style="width:448px;height:437px;" version="1.1" viewBox="0 0 448 437" width="448px" zoomAndPan="magnify"><defs><filter height="300%" id="flpfnqecg82pe" width="300%" x="-1" y="-1"><feGaussianBlur result="blurOut" stdDeviation="2.0"/><feColorMatrix in="blurOut" result="blurOut2" type="matrix" values="0 0 0 0 0 0 0 0 0 0 0 0 0 0 0 0 0 0 .4 0"/><feOffset dx="4.0" dy="4.0" in="blurOut2" result="blurOut3"/><feBlend in="SourceGraphic" in2="blurOut3" mode="normal"/></filter></defs><g><!--entity artifact--><rect fill="#FEFECE" filter="url(#flpfnqecg82pe)" height="39.2969" style="stroke: #000000; stroke-width: 1.5;" width="76" x="7.5" y="30"/><polygon fill="#FEFECE" points="66.5,35,66.5,49,78.5,49,78.5,41,72.5,35,66.5,35" style="stroke: #000000; stroke-width: 1.5;"/><line style="stroke: #000000; stroke-width: 1.5;" x1="72.5" x2="72.5" y1="35" y2="41"/><line style="stroke: #000000; stroke-width: 1.5;" x1="78.5" x2="72.5" y1="41" y2="41"/><text fill="#000000" font-family="sans-serif" font-size="14" lengthAdjust="spacingAndGlyphs" textLength="46" x="17.5" y="55.9951">artifact</text><!--entity actor--><ellipse cx="136.5" cy="18" fill="#FEFECE" filter="url(#flpfnqecg82pe)" rx="8" ry="8" style="stroke: #A80036; stroke-width: 2.0;"/><path d="M136.5,26 L136.5,53 M123.5,34 L149.5,34 M136.5,53 L123.5,68 M136.5,53 L149.5,68 " fill="none" filter="url(#flpfnqecg82pe)" style="stroke: #A80036; stroke-width: 2.0;"/><text fill="#000000" font-family="sans-serif" font-size="14" lengthAdjust="spacingAndGlyphs" textLength="35" x="119" y="87.9951">actor</text><!--entity folder--><polygon fill="#FEFECE" filter="url(#flpfnqecg82pe)" points="189,21.5,235,21.5,242,42.5,258,42.5,258,77.0938,189,77.0938,189,21.5" style="stroke: #000000; stroke-width: 1.5;"/><line style="stroke: #000000; stroke-width: 1.5;" x1="189" x2="242" y1="42.5" y2="42.5"/><text fill="#000000" font-family="sans-serif" font-size="14" lengthAdjust="spacingAndGlyphs" textLength="39" x="199" y="62.4951">folder</text><!--entity node--><polygon fill="#FEFECE" filter="url(#flpfnqecg82pe)" points="293.5,36.5,303.5,26.5,369.5,26.5,369.5,62.7969,359.5,72.7969,293.5,72.7969,293.5,36.5" style="stroke: #000000; stroke-width: 1.5;"/><line style="stroke: #000000; stroke-width: 1.5;" x1="359.5" x2="368.5" y1="36.5" y2="27.5"/><line style="stroke: #000000; stroke-width: 1.5;" x1="293.5" x2="359.5" y1="36.5" y2="36.5"/><line style="stroke: #000000; stroke-width: 1.5;" x1="359.5" x2="359.5" y1="36.5" y2="72.7969"/><text fill="#000000" font-family="sans-serif" font-size="14" lengthAdjust="spacingAndGlyphs" textLength="36" x="308.5" y="59.4951">node</text><!--entity frame--><rect fill="#FEFECE" filter="url(#flpfnqecg82pe)" height="46.2969" style="stroke: #000000; stroke-width: 1.5;" width="79" x="6" y="151"/><path d="M32.3333,152 L32.3333,156 L25.3333,163 L6,163 " fill="none" style="stroke: #000000; stroke-width: 1.5;"/><text fill="#000000" font-family="sans-serif" font-size="14" lengthAdjust="spacingAndGlyphs" textLength="39" x="21" y="183.9951">frame</text><!--entity cloud--><path d="M123.5,163 C123.5,160 125.5,158 128.5,158 C131.5,158 133.5,160 133.5,163 C133.5,160 135.5,158 138.5,158 C141.5,158 143.5,160 143.5,163 C143.5,160 145.5,158 148.5,158 C151.5,158 153.5,160 153.5,163 C153.5,160 155.5,158 158.5,158 C161.5,158 163.5,160 163.5,163 C163.5,160 165.5,158 168.5,158 C171.5,158 173.5,160 173.5,163 C176.5,163 178.5,165 178.5,168 C178.5,171 176.5,173 173.5,173 C176.5,173 178.5,175 178.5,178 C178.5,181 176.5,183 173.5,183 C173.5,186 170.5,188 168.5,188 C165.5,188 163.5,186 163.5,183 C163.5,186 160.5,188 158.5,188 C155.5,188 153.5,186 153.5,183 C153.5,186 150.5,188 148.5,188 C145.5,188 143.5,186 143.5,183 C143.5,186 140.5,188 138.5,188 C135.5,188 133.5,186 133.5,183 C133.5,186 130.5,188 128.5,188 C125.5,188 123.5,186 123.5,183 C120.5,183 118.5,181 118.5,178 C118.5,175 120.5,173 123.5,173 C120.5,173 118.5,171 118.5,168 C118.5,165 120.5,163 123.5,163 " fill="#FEFECE" filter="url(#flpfnqecg82pe)" style="stroke: #000000; stroke-width: 1.5;"/><text fill="#000000" font-family="sans-serif" font-size="14" lengthAdjust="spacingAndGlyphs" textLength="38" x="130.5" y="178.9951">cloud</text><!--entity database--><path d="M213.5,161.5 C213.5,151.5 255.5,151.5 255.5,151.5 C255.5,151.5 297.5,151.5 297.5,161.5 L297.5,186.7969 C297.5,196.7969 255.5,196.7969 255.5,196.7969 C255.5,196.7969 213.5,196.7969 213.5,186.7969 L213.5,161.5 " fill="#FEFECE" filter="url(#flpfnqecg82pe)" style="stroke: #000000; stroke-width: 1.5;"/><path d="M213.5,161.5 C213.5,171.5 255.5,171.5 255.5,171.5 C255.5,171.5 297.5,171.5 297.5,161.5 " fill="none" style="stroke: #000000; stroke-width: 1.5;"/><text fill="#000000" font-family="sans-serif" font-size="14" lengthAdjust="spacingAndGlyphs" textLength="64" x="223.5" y="188.4951">database</text><!--entity storage--><rect fill="#FEFECE" filter="url(#flpfnqecg82pe)" height="36.2969" rx="35" ry="35" style="stroke: #000000; stroke-width: 1.5;" width="73" x="333" y="156"/><text fill="#000000" font-family="sans-serif" font-size="14" lengthAdjust="spacingAndGlyphs" textLength="53" x="343" y="178.9951">storage</text><!--entity agent--><rect fill="#FEFECE" filter="url(#flpfnqecg82pe)" height="36.2969" style="stroke: #A80036; stroke-width: 1.5;" width="60" x="15.5" y="263"/><text fill="#000000" font-family="sans-serif" font-size="14" lengthAdjust="spacingAndGlyphs" textLength="40" x="25.5" y="285.9951">agent</text><ellipse cx="155.7193" cy="281.0236" fill="#FEFECE" filter="url(#flpfnqecg82pe)" rx="44.7193" ry="14.5236" style="stroke: #A80036; stroke-width: 1.5;"/><text fill="#000000" font-family="sans-serif" font-size="14" lengthAdjust="spacingAndGlyphs" textLength="59" x="126.2193" y="285.6721">usecase</text><!--entity component--><rect fill="#FEFECE" filter="url(#flpfnqecg82pe)" height="36.2969" style="stroke: #A80036; stroke-width: 1.5;" width="100" x="235.5" y="263"/><rect fill="#FEFECE" height="5" style="stroke: #A80036; stroke-width: 1.5;" width="10" x="230.5" y="268"/><rect fill="#FEFECE" height="5" style="stroke: #A80036; stroke-width: 1.5;" width="10" x="230.5" y="289.2969"/><text fill="#000000" font-family="sans-serif" font-size="14" lengthAdjust="spacingAndGlyphs" textLength="80" x="245.5" y="285.9951">component</text><!--entity boundary--><path d="M383,261 L383,285 M383,273 L400,273 " fill="none" filter="url(#flpfnqecg82pe)" style="stroke: #A80036; stroke-width: 2.0;"/><ellipse cx="412" cy="273" fill="#FEFECE" filter="url(#flpfnqecg82pe)" rx="12" ry="12" style="stroke: #A80036; stroke-width: 2.0;"/><text fill="#000000" font-family="sans-serif" font-size="14" lengthAdjust="spacingAndGlyphs" textLength="65" x="371" y="301.9951">boundary</text><!--entity control--><ellipse cx="45.5" cy="386" fill="#FEFECE" filter="url(#flpfnqecg82pe)" rx="12" ry="12" style="stroke: #A80036; stroke-width: 2.0;"/><polygon fill="#A80036" points="41.5,374,47.5,369,45.5,374,47.5,379,41.5,374" style="stroke: #A80036; stroke-width: 1.0;"/><text fill="#000000" font-family="sans-serif" font-size="14" lengthAdjust="spacingAndGlyphs" textLength="48" x="21.5" y="414.9951">control</text><!--entity entity--><ellipse cx="123.5" cy="386" fill="#FEFECE" filter="url(#flpfnqecg82pe)" rx="12" ry="12" style="stroke: #A80036; stroke-width: 2.0;"/><line style="stroke: #A80036; stroke-width: 2.0;" x1="111.5" x2="135.5" y1="400" y2="400"/><text fill="#000000" font-family="sans-serif" font-size="14" lengthAdjust="spacingAndGlyphs" textLength="38" x="104.5" y="414.9951">entity</text><!--entity interface--><ellipse cx="215.5" cy="394" fill="#FEFECE" filter="url(#flpfnqecg82pe)" rx="8" ry="8" style="stroke: #A80036; stroke-width: 2.0;"/><text fill="#000000" font-family="sans-serif" font-size="14" lengthAdjust="spacingAndGlyphs" textLength="60" x="185.5" y="423.9951">interface</text><!--link artifact to actor--><!--link actor to folder--><!--link folder to node--><!--link artifact to frame--><!--link frame to cloud--><!--link cloud to database--><!--link database to storage--><!--link frame to agent--><!--link agent to usecase--><!--link usecase to component--><!--link component to boundary--><!--link agent to control--><!--link control to entity--><!--link entity to interface--><!--
@startuml
artifact artifact
actor actor
folder folder
node node
frame frame
cloud cloud
database database
storage storage
agent agent
usecase usecase
component component
boundary boundary
control control
entity entity
interface interface
	@enduml

PlantUML version 1.2019.01(Sat Feb 09 16:32:04 CET 2019)
(GPL source distribution)
Java Runtime: OpenJDK Runtime Environment
JVM: OpenJDK 64-Bit Server VM
Java Version: 11.0.1+13-Ubuntu-3ubuntu3.18.10.1
Operating System: Linux
OS Version: 4.18.0-16-generic
Default Encoding: UTF-8
Language: fr
Country: FR
--></g></svg>