<?xml version="1.0" encoding="UTF-8" standalone="no"?><svg xmlns="http://www.w3.org/2000/svg" xmlns:xlink="http://www.w3.org/1999/xlink" contentScriptType="application/ecmascript" contentStyleType="text/css" height="157px" preserveAspectRatio="none" style="width:1077px;height:157px;" version="1.1" viewBox="0 0 1077 157" width="1077px" zoomAndPan="magnify"><defs><filter height="300%" id="f1g5tbu0b6qv6f" width="300%" x="-1" y="-1"><feGaussianBlur result="blurOut" stdDeviation="2.0"/><feColorMatrix in="blurOut" result="blurOut2" type="matrix" values="0 0 0 0 0 0 0 0 0 0 0 0 0 0 0 0 0 0 .4 0"/><feOffset dx="4.0" dy="4.0" in="blurOut2" result="blurOut3"/><feBlend in="SourceGraphic" in2="blurOut3" mode="normal"/></filter></defs><g><!--entity artifact1--><rect fill="#FEFECE" filter="url(#f1g5tbu0b6qv6f)" height="39.2969" style="stroke: #000000; stroke-width: 1.5;" width="85" x="486" y="8"/><polygon fill="#FEFECE" points="554,13,554,27,566,27,566,19,560,13,554,13" style="stroke: #000000; stroke-width: 1.5;"/><line style="stroke: #000000; stroke-width: 1.5;" x1="560" x2="560" y1="13" y2="19"/><line style="stroke: #000000; stroke-width: 1.5;" x1="566" x2="560" y1="19" y2="19"/><text fill="#000000" font-family="sans-serif" font-size="14" lengthAdjust="spacingAndGlyphs" textLength="55" x="496" y="33.9951">artifact1</text><!--entity artifact2--><rect fill="#FEFECE" filter="url(#f1g5tbu0b6qv6f)" height="39.2969" style="stroke: #000000; stroke-width: 1.5;" width="85" x="6" y="107"/><polygon fill="#FEFECE" points="74,112,74,126,86,126,86,118,80,112,74,112" style="stroke: #000000; stroke-width: 1.5;"/><line style="stroke: #000000; stroke-width: 1.5;" x1="80" x2="80" y1="112" y2="118"/><line style="stroke: #000000; stroke-width: 1.5;" x1="86" x2="80" y1="118" y2="118"/><text fill="#000000" font-family="sans-serif" font-size="14" lengthAdjust="spacingAndGlyphs" textLength="55" x="16" y="132.9951">artifact2</text><!--entity artifact3--><rect fill="#FEFECE" filter="url(#f1g5tbu0b6qv6f)" height="39.2969" style="stroke: #000000; stroke-width: 1.5;" width="85" x="126" y="107"/><polygon fill="#FEFECE" points="194,112,194,126,206,126,206,118,200,112,194,112" style="stroke: #000000; stroke-width: 1.5;"/><line style="stroke: #000000; stroke-width: 1.5;" x1="200" x2="200" y1="112" y2="118"/><line style="stroke: #000000; stroke-width: 1.5;" x1="206" x2="200" y1="118" y2="118"/><text fill="#000000" font-family="sans-serif" font-size="14" lengthAdjust="spacingAndGlyphs" textLength="55" x="136" y="132.9951">artifact3</text><!--entity artifact4--><rect fill="#FEFECE" filter="url(#f1g5tbu0b6qv6f)" height="39.2969" style="stroke: #000000; stroke-width: 1.5;" width="85" x="246" y="107"/><polygon fill="#FEFECE" points="314,112,314,126,326,126,326,118,320,112,314,112" style="stroke: #000000; stroke-width: 1.5;"/><line style="stroke: #000000; stroke-width: 1.5;" x1="320" x2="320" y1="112" y2="118"/><line style="stroke: #000000; stroke-width: 1.5;" x1="326" x2="320" y1="118" y2="118"/><text fill="#000000" font-family="sans-serif" font-size="14" lengthAdjust="spacingAndGlyphs" textLength="55" x="256" y="132.9951">artifact4</text><!--entity artifact5--><rect fill="#FEFECE" filter="url(#f1g5tbu0b6qv6f)" height="39.2969" style="stroke: #000000; stroke-width: 1.5;" width="85" x="366" y="107"/><polygon fill="#FEFECE" points="434,112,434,126,446,126,446,118,440,112,434,112" style="stroke: #000000; stroke-width: 1.5;"/><line style="stroke: #000000; stroke-width: 1.5;" x1="440" x2="440" y1="112" y2="118"/><line style="stroke: #000000; stroke-width: 1.5;" x1="446" x2="440" y1="118" y2="118"/><text fill="#000000" font-family="sans-serif" font-size="14" lengthAdjust="spacingAndGlyphs" textLength="55" x="376" y="132.9951">artifact5</text><!--entity artifact6--><rect fill="#FEFECE" filter="url(#f1g5tbu0b6qv6f)" height="39.2969" style="stroke: #000000; stroke-width: 1.5;" width="85" x="486" y="107"/><polygon fill="#FEFECE" points="554,112,554,126,566,126,566,118,560,112,554,112" style="stroke: #000000; stroke-width: 1.5;"/><line style="stroke: #000000; stroke-width: 1.5;" x1="560" x2="560" y1="112" y2="118"/><line style="stroke: #000000; stroke-width: 1.5;" x1="566" x2="560" y1="118" y2="118"/><text fill="#000000" font-family="sans-serif" font-size="14" lengthAdjust="spacingAndGlyphs" textLength="55" x="496" y="132.9951">artifact6</text><!--entity artifact7--><rect fill="#FEFECE" filter="url(#f1g5tbu0b6qv6f)" height="39.2969" style="stroke: #000000; stroke-width: 1.5;" width="85" x="606" y="107"/><polygon fill="#FEFECE" points="674,112,674,126,686,126,686,118,680,112,674,112" style="stroke: #000000; stroke-width: 1.5;"/><line style="stroke: #000000; stroke-width: 1.5;" x1="680" x2="680" y1="112" y2="118"/><line style="stroke: #000000; stroke-width: 1.5;" x1="686" x2="680" y1="118" y2="118"/><text fill="#000000" font-family="sans-serif" font-size="14" lengthAdjust="spacingAndGlyphs" textLength="55" x="616" y="132.9951">artifact7</text><!--entity artifact8--><rect fill="#FEFECE" filter="url(#f1g5tbu0b6qv6f)" height="39.2969" style="stroke: #000000; stroke-width: 1.5;" width="85" x="726" y="107"/><polygon fill="#FEFECE" points="794,112,794,126,806,126,806,118,800,112,794,112" style="stroke: #000000; stroke-width: 1.5;"/><line style="stroke: #000000; stroke-width: 1.5;" x1="800" x2="800" y1="112" y2="118"/><line style="stroke: #000000; stroke-width: 1.5;" x1="806" x2="800" y1="118" y2="118"/><text fill="#000000" font-family="sans-serif" font-size="14" lengthAdjust="spacingAndGlyphs" textLength="55" x="736" y="132.9951">artifact8</text><!--entity artifact9--><rect fill="#FEFECE" filter="url(#f1g5tbu0b6qv6f)" height="39.2969" style="stroke: #000000; stroke-width: 1.5;" width="85" x="846" y="107"/><polygon fill="#FEFECE" points="914,112,914,126,926,126,926,118,920,112,914,112" style="stroke: #000000; stroke-width: 1.5;"/><line style="stroke: #000000; stroke-width: 1.5;" x1="920" x2="920" y1="112" y2="118"/><line style="stroke: #000000; stroke-width: 1.5;" x1="926" x2="920" y1="118" y2="118"/><text fill="#000000" font-family="sans-serif" font-size="14" lengthAdjust="spacingAndGlyphs" textLength="55" x="856" y="132.9951">artifact9</text><!--entity artifact10--><rect fill="#FEFECE" filter="url(#f1g5tbu0b6qv6f)" height="39.2969" style="stroke: #000000; stroke-width: 1.5;" width="94" x="966.5" y="107"/><polygon fill="#FEFECE" points="1043.5,112,1043.5,126,1055.5,126,1055.5,118,1049.5,112,1043.5,112" style="stroke: #000000; stroke-width: 1.5;"/><line style="stroke: #000000; stroke-width: 1.5;" x1="1049.5" x2="1049.5" y1="112" y2="118"/><line style="stroke: #000000; stroke-width: 1.5;" x1="1055.5" x2="1049.5" y1="118" y2="118"/><text fill="#000000" font-family="sans-serif" font-size="14" lengthAdjust="spacingAndGlyphs" textLength="64" x="976.5" y="132.9951">artifact10</text><!--link artifact1 to artifact2--><path d="M485.7803,33.7453 C409.4166,45.3162 244.7361,72.1186 108.5,107 C104.458,108.0349 100.2903,109.1936 96.124,110.4163 " fill="none" id="artifact1-artifact2" style="stroke: #A80036; stroke-width: 1.0;"/><polygon fill="#A80036" points="91.2412,111.8775,101.0102,113.1292,96.0313,110.4439,98.7165,105.465,91.2412,111.8775" style="stroke: #A80036; stroke-width: 1.0;"/><!--link artifact1 to artifact3--><path d="M485.5688,38.0838 C427.1479,52.6667 319.4616,80.1885 228.5,107 C226.9044,107.4703 225.2869,107.9535 223.6558,108.4463 " fill="none" id="artifact1-artifact3" style="stroke: #A80036; stroke-width: 1.0;"/><polygon fill="#A80036" points="211.0203,112.3604,217.9352,114.4059,222.4829,108.8096,215.568,106.7641,211.0203,112.3604" style="stroke: #A80036; stroke-width: 1.0;"/><!--link artifact1 to artifact4--><path d="M485.8694,45.0851 C446.0623,61.5055 386.4539,86.094 343.1643,103.951 " fill="none" id="artifact1-artifact4" style="stroke: #A80036; stroke-width: 1.0;"/><polygon fill="#FFFFFF" points="331.1371,108.9122,338.2091,110.3219,342.2303,104.3361,335.1584,102.9264,331.1371,108.9122" style="stroke: #A80036; stroke-width: 1.0;"/><!--link artifact1 to artifact5--><path d="M504.7919,47.0592 C487.3701,61.4322 463.4093,81.1998 443.7482,97.4203 " fill="none" id="artifact1-artifact5" style="stroke: #A80036; stroke-width: 1.0;"/><ellipse cx="438.3299" cy="101.8904" fill="#FFFFFF" rx="8" ry="8" style="stroke: #A80036; stroke-width: 1.0;"/><line style="stroke: #A80036; stroke-width: 1.0;" x1="444.5009" x2="432.1589" y1="96.7994" y2="106.9814"/><line style="stroke: #A80036; stroke-width: 1.0;" x1="443.4209" x2="433.2389" y1="108.0614" y2="95.7194"/><!--link artifact1 to artifact6--><path d="M528.5,47.0592 C528.5,62.7881 528.5,84.9776 528.5,101.9087 " fill="none" id="artifact1-artifact6" style="stroke: #A80036; stroke-width: 1.0;"/><rect fill="#FFFFFF" height="10" style="stroke: #A80036; stroke-width: 1.5;" width="10" x="523.5" y="101.9814"/><!--link artifact1 to artifact7--><path d="M552.2081,47.0592 C571.1913,62.7203 597.9381,84.7864 618.4267,101.6895 " fill="none" id="artifact1-artifact7" style="stroke: #A80036; stroke-width: 1.0;"/><polygon fill="#A80036" points="624.8411,106.9814,620.5793,99.5762,616.761,104.2044,624.8411,106.9814" style="stroke: #A80036; stroke-width: 1.0;"/><!--link artifact1 to artifact8--><path d="M571.1306,45.0851 C613.2391,62.4549 677.505,88.9645 721.1735,106.9778 " fill="none" id="artifact1-artifact8" style="stroke: #A80036; stroke-width: 1.0;"/><ellipse cx="725.8629" cy="108.9122" fill="#FFFFFF" rx="6" ry="6" style="stroke: #A80036; stroke-width: 1.5;"/><!--link artifact1 to artifact9--><path d="M571.4312,38.0838 C626.372,51.798 724.8834,76.9555 826.6183,106.6622 " fill="none" id="artifact1-artifact9" style="stroke: #A80036; stroke-width: 1.0;"/><polygon fill="none" points="828.7697,99.9984,845.9797,112.3604,824.817,113.4288,828.7697,99.9984" style="stroke: #A80036; stroke-width: 1.0;"/><!--link artifact1 to artifact10--><path d="M571.141,34.0598 C647.3816,46.1234 811.8755,73.6722 948.5,107 C952.6957,108.0235 957.0225,109.1537 961.3569,110.339 " fill="none" id="artifact1-artifact10" style="stroke: #A80036; stroke-width: 1.0;"/><ellipse cx="966.4411" cy="111.7528" fill="#FFFFFF" rx="6" ry="6" style="stroke: #A80036; stroke-width: 1.5;"/><path d="M961.523,103.0458 A10,10 0 0 0 957.7341 116.6709" fill="#FFFFFF" style="stroke: #A80036; stroke-width: 1.5;"/><!--
@startuml
artifact artifact1
artifact artifact2
artifact artifact3
artifact artifact4
artifact artifact5
artifact artifact6
artifact artifact7
artifact artifact8
artifact artifact9
artifact artifact10
artifact1 - -> artifact2
artifact1 - -* artifact3
artifact1 - -o artifact4
artifact1 - -+ artifact5
artifact1 - -# artifact6
artifact1 - ->> artifact7
artifact1 - -0 artifact8
artifact1 - -^ artifact9
artifact1 - -(0 artifact10
	@enduml

PlantUML version 1.2019.01(Sat Feb 09 16:32:04 CET 2019)
(GPL source distribution)
Java Runtime: OpenJDK Runtime Environment
JVM: OpenJDK 64-Bit Server VM
Java Version: 11.0.1+13-Ubuntu-3ubuntu3.18.10.1
Operating System: Linux
OS Version: 4.18.0-16-generic
Default Encoding: UTF-8
Language: fr
Country: FR
--></g></svg>