<?xml version="1.0" encoding="UTF-8" standalone="no"?>
<!DOCTYPE svg PUBLIC "-//W3C//DTD SVG 1.1//EN"
 "http://www.w3.org/Graphics/SVG/1.1/DTD/svg11.dtd">
<!-- Generated by graphviz version 2.40.1 (20161225.0304)
 -->
<!-- Title: G Pages: 1 -->
<svg width="256pt" height="288pt"
 viewBox="0.00 0.00 256.22 288.00" xmlns="http://www.w3.org/2000/svg" xmlns:xlink="http://www.w3.org/1999/xlink">
<g id="graph0" class="graph" transform="scale(.9121 .9121) rotate(0) translate(4 311.7401)">
<title>G</title>
<polygon fill="#ffffff" stroke="transparent" points="-4,4 -4,-311.7401 276.8939,-311.7401 276.8939,4 -4,4"/>
<!-- main -->
<g id="node1" class="node">
<title>main</title>
<polygon fill="none" stroke="#000000" points="138.5473,-307.7401 84.5473,-307.7401 84.5473,-271.7401 138.5473,-271.7401 138.5473,-307.7401"/>
<text text-anchor="middle" x="111.5473" y="-286.0401" font-family="Times,serif" font-size="14.00" fill="#000000">main</text>
</g>
<!-- parse -->
<g id="node2" class="node">
<title>parse</title>
<ellipse fill="none" stroke="#000000" cx="111.5473" cy="-216.7401" rx="29.4969" ry="18"/>
<text text-anchor="middle" x="111.5473" y="-213.0401" font-family="Times,serif" font-size="14.00" fill="#000000">parse</text>
</g>
<!-- main&#45;&gt;parse -->
<g id="edge1" class="edge">
<title>main&#45;&gt;parse</title>
<path fill="none" stroke="#000000" d="M111.5473,-271.6952C111.5473,-263.623 111.5473,-253.9165 111.5473,-244.9219"/>
<polygon fill="#000000" stroke="#000000" points="115.0474,-244.8304 111.5473,-234.8305 108.0474,-244.8305 115.0474,-244.8304"/>
</g>
<!-- init -->
<g id="node4" class="node">
<title>init</title>
<ellipse fill="none" stroke="#000000" cx="178.5473" cy="-162.7401" rx="27" ry="18"/>
<text text-anchor="middle" x="178.5473" y="-159.0401" font-family="Times,serif" font-size="14.00" fill="#000000">init</text>
</g>
<!-- main&#45;&gt;init -->
<g id="edge3" class="edge">
<title>main&#45;&gt;init</title>
<path fill="none" stroke="#000000" stroke-dasharray="1,5" d="M125.631,-271.5575C133.303,-261.1419 142.6167,-247.6171 149.5473,-234.7401 157.2561,-220.4171 164.1425,-203.5943 169.2683,-189.8132"/>
<polygon fill="#000000" stroke="#000000" points="172.5647,-190.9895 172.6761,-180.3952 165.9824,-188.6077 172.5647,-190.9895"/>
</g>
<!-- cleanup -->
<g id="node5" class="node">
<title>cleanup</title>
<ellipse fill="none" stroke="#000000" cx="234.5473" cy="-216.7401" rx="38.1938" ry="18"/>
<text text-anchor="middle" x="234.5473" y="-213.0401" font-family="Times,serif" font-size="14.00" fill="#000000">cleanup</text>
</g>
<!-- main&#45;&gt;cleanup -->
<g id="edge4" class="edge">
<title>main&#45;&gt;cleanup</title>
<path fill="none" stroke="#000000" d="M138.6937,-277.1562C152.1426,-270.6271 168.4738,-262.2499 182.5473,-253.7401 190.316,-249.0426 198.4388,-243.5617 205.8931,-238.2801"/>
<polygon fill="#000000" stroke="#000000" points="208.215,-240.9208 214.2755,-232.2305 204.1184,-235.2446 208.215,-240.9208"/>
</g>
<!-- printf -->
<g id="node7" class="node">
<title>printf</title>
<ellipse fill="none" stroke="#000000" cx="30.5473" cy="-26.8701" rx="30.5947" ry="18"/>
<text text-anchor="middle" x="30.5473" y="-23.1701" font-family="Times,serif" font-size="14.00" fill="#000000">printf</text>
</g>
<!-- main&#45;&gt;printf -->
<g id="edge8" class="edge">
<title>main&#45;&gt;printf</title>
<path fill="none" stroke="#ff0000" stroke-width="2" d="M97.4037,-271.5895C89.7129,-261.184 80.4004,-247.6585 73.5473,-234.7401 42.3948,-176.0166 33.7946,-96.8446 31.432,-55.1957"/>
<polygon fill="#ff0000" stroke="#ff0000" stroke-width="2" points="34.9165,-54.7893 30.9364,-44.9705 27.9247,-55.1282 34.9165,-54.7893"/>
<text text-anchor="middle" x="79.0473" y="-159.0401" font-family="Times,serif" font-size="14.00" fill="#000000">100 times</text>
</g>
<!-- execute -->
<g id="node3" class="node">
<title>execute</title>
<ellipse fill="none" stroke="#000000" cx="111.5473" cy="-108.7401" rx="37.8943" ry="18"/>
<text text-anchor="middle" x="111.5473" y="-105.0401" font-family="Times,serif" font-size="14.00" fill="#000000">execute</text>
</g>
<!-- parse&#45;&gt;execute -->
<g id="edge2" class="edge">
<title>parse&#45;&gt;execute</title>
<path fill="none" stroke="#000000" d="M111.5473,-198.4194C111.5473,-181.5611 111.5473,-156.3052 111.5473,-136.8871"/>
<polygon fill="#000000" stroke="#000000" points="115.0474,-136.7902 111.5473,-126.7903 108.0474,-136.7903 115.0474,-136.7902"/>
</g>
<!-- make_string -->
<g id="node6" class="node">
<title>make_string</title>
<ellipse fill="none" stroke="#000000" cx="201.5473" cy="-26.8701" rx="39.6962" ry="26.7407"/>
<text text-anchor="middle" x="201.5473" y="-30.6701" font-family="Times,serif" font-size="14.00" fill="#000000">make a</text>
<text text-anchor="middle" x="201.5473" y="-15.6701" font-family="Times,serif" font-size="14.00" fill="#000000">string</text>
</g>
<!-- execute&#45;&gt;make_string -->
<g id="edge5" class="edge">
<title>execute&#45;&gt;make_string</title>
<path fill="none" stroke="#000000" d="M129.3284,-92.5652C140.8907,-82.0474 156.2932,-68.0362 169.9033,-55.6555"/>
<polygon fill="#000000" stroke="#000000" points="172.625,-57.9113 177.6671,-48.5931 167.9146,-52.7331 172.625,-57.9113"/>
</g>
<!-- execute&#45;&gt;printf -->
<g id="edge6" class="edge">
<title>execute&#45;&gt;printf</title>
<path fill="none" stroke="#000000" d="M95.1557,-92.1725C83.1763,-80.0644 66.7724,-63.4843 53.4916,-50.0608"/>
<polygon fill="#000000" stroke="#000000" points="55.6113,-47.2269 46.09,-42.5797 50.6352,-52.1501 55.6113,-47.2269"/>
</g>
<!-- compare -->
<g id="node8" class="node">
<title>compare</title>
<polygon fill="#c1b2ff" stroke="#c1b2ff" points="143.5473,-44.8701 79.5473,-44.8701 79.5473,-8.8701 143.5473,-8.8701 143.5473,-44.8701"/>
<text text-anchor="middle" x="111.5473" y="-23.1701" font-family="Times,serif" font-size="14.00" fill="#000000">compare</text>
</g>
<!-- execute&#45;&gt;compare -->
<g id="edge9" class="edge">
<title>execute&#45;&gt;compare</title>
<path fill="none" stroke="#ff0000" d="M111.5473,-90.5705C111.5473,-80.1831 111.5473,-66.928 111.5473,-55.2018"/>
<polygon fill="#ff0000" stroke="#ff0000" points="115.0474,-54.9889 111.5473,-44.9889 108.0474,-54.9889 115.0474,-54.9889"/>
</g>
<!-- init&#45;&gt;make_string -->
<g id="edge7" class="edge">
<title>init&#45;&gt;make_string</title>
<path fill="none" stroke="#000000" d="M181.6015,-144.6976C185.0859,-124.1138 190.8758,-89.9108 195.3224,-63.6429"/>
<polygon fill="#000000" stroke="#000000" points="198.7954,-64.0961 197.0136,-53.6521 191.8936,-62.9277 198.7954,-64.0961"/>
</g>
</g>
</svg>
