<?xml version="1.0" encoding="UTF-8" standalone="no"?>
<!DOCTYPE svg PUBLIC "-//W3C//DTD SVG 1.1//EN"
 "http://www.w3.org/Graphics/SVG/1.1/DTD/svg11.dtd">
<!-- Generated by graphviz version 2.40.1 (20161225.0304)
 -->
<!-- Title: G Pages: 1 -->
<svg width="224pt" height="407pt"
 viewBox="0.00 0.00 224.00 407.00" xmlns="http://www.w3.org/2000/svg" xmlns:xlink="http://www.w3.org/1999/xlink">
<g id="graph0" class="graph" transform="scale(1 1) rotate(0) translate(4 403)">
<title>G</title>
<polygon fill="#ffffff" stroke="transparent" points="-4,4 -4,-403 220,-403 220,4 -4,4"/>
<g id="clust1" class="cluster">
<title>cluster0</title>
<polygon fill="#d3d3d3" stroke="#d3d3d3" points="8,-64 8,-355 98,-355 98,-64 8,-64"/>
<text text-anchor="middle" x="53" y="-339.8" font-family="Times,serif" font-size="14.00" fill="#000000">process #1</text>
</g>
<g id="clust2" class="cluster">
<title>cluster1</title>
<polygon fill="none" stroke="#0000ff" points="134,-64 134,-355 208,-355 208,-64 134,-64"/>
<text text-anchor="middle" x="171" y="-339.8" font-family="Times,serif" font-size="14.00" fill="#000000">process #2</text>
</g>
<!-- a0 -->
<g id="node1" class="node">
<title>a0</title>
<ellipse fill="#ffffff" stroke="#ffffff" cx="63" cy="-306" rx="27" ry="18"/>
<text text-anchor="middle" x="63" y="-302.3" font-family="Times,serif" font-size="14.00" fill="#000000">a0</text>
</g>
<!-- a1 -->
<g id="node2" class="node">
<title>a1</title>
<ellipse fill="#ffffff" stroke="#ffffff" cx="63" cy="-234" rx="27" ry="18"/>
<text text-anchor="middle" x="63" y="-230.3" font-family="Times,serif" font-size="14.00" fill="#000000">a1</text>
</g>
<!-- a0&#45;&gt;a1 -->
<g id="edge1" class="edge">
<title>a0&#45;&gt;a1</title>
<path fill="none" stroke="#000000" d="M63,-287.8314C63,-280.131 63,-270.9743 63,-262.4166"/>
<polygon fill="#000000" stroke="#000000" points="66.5001,-262.4132 63,-252.4133 59.5001,-262.4133 66.5001,-262.4132"/>
</g>
<!-- a2 -->
<g id="node3" class="node">
<title>a2</title>
<ellipse fill="#ffffff" stroke="#ffffff" cx="63" cy="-162" rx="27" ry="18"/>
<text text-anchor="middle" x="63" y="-158.3" font-family="Times,serif" font-size="14.00" fill="#000000">a2</text>
</g>
<!-- a1&#45;&gt;a2 -->
<g id="edge2" class="edge">
<title>a1&#45;&gt;a2</title>
<path fill="none" stroke="#000000" d="M63,-215.8314C63,-208.131 63,-198.9743 63,-190.4166"/>
<polygon fill="#000000" stroke="#000000" points="66.5001,-190.4132 63,-180.4133 59.5001,-190.4133 66.5001,-190.4132"/>
</g>
<!-- b3 -->
<g id="node8" class="node">
<title>b3</title>
<ellipse fill="#d3d3d3" stroke="#000000" cx="169" cy="-90" rx="27" ry="18"/>
<text text-anchor="middle" x="169" y="-86.3" font-family="Times,serif" font-size="14.00" fill="#000000">b3</text>
</g>
<!-- a1&#45;&gt;b3 -->
<g id="edge9" class="edge">
<title>a1&#45;&gt;b3</title>
<path fill="none" stroke="#000000" d="M74.9535,-217.7613C93.4826,-192.5897 129.2577,-143.9895 150.9466,-114.5254"/>
<polygon fill="#000000" stroke="#000000" points="153.818,-116.5286 156.9276,-106.4003 148.1807,-112.3788 153.818,-116.5286"/>
</g>
<!-- a3 -->
<g id="node4" class="node">
<title>a3</title>
<ellipse fill="#ffffff" stroke="#ffffff" cx="63" cy="-90" rx="27" ry="18"/>
<text text-anchor="middle" x="63" y="-86.3" font-family="Times,serif" font-size="14.00" fill="#000000">a3</text>
</g>
<!-- a2&#45;&gt;a3 -->
<g id="edge3" class="edge">
<title>a2&#45;&gt;a3</title>
<path fill="none" stroke="#000000" d="M63,-143.8314C63,-136.131 63,-126.9743 63,-118.4166"/>
<polygon fill="#000000" stroke="#000000" points="66.5001,-118.4132 63,-108.4133 59.5001,-118.4133 66.5001,-118.4132"/>
</g>
<!-- a3&#45;&gt;a0 -->
<g id="edge11" class="edge">
<title>a3&#45;&gt;a0</title>
<path fill="none" stroke="#000000" d="M48.8771,-105.7156C40.7465,-115.8532 31.3099,-129.7653 27,-144 13.0904,-189.9404 13.0904,-206.0596 27,-252 30.2661,-262.7873 36.4764,-273.3892 42.8313,-282.3037"/>
<polygon fill="#000000" stroke="#000000" points="40.0487,-284.4268 48.8771,-290.2844 45.6285,-280.1999 40.0487,-284.4268"/>
</g>
<!-- end -->
<g id="node10" class="node">
<title>end</title>
<polygon fill="none" stroke="#000000" points="134,-36 98,-36 98,0 134,0 134,-36"/>
<polyline fill="none" stroke="#000000" points="110,-36 98,-24 "/>
<polyline fill="none" stroke="#000000" points="98,-12 110,0 "/>
<polyline fill="none" stroke="#000000" points="122,0 134,-12 "/>
<polyline fill="none" stroke="#000000" points="134,-24 122,-36 "/>
<text text-anchor="middle" x="116" y="-14.3" font-family="Times,serif" font-size="14.00" fill="#000000">end</text>
</g>
<!-- a3&#45;&gt;end -->
<g id="edge12" class="edge">
<title>a3&#45;&gt;end</title>
<path fill="none" stroke="#000000" d="M75.0265,-73.6621C81.4044,-64.9978 89.3958,-54.1415 96.6236,-44.3227"/>
<polygon fill="#000000" stroke="#000000" points="99.6093,-46.1706 102.7188,-36.0423 93.9719,-42.0209 99.6093,-46.1706"/>
</g>
<!-- b0 -->
<g id="node5" class="node">
<title>b0</title>
<ellipse fill="#d3d3d3" stroke="#000000" cx="169" cy="-306" rx="27" ry="18"/>
<text text-anchor="middle" x="169" y="-302.3" font-family="Times,serif" font-size="14.00" fill="#000000">b0</text>
</g>
<!-- b1 -->
<g id="node6" class="node">
<title>b1</title>
<ellipse fill="#d3d3d3" stroke="#000000" cx="171" cy="-234" rx="27" ry="18"/>
<text text-anchor="middle" x="171" y="-230.3" font-family="Times,serif" font-size="14.00" fill="#000000">b1</text>
</g>
<!-- b0&#45;&gt;b1 -->
<g id="edge4" class="edge">
<title>b0&#45;&gt;b1</title>
<path fill="none" stroke="#000000" d="M169.5047,-287.8314C169.7186,-280.131 169.9729,-270.9743 170.2106,-262.4166"/>
<polygon fill="#000000" stroke="#000000" points="173.7094,-262.5066 170.4885,-252.4133 166.7121,-262.3122 173.7094,-262.5066"/>
</g>
<!-- b2 -->
<g id="node7" class="node">
<title>b2</title>
<ellipse fill="#d3d3d3" stroke="#000000" cx="173" cy="-162" rx="27" ry="18"/>
<text text-anchor="middle" x="173" y="-158.3" font-family="Times,serif" font-size="14.00" fill="#000000">b2</text>
</g>
<!-- b1&#45;&gt;b2 -->
<g id="edge5" class="edge">
<title>b1&#45;&gt;b2</title>
<path fill="none" stroke="#000000" d="M171.5047,-215.8314C171.7186,-208.131 171.9729,-198.9743 172.2106,-190.4166"/>
<polygon fill="#000000" stroke="#000000" points="175.7094,-190.5066 172.4885,-180.4133 168.7121,-190.3122 175.7094,-190.5066"/>
</g>
<!-- b2&#45;&gt;a3 -->
<g id="edge10" class="edge">
<title>b2&#45;&gt;a3</title>
<path fill="none" stroke="#000000" d="M153.5874,-149.2936C136.258,-137.9507 110.6682,-121.201 91.1028,-108.3946"/>
<polygon fill="#000000" stroke="#000000" points="92.8724,-105.3698 82.5885,-102.8216 89.0387,-111.2267 92.8724,-105.3698"/>
</g>
<!-- b2&#45;&gt;b3 -->
<g id="edge6" class="edge">
<title>b2&#45;&gt;b3</title>
<path fill="none" stroke="#000000" d="M171.9906,-143.8314C171.5628,-136.131 171.0541,-126.9743 170.5787,-118.4166"/>
<polygon fill="#000000" stroke="#000000" points="174.0724,-118.2037 170.023,-108.4133 167.0831,-118.592 174.0724,-118.2037"/>
</g>
<!-- b3&#45;&gt;end -->
<g id="edge13" class="edge">
<title>b3&#45;&gt;end</title>
<path fill="none" stroke="#000000" d="M156.9735,-73.6621C150.5956,-64.9978 142.6042,-54.1415 135.3764,-44.3227"/>
<polygon fill="#000000" stroke="#000000" points="138.0281,-42.0209 129.2812,-36.0423 132.3907,-46.1706 138.0281,-42.0209"/>
</g>
<!-- start -->
<g id="node9" class="node">
<title>start</title>
<polygon fill="none" stroke="#000000" points="116,-399 79.4659,-381 116,-363 152.5341,-381 116,-399"/>
<polyline fill="none" stroke="#000000" points="90.2304,-386.3035 90.2304,-375.6965 "/>
<polyline fill="none" stroke="#000000" points="105.2356,-368.3035 126.7644,-368.3035 "/>
<polyline fill="none" stroke="#000000" points="141.7696,-375.6965 141.7696,-386.3035 "/>
<polyline fill="none" stroke="#000000" points="126.7644,-393.6965 105.2356,-393.6965 "/>
<text text-anchor="middle" x="116" y="-377.3" font-family="Times,serif" font-size="14.00" fill="#000000">start</text>
</g>
<!-- start&#45;&gt;a0 -->
<g id="edge7" class="edge">
<title>start&#45;&gt;a0</title>
<path fill="none" stroke="#000000" d="M106.5247,-367.5915C99.3368,-357.4201 89.2512,-343.1479 80.5982,-330.9031"/>
<polygon fill="#000000" stroke="#000000" points="83.2421,-328.5798 74.6126,-322.433 77.5255,-332.6196 83.2421,-328.5798"/>
</g>
<!-- start&#45;&gt;b0 -->
<g id="edge8" class="edge">
<title>start&#45;&gt;b0</title>
<path fill="none" stroke="#000000" d="M125.4753,-367.5915C132.6632,-357.4201 142.7488,-343.1479 151.4018,-330.9031"/>
<polygon fill="#000000" stroke="#000000" points="154.4745,-332.6196 157.3874,-322.433 148.7579,-328.5798 154.4745,-332.6196"/>
</g>
</g>
</svg>
