<?xml version="1.0" encoding="UTF-8" standalone="no"?>
<!DOCTYPE svg PUBLIC "-//W3C//DTD SVG 1.1//EN"
 "http://www.w3.org/Graphics/SVG/1.1/DTD/svg11.dtd">
<!-- Generated by graphviz version 2.40.1 (20161225.0304)
 -->
<!-- Title: foo Pages: 1 -->
<svg width="100pt" height="222pt"
 viewBox="0.00 0.00 99.92 222.00" xmlns="http://www.w3.org/2000/svg" xmlns:xlink="http://www.w3.org/1999/xlink">
<g id="graph0" class="graph" transform="scale(1 1) rotate(0) translate(4 218)">
<title>foo</title>
<polygon fill="#ffffff" stroke="transparent" points="-4,4 -4,-218 95.9157,-218 95.9157,4 -4,4"/>
<!-- node1 -->
<g id="node1" class="node">
<title>node1</title>
<path fill="none" stroke="#000000" d="M60.9579,-214C60.9579,-214 30.9579,-214 30.9579,-214 24.9579,-214 18.9579,-208 18.9579,-202 18.9579,-202 18.9579,-190 18.9579,-190 18.9579,-184 24.9579,-178 30.9579,-178 30.9579,-178 60.9579,-178 60.9579,-178 66.9579,-178 72.9579,-184 72.9579,-190 72.9579,-190 72.9579,-202 72.9579,-202 72.9579,-208 66.9579,-214 60.9579,-214"/>
<text text-anchor="middle" x="45.9579" y="-192.3" font-family="Times,serif" font-size="14.00" fill="#000000">node1</text>
</g>
<!-- node2 -->
<g id="node2" class="node">
<title>node2</title>
<path fill="#ffff00" stroke="#000000" d="M34.7857,-137.6203C34.7857,-137.6203 11.2143,-128.3797 11.2143,-128.3797 5.6282,-126.1899 5.6282,-121.8101 11.2143,-119.6203 11.2143,-119.6203 34.7857,-110.3797 34.7857,-110.3797 40.3718,-108.1899 51.544,-108.1899 57.1301,-110.3797 57.1301,-110.3797 80.7014,-119.6203 80.7014,-119.6203 86.2875,-121.8101 86.2875,-126.1899 80.7014,-128.3797 80.7014,-128.3797 57.1301,-137.6203 57.1301,-137.6203 51.544,-139.8101 40.3718,-139.8101 34.7857,-137.6203"/>
<text text-anchor="middle" x="45.9579" y="-120.3" font-family="Times,serif" font-size="14.00" fill="#000000">node2</text>
</g>
<!-- node1&#45;&gt;node2 -->
<g id="edge1" class="edge">
<title>node1&#45;&gt;node2</title>
<path fill="none" stroke="#000000" d="M45.9579,-177.8314C45.9579,-170.131 45.9579,-160.9743 45.9579,-152.4166"/>
<polygon fill="#000000" stroke="#000000" points="49.458,-152.4132 45.9579,-142.4133 42.458,-152.4133 49.458,-152.4132"/>
</g>
<!-- node3 -->
<g id="node3" class="node">
<title>node3</title>
<path fill="none" stroke="#000000" d="M30.9579,-.5C30.9579,-.5 60.9579,-.5 60.9579,-.5 66.9579,-.5 72.9579,-6.5 72.9579,-12.5 72.9579,-12.5 72.9579,-57.5 72.9579,-57.5 72.9579,-63.5 66.9579,-69.5 60.9579,-69.5 60.9579,-69.5 30.9579,-69.5 30.9579,-69.5 24.9579,-69.5 18.9579,-63.5 18.9579,-57.5 18.9579,-57.5 18.9579,-12.5 18.9579,-12.5 18.9579,-6.5 24.9579,-.5 30.9579,-.5"/>
<text text-anchor="middle" x="45.9579" y="-54.3" font-family="Times,serif" font-size="14.00" fill="#000000">a</text>
<polyline fill="none" stroke="#000000" points="18.9579,-46.5 72.9579,-46.5 "/>
<text text-anchor="middle" x="45.9579" y="-31.3" font-family="Times,serif" font-size="14.00" fill="#000000">b</text>
<polyline fill="none" stroke="#000000" points="18.9579,-23.5 72.9579,-23.5 "/>
<text text-anchor="middle" x="45.9579" y="-8.3" font-family="Times,serif" font-size="14.00" fill="#000000">c</text>
</g>
<!-- node2&#45;&gt;node3 -->
<g id="edge2" class="edge">
<title>node2&#45;&gt;node3</title>
<path fill="none" stroke="#000000" d="M45.9579,-105.9895C45.9579,-98.3055 45.9579,-88.9646 45.9579,-79.6169"/>
<polygon fill="#000000" stroke="#000000" points="49.458,-79.549 45.9579,-69.5491 42.458,-79.5491 49.458,-79.549"/>
</g>
</g>
</svg>
