<?xml version="1.0" encoding="UTF-8" standalone="no"?>
<!DOCTYPE svg PUBLIC "-//W3C//DTD SVG 1.1//EN"
 "http://www.w3.org/Graphics/SVG/1.1/DTD/svg11.dtd">
<!-- Generated by graphviz version 2.40.1 (20161225.0304)
 -->
<!-- Title: structs Pages: 1 -->
<svg width="262pt" height="151pt"
 viewBox="0.00 0.00 262.00 151.00" xmlns="http://www.w3.org/2000/svg" xmlns:xlink="http://www.w3.org/1999/xlink">
<g id="graph0" class="graph" transform="scale(1 1) rotate(0) translate(4 147)">
<title>structs</title>
<polygon fill="#ffffff" stroke="transparent" points="-4,4 -4,-147 258,-147 258,4 -4,4"/>
<!-- struct1 -->
<g id="node1" class="node">
<title>struct1</title>
<polygon fill="none" stroke="#000000" points="8.5,-106.5 8.5,-142.5 140.5,-142.5 140.5,-106.5 8.5,-106.5"/>
<text text-anchor="middle" x="26" y="-120.8" font-family="Times,serif" font-size="14.00" fill="#000000">left</text>
<polyline fill="none" stroke="#000000" points="43.5,-106.5 43.5,-142.5 "/>
<text text-anchor="middle" x="71" y="-120.8" font-family="Times,serif" font-size="14.00" fill="#000000">middle</text>
<polyline fill="none" stroke="#000000" points="98.5,-106.5 98.5,-142.5 "/>
<text text-anchor="middle" x="119.5" y="-120.8" font-family="Times,serif" font-size="14.00" fill="#000000">right</text>
</g>
<!-- struct2 -->
<g id="node2" class="node">
<title>struct2</title>
<polygon fill="none" stroke="#000000" points="0,-17 0,-53 73,-53 73,-17 0,-17"/>
<text text-anchor="middle" x="18" y="-31.3" font-family="Times,serif" font-size="14.00" fill="#000000">one</text>
<polyline fill="none" stroke="#000000" points="36,-17 36,-53 "/>
<text text-anchor="middle" x="54.5" y="-31.3" font-family="Times,serif" font-size="14.00" fill="#000000">two</text>
</g>
<!-- struct1&#45;&gt;struct2 -->
<g id="edge1" class="edge">
<title>struct1:f1&#45;&gt;struct2:f0</title>
<path fill="none" stroke="#000000" d="M70.5,-106.5C70.5,-76.9522 29.194,-83.9643 19.5129,-62.9852"/>
<polygon fill="#000000" stroke="#000000" points="22.9072,-62.1111 17.5,-53 16.0453,-63.4945 22.9072,-62.1111"/>
</g>
<!-- struct3 -->
<g id="node3" class="node">
<title>struct3</title>
<polygon fill="none" stroke="#000000" points="91,-.5 91,-69.5 254,-69.5 254,-.5 91,-.5"/>
<text text-anchor="middle" x="115" y="-38.8" font-family="Times,serif" font-size="14.00" fill="#000000">hello</text>
<text text-anchor="middle" x="115" y="-23.8" font-family="Times,serif" font-size="14.00" fill="#000000">world</text>
<polyline fill="none" stroke="#000000" points="139,-.5 139,-69.5 "/>
<text text-anchor="middle" x="173.5" y="-54.3" font-family="Times,serif" font-size="14.00" fill="#000000">b</text>
<polyline fill="none" stroke="#000000" points="139,-46.5 208,-46.5 "/>
<text text-anchor="middle" x="150.5" y="-31.3" font-family="Times,serif" font-size="14.00" fill="#000000">c</text>
<polyline fill="none" stroke="#000000" points="162,-23.5 162,-46.5 "/>
<text text-anchor="middle" x="173.5" y="-31.3" font-family="Times,serif" font-size="14.00" fill="#000000">d</text>
<polyline fill="none" stroke="#000000" points="185,-23.5 185,-46.5 "/>
<text text-anchor="middle" x="196.5" y="-31.3" font-family="Times,serif" font-size="14.00" fill="#000000">e</text>
<polyline fill="none" stroke="#000000" points="139,-23.5 208,-23.5 "/>
<text text-anchor="middle" x="173.5" y="-8.3" font-family="Times,serif" font-size="14.00" fill="#000000">f</text>
<polyline fill="none" stroke="#000000" points="208,-.5 208,-69.5 "/>
<text text-anchor="middle" x="219.5" y="-31.3" font-family="Times,serif" font-size="14.00" fill="#000000">g</text>
<polyline fill="none" stroke="#000000" points="231,-.5 231,-69.5 "/>
<text text-anchor="middle" x="242.5" y="-31.3" font-family="Times,serif" font-size="14.00" fill="#000000">h</text>
</g>
<!-- struct1&#45;&gt;struct3 -->
<g id="edge2" class="edge">
<title>struct1:f2&#45;&gt;struct3:here</title>
<path fill="none" stroke="#000000" d="M119.5,-106.5C119.5,-94.5355 138.9978,-71.1332 154.5613,-54.3589"/>
<polygon fill="#000000" stroke="#000000" points="157.4464,-56.4026 161.7828,-46.7358 152.3646,-51.5885 157.4464,-56.4026"/>
</g>
</g>
</svg>
