<?xml version="1.0" encoding="UTF-8" standalone="no"?><svg xmlns="http://www.w3.org/2000/svg" xmlns:xlink="http://www.w3.org/1999/xlink" contentScriptType="application/ecmascript" contentStyleType="text/css" height="59px" preserveAspectRatio="none" style="width:220px;height:59px;" version="1.1" viewBox="0 0 220 59" width="220px" zoomAndPan="magnify"><defs/><g><text fill="#000000" font-family="sans-serif" font-size="12" lengthAdjust="spacingAndGlyphs" textLength="58" x="94" y="17.1387">Column 2</text><text fill="#000000" font-family="sans-serif" font-size="12" lengthAdjust="spacingAndGlyphs" textLength="58" x="154" y="17.1387">Column 3</text><text fill="#000000" font-family="sans-serif" font-size="12" lengthAdjust="spacingAndGlyphs" textLength="86" x="6" y="33.1074">Row header 1</text><text fill="#000000" font-family="sans-serif" font-size="12" lengthAdjust="spacingAndGlyphs" textLength="45" x="94" y="33.1074">value 1</text><text fill="#000000" font-family="sans-serif" font-size="12" lengthAdjust="spacingAndGlyphs" textLength="45" x="154" y="33.1074">value 2</text><text fill="#000000" font-family="sans-serif" font-size="12" lengthAdjust="spacingAndGlyphs" textLength="86" x="6" y="49.0762">Row header 2</text><text fill="#000000" font-family="sans-serif" font-size="12" lengthAdjust="spacingAndGlyphs" textLength="64" x="94" y="49.0762">A long cell</text><line style="stroke: #000000; stroke-width: 1.0;" x1="5" x2="93" y1="5" y2="5"/><line style="stroke: #000000; stroke-width: 1.0;" x1="93" x2="153" y1="20.9688" y2="20.9688"/><line style="stroke: #000000; stroke-width: 1.0;" x1="153" x2="213" y1="36.9375" y2="36.9375"/><line style="stroke: #000000; stroke-width: 1.0;" x1="93" x2="153" y1="5" y2="5"/><line style="stroke: #000000; stroke-width: 1.0;" x1="153" x2="213" y1="20.9688" y2="20.9688"/><line style="stroke: #000000; stroke-width: 1.0;" x1="153" x2="213" y1="5" y2="5"/><line style="stroke: #000000; stroke-width: 1.0;" x1="5" x2="93" y1="52.9063" y2="52.9063"/><line style="stroke: #000000; stroke-width: 1.0;" x1="93" x2="153" y1="52.9063" y2="52.9063"/><line style="stroke: #000000; stroke-width: 1.0;" x1="5" x2="93" y1="36.9375" y2="36.9375"/><line style="stroke: #000000; stroke-width: 1.0;" x1="153" x2="213" y1="52.9063" y2="52.9063"/><line style="stroke: #000000; stroke-width: 1.0;" x1="5" x2="93" y1="20.9688" y2="20.9688"/><line style="stroke: #000000; stroke-width: 1.0;" x1="93" x2="153" y1="36.9375" y2="36.9375"/><line style="stroke: #000000; stroke-width: 1.0;" x1="5" x2="5" y1="5" y2="20.9688"/><line style="stroke: #000000; stroke-width: 1.0;" x1="93" x2="93" y1="20.9688" y2="36.9375"/><line style="stroke: #000000; stroke-width: 1.0;" x1="213" x2="213" y1="36.9375" y2="52.9063"/><line style="stroke: #000000; stroke-width: 1.0;" x1="93" x2="93" y1="5" y2="20.9688"/><line style="stroke: #000000; stroke-width: 1.0;" x1="153" x2="153" y1="20.9688" y2="36.9375"/><line style="stroke: #000000; stroke-width: 1.0;" x1="213" x2="213" y1="20.9688" y2="36.9375"/><line style="stroke: #000000; stroke-width: 1.0;" x1="153" x2="153" y1="5" y2="20.9688"/><line style="stroke: #000000; stroke-width: 1.0;" x1="213" x2="213" y1="5" y2="20.9688"/><line style="stroke: #000000; stroke-width: 1.0;" x1="5" x2="5" y1="36.9375" y2="52.9063"/><line style="stroke: #000000; stroke-width: 1.0;" x1="5" x2="5" y1="20.9688" y2="36.9375"/><line style="stroke: #000000; stroke-width: 1.0;" x1="93" x2="93" y1="36.9375" y2="52.9063"/></g></svg>