<?xml version="1.0" encoding="UTF-8" standalone="no"?><svg xmlns="http://www.w3.org/2000/svg" xmlns:xlink="http://www.w3.org/1999/xlink" contentScriptType="application/ecmascript" contentStyleType="text/css" height="185px" preserveAspectRatio="none" style="width:194px;height:185px;" version="1.1" viewBox="0 0 194 185" width="194px" zoomAndPan="magnify"><defs><filter height="300%" id="fq9ueu6k6spjf" width="300%" x="-1" y="-1"><feGaussianBlur result="blurOut" stdDeviation="2.0"/><feColorMatrix in="blurOut" result="blurOut2" type="matrix" values="0 0 0 0 0 0 0 0 0 0 0 0 0 0 0 0 0 0 .4 0"/><feOffset dx="4.0" dy="4.0" in="blurOut2" result="blurOut3"/><feBlend in="SourceGraphic" in2="blurOut3" mode="normal"/></filter></defs><g><polygon fill="#ADD8E6" points="4,4,4,4.2102,14,3.5857,24,4.1933,34,4.3997,44,3.2866,54,3.9223,64,3.5735,74,3.6165,84,3.9318,94,3.3086,104,4.5536,114,3.3697,124,4,123.8022,4,124.4319,14.0584,123.9142,24.1167,124.0682,34.1751,123.9681,44.2335,124.1785,54.2918,124.2391,64.3502,124.5857,74.4085,124.6711,84.4669,124.6793,94.5253,124.2546,104.5836,124.4636,114.642,124.7022,124.7004,123.2788,134.7587,124.6785,144.8171,123.7035,154.8755,124.5338,164.9338,124,174.9922,124,174.4972,114,174.9237,104,175.7338,94,174.9435,84,175.0975,74,175.3308,64,175.4084,54,174.9883,44,175.2794,34,174.4198,24,175.2766,14,175.5404,4,174.9922,4.4445,174.9922,4.613,164.9338,3.5169,154.8755,3.3478,144.8171,3.3786,134.7587,3.9411,124.7004,3.8035,114.642,4.6814,104.5836,3.8253,94.5253,3.6569,84.4669,4.2283,74.4085,3.3332,64.3502,3.4809,54.2918,4.649,44.2335,4.4357,34.1751,4.7345,24.1167,3.6782,14.0584,4,4" style="stroke: #A80036; stroke-width: 1.0;"/><text fill="#000000" font-family="sans-serif" font-size="13" font-weight="bold" lengthAdjust="spacingAndGlyphs" textLength="114" x="7" y="16.0669">Internal Service</text><path d="M34,58.4297 L34.2802,58.4297 L33.4476,68.2129 L34.2577,77.9961 L34.5329,87.7793 L33.0488,97.5625 L33.8964,107.3457 L33.4313,117.1289 L33.4887,126.9121 L34,136.6953 " fill="none" style="stroke: #A80036; stroke-width: 1.0; stroke-dasharray: 5.0,5.0;"/><path d="M92,58.4297 L92.2802,58.4297 L91.4476,68.2129 L92.2577,77.9961 L92.5329,87.7793 L91.0488,97.5625 L91.8964,107.3457 L91.4313,117.1289 L91.4887,126.9121 L92,136.6953 " fill="none" style="stroke: #A80036; stroke-width: 1.0; stroke-dasharray: 5.0,5.0;"/><path d="M158,58.4297 L158.2802,58.4297 L157.4476,68.2129 L158.2577,77.9961 L158.5329,87.7793 L157.0488,97.5625 L157.8964,107.3457 L157.4313,117.1289 L157.4887,126.9121 L158,136.6953 " fill="none" style="stroke: #A80036; stroke-width: 1.0; stroke-dasharray: 5.0,5.0;"/><polygon fill="#FEFECE" filter="url(#fq9ueu6k6spjf)" points="11,23.1328,11,23.2029,19.4,22.9947,27.8,23.1972,36.2,23.266,44.6,22.895,53,23.1328,52.9741,23.1328,52.8578,29.1922,52.8722,35.2516,52.9773,41.3109,52.7695,47.3703,53,53.4297,53,53.6142,44.6,53.2196,36.2,53.3638,27.8,53.5737,19.4,53.4011,11,53.4297,11.0227,53.4297,10.9894,47.3703,11.0595,41.3109,11.0797,35.2516,11.1952,29.1922,11,23.1328" style="stroke: #A80036; stroke-width: 1.5;"/><text fill="#000000" font-family="sans-serif" font-size="14" lengthAdjust="spacingAndGlyphs" textLength="28" x="18" y="43.1279">Bob</text><polygon fill="#FEFECE" filter="url(#fq9ueu6k6spjf)" points="11,135.6953,11,135.7654,19.4,135.5572,27.8,135.7597,36.2,135.8285,44.6,135.4575,53,135.6953,52.9741,135.6953,52.8578,141.7547,52.8722,147.8141,52.9773,153.8734,52.7695,159.9328,53,165.9922,53,166.1767,44.6,165.7821,36.2,165.9263,27.8,166.1362,19.4,165.9636,11,165.9922,11.0227,165.9922,10.9894,159.9328,11.0595,153.8734,11.0797,147.8141,11.1952,141.7547,11,135.6953" style="stroke: #A80036; stroke-width: 1.5;"/><text fill="#000000" font-family="sans-serif" font-size="14" lengthAdjust="spacingAndGlyphs" textLength="28" x="18" y="155.6904">Bob</text><polygon fill="#FEFECE" filter="url(#fq9ueu6k6spjf)" points="67,23.1328,67,23.343,76.2,22.7185,85.4,23.3261,94.6,23.5325,103.8,22.4194,113,23.1328,112.9741,23.1328,112.8578,29.1922,112.8722,35.2516,112.9773,41.3109,112.7695,47.3703,113,53.4297,113,53.9833,103.8,52.7994,94.6,53.2319,85.4,53.8616,76.2,53.3439,67,53.4297,67.0227,53.4297,66.9894,47.3703,67.0595,41.3109,67.0797,35.2516,67.1952,29.1922,67,23.1328" style="stroke: #A80036; stroke-width: 1.5;"/><text fill="#000000" font-family="sans-serif" font-size="14" lengthAdjust="spacingAndGlyphs" textLength="32" x="74" y="43.1279">Alice</text><polygon fill="#FEFECE" filter="url(#fq9ueu6k6spjf)" points="67,135.6953,67,135.9055,76.2,135.281,85.4,135.8886,94.6,136.095,103.8,134.9819,113,135.6953,112.9741,135.6953,112.8578,141.7547,112.8722,147.8141,112.9773,153.8734,112.7695,159.9328,113,165.9922,113,166.5458,103.8,165.3619,94.6,165.7944,85.4,166.4241,76.2,165.9064,67,165.9922,67.0227,165.9922,66.9894,159.9328,67.0595,153.8734,67.0797,147.8141,67.1952,141.7547,67,135.6953" style="stroke: #A80036; stroke-width: 1.5;"/><text fill="#000000" font-family="sans-serif" font-size="14" lengthAdjust="spacingAndGlyphs" textLength="32" x="74" y="155.6904">Alice</text><polygon fill="#FEFECE" filter="url(#fq9ueu6k6spjf)" points="130,23.1328,130,23.343,140.6,22.7185,151.2,23.3261,161.8,23.5325,172.4,22.4194,183,23.1328,182.9741,23.1328,182.8578,29.1922,182.8722,35.2516,182.9773,41.3109,182.7695,47.3703,183,53.4297,183,53.9833,172.4,52.7994,161.8,53.2319,151.2,53.8616,140.6,53.3439,130,53.4297,130.0227,53.4297,129.9894,47.3703,130.0595,41.3109,130.0797,35.2516,130.1952,29.1922,130,23.1328" style="stroke: #A80036; stroke-width: 1.5;"/><text fill="#000000" font-family="sans-serif" font-size="14" lengthAdjust="spacingAndGlyphs" textLength="39" x="137" y="43.1279">Other</text><polygon fill="#FEFECE" filter="url(#fq9ueu6k6spjf)" points="130,135.6953,130,135.9055,140.6,135.281,151.2,135.8886,161.8,136.095,172.4,134.9819,183,135.6953,182.9741,135.6953,182.8578,141.7547,182.8722,147.8141,182.9773,153.8734,182.7695,159.9328,183,165.9922,183,166.5458,172.4,165.3619,161.8,165.7944,151.2,166.4241,140.6,165.9064,130,165.9922,130.0227,165.9922,129.9894,159.9328,130.0595,153.8734,130.0797,147.8141,130.1952,141.7547,130,135.6953" style="stroke: #A80036; stroke-width: 1.5;"/><text fill="#000000" font-family="sans-serif" font-size="14" lengthAdjust="spacingAndGlyphs" textLength="39" x="137" y="155.6904">Other</text><polygon fill="#A80036" points="80,85.5625,80.026,85.6275,81.9487,86.2343,84.0239,87.2223,86.0495,88.0862,87.9117,88.5417,90,89.5625,89.9904,89.5384,87.9472,90.2305,85.9525,91.0438,83.9916,91.9414,81.9144,92.5485,80,93.5625,80.1305,93.693,80.6514,92.6139,81.5534,91.9159,82.5018,91.2643,83.1798,90.3423,84,89.5625,84.0161,89.5786,83.1925,88.755,82.4421,88.0046,81.6564,87.2189,80.938,86.5005,80,85.5625" style="stroke: #A80036; stroke-width: 1.0;"/><path d="M34,89.5625 L34,89.8427 L44.4,89.0101 L54.8,89.8202 L65.2,90.0954 L75.6,88.6113 L86,89.5625 " fill="none" style="stroke: #A80036; stroke-width: 1.0;"/><text fill="#000000" font-family="sans-serif" font-size="13" lengthAdjust="spacingAndGlyphs" textLength="30" x="41" y="84.4966">hello</text><polygon fill="#A80036" points="146.5,114.6953,146.526,114.7604,148.4487,115.3671,150.5239,116.3551,152.5495,117.219,154.4117,117.6745,156.5,118.6953,156.4904,118.6713,154.4472,119.3633,152.4525,120.1766,150.4916,121.0742,148.4144,121.6813,146.5,122.6953,146.6305,122.8258,147.1514,121.7468,148.0534,121.0487,149.0018,120.3971,149.6798,119.4751,150.5,118.6953,150.5161,118.7114,149.6925,117.8878,148.9421,117.1374,148.1564,116.3517,147.438,115.6334,146.5,114.6953" style="stroke: #A80036; stroke-width: 1.0;"/><path d="M92,118.6953 L92,118.9756 L102.0833,118.1429 L112.1667,118.953 L122.25,119.2282 L132.3333,117.7441 L142.4167,118.5917 L152.5,118.6953 " fill="none" style="stroke: #A80036; stroke-width: 1.0;"/><text fill="#000000" font-family="sans-serif" font-size="13" lengthAdjust="spacingAndGlyphs" textLength="30" x="99" y="113.6294">hello</text><!--
@startuml
skinparam handwritten true

box "Internal Service" #LightBlue
  participant Bob
  participant Alice
end box
participant Other

Bob -> Alice : hello
Alice -> Other : hello
    @enduml

PlantUML version 1.2019.01(Sat Feb 09 16:32:04 CET 2019)
(GPL source distribution)
Java Runtime: OpenJDK Runtime Environment
JVM: OpenJDK 64-Bit Server VM
Java Version: 11.0.1+13-Ubuntu-3ubuntu3.18.10.1
Operating System: Linux
OS Version: 4.18.0-16-generic
Default Encoding: UTF-8
Language: fr
Country: FR
--></g></svg>