<?xml version="1.0" encoding="UTF-8" standalone="no"?><svg xmlns="http://www.w3.org/2000/svg" xmlns:xlink="http://www.w3.org/1999/xlink" contentScriptType="application/ecmascript" contentStyleType="text/css" height="186px" preserveAspectRatio="none" style="width:361px;height:186px;" version="1.1" viewBox="0 0 361 186" width="361px" zoomAndPan="magnify"><defs><filter height="300%" id="f1v86zqyavucrb" width="300%" x="-1" y="-1"><feGaussianBlur result="blurOut" stdDeviation="2.0"/><feColorMatrix in="blurOut" result="blurOut2" type="matrix" values="0 0 0 0 0 0 0 0 0 0 0 0 0 0 0 0 0 0 .4 0"/><feOffset dx="4.0" dy="4.0" in="blurOut2" result="blurOut3"/><feBlend in="SourceGraphic" in2="blurOut3" mode="normal"/></filter></defs><g><!--class USER--><rect fill="#FEFECE" filter="url(#f1v86zqyavucrb)" height="53.9375" id="USER" style="stroke: #A80036; stroke-width: 1.5;" width="140" x="6" y="8"/><ellipse cx="21" cy="26.9688" fill="#FFAAAA" rx="11" ry="11" style="stroke: #A80036; stroke-width: 1.0;"/><path d="M15.8906,20.8906 L26.0313,20.8906 L26.0313,22.9844 L22.1563,22.9844 L22.1563,33.9688 L19.7813,33.9688 L19.7813,22.9844 L15.8906,22.9844 L15.8906,20.8906 Z "/><text fill="#000000" font-family="sans-serif" font-size="12" font-style="italic" lengthAdjust="spacingAndGlyphs" textLength="112" x="33" y="24.1387">«Database Table»</text><text fill="#000000" font-family="sans-serif" font-size="12" lengthAdjust="spacingAndGlyphs" textLength="33" x="72.5" y="38.1074">USER</text><line style="stroke: #A80036; stroke-width: 1.5;" x1="7" x2="145" y1="45.9375" y2="45.9375"/><line style="stroke: #A80036; stroke-width: 1.5;" x1="7" x2="145" y1="53.9375" y2="53.9375"/><!--class ACCOUNT--><rect fill="#FEFECE" filter="url(#f1v86zqyavucrb)" height="53.9375" id="ACCOUNT" style="stroke: #A80036; stroke-width: 1.5;" width="140" x="6" y="122"/><ellipse cx="21" cy="140.9688" fill="#FFAAAA" rx="11" ry="11" style="stroke: #A80036; stroke-width: 1.0;"/><path d="M15.8906,134.8906 L26.0313,134.8906 L26.0313,136.9844 L22.1563,136.9844 L22.1563,147.9688 L19.7813,147.9688 L19.7813,136.9844 L15.8906,136.9844 L15.8906,134.8906 Z "/><text fill="#000000" font-family="sans-serif" font-size="12" font-style="italic" lengthAdjust="spacingAndGlyphs" textLength="112" x="33" y="138.1387">«Database Table»</text><text fill="#000000" font-family="sans-serif" font-size="12" lengthAdjust="spacingAndGlyphs" textLength="58" x="60" y="152.1074">ACCOUNT</text><line style="stroke: #A80036; stroke-width: 1.5;" x1="7" x2="145" y1="159.9375" y2="159.9375"/><line style="stroke: #A80036; stroke-width: 1.5;" x1="7" x2="145" y1="167.9375" y2="167.9375"/><!--class UID--><rect fill="#FEFECE" filter="url(#f1v86zqyavucrb)" height="53.9375" id="UID" style="stroke: #A80036; stroke-width: 1.5;" width="169" x="181.5" y="8"/><ellipse cx="196.5" cy="26.9688" fill="#AAAAAA" rx="11" ry="11" style="stroke: #A80036; stroke-width: 1.0;"/><path d="M200.0938,20.1719 L200.0938,22.75 Q198.8438,21.9219 198.1094,21.7031 Q197.3906,21.4688 196.6719,21.4688 Q195.6094,21.4688 195.0156,21.9375 Q194.4375,22.3906 194.4375,23.1563 Q194.4375,23.8438 194.7969,24.1875 Q195.1719,24.5313 196.3125,24.8125 L197.2031,25 Q199.0469,25.4375 199.9219,26.3906 Q200.7969,27.3438 200.7969,28.9844 Q200.7969,30.9063 199.5938,31.9375 Q198.3906,32.9531 196.1719,32.9531 Q195.2656,32.9531 194.3594,32.75 Q193.4531,32.5625 192.3125,32.1094 L192.3125,29.4531 Q193.7656,30.375 194.5625,30.6406 Q195.375,30.9063 196.1719,30.9063 Q197.3125,30.9063 197.9063,30.4219 Q198.5156,29.9375 198.5156,29.0938 Q198.5156,28.3125 198.1094,27.9063 Q197.7188,27.5 196.6094,27.25 L195.7031,27.0469 Q193.8906,26.6406 193.0156,25.7656 Q192.1563,24.8906 192.1563,23.4219 Q192.1563,21.6094 193.375,20.5156 Q194.6094,19.4063 196.5781,19.4063 Q197.3281,19.4063 198.1406,19.5781 Q198.9688,19.75 200.0938,20.1719 Z "/><text fill="#000000" font-family="sans-serif" font-size="12" font-style="italic" lengthAdjust="spacingAndGlyphs" textLength="141" x="208.5" y="24.1387">«Database Sequence»</text><text fill="#000000" font-family="sans-serif" font-size="12" lengthAdjust="spacingAndGlyphs" textLength="21" x="268.5" y="38.1074">UID</text><line style="stroke: #A80036; stroke-width: 1.5;" x1="182.5" x2="349.5" y1="45.9375" y2="45.9375"/><line style="stroke: #A80036; stroke-width: 1.5;" x1="182.5" x2="349.5" y1="53.9375" y2="53.9375"/><!--link USER to ACCOUNT--><path d="M76,62.0164 C76,80.0572 76,103.7002 76,121.7824 " fill="none" id="USER-ACCOUNT" style="stroke: #A80036; stroke-width: 1.0;"/><text fill="#000000" font-family="sans-serif" font-size="13" lengthAdjust="spacingAndGlyphs" textLength="8" x="67.075" y="82.0878">1</text><text fill="#000000" font-family="sans-serif" font-size="13" lengthAdjust="spacingAndGlyphs" textLength="7" x="68.1906" y="110.8434">*</text><!--link USER to UID--><path d="M146.1367,35 C156.1046,35 166.0725,35 176.0404,35 " fill="none" id="USER-UID" style="stroke: #A80036; stroke-width: 1.0;"/><polygon fill="#A80036" points="181.2529,35,172.2529,31,176.2529,35,172.2529,39,181.2529,35" style="stroke: #A80036; stroke-width: 1.0;"/><!--
@startuml

class USER << (T,#ffaaaa) Database Table >>
class ACCOUNT << (T,#ffaaaa) Database Table >>
class UID << (S,#aaaaaa) Database Sequence >>

USER "1" - - "*" ACCOUNT
USER -> UID
    @enduml

PlantUML version 1.2019.01(Sat Feb 09 16:32:04 CET 2019)
(GPL source distribution)
Java Runtime: OpenJDK Runtime Environment
JVM: OpenJDK 64-Bit Server VM
Java Version: 11.0.1+13-Ubuntu-3ubuntu3.18.10.1
Operating System: Linux
OS Version: 4.18.0-16-generic
Default Encoding: UTF-8
Language: fr
Country: FR
--></g></svg>