<?xml version="1.0" encoding="UTF-8" standalone="no"?><svg xmlns="http://www.w3.org/2000/svg" xmlns:xlink="http://www.w3.org/1999/xlink" contentScriptType="application/ecmascript" contentStyleType="text/css" height="283px" preserveAspectRatio="none" style="width:125px;height:283px;" version="1.1" viewBox="0 0 125 283" width="125px" zoomAndPan="magnify"><defs><filter height="300%" id="fqwbxtcyo0c7m" width="300%" x="-1" y="-1"><feGaussianBlur result="blurOut" stdDeviation="2.0"/><feColorMatrix in="blurOut" result="blurOut2" type="matrix" values="0 0 0 0 0 0 0 0 0 0 0 0 0 0 0 0 0 0 .4 0"/><feOffset dx="4.0" dy="4.0" in="blurOut2" result="blurOut3"/><feBlend in="SourceGraphic" in2="blurOut3" mode="normal"/></filter></defs><g><!--class Dog--><a target="_top" xlink:actuate="onRequest" xlink:href="http://www.yahoo.com" xlink:show="new" xlink:title="This is Dog" xlink:type="simple"><rect fill="#FEFECE" filter="url(#fqwbxtcyo0c7m)" height="48" id="Dog" style="stroke: #A80036; stroke-width: 1.5;" width="57" x="19" y="8"/><ellipse cx="34" cy="24" fill="#ADD1B2" rx="11" ry="11" style="stroke: #A80036; stroke-width: 1.0;"/><path d="M37.3438,29.4219 Q36.4844,29.8906 35.7656,30.0625 Q35.0625,30.2344 34.2656,30.2344 Q31.7031,30.2344 30.2969,28.4531 Q28.9063,26.6563 28.9063,23.4688 Q28.9063,20.3125 30.3125,18.5 Q31.7188,16.6875 34.2656,16.6875 Q35.0625,16.6875 35.7656,16.875 Q36.4844,17.0469 37.3438,17.5156 L37.3438,20.1719 Q36.2188,19.2344 35.5625,19 Q34.9063,18.75 34.2656,18.75 Q32.8125,18.75 32.0781,19.8906 Q31.3438,21.0156 31.3438,23.4688 Q31.3438,25.9219 32.0781,27.0625 Q32.8125,28.1875 34.2656,28.1875 Q34.9219,28.1875 35.5625,27.9531 Q36.2188,27.7031 37.3438,26.7656 L37.3438,29.4219 Z "/><text fill="#000000" font-family="sans-serif" font-size="12" lengthAdjust="spacingAndGlyphs" textLength="25" x="48" y="28.1543">Dog</text><line style="stroke: #A80036; stroke-width: 1.5;" x1="20" x2="75" y1="40" y2="40"/><line style="stroke: #A80036; stroke-width: 1.5;" x1="20" x2="75" y1="48" y2="48"/></a><!--class Mammal--><a target="_top" xlink:actuate="onRequest" xlink:href="/search" xlink:show="new" xlink:title="/search" xlink:type="simple"><rect fill="#FEFECE" filter="url(#fqwbxtcyo0c7m)" height="48" id="Mammal" style="stroke: #A80036; stroke-width: 1.5;" width="83" x="6" y="224"/><ellipse cx="21" cy="240" fill="#ADD1B2" rx="11" ry="11" style="stroke: #A80036; stroke-width: 1.0;"/><path d="M24.3438,245.4219 Q23.4844,245.8906 22.7656,246.0625 Q22.0625,246.2344 21.2656,246.2344 Q18.7031,246.2344 17.2969,244.4531 Q15.9063,242.6563 15.9063,239.4688 Q15.9063,236.3125 17.3125,234.5 Q18.7188,232.6875 21.2656,232.6875 Q22.0625,232.6875 22.7656,232.875 Q23.4844,233.0469 24.3438,233.5156 L24.3438,236.1719 Q23.2188,235.2344 22.5625,235 Q21.9063,234.75 21.2656,234.75 Q19.8125,234.75 19.0781,235.8906 Q18.3438,237.0156 18.3438,239.4688 Q18.3438,241.9219 19.0781,243.0625 Q19.8125,244.1875 21.2656,244.1875 Q21.9219,244.1875 22.5625,243.9531 Q23.2188,243.7031 24.3438,242.7656 L24.3438,245.4219 Z "/><text fill="#000000" font-family="sans-serif" font-size="12" lengthAdjust="spacingAndGlyphs" textLength="51" x="35" y="244.1543">Mammal</text><line style="stroke: #A80036; stroke-width: 1.5;" x1="7" x2="88" y1="256" y2="256"/><line style="stroke: #A80036; stroke-width: 1.5;" x1="7" x2="88" y1="264" y2="264"/></a><!--class Cat--><rect fill="#FEFECE" filter="url(#fqwbxtcyo0c7m)" height="48" id="Cat" style="stroke: #A80036; stroke-width: 1.5;" width="53" x="61" y="116"/><ellipse cx="76" cy="132" fill="#ADD1B2" rx="11" ry="11" style="stroke: #A80036; stroke-width: 1.0;"/><path d="M79.3438,137.4219 Q78.4844,137.8906 77.7656,138.0625 Q77.0625,138.2344 76.2656,138.2344 Q73.7031,138.2344 72.2969,136.4531 Q70.9063,134.6563 70.9063,131.4688 Q70.9063,128.3125 72.3125,126.5 Q73.7188,124.6875 76.2656,124.6875 Q77.0625,124.6875 77.7656,124.875 Q78.4844,125.0469 79.3438,125.5156 L79.3438,128.1719 Q78.2188,127.2344 77.5625,127 Q76.9063,126.75 76.2656,126.75 Q74.8125,126.75 74.0781,127.8906 Q73.3438,129.0156 73.3438,131.4688 Q73.3438,133.9219 74.0781,135.0625 Q74.8125,136.1875 76.2656,136.1875 Q76.9219,136.1875 77.5625,135.9531 Q78.2188,135.7031 79.3438,134.7656 L79.3438,137.4219 Z "/><text fill="#000000" font-family="sans-serif" font-size="12" lengthAdjust="spacingAndGlyphs" textLength="21" x="90" y="136.1543">Cat</text><line style="stroke: #A80036; stroke-width: 1.5;" x1="62" x2="113" y1="148" y2="148"/><line style="stroke: #A80036; stroke-width: 1.5;" x1="62" x2="113" y1="156" y2="156"/><!--link Dog to Mammal--><path d="M46.0394,56.2498 C45.1042,73.0221 43.9793,95.8579 43.5,116 C42.9925,137.3273 42.9925,142.6727 43.5,164 C43.8071,176.9035 44.3791,190.9126 44.9964,203.7247 " fill="none" id="Dog-Mammal" style="stroke: #A80036; stroke-width: 1.0;"/><polygon fill="none" points="51.9896,203.4132,46.0394,223.7502,38.0085,204.1414,51.9896,203.4132" style="stroke: #A80036; stroke-width: 1.0;"/><!--link Dog to Cat--><path d="M61.0844,68.6779 C66.8504,84.246 73.4121,101.9626 78.5532,115.8436 " fill="none" id="Dog-Cat" style="stroke: #A80036; stroke-width: 1.0;"/><polygon fill="#FFFFFF" points="56.4768,56.2373,54.8098,63.2531,60.6447,67.4902,62.3117,60.4744,56.4768,56.2373" style="stroke: #A80036; stroke-width: 1.0;"/><!--link Cat to Mammal--><path d="M78.5232,164.2373 C74.0971,176.1878 68.6236,190.9664 63.5122,204.7671 " fill="none" id="Cat-Mammal" style="stroke: #A80036; stroke-width: 1.0;"/><polygon fill="none" points="69.9574,207.5198,56.4468,223.8436,56.8289,202.6574,69.9574,207.5198" style="stroke: #A80036; stroke-width: 1.0;"/><!--
@startuml
skinparam topurl http://www.google.com
Dog - -|> Mammal
url of Mammal is [[/search]]
url of Dog is [[http://www.yahoo.com{This is Dog}]]
Dog o- - Cat
Cat - -|> Mammal
    @enduml

PlantUML version 1.2019.01(Sat Feb 09 16:32:04 CET 2019)
(GPL source distribution)
Java Runtime: OpenJDK Runtime Environment
JVM: OpenJDK 64-Bit Server VM
Java Version: 11.0.1+13-Ubuntu-3ubuntu3.18.10.1
Operating System: Linux
OS Version: 4.18.0-16-generic
Default Encoding: UTF-8
Language: fr
Country: FR
--></g></svg>