<?xml version="1.0" encoding="UTF-8" standalone="no"?><svg xmlns="http://www.w3.org/2000/svg" xmlns:xlink="http://www.w3.org/1999/xlink" contentScriptType="application/ecmascript" contentStyleType="text/css" height="289px" preserveAspectRatio="none" style="width:493px;height:289px;" version="1.1" viewBox="0 0 493 289" width="493px" zoomAndPan="magnify"><defs><filter height="300%" id="f1vg3ql338whd5" width="300%" x="-1" y="-1"><feGaussianBlur result="blurOut" stdDeviation="2.0"/><feColorMatrix in="blurOut" result="blurOut2" type="matrix" values="0 0 0 0 0 0 0 0 0 0 0 0 0 0 0 0 0 0 .4 0"/><feOffset dx="4.0" dy="4.0" in="blurOut2" result="blurOut3"/><feBlend in="SourceGraphic" in2="blurOut3" mode="normal"/></filter></defs><g><rect fill="#FEFECE" filter="url(#f1vg3ql338whd5)" height="50" rx="12.5" ry="12.5" style="stroke: #A80036; stroke-width: 1.5;" width="50" x="91" y="118"/><line style="stroke: #A80036; stroke-width: 1.5;" x1="91" x2="141" y1="144.2969" y2="144.2969"/><text fill="#000000" font-family="sans-serif" font-size="14" lengthAdjust="spacingAndGlyphs" textLength="18" x="107" y="135.9951">S1</text><rect fill="#FEFECE" filter="url(#f1vg3ql338whd5)" height="50" rx="12.5" ry="12.5" style="stroke: #A80036; stroke-width: 1.5;" width="50" x="91" y="228"/><line style="stroke: #A80036; stroke-width: 1.5;" x1="91" x2="141" y1="254.2969" y2="254.2969"/><text fill="#000000" font-family="sans-serif" font-size="14" lengthAdjust="spacingAndGlyphs" textLength="18" x="107" y="245.9951">S2</text><rect fill="#FEFECE" filter="url(#f1vg3ql338whd5)" height="50" rx="12.5" ry="12.5" style="stroke: #A80036; stroke-width: 1.5;" width="50" x="6" y="118"/><line style="stroke: #A80036; stroke-width: 1.5;" x1="6" x2="56" y1="144.2969" y2="144.2969"/><text fill="#000000" font-family="sans-serif" font-size="14" lengthAdjust="spacingAndGlyphs" textLength="18" x="22" y="135.9951">S3</text><rect fill="#FEFECE" filter="url(#f1vg3ql338whd5)" height="50" rx="12.5" ry="12.5" style="stroke: #A80036; stroke-width: 1.5;" width="50" x="91" y="8"/><line style="stroke: #A80036; stroke-width: 1.5;" x1="91" x2="141" y1="34.2969" y2="34.2969"/><text fill="#000000" font-family="sans-serif" font-size="14" lengthAdjust="spacingAndGlyphs" textLength="18" x="107" y="25.9951">S4</text><rect fill="#FEFECE" filter="url(#f1vg3ql338whd5)" height="50" rx="12.5" ry="12.5" style="stroke: #A80036; stroke-width: 1.5;" width="50" x="176" y="118"/><line style="stroke: #A80036; stroke-width: 1.5;" x1="176" x2="226" y1="144.2969" y2="144.2969"/><text fill="#000000" font-family="sans-serif" font-size="14" lengthAdjust="spacingAndGlyphs" textLength="18" x="192" y="135.9951">S5</text><rect fill="#FEFECE" filter="url(#f1vg3ql338whd5)" height="50" rx="12.5" ry="12.5" style="stroke: #A80036; stroke-width: 1.5;" width="50" x="261" y="8"/><line style="stroke: #A80036; stroke-width: 1.5;" x1="261" x2="311" y1="34.2969" y2="34.2969"/><text fill="#000000" font-family="sans-serif" font-size="14" lengthAdjust="spacingAndGlyphs" textLength="18" x="277" y="25.9951">X1</text><rect fill="#FEFECE" filter="url(#f1vg3ql338whd5)" height="50" rx="12.5" ry="12.5" style="stroke: #A80036; stroke-width: 1.5;" width="50" x="261" y="118"/><line style="stroke: #A80036; stroke-width: 1.5;" x1="261" x2="311" y1="144.2969" y2="144.2969"/><text fill="#000000" font-family="sans-serif" font-size="14" lengthAdjust="spacingAndGlyphs" textLength="18" x="277" y="135.9951">X2</text><rect fill="#FEFECE" filter="url(#f1vg3ql338whd5)" height="50" rx="12.5" ry="12.5" style="stroke: #A80036; stroke-width: 1.5;" width="50" x="346" y="8"/><line style="stroke: #A80036; stroke-width: 1.5;" x1="346" x2="396" y1="34.2969" y2="34.2969"/><text fill="#000000" font-family="sans-serif" font-size="14" lengthAdjust="spacingAndGlyphs" textLength="19" x="361.5" y="25.9951">Z1</text><rect fill="#FEFECE" filter="url(#f1vg3ql338whd5)" height="50" rx="12.5" ry="12.5" style="stroke: #A80036; stroke-width: 1.5;" width="50" x="346" y="118"/><line style="stroke: #A80036; stroke-width: 1.5;" x1="346" x2="396" y1="144.2969" y2="144.2969"/><text fill="#000000" font-family="sans-serif" font-size="14" lengthAdjust="spacingAndGlyphs" textLength="19" x="361.5" y="135.9951">Z2</text><rect fill="#FEFECE" filter="url(#f1vg3ql338whd5)" height="50" rx="12.5" ry="12.5" style="stroke: #A80036; stroke-width: 1.5;" width="50" x="431" y="8"/><line style="stroke: #A80036; stroke-width: 1.5;" x1="431" x2="481" y1="34.2969" y2="34.2969"/><text fill="#000000" font-family="sans-serif" font-size="14" lengthAdjust="spacingAndGlyphs" textLength="18" x="447" y="25.9951">Y1</text><rect fill="#FEFECE" filter="url(#f1vg3ql338whd5)" height="50" rx="12.5" ry="12.5" style="stroke: #A80036; stroke-width: 1.5;" width="50" x="431" y="118"/><line style="stroke: #A80036; stroke-width: 1.5;" x1="431" x2="481" y1="144.2969" y2="144.2969"/><text fill="#000000" font-family="sans-serif" font-size="14" lengthAdjust="spacingAndGlyphs" textLength="18" x="447" y="135.9951">Y2</text><!--link S1 to S2--><path d="M116,168.2362 C116,184.4464 116,205.5926 116,222.7087 " fill="none" id="S1-S2" style="stroke: #DD00AA; stroke-width: 1.0;"/><polygon fill="#DD00AA" points="116,227.8812,120,218.8812,116,222.8812,112,218.8812,116,227.8812" style="stroke: #DD00AA; stroke-width: 1.0;"/><!--link S3 to S1--><path d="M61.3632,143 C71.1709,143 80.9786,143 90.7864,143 " fill="none" id="S3-S1" style="stroke: #FFFF00; stroke-width: 1.0;"/><polygon fill="#FFFF00" points="56.2344,143,65.2344,147,61.2344,143,65.2344,139,56.2344,143" style="stroke: #FFFF00; stroke-width: 1.0;"/><!--link S4 to S1--><path d="M116,63.4155 C116,80.5509 116,101.695 116,117.8812 " fill="none" id="S4-S1" style="stroke: #FF0000; stroke-width: 1.0; stroke-dasharray: 7.0,7.0;"/><polygon fill="#FF0000" points="116,58.2362,112,67.2362,116,63.2362,120,67.2362,116,58.2362" style="stroke: #FF0000; stroke-width: 1.0;"/><!--link S1 to S5--><path d="M141.2344,143 C151.0421,143 160.8498,143 170.6576,143 " fill="none" id="S1-S5" style="stroke: #0000FF; stroke-width: 1.0; stroke-dasharray: 1.0,3.0;"/><polygon fill="#0000FF" points="175.7864,143,166.7864,139,170.7864,143,166.7864,147,175.7864,143" style="stroke: #0000FF; stroke-width: 1.0;"/><!--link X1 to X2--><path d="M286,58.2362 C286,74.4464 286,95.5926 286,112.7087 " fill="none" id="X1-X2" style="stroke: #A80036; stroke-width: 1.0; stroke-dasharray: 7.0,7.0;"/><polygon fill="#A80036" points="286,117.8812,290,108.8812,286,112.8812,282,108.8812,286,117.8812" style="stroke: #A80036; stroke-width: 1.0;"/><!--link Z1 to Z2--><path d="M371,58.2362 C371,74.4464 371,95.5926 371,112.7087 " fill="none" id="Z1-Z2" style="stroke: #A80036; stroke-width: 1.0; stroke-dasharray: 1.0,3.0;"/><polygon fill="#A80036" points="371,117.8812,375,108.8812,371,112.8812,367,108.8812,371,117.8812" style="stroke: #A80036; stroke-width: 1.0;"/><!--link Y1 to Y2--><path d="M456,58.2362 C456,74.4464 456,95.5926 456,112.7087 " fill="none" id="Y1-Y2" style="stroke: #0000FF; stroke-width: 2.0;"/><polygon fill="#0000FF" points="456,117.8812,460,108.8812,456,112.8812,452,108.8812,456,117.8812" style="stroke: #0000FF; stroke-width: 2.0;"/><!--
@startuml
State S1
State S2
S1 -[#DD00AA]-> S2
S1 -left[#yellow]-> S3
S1 -up[#red,dashed]-> S4
S1 -right[dotted,#blue]-> S5

X1 -[dashed]-> X2
Z1 -[dotted]-> Z2
Y1 -[#blue,bold]-> Y2
    @enduml

PlantUML version 1.2019.01(Sat Feb 09 16:32:04 CET 2019)
(GPL source distribution)
Java Runtime: OpenJDK Runtime Environment
JVM: OpenJDK 64-Bit Server VM
Java Version: 11.0.1+13-Ubuntu-3ubuntu3.18.10.1
Operating System: Linux
OS Version: 4.18.0-16-generic
Default Encoding: UTF-8
Language: fr
Country: FR
--></g></svg>