<?xml version="1.0" encoding="UTF-8" standalone="no"?><svg xmlns="http://www.w3.org/2000/svg" xmlns:xlink="http://www.w3.org/1999/xlink" contentScriptType="application/ecmascript" contentStyleType="text/css" height="239px" preserveAspectRatio="none" style="width:482px;height:239px;" version="1.1" viewBox="0 0 482 239" width="482px" zoomAndPan="magnify"><defs><filter height="300%" id="f74b4pqm9270p" width="300%" x="-1" y="-1"><feGaussianBlur result="blurOut" stdDeviation="2.0"/><feColorMatrix in="blurOut" result="blurOut2" type="matrix" values="0 0 0 0 0 0 0 0 0 0 0 0 0 0 0 0 0 0 .4 0"/><feOffset dx="4.0" dy="4.0" in="blurOut2" result="blurOut3"/><feBlend in="SourceGraphic" in2="blurOut3" mode="normal"/></filter></defs><g><!--class Object--><rect fill="#FEFECE" filter="url(#f74b4pqm9270p)" height="60.8047" id="Object" style="stroke: #A80036; stroke-width: 1.5;" width="139" x="56.5" y="14.5"/><ellipse cx="101.75" cy="30.5" fill="#ADD1B2" rx="11" ry="11" style="stroke: #A80036; stroke-width: 1.0;"/><path d="M105.0938,35.9219 Q104.2344,36.3906 103.5156,36.5625 Q102.8125,36.7344 102.0156,36.7344 Q99.4531,36.7344 98.0469,34.9531 Q96.6563,33.1563 96.6563,29.9688 Q96.6563,26.8125 98.0625,25 Q99.4688,23.1875 102.0156,23.1875 Q102.8125,23.1875 103.5156,23.375 Q104.2344,23.5469 105.0938,24.0156 L105.0938,26.6719 Q103.9688,25.7344 103.3125,25.5 Q102.6563,25.25 102.0156,25.25 Q100.5625,25.25 99.8281,26.3906 Q99.0938,27.5156 99.0938,29.9688 Q99.0938,32.4219 99.8281,33.5625 Q100.5625,34.6875 102.0156,34.6875 Q102.6719,34.6875 103.3125,34.4531 Q103.9688,34.2031 105.0938,33.2656 L105.0938,35.9219 Z "/><text fill="#000000" font-family="sans-serif" font-size="12" lengthAdjust="spacingAndGlyphs" textLength="40" x="122.25" y="34.6543">Object</text><line style="stroke: #A80036; stroke-width: 1.5;" x1="57.5" x2="194.5" y1="46.5" y2="46.5"/><a target="_top" xlink:actuate="onRequest" xlink:href="http://www.yahoo.com" xlink:show="new" xlink:title="http://www.yahoo.com" xlink:type="simple"><text fill="#0000FF" font-family="sans-serif" font-size="11" lengthAdjust="spacingAndGlyphs" text-decoration="underline" textLength="127" x="62.5" y="60.7104">http://www.yahoo.com</text><line style="stroke: #0000FF; stroke-width: 1.0;" x1="62.5" x2="189.5" y1="62.7104" y2="62.7104"/></a><line style="stroke: #A80036; stroke-width: 1.5;" x1="57.5" x2="194.5" y1="67.3047" y2="67.3047"/><!--class Foo--><rect fill="#FEFECE" filter="url(#f74b4pqm9270p)" height="86.4141" id="Foo" style="stroke: #A80036; stroke-width: 1.5;" width="240" x="6" y="142"/><ellipse cx="110.25" cy="158" fill="#ADD1B2" rx="11" ry="11" style="stroke: #A80036; stroke-width: 1.0;"/><path d="M113.5938,163.4219 Q112.7344,163.8906 112.0156,164.0625 Q111.3125,164.2344 110.5156,164.2344 Q107.9531,164.2344 106.5469,162.4531 Q105.1563,160.6563 105.1563,157.4688 Q105.1563,154.3125 106.5625,152.5 Q107.9688,150.6875 110.5156,150.6875 Q111.3125,150.6875 112.0156,150.875 Q112.7344,151.0469 113.5938,151.5156 L113.5938,154.1719 Q112.4688,153.2344 111.8125,153 Q111.1563,152.75 110.5156,152.75 Q109.0625,152.75 108.3281,153.8906 Q107.5938,155.0156 107.5938,157.4688 Q107.5938,159.9219 108.3281,161.0625 Q109.0625,162.1875 110.5156,162.1875 Q111.1719,162.1875 111.8125,161.9531 Q112.4688,161.7031 113.5938,160.7656 L113.5938,163.4219 Z "/><text fill="#000000" font-family="sans-serif" font-size="12" lengthAdjust="spacingAndGlyphs" textLength="23" x="130.75" y="162.1543">Foo</text><line style="stroke: #A80036; stroke-width: 1.5;" x1="7" x2="245" y1="174" y2="174"/><a target="_top" xlink:actuate="onRequest" xlink:href="http://www.google.com" xlink:show="new" xlink:title="http://www.google.com" xlink:type="simple"><text fill="#0000FF" font-family="sans-serif" font-size="11" lengthAdjust="spacingAndGlyphs" text-decoration="underline" textLength="131" x="12" y="188.2104">http://www.google.com</text><line style="stroke: #0000FF; stroke-width: 1.0;" x1="12" x2="143" y1="190.2104" y2="190.2104"/></a><line style="stroke: #A80036; stroke-width: 1.5;" x1="7" x2="245" y1="194.8047" y2="194.8047"/><ellipse cx="17" cy="206.707" fill="#84BE84" rx="3" ry="3" style="stroke: #038048; stroke-width: 1.0;"/><text fill="#000000" font-family="sans-serif" font-size="11" lengthAdjust="spacingAndGlyphs" textLength="65" x="26" y="209.0151">methods1()</text><a target="_top" xlink:actuate="onRequest" xlink:href="http://www.yahoo.com/A1" xlink:show="new" xlink:title="Some explainations about this method" xlink:type="simple"><text fill="#0000FF" font-family="sans-serif" font-size="11" lengthAdjust="spacingAndGlyphs" text-decoration="underline" textLength="145" x="95" y="209.0151">http://www.yahoo.com/A1</text><line style="stroke: #0000FF; stroke-width: 1.0;" x1="95" x2="240" y1="211.0151" y2="211.0151"/></a><ellipse cx="17" cy="219.5117" fill="#84BE84" rx="3" ry="3" style="stroke: #038048; stroke-width: 1.0;"/><text fill="#000000" font-family="sans-serif" font-size="11" lengthAdjust="spacingAndGlyphs" textLength="65" x="26" y="221.8198">methods2()</text><a target="_top" xlink:actuate="onRequest" xlink:href="http://www.yahoo.com/A2" xlink:show="new" xlink:title="http://www.yahoo.com/A2" xlink:type="simple"><text fill="#0000FF" font-family="sans-serif" font-size="11" lengthAdjust="spacingAndGlyphs" text-decoration="underline" textLength="145" x="95" y="221.8198">http://www.yahoo.com/A2</text><line style="stroke: #0000FF; stroke-width: 1.0;" x1="95" x2="240" y1="223.8198" y2="223.8198"/></a><!--class Foo2--><rect fill="#FEFECE" filter="url(#f74b4pqm9270p)" height="73.6094" id="Foo2" style="stroke: #A80036; stroke-width: 1.5;" width="241" x="230.5" y="8"/><ellipse cx="331.25" cy="24" fill="#ADD1B2" rx="11" ry="11" style="stroke: #A80036; stroke-width: 1.0;"/><path d="M334.5938,29.4219 Q333.7344,29.8906 333.0156,30.0625 Q332.3125,30.2344 331.5156,30.2344 Q328.9531,30.2344 327.5469,28.4531 Q326.1563,26.6563 326.1563,23.4688 Q326.1563,20.3125 327.5625,18.5 Q328.9688,16.6875 331.5156,16.6875 Q332.3125,16.6875 333.0156,16.875 Q333.7344,17.0469 334.5938,17.5156 L334.5938,20.1719 Q333.4688,19.2344 332.8125,19 Q332.1563,18.75 331.5156,18.75 Q330.0625,18.75 329.3281,19.8906 Q328.5938,21.0156 328.5938,23.4688 Q328.5938,25.9219 329.3281,27.0625 Q330.0625,28.1875 331.5156,28.1875 Q332.1719,28.1875 332.8125,27.9531 Q333.4688,27.7031 334.5938,26.7656 L334.5938,29.4219 Z "/><text fill="#000000" font-family="sans-serif" font-size="12" lengthAdjust="spacingAndGlyphs" textLength="31" x="351.75" y="28.1543">Foo2</text><line style="stroke: #A80036; stroke-width: 1.5;" x1="231.5" x2="470.5" y1="40" y2="40"/><line style="stroke: #A80036; stroke-width: 1.5;" x1="231.5" x2="470.5" y1="48" y2="48"/><ellipse cx="241.5" cy="59.9023" fill="#84BE84" rx="3" ry="3" style="stroke: #038048; stroke-width: 1.0;"/><text fill="#000000" font-family="sans-serif" font-size="11" lengthAdjust="spacingAndGlyphs" textLength="65" x="250.5" y="62.2104">methods1()</text><a target="_top" xlink:actuate="onRequest" xlink:href="http://www.yahoo.com/B1" xlink:show="new" xlink:title="http://www.yahoo.com/B1" xlink:type="simple"><text fill="#0000FF" font-family="sans-serif" font-size="11" lengthAdjust="spacingAndGlyphs" text-decoration="underline" textLength="146" x="319.5" y="62.2104">http://www.yahoo.com/B1</text><line style="stroke: #0000FF; stroke-width: 1.0;" x1="319.5" x2="465.5" y1="64.2104" y2="64.2104"/></a><ellipse cx="241.5" cy="72.707" fill="#84BE84" rx="3" ry="3" style="stroke: #038048; stroke-width: 1.0;"/><text fill="#000000" font-family="sans-serif" font-size="11" lengthAdjust="spacingAndGlyphs" textLength="65" x="250.5" y="75.0151">methods2()</text><a target="_top" xlink:actuate="onRequest" xlink:href="http://www.yahoo.com/B2" xlink:show="new" xlink:title="http://www.yahoo.com/B2" xlink:type="simple"><text fill="#0000FF" font-family="sans-serif" font-size="11" lengthAdjust="spacingAndGlyphs" text-decoration="underline" textLength="146" x="319.5" y="75.0151">http://www.yahoo.com/B2</text><line style="stroke: #0000FF; stroke-width: 1.0;" x1="319.5" x2="465.5" y1="77.0151" y2="77.0151"/></a><!--link Object to Foo--><path d="M126,95.8702 C126,110.9553 126,127.3242 126,141.8687 " fill="none" id="Object-Foo" style="stroke: #A80036; stroke-width: 1.0;"/><polygon fill="none" points="119.0001,95.7236,126,75.7236,133.0001,95.7236,119.0001,95.7236" style="stroke: #A80036; stroke-width: 1.0;"/><!--
@startuml
Object <|- - Foo
class Foo {
  [[http://www.google.com]]
  + methods1() [[http://www.yahoo.com/A1{Some explainations about this method}]]
  + methods2() [[http://www.yahoo.com/A2]]
}

class Foo2 {
  + methods1() [[http://www.yahoo.com/B1]]
  + methods2() [[http://www.yahoo.com/B2]]
}

class Object {
  [[http://www.yahoo.com]]
}
    @enduml

PlantUML version 1.2019.01(Sat Feb 09 16:32:04 CET 2019)
(GPL source distribution)
Java Runtime: OpenJDK Runtime Environment
JVM: OpenJDK 64-Bit Server VM
Java Version: 11.0.1+13-Ubuntu-3ubuntu3.18.10.1
Operating System: Linux
OS Version: 4.18.0-16-generic
Default Encoding: UTF-8
Language: fr
Country: FR
--></g></svg>