<?xml version="1.0" encoding="UTF-8" standalone="no"?><svg xmlns="http://www.w3.org/2000/svg" xmlns:xlink="http://www.w3.org/1999/xlink" contentScriptType="application/ecmascript" contentStyleType="text/css" height="343px" preserveAspectRatio="none" style="width:158px;height:343px;" version="1.1" viewBox="0 0 158 343" width="158px" zoomAndPan="magnify"><defs><filter height="300%" id="f1e7zje0ms07y5" width="300%" x="-1" y="-1"><feGaussianBlur result="blurOut" stdDeviation="2.0"/><feColorMatrix in="blurOut" result="blurOut2" type="matrix" values="0 0 0 0 0 0 0 0 0 0 0 0 0 0 0 0 0 0 .4 0"/><feOffset dx="4.0" dy="4.0" in="blurOut2" result="blurOut3"/><feBlend in="SourceGraphic" in2="blurOut3" mode="normal"/></filter></defs><g><line style="stroke: #A80036; stroke-width: 1.0; stroke-dasharray: 5.0,5.0;" x1="33" x2="33" y1="38.2969" y2="303.0938"/><line style="stroke: #A80036; stroke-width: 1.0; stroke-dasharray: 5.0,5.0;" x1="128" x2="128" y1="38.2969" y2="303.0938"/><rect fill="#FEFECE" filter="url(#f1e7zje0ms07y5)" height="30.2969" style="stroke: #A80036; stroke-width: 1.5;" width="46" x="8" y="3"/><text fill="#000000" font-family="sans-serif" font-size="14" lengthAdjust="spacingAndGlyphs" textLength="32" x="15" y="22.9951">Alice</text><rect fill="#FEFECE" filter="url(#f1e7zje0ms07y5)" height="30.2969" style="stroke: #A80036; stroke-width: 1.5;" width="46" x="8" y="302.0938"/><text fill="#000000" font-family="sans-serif" font-size="14" lengthAdjust="spacingAndGlyphs" textLength="32" x="15" y="322.0889">Alice</text><rect fill="#FEFECE" filter="url(#f1e7zje0ms07y5)" height="30.2969" style="stroke: #A80036; stroke-width: 1.5;" width="42" x="105" y="3"/><text fill="#000000" font-family="sans-serif" font-size="14" lengthAdjust="spacingAndGlyphs" textLength="28" x="112" y="22.9951">Bob</text><rect fill="#FEFECE" filter="url(#f1e7zje0ms07y5)" height="30.2969" style="stroke: #A80036; stroke-width: 1.5;" width="42" x="105" y="302.0938"/><text fill="#000000" font-family="sans-serif" font-size="14" lengthAdjust="spacingAndGlyphs" textLength="28" x="112" y="322.0889">Bob</text><polygon fill="#A80036" points="116,65.4297,126,69.4297,116,73.4297,120,69.4297" style="stroke: #A80036; stroke-width: 1.0;"/><line style="stroke: #A80036; stroke-width: 1.0;" x1="33" x2="122" y1="69.4297" y2="69.4297"/><text fill="#000000" font-family="sans-serif" font-size="13" lengthAdjust="spacingAndGlyphs" textLength="71" x="40" y="64.3638">message 1</text><polygon fill="#A80036" points="44,94.5625,34,98.5625,44,102.5625,40,98.5625" style="stroke: #A80036; stroke-width: 1.0;"/><line style="stroke: #A80036; stroke-width: 1.0; stroke-dasharray: 2.0,2.0;" x1="38" x2="127" y1="98.5625" y2="98.5625"/><text fill="#000000" font-family="sans-serif" font-size="13" lengthAdjust="spacingAndGlyphs" textLength="15" x="50" y="93.4966">ok</text><polygon fill="#A80036" points="116,148.6953,126,152.6953,116,156.6953,120,152.6953" style="stroke: #A80036; stroke-width: 1.0;"/><line style="stroke: #A80036; stroke-width: 1.0;" x1="33" x2="122" y1="152.6953" y2="152.6953"/><text fill="#000000" font-family="sans-serif" font-size="13" lengthAdjust="spacingAndGlyphs" textLength="71" x="40" y="147.6294">message 2</text><polygon fill="#A80036" points="44,177.8281,34,181.8281,44,185.8281,40,181.8281" style="stroke: #A80036; stroke-width: 1.0;"/><line style="stroke: #A80036; stroke-width: 1.0; stroke-dasharray: 2.0,2.0;" x1="38" x2="127" y1="181.8281" y2="181.8281"/><text fill="#000000" font-family="sans-serif" font-size="13" lengthAdjust="spacingAndGlyphs" textLength="15" x="50" y="176.7622">ok</text><polygon fill="#A80036" points="116,251.9609,126,255.9609,116,259.9609,120,255.9609" style="stroke: #A80036; stroke-width: 1.0;"/><line style="stroke: #A80036; stroke-width: 1.0;" x1="33" x2="122" y1="255.9609" y2="255.9609"/><text fill="#000000" font-family="sans-serif" font-size="13" lengthAdjust="spacingAndGlyphs" textLength="71" x="40" y="250.895">message 3</text><polygon fill="#A80036" points="44,281.0938,34,285.0938,44,289.0938,40,285.0938" style="stroke: #A80036; stroke-width: 1.0;"/><line style="stroke: #A80036; stroke-width: 1.0; stroke-dasharray: 2.0,2.0;" x1="38" x2="127" y1="285.0938" y2="285.0938"/><text fill="#000000" font-family="sans-serif" font-size="13" lengthAdjust="spacingAndGlyphs" textLength="15" x="50" y="280.0278">ok</text><!--
@startuml
Alice -> Bob: message 1
Bob - -> Alice: ok
|||
Alice -> Bob: message 2
Bob - -> Alice: ok
||45||
Alice -> Bob: message 3
Bob - -> Alice: ok
@enduml

PlantUML version 1.2019.01(Sat Feb 09 16:32:04 CET 2019)
(GPL source distribution)
Java Runtime: OpenJDK Runtime Environment
JVM: OpenJDK 64-Bit Server VM
Java Version: 11.0.1+13-Ubuntu-3ubuntu3.18.10.1
Operating System: Linux
OS Version: 4.18.0-16-generic
Default Encoding: UTF-8
Language: fr
Country: FR
--></g></svg>