<?xml version="1.0" encoding="UTF-8" standalone="no"?><svg xmlns="http://www.w3.org/2000/svg" xmlns:xlink="http://www.w3.org/1999/xlink" contentScriptType="application/ecmascript" contentStyleType="text/css" height="160px" preserveAspectRatio="none" style="width:258px;height:160px;" version="1.1" viewBox="0 0 258 160" width="258px" zoomAndPan="magnify"><defs><filter height="300%" id="f5uenbpzuhnq6" width="300%" x="-1" y="-1"><feGaussianBlur result="blurOut" stdDeviation="2.0"/><feColorMatrix in="blurOut" result="blurOut2" type="matrix" values="0 0 0 0 0 0 0 0 0 0 0 0 0 0 0 0 0 0 .4 0"/><feOffset dx="4.0" dy="4.0" in="blurOut2" result="blurOut3"/><feBlend in="SourceGraphic" in2="blurOut3" mode="normal"/></filter></defs><g><line style="stroke: #A80036; stroke-width: 1.0; stroke-dasharray: 5.0,5.0;" x1="63" x2="63" y1="54.5938" y2="103.7266"/><line style="stroke: #A80036; stroke-width: 1.0; stroke-dasharray: 5.0,5.0;" x1="189" x2="189" y1="54.5938" y2="103.7266"/><rect fill="#FEFECE" filter="url(#f5uenbpzuhnq6)" height="46.5938" style="stroke: #A80036; stroke-width: 1.5;" width="106" x="8" y="3"/><text fill="#000000" font-family="sans-serif" font-size="14" font-style="italic" lengthAdjust="spacingAndGlyphs" textLength="92" x="15" y="24">«Generated»</text><text fill="#000000" font-family="sans-serif" font-size="14" lengthAdjust="spacingAndGlyphs" textLength="87" x="17.5" y="40.2969">Famous Bob</text><rect fill="#FEFECE" filter="url(#f5uenbpzuhnq6)" height="46.5938" style="stroke: #A80036; stroke-width: 1.5;" width="106" x="8" y="102.7266"/><text fill="#000000" font-family="sans-serif" font-size="14" font-style="italic" lengthAdjust="spacingAndGlyphs" textLength="92" x="15" y="123.7266">«Generated»</text><text fill="#000000" font-family="sans-serif" font-size="14" lengthAdjust="spacingAndGlyphs" textLength="87" x="17.5" y="140.0234">Famous Bob</text><rect fill="#FEFECE" filter="url(#f5uenbpzuhnq6)" height="46.5938" style="stroke: #A80036; stroke-width: 1.5;" width="119" x="128" y="3"/><ellipse cx="146" cy="21" fill="#ADD1B2" rx="11" ry="11" style="stroke: #A80036; stroke-width: 1.0;"/><path d="M149.3438,26.4219 Q148.4844,26.8906 147.7656,27.0625 Q147.0625,27.2344 146.2656,27.2344 Q143.7031,27.2344 142.2969,25.4531 Q140.9063,23.6563 140.9063,20.4688 Q140.9063,17.3125 142.3125,15.5 Q143.7188,13.6875 146.2656,13.6875 Q147.0625,13.6875 147.7656,13.875 Q148.4844,14.0469 149.3438,14.5156 L149.3438,17.1719 Q148.2188,16.2344 147.5625,16 Q146.9063,15.75 146.2656,15.75 Q144.8125,15.75 144.0781,16.8906 Q143.3438,18.0156 143.3438,20.4688 Q143.3438,22.9219 144.0781,24.0625 Q144.8125,25.1875 146.2656,25.1875 Q146.9219,25.1875 147.5625,24.9531 Q148.2188,24.7031 149.3438,23.7656 L149.3438,26.4219 Z "/><text fill="#000000" font-family="sans-serif" font-size="14" font-style="italic" lengthAdjust="spacingAndGlyphs" textLength="77" x="163" y="24">«Testable»</text><text fill="#000000" font-family="sans-serif" font-size="14" lengthAdjust="spacingAndGlyphs" textLength="32" x="185.5" y="40.2969">Alice</text><rect fill="#FEFECE" filter="url(#f5uenbpzuhnq6)" height="46.5938" style="stroke: #A80036; stroke-width: 1.5;" width="119" x="128" y="102.7266"/><ellipse cx="146" cy="120.7266" fill="#ADD1B2" rx="11" ry="11" style="stroke: #A80036; stroke-width: 1.0;"/><path d="M149.3438,126.1484 Q148.4844,126.6172 147.7656,126.7891 Q147.0625,126.9609 146.2656,126.9609 Q143.7031,126.9609 142.2969,125.1797 Q140.9063,123.3828 140.9063,120.1953 Q140.9063,117.0391 142.3125,115.2266 Q143.7188,113.4141 146.2656,113.4141 Q147.0625,113.4141 147.7656,113.6016 Q148.4844,113.7734 149.3438,114.2422 L149.3438,116.8984 Q148.2188,115.9609 147.5625,115.7266 Q146.9063,115.4766 146.2656,115.4766 Q144.8125,115.4766 144.0781,116.6172 Q143.3438,117.7422 143.3438,120.1953 Q143.3438,122.6484 144.0781,123.7891 Q144.8125,124.9141 146.2656,124.9141 Q146.9219,124.9141 147.5625,124.6797 Q148.2188,124.4297 149.3438,123.4922 L149.3438,126.1484 Z "/><text fill="#000000" font-family="sans-serif" font-size="14" font-style="italic" lengthAdjust="spacingAndGlyphs" textLength="77" x="163" y="123.7266">«Testable»</text><text fill="#000000" font-family="sans-serif" font-size="14" lengthAdjust="spacingAndGlyphs" textLength="32" x="185.5" y="140.0234">Alice</text><polygon fill="#A80036" points="177.5,81.7266,187.5,85.7266,177.5,89.7266,181.5,85.7266" style="stroke: #A80036; stroke-width: 1.0;"/><line style="stroke: #A80036; stroke-width: 1.0;" x1="63" x2="183.5" y1="85.7266" y2="85.7266"/><text fill="#000000" font-family="sans-serif" font-size="13" lengthAdjust="spacingAndGlyphs" textLength="90" x="70" y="80.6606">First message</text><!--
@startuml
participant "Famous Bob" as Bob << Generated >>
participant Alice << (C,#ADD1B2) Testable >>

Bob->Alice: First message
@enduml

PlantUML version 1.2019.01(Sat Feb 09 16:32:04 CET 2019)
(GPL source distribution)
Java Runtime: OpenJDK Runtime Environment
JVM: OpenJDK 64-Bit Server VM
Java Version: 11.0.1+13-Ubuntu-3ubuntu3.18.10.1
Operating System: Linux
OS Version: 4.18.0-16-generic
Default Encoding: UTF-8
Language: fr
Country: FR
--></g></svg>