<?xml version="1.0" encoding="UTF-8" standalone="no"?><svg xmlns="http://www.w3.org/2000/svg" xmlns:xlink="http://www.w3.org/1999/xlink" contentScriptType="application/ecmascript" contentStyleType="text/css" height="555.0343px" preserveAspectRatio="none" style="width:345px;height:555px;" version="1.1" viewBox="0 0 345 555" width="345.1945px" zoomAndPan="magnify"><defs><filter height="300%" id="f1353wkcsqwsex" width="300%" x="-1" y="-1"><feGaussianBlur result="blurOut" stdDeviation="1.6018306636155606"/><feColorMatrix in="blurOut" result="blurOut2" type="matrix" values="0 0 0 0 0 0 0 0 0 0 0 0 0 0 0 0 0 0 .4 0"/><feOffset dx="3.203661327231121" dy="3.203661327231121" in="blurOut2" result="blurOut3"/><feBlend in="SourceGraphic" in2="blurOut3" mode="normal"/></filter></defs><g><!--cluster NotShooting--><rect fill="#FEFECE" filter="url(#f1353wkcsqwsex)" height="182.6087" rx="10.0114" ry="10.0114" style="stroke: #A80036; stroke-width: 1.2013729977116705;" width="81.6934" x="140.5606" y="53.6613"/><rect fill="#FFFFFF" height="156.7416" rx="10.0114" ry="10.0114" style="stroke: #FFFFFF; stroke-width: 0.8009153318077803;" width="76.8879" x="142.9634" y="77.1256"/><line style="stroke: #A80036; stroke-width: 1.2013729977116705;" x1="140.5606" x2="222.254" y1="74.7229" y2="74.7229"/><text fill="#000000" font-family="sans-serif" font-size="11.2128" lengthAdjust="spacingAndGlyphs" textLength="68.8787" x="146.968" y="67.273">NotShooting</text><ellipse cx="170.1945" cy="83.2952" fill="#000000" filter="url(#f1353wkcsqwsex)" rx="8.0092" ry="8.0092" style="stroke: none; stroke-width: 0.8009153318077803;"/><rect fill="#FEFECE" filter="url(#f1353wkcsqwsex)" height="40.0458" rx="10.0114" ry="10.0114" style="stroke: #A80036; stroke-width: 1.2013729977116705;" width="40.0458" x="150.1716" y="189.8169"/><line style="stroke: #A80036; stroke-width: 1.2013729977116705;" x1="150.1716" x2="190.2174" y1="210.8785" y2="210.8785"/><text fill="#000000" font-family="sans-serif" font-size="11.2128" lengthAdjust="spacingAndGlyphs" textLength="19.222" x="160.5835" y="204.2295">Idle</text><ellipse cx="212.643" cy="14.4165" fill="#000000" filter="url(#f1353wkcsqwsex)" rx="8.0092" ry="8.0092" style="stroke: none; stroke-width: 0.8009153318077803;"/><rect fill="#FEFECE" filter="url(#f1353wkcsqwsex)" height="254.9288" rx="10.0114" ry="10.0114" style="stroke: #A80036; stroke-width: 1.2013729977116705;" width="330.778" x="4.8055" y="291.5332"/><rect fill="#FFFFFF" height="229.0618" rx="10.0114" ry="10.0114" style="stroke: #FFFFFF; stroke-width: 0.8009153318077803;" width="325.9725" x="7.2082" y="314.9975"/><line style="stroke: #A80036; stroke-width: 1.2013729977116705;" x1="4.8055" x2="335.5835" y1="312.5948" y2="312.5948"/><text fill="#000000" font-family="sans-serif" font-size="11.2128" lengthAdjust="spacingAndGlyphs" textLength="63.2723" x="138.5584" y="305.9457">Configuring</text><ellipse cx="99.5978" cy="331.0158" fill="#000000" filter="url(#f1353wkcsqwsex)" rx="8.0092" ry="8.0092" style="stroke: none; stroke-width: 0.8009153318077803;"/><rect fill="#FEFECE" filter="url(#f1353wkcsqwsex)" height="40.0458" rx="10.0114" ry="10.0114" style="stroke: #A80036; stroke-width: 1.2013729977116705;" width="121.7391" x="38.7283" y="368.6588"/><line style="stroke: #A80036; stroke-width: 1.2013729977116705;" x1="38.7283" x2="160.4674" y1="389.7204" y2="389.7204"/><text fill="#000000" font-family="sans-serif" font-size="11.2128" lengthAdjust="spacingAndGlyphs" textLength="105.7208" x="46.7374" y="383.0714">NewValueSelection</text><rect fill="#FEFECE" filter="url(#f1353wkcsqwsex)" height="83.533" rx="10.0114" ry="10.0114" style="stroke: #A80036; stroke-width: 1.2013729977116705;" width="153.7757" x="22.71" y="451.1531"/><rect fill="#FFFFFF" height="57.6659" rx="10.0114" ry="10.0114" style="stroke: #FFFFFF; stroke-width: 0.8009153318077803;" width="148.9703" x="25.1127" y="474.6174"/><line style="stroke: #A80036; stroke-width: 1.2013729977116705;" x1="22.71" x2="176.4857" y1="472.2147" y2="472.2147"/><text fill="#000000" font-family="sans-serif" font-size="11.2128" lengthAdjust="spacingAndGlyphs" textLength="96.9108" x="51.1424" y="465.5657">NewValuePreview</text><rect fill="#FEFECE" filter="url(#f1353wkcsqwsex)" height="40.0458" rx="10.0114" ry="10.0114" style="stroke: #A80036; stroke-width: 1.2013729977116705;" width="52.0595" x="31.52" y="482.6266"/><line style="stroke: #A80036; stroke-width: 1.2013729977116705;" x1="31.52" x2="83.5795" y1="503.6881" y2="503.6881"/><text fill="#000000" font-family="sans-serif" font-size="11.2128" lengthAdjust="spacingAndGlyphs" textLength="36.0412" x="39.5292" y="497.0391">State1</text><rect fill="#FEFECE" filter="url(#f1353wkcsqwsex)" height="40.0458" rx="10.0114" ry="10.0114" style="stroke: #A80036; stroke-width: 1.2013729977116705;" width="52.0595" x="97.996" y="482.6266"/><line style="stroke: #A80036; stroke-width: 1.2013729977116705;" x1="97.996" x2="150.0555" y1="503.6881" y2="503.6881"/><text fill="#000000" font-family="sans-serif" font-size="11.2128" lengthAdjust="spacingAndGlyphs" textLength="36.0412" x="106.0051" y="497.0391">State2</text><!--link State1 to State2--><path d="M83.7766,502.6495 C87.0931,502.6495 90.4095,502.6495 93.7259,502.6495 " fill="none" id="State1-State2" style="stroke: #A80036; stroke-width: 0.8009153318077803;"/><polygon fill="#A80036" points="97.9267,502.6495,90.7185,499.4458,93.9221,502.6495,90.7185,505.8531,97.9267,502.6495" style="stroke: #A80036; stroke-width: 0.8009153318077803;"/><!--link *start*Configuring to NewValueSelection--><path d="M99.5978,339.034 C99.5978,345.636 99.5978,355.3554 99.5978,364.4483 " fill="none" id="*start*Configuring-NewValueSelection" style="stroke: #A80036; stroke-width: 0.8009153318077803;"/><polygon fill="#A80036" points="99.5978,368.5686,102.8015,361.3604,99.5978,364.5641,96.3942,361.3604,99.5978,368.5686" style="stroke: #A80036; stroke-width: 0.8009153318077803;"/><!--link NewValueSelection to NewValuePreview--><path d="M38.6461,404.5699 C30.4522,409.248 23.0962,415.2982 17.9045,423.1211 C11.2027,433.2192 13.1742,442.6825 19.8457,451.182 " fill="none" id="NewValueSelection-NewValuePreview" style="stroke: #A80036; stroke-width: 0.8009153318077803;"/><polygon fill="#A80036" points="22.5089,454.2692,20.2262,446.7186,19.8931,451.237,15.3747,450.9039,22.5089,454.2692" style="stroke: #A80036; stroke-width: 0.8009153318077803;"/><text fill="#000000" font-family="sans-serif" font-size="10.4119" lengthAdjust="spacingAndGlyphs" textLength="62.4714" x="18.7054" y="433.5865">EvNewValue</text><!--link NewValuePreview to NewValueSelection--><path d="M99.5978,451.0234 C99.5978,438.0422 99.5978,424.1727 99.5978,412.8195 " fill="none" id="NewValuePreview-NewValueSelection" style="stroke: #A80036; stroke-width: 0.8009153318077803;"/><polygon fill="#A80036" points="99.5978,408.7569,96.3942,415.9651,99.5978,412.7615,102.8015,415.9651,99.5978,408.7569" style="stroke: #A80036; stroke-width: 0.8009153318077803;"/><text fill="#000000" font-family="sans-serif" font-size="10.4119" lengthAdjust="spacingAndGlyphs" textLength="106.5217" x="100.3987" y="433.5865">EvNewValueRejected</text><!--link NewValuePreview to NewValueSelection--><path d="M176.5672,471.4739 C203.5252,459.9819 223.713,443.8559 208.5223,423.1211 C202.616,415.0591 184.4787,408.0072 164.656,402.4196 " fill="none" id="NewValuePreview-NewValueSelection" style="stroke: #A80036; stroke-width: 0.8009153318077803;"/><polygon fill="#A80036" points="160.6721,401.3218,166.7701,406.3255,164.5328,402.3858,168.4724,400.1484,160.6721,401.3218" style="stroke: #A80036; stroke-width: 0.8009153318077803;"/><text fill="#000000" font-family="sans-serif" font-size="10.4119" lengthAdjust="spacingAndGlyphs" textLength="94.508" x="214.1287" y="433.5865">EvNewValueSaved</text><!--link *start to NotShooting--><path d="M212.643,22.5882 C212.643,26.8645 212.643,32.471 212.643,38.5492 C212.643,41.5884 212.643,44.7455 212.643,47.9132 C212.643,49.4971 212.643,51.0836 212.643,52.6594 C212.643,52.8563 212.643,53.0531 212.643,53.2497 C212.643,53.348 212.643,53.4463 212.643,53.5445 " fill="none" id="*start-NotShooting" style="stroke: #A80036; stroke-width: 0.8009153318077803;"/><polygon fill="#A80036" points="212.643,53.5445,215.8467,46.3363,212.643,49.5399,209.4394,46.3363,212.643,53.5445" style="stroke: #A80036; stroke-width: 0.8009153318077803;"/><!--link *start*NotShooting to Idle--><path d="M170.1945,91.5981 C170.1945,110.4127 170.1945,156.8899 170.1945,185.6525 " fill="none" id="*start*NotShooting-Idle" style="stroke: #A80036; stroke-width: 0.8009153318077803;"/><polygon fill="#A80036" points="170.1945,189.7622,173.3982,182.554,170.1945,185.7577,166.9908,182.554,170.1945,189.7622" style="stroke: #A80036; stroke-width: 0.8009153318077803;"/><!--link Idle to Configuring--><path d="M174.6294,229.9108 C176.0755,237.3967 177.4916,245.9937 178.2037,253.8902 C179.1785,264.7012 179.6899,275.9222 179.8538,287.1957 " fill="none" id="Idle-Configuring" style="stroke: #A80036; stroke-width: 0.8009153318077803;"/><polygon fill="#A80036" points="179.8986,291.3507,183.0241,284.1082,179.8553,287.3464,176.6171,284.1776,179.8986,291.3507" style="stroke: #A80036; stroke-width: 0.8009153318077803;"/><text fill="#000000" font-family="sans-serif" font-size="10.4119" lengthAdjust="spacingAndGlyphs" textLength="44.0503" x="179.8055" y="264.3556">EvConfig</text><!--link Configuring to Idle--><path d="M119.3279,291.4116 C119.2,278.5797 121.1805,265.8735 126.1442,253.8902 C130.4923,243.393 138.6899,234.0931 146.8454,226.7754 " fill="none" id="Configuring-Idle" style="stroke: #A80036; stroke-width: 0.8009153318077803;"/><polygon fill="#A80036" points="150.0818,223.968,142.5375,226.2712,147.0568,226.592,146.7359,231.1113,150.0818,223.968" style="stroke: #A80036; stroke-width: 0.8009153318077803;"/><text fill="#000000" font-family="sans-serif" font-size="10.4119" lengthAdjust="spacingAndGlyphs" textLength="44.0503" x="126.9451" y="264.3556">EvConfig</text><!--
@startuml
scale 350 width
[*] - -> NotShooting

state NotShooting {
  [*] - -> Idle
  Idle - -> Configuring : EvConfig
  Configuring - -> Idle : EvConfig
}

state Configuring {
  [*] - -> NewValueSelection
  NewValueSelection - -> NewValuePreview : EvNewValue
  NewValuePreview - -> NewValueSelection : EvNewValueRejected
  NewValuePreview - -> NewValueSelection : EvNewValueSaved

  state NewValuePreview {
     State1 -> State2
  }

}
@enduml

PlantUML version 1.2019.01(Sat Feb 09 16:32:04 CET 2019)
(GPL source distribution)
Java Runtime: OpenJDK Runtime Environment
JVM: OpenJDK 64-Bit Server VM
Java Version: 11.0.1+13-Ubuntu-3ubuntu3.18.10.1
Operating System: Linux
OS Version: 4.18.0-16-generic
Default Encoding: UTF-8
Language: fr
Country: FR
--></g></svg>