<?xml version="1.0" encoding="UTF-8" standalone="no"?><svg xmlns="http://www.w3.org/2000/svg" xmlns:xlink="http://www.w3.org/1999/xlink" contentScriptType="application/ecmascript" contentStyleType="text/css" height="265px" preserveAspectRatio="none" style="width:381px;height:265px;" version="1.1" viewBox="0 0 381 265" width="381px" zoomAndPan="magnify"><defs><filter height="300%" id="f1kiccr7n0x3a3" width="300%" x="-1" y="-1"><feGaussianBlur result="blurOut" stdDeviation="2.0"/><feColorMatrix in="blurOut" result="blurOut2" type="matrix" values="0 0 0 0 0 0 0 0 0 0 0 0 0 0 0 0 0 0 .4 0"/><feOffset dx="4.0" dy="4.0" in="blurOut2" result="blurOut3"/><feBlend in="SourceGraphic" in2="blurOut3" mode="normal"/></filter></defs><g><ellipse cx="178.5" cy="18" fill="#000000" filter="url(#f1kiccr7n0x3a3)" rx="10" ry="10" style="stroke: none; stroke-width: 1.0;"/><rect fill="#FEFECE" filter="url(#f1kiccr7n0x3a3)" height="50" rx="12.5" ry="12.5" style="stroke: #A80036; stroke-width: 1.5;" width="61" x="148" y="88"/><line style="stroke: #A80036; stroke-width: 1.5;" x1="148" x2="209" y1="114.2969" y2="114.2969"/><text fill="#000000" font-family="sans-serif" font-size="14" lengthAdjust="spacingAndGlyphs" textLength="41" x="158" y="105.9951">Active</text><rect fill="#FEFECE" filter="url(#f1kiccr7n0x3a3)" height="50" rx="12.5" ry="12.5" style="stroke: #A80036; stroke-width: 1.5;" width="72" x="142.5" y="200.5"/><line style="stroke: #A80036; stroke-width: 1.5;" x1="142.5" x2="214.5" y1="226.7969" y2="226.7969"/><text fill="#000000" font-family="sans-serif" font-size="14" lengthAdjust="spacingAndGlyphs" textLength="52" x="152.5" y="218.4951">Inactive</text><path d="M6,93 L6,133.2656 A0,0 0 0 0 6,133.2656 L113,133.2656 A0,0 0 0 0 113,133.2656 L113,117 L147.9946,113 L113,109 L113,103 L103,93 L6,93 A0,0 0 0 0 6,93 " fill="#FBFB77" filter="url(#f1kiccr7n0x3a3)" style="stroke: #A80036; stroke-width: 1.0;"/><path d="M103,93 L103,103 L113,103 L103,93 " fill="#FBFB77" style="stroke: #A80036; stroke-width: 1.0;"/><text fill="#000000" font-family="sans-serif" font-size="13" lengthAdjust="spacingAndGlyphs" textLength="86" x="12" y="110.0669">this is a short</text><text fill="#000000" font-family="sans-serif" font-size="13" lengthAdjust="spacingAndGlyphs" textLength="29" x="12" y="125.1997">note</text><path d="M249.5,198 L249.5,221.5 L214.5762,225.5 L249.5,229.5 L249.5,253.3984 A0,0 0 0 0 249.5,253.3984 L369.5,253.3984 A0,0 0 0 0 369.5,253.3984 L369.5,208 L359.5,198 L249.5,198 A0,0 0 0 0 249.5,198 " fill="#FBFB77" filter="url(#f1kiccr7n0x3a3)" style="stroke: #A80036; stroke-width: 1.0;"/><path d="M359.5,198 L359.5,208 L369.5,208 L359.5,198 " fill="#FBFB77" style="stroke: #A80036; stroke-width: 1.0;"/><text fill="#000000" font-family="sans-serif" font-size="13" lengthAdjust="spacingAndGlyphs" textLength="99" x="255.5" y="215.0669">A note can also</text><text fill="#000000" font-family="sans-serif" font-size="13" lengthAdjust="spacingAndGlyphs" textLength="87" x="255.5" y="230.1997">be defined on</text><text fill="#000000" font-family="sans-serif" font-size="13" lengthAdjust="spacingAndGlyphs" textLength="79" x="255.5" y="245.3325">several lines</text><!--link *start to Active--><path d="M178.5,28.1667 C178.5,41.0299 178.5,63.7608 178.5,82.4572 " fill="none" id="*start-Active" style="stroke: #A80036; stroke-width: 1.0;"/><polygon fill="#A80036" points="178.5,87.612,182.5,78.612,178.5,82.612,174.5,78.612,178.5,87.612" style="stroke: #A80036; stroke-width: 1.0;"/><!--link Active to Inactive--><path d="M178.5,138.2472 C178.5,155.0381 178.5,177.1888 178.5,194.9699 " fill="none" id="Active-Inactive" style="stroke: #A80036; stroke-width: 1.0;"/><polygon fill="#A80036" points="178.5,200.3371,182.5,191.3371,178.5,195.3371,174.5,191.3371,178.5,200.3371" style="stroke: #A80036; stroke-width: 1.0;"/><!--
@startuml
[*] - -> Active
Active - -> Inactive

note left of Active : this is a short\nnote

note right of Inactive
  A note can also
  be defined on
  several lines
end note
@enduml

PlantUML version 1.2019.01(Sat Feb 09 16:32:04 CET 2019)
(GPL source distribution)
Java Runtime: OpenJDK Runtime Environment
JVM: OpenJDK 64-Bit Server VM
Java Version: 11.0.1+13-Ubuntu-3ubuntu3.18.10.1
Operating System: Linux
OS Version: 4.18.0-16-generic
Default Encoding: UTF-8
Language: fr
Country: FR
--></g></svg>