<?xml version="1.0" encoding="UTF-8" standalone="no"?><svg xmlns="http://www.w3.org/2000/svg" xmlns:xlink="http://www.w3.org/1999/xlink" contentScriptType="application/ecmascript" contentStyleType="text/css" height="243px" preserveAspectRatio="none" style="width:269px;height:243px;" version="1.1" viewBox="0 0 269 243" width="269px" zoomAndPan="magnify"><defs><filter height="300%" id="fkn1s88dzkkrk" width="300%" x="-1" y="-1"><feGaussianBlur result="blurOut" stdDeviation="2.0"/><feColorMatrix in="blurOut" result="blurOut2" type="matrix" values="0 0 0 0 0 0 0 0 0 0 0 0 0 0 0 0 0 0 .4 0"/><feOffset dx="4.0" dy="4.0" in="blurOut2" result="blurOut3"/><feBlend in="SourceGraphic" in2="blurOut3" mode="normal"/></filter></defs><g><ellipse cx="81.5" cy="18" fill="#000000" filter="url(#fkn1s88dzkkrk)" rx="10" ry="10" style="stroke: none; stroke-width: 1.0;"/><rect fill="#FEFECE" filter="url(#fkn1s88dzkkrk)" height="64.2344" rx="12.5" ry="12.5" style="stroke: #A80036; stroke-width: 1.5;" width="151" x="6" y="88"/><line style="stroke: #A80036; stroke-width: 1.5;" x1="6" x2="157" y1="114.2969" y2="114.2969"/><text fill="#000000" font-family="sans-serif" font-size="14" lengthAdjust="spacingAndGlyphs" textLength="45" x="59" y="105.9951">State1</text><text fill="#000000" font-family="sans-serif" font-size="12" lengthAdjust="spacingAndGlyphs" textLength="89" x="11" y="130.4355">this is a string</text><text fill="#000000" font-family="sans-serif" font-size="12" lengthAdjust="spacingAndGlyphs" textLength="131" x="11" y="144.4043">this is another string</text><ellipse cx="152.5" cy="222" fill="none" filter="url(#fkn1s88dzkkrk)" rx="10" ry="10" style="stroke: #000000; stroke-width: 1.0;"/><ellipse cx="153" cy="222.5" fill="#000000" rx="6" ry="6" style="stroke: none; stroke-width: 1.0;"/><rect fill="#FEFECE" filter="url(#fkn1s88dzkkrk)" height="50" rx="12.5" ry="12.5" style="stroke: #A80036; stroke-width: 1.5;" width="65" x="192" y="95"/><line style="stroke: #A80036; stroke-width: 1.5;" x1="192" x2="257" y1="121.2969" y2="121.2969"/><text fill="#000000" font-family="sans-serif" font-size="14" lengthAdjust="spacingAndGlyphs" textLength="45" x="202" y="112.9951">State2</text><!--link *start to State1--><path d="M81.5,28.1531 C81.5,40.7734 81.5,63.0243 81.5,82.4641 " fill="none" id="*start-State1" style="stroke: #A80036; stroke-width: 1.0;"/><polygon fill="#A80036" points="81.5,87.8622,85.5,78.8622,81.5,82.8622,77.5,78.8622,81.5,87.8622" style="stroke: #A80036; stroke-width: 1.0;"/><!--link State1 to *end--><path d="M103.9648,152.2734 C117.397,171.5703 133.7204,195.0209 143.5999,209.2139 " fill="none" id="State1-*end" style="stroke: #A80036; stroke-width: 1.0;"/><polygon fill="#A80036" points="146.6898,213.6529,144.831,203.981,143.8333,209.5492,138.2651,208.5515,146.6898,213.6529" style="stroke: #A80036; stroke-width: 1.0;"/><!--link State1 to State2--><path d="M157.1895,120 C167.0412,120 176.8929,120 186.7446,120 " fill="none" id="State1-State2" style="stroke: #A80036; stroke-width: 1.0;"/><polygon fill="#A80036" points="191.8965,120,182.8965,116,186.8965,120,182.8965,124,191.8965,120" style="stroke: #A80036; stroke-width: 1.0;"/><!--link State2 to *end--><path d="M206.7022,145.2135 C192.2378,165.7048 172.4531,193.7331 161.2238,209.6412 " fill="none" id="State2-*end" style="stroke: #A80036; stroke-width: 1.0;"/><polygon fill="#A80036" points="158.295,213.7904,166.753,208.7444,161.1784,209.7056,160.2173,204.131,158.295,213.7904" style="stroke: #A80036; stroke-width: 1.0;"/><!--
@startuml
[*] - -> State1
State1 - -> [*]
State1 : this is a string
State1 : this is another string

State1 -> State2
State2 - -> [*]
@enduml

PlantUML version 1.2019.01(Sat Feb 09 16:32:04 CET 2019)
(GPL source distribution)
Java Runtime: OpenJDK Runtime Environment
JVM: OpenJDK 64-Bit Server VM
Java Version: 11.0.1+13-Ubuntu-3ubuntu3.18.10.1
Operating System: Linux
OS Version: 4.18.0-16-generic
Default Encoding: UTF-8
Language: fr
Country: FR
--></g></svg>