<?xml version="1.0" encoding="UTF-8" standalone="no"?><svg xmlns="http://www.w3.org/2000/svg" xmlns:xlink="http://www.w3.org/1999/xlink" contentScriptType="application/ecmascript" contentStyleType="text/css" height="179px" preserveAspectRatio="none" style="width:213px;height:179px;" version="1.1" viewBox="0 0 213 179" width="213px" zoomAndPan="magnify"><defs><filter height="300%" id="f1qvojb8ew468u" width="300%" x="-1" y="-1"><feGaussianBlur result="blurOut" stdDeviation="2.0"/><feColorMatrix in="blurOut" result="blurOut2" type="matrix" values="0 0 0 0 0 0 0 0 0 0 0 0 0 0 0 0 0 0 .4 0"/><feOffset dx="4.0" dy="4.0" in="blurOut2" result="blurOut3"/><feBlend in="SourceGraphic" in2="blurOut3" mode="normal"/></filter></defs><g><ellipse cx="16" cy="143" fill="#000000" filter="url(#f1qvojb8ew468u)" rx="10" ry="10" style="stroke: none; stroke-width: 1.0;"/><rect fill="#FEFECE" filter="url(#f1qvojb8ew468u)" height="50" rx="12.5" ry="12.5" style="stroke: #A80036; stroke-width: 1.5;" width="50" x="21" y="8"/><line style="stroke: #A80036; stroke-width: 1.5;" x1="21" x2="71" y1="34.2969" y2="34.2969"/><text fill="#000000" font-family="sans-serif" font-size="14" lengthAdjust="spacingAndGlyphs" textLength="29" x="31.5" y="25.9951">First</text><rect fill="#FEFECE" filter="url(#f1qvojb8ew468u)" height="50" rx="12.5" ry="12.5" style="stroke: #A80036; stroke-width: 1.5;" width="73" x="121.5" y="8"/><line style="stroke: #A80036; stroke-width: 1.5;" x1="121.5" x2="194.5" y1="34.2969" y2="34.2969"/><text fill="#000000" font-family="sans-serif" font-size="14" lengthAdjust="spacingAndGlyphs" textLength="53" x="131.5" y="25.9951">Second</text><rect fill="#FEFECE" filter="url(#f1qvojb8ew468u)" height="50" rx="12.5" ry="12.5" style="stroke: #A80036; stroke-width: 1.5;" width="55" x="146.5" y="118"/><line style="stroke: #A80036; stroke-width: 1.5;" x1="146.5" x2="201.5" y1="144.2969" y2="144.2969"/><text fill="#000000" font-family="sans-serif" font-size="14" lengthAdjust="spacingAndGlyphs" textLength="35" x="156.5" y="135.9951">Third</text><rect fill="#FEFECE" filter="url(#f1qvojb8ew468u)" height="50" rx="12.5" ry="12.5" style="stroke: #A80036; stroke-width: 1.5;" width="50" x="61" y="118"/><line style="stroke: #A80036; stroke-width: 1.5;" x1="61" x2="111" y1="144.2969" y2="144.2969"/><text fill="#000000" font-family="sans-serif" font-size="14" lengthAdjust="spacingAndGlyphs" textLength="28" x="72" y="135.9951">Last</text><!--link First to *start--><path d="M37.7853,63.1205 C31.3836,86.5934 22.8928,117.7264 18.65,133.2835 " fill="none" id="First-*start" style="stroke: #A80036; stroke-width: 1.0;"/><polygon fill="#A80036" points="39.1174,58.2362,32.8903,65.8666,37.8018,63.06,40.6084,67.9715,39.1174,58.2362" style="stroke: #A80036; stroke-width: 1.0;"/><!--link First to Second--><path d="M71.375,33 C86.3729,33 101.3709,33 116.3688,33 " fill="none" id="First-Second" style="stroke: #A80036; stroke-width: 1.0;"/><polygon fill="#A80036" points="121.4551,33,112.4551,29,116.4551,33,112.4551,37,121.4551,33" style="stroke: #A80036; stroke-width: 1.0;"/><!--link Second to Third--><path d="M161.6707,58.2362 C164.0286,74.4464 167.1044,95.5926 169.594,112.7087 " fill="none" id="Second-Third" style="stroke: #A80036; stroke-width: 1.0;"/><polygon fill="#A80036" points="170.3464,117.8812,173.009,108.3991,169.6266,112.9333,165.0924,109.5508,170.3464,117.8812" style="stroke: #A80036; stroke-width: 1.0;"/><!--link Last to Third--><path d="M116.3462,143 C126.3903,143 136.4344,143 146.4785,143 " fill="none" id="Last-Third" style="stroke: #A80036; stroke-width: 1.0;"/><polygon fill="#A80036" points="111.0938,143,120.0938,147,116.0938,143,120.0938,139,111.0938,143" style="stroke: #A80036; stroke-width: 1.0;"/><!--
@startuml
[*] -up-> First
First -right-> Second
Second - -> Third
Third -left-> Last
@enduml

PlantUML version 1.2019.01(Sat Feb 09 16:32:04 CET 2019)
(GPL source distribution)
Java Runtime: OpenJDK Runtime Environment
JVM: OpenJDK 64-Bit Server VM
Java Version: 11.0.1+13-Ubuntu-3ubuntu3.18.10.1
Operating System: Linux
OS Version: 4.18.0-16-generic
Default Encoding: UTF-8
Language: fr
Country: FR
--></g></svg>