<?xml version="1.0" encoding="UTF-8" standalone="no"?><svg xmlns="http://www.w3.org/2000/svg" xmlns:xlink="http://www.w3.org/1999/xlink" contentScriptType="application/ecmascript" contentStyleType="text/css" height="1498.2659px" preserveAspectRatio="none" style="width:786px;height:1498px;" version="1.1" viewBox="0 0 786 1498" width="786.1272px" zoomAndPan="magnify"><defs><filter height="300%" id="fz6n29ug0bb6p" width="300%" x="-1" y="-1"><feGaussianBlur result="blurOut" stdDeviation="4.624277456647399"/><feColorMatrix in="blurOut" result="blurOut2" type="matrix" values="0 0 0 0 0 0 0 0 0 0 0 0 0 0 0 0 0 0 .4 0"/><feOffset dx="9.248554913294798" dy="9.248554913294798" in="blurOut2" result="blurOut3"/><feBlend in="SourceGraphic" in2="blurOut3" mode="normal"/></filter></defs><g><ellipse cx="386.1272" cy="41.6185" fill="#000000" filter="url(#fz6n29ug0bb6p)" rx="23.1214" ry="23.1214" style="stroke: none; stroke-width: 2.3121387283236996;"/><rect fill="#FEFECE" filter="url(#fz6n29ug0bb6p)" height="1270.0506" rx="28.9017" ry="28.9017" style="stroke: #A80036; stroke-width: 3.4682080924855496;" width="744.5087" x="13.8728" y="203.4682"/><rect fill="#FFFFFF" height="1195.3757" rx="28.9017" ry="28.9017" style="stroke: #FFFFFF; stroke-width: 2.3121387283236996;" width="730.6358" x="20.8092" y="271.2066"/><line style="stroke: #A80036; stroke-width: 3.4682080924855496;" x1="13.8728" x2="758.3815" y1="264.2702" y2="264.2702"/><text fill="#000000" font-family="sans-serif" font-size="32.3699" lengthAdjust="spacingAndGlyphs" textLength="94.7977" x="338.7283" y="245.0754">Active</text><ellipse cx="62.4277" cy="352.1315" fill="#000000" filter="url(#fz6n29ug0bb6p)" rx="23.1214" ry="23.1214" style="stroke: none; stroke-width: 2.3121387283236996;"/><rect fill="#FEFECE" filter="url(#fz6n29ug0bb6p)" height="115.6069" rx="28.9017" ry="28.9017" style="stroke: #A80036; stroke-width: 3.4682080924855496;" width="238.1503" x="128.3237" y="294.328"/><line style="stroke: #A80036; stroke-width: 3.4682080924855496;" x1="128.3237" x2="366.474" y1="355.1301" y2="355.1301"/><text fill="#000000" font-family="sans-serif" font-size="32.3699" lengthAdjust="spacingAndGlyphs" textLength="191.9075" x="151.4451" y="335.9352">NumLockOff</text><rect fill="#FEFECE" filter="url(#fz6n29ug0bb6p)" height="115.6069" rx="28.9017" ry="28.9017" style="stroke: #A80036; stroke-width: 3.4682080924855496;" width="240.4624" x="127.1676" y="532.4783"/><line style="stroke: #A80036; stroke-width: 3.4682080924855496;" x1="127.1676" x2="367.6301" y1="593.2803" y2="593.2803"/><text fill="#000000" font-family="sans-serif" font-size="32.3699" lengthAdjust="spacingAndGlyphs" textLength="194.2197" x="150.289" y="574.0855">NumLockOn</text><!--link *start*Active to NumLockOff--><path d="M85.5491,352.1315 C95.6976,352.1315 105.8462,352.1315 115.9947,352.1315 " fill="none" id="*start*Active-NumLockOff" style="stroke: #A80036; stroke-width: 2.3121387283236996;"/><polygon fill="#A80036" points="127.9082,352.1315,107.099,342.8829,116.3475,352.1315,107.099,361.3801,127.9082,352.1315" style="stroke: #A80036; stroke-width: 2.3121387283236996;"/><!--link NumLockOff to NumLockOn--><path d="M127.7988,397.9532 C86.1064,421.4314 54.5556,453.0744 76.3006,490.8598 C86.2342,508.1209 100.4421,522.6628 116.4793,534.8316 " fill="none" id="NumLockOff-NumLockOn" style="stroke: #A80036; stroke-width: 2.3121387283236996;"/><polygon fill="#A80036" points="126.6793,542.1049,115.1058,522.4933,117.2665,535.3931,104.3668,537.5538,126.6793,542.1049" style="stroke: #A80036; stroke-width: 2.3121387283236996;"/><text fill="#000000" font-family="sans-serif" font-size="30.0578" lengthAdjust="spacingAndGlyphs" textLength="291.3295" x="78.6127" y="481.7659">EvNumLockPressed</text><!--link NumLockOn to NumLockOff--><path d="M344.1658,532.396 C369.6992,509.3972 386.6053,481.326 372.2543,451.5535 C366.5431,439.7049 358.6571,428.8321 349.5991,418.9803 " fill="none" id="NumLockOn-NumLockOff" style="stroke: #A80036; stroke-width: 2.3121387283236996;"/><polygon fill="#A80036" points="340.9799,410.2214,348.9829,431.5407,349.0884,418.4617,362.1674,418.5671,340.9799,410.2214" style="stroke: #A80036; stroke-width: 2.3121387283236996;"/><text fill="#000000" font-family="sans-serif" font-size="30.0578" lengthAdjust="spacingAndGlyphs" textLength="291.3295" x="379.1908" y="481.7659">EvNumLockPressed</text><line style="stroke: #A80036; stroke-width: 3.4682080924855496; stroke-dasharray: 8.0,10.0;" x1="25.4335" x2="742.1965" y1="671.2066" y2="671.2066"/><ellipse cx="62.4277" cy="747.5072" fill="#000000" filter="url(#fz6n29ug0bb6p)" rx="23.1214" ry="23.1214" style="stroke: none; stroke-width: 2.3121387283236996;"/><rect fill="#FEFECE" filter="url(#fz6n29ug0bb6p)" height="115.6069" rx="28.9017" ry="28.9017" style="stroke: #A80036; stroke-width: 3.4682080924855496;" width="245.0867" x="127.1676" y="689.7038"/><line style="stroke: #A80036; stroke-width: 3.4682080924855496;" x1="127.1676" x2="372.2543" y1="750.5058" y2="750.5058"/><text fill="#000000" font-family="sans-serif" font-size="32.3699" lengthAdjust="spacingAndGlyphs" textLength="198.8439" x="150.289" y="731.311">CapsLockOff</text><rect fill="#FEFECE" filter="url(#fz6n29ug0bb6p)" height="115.6069" rx="28.9017" ry="28.9017" style="stroke: #A80036; stroke-width: 3.4682080924855496;" width="247.3988" x="126.0116" y="927.854"/><line style="stroke: #A80036; stroke-width: 3.4682080924855496;" x1="126.0116" x2="373.4104" y1="988.6561" y2="988.6561"/><text fill="#000000" font-family="sans-serif" font-size="32.3699" lengthAdjust="spacingAndGlyphs" textLength="201.1561" x="149.1329" y="969.4613">CapsLockOn</text><!--link *start*CONC13 to CapsLockOff--><path d="M85.8382,747.5072 C95.44,747.5072 105.0421,747.5072 114.6439,747.5072 " fill="none" id="*start*CONC13-CapsLockOff" style="stroke: #A80036; stroke-width: 2.3121387283236996;"/><polygon fill="#A80036" points="126.8065,747.5072,105.9972,738.2587,115.2458,747.5072,105.9972,756.7558,126.8065,747.5072" style="stroke: #A80036; stroke-width: 2.3121387283236996;"/><!--link CapsLockOff to CapsLockOn--><path d="M126.5182,795.9886 C106.4351,809.4374 88.3045,826.2101 76.3006,846.9292 C56.6906,880.7766 79.8638,909.5856 114.988,932.0335 " fill="none" id="CapsLockOff-CapsLockOn" style="stroke: #A80036; stroke-width: 2.3121387283236996;"/><polygon fill="#A80036" points="125.1861,938.1951,112.1582,919.518,115.2913,932.2166,102.5927,935.3497,125.1861,938.1951" style="stroke: #A80036; stroke-width: 2.3121387283236996;"/><text fill="#000000" font-family="sans-serif" font-size="30.0578" lengthAdjust="spacingAndGlyphs" textLength="293.6416" x="78.6127" y="877.1417">EvCapsLockPressed</text><!--link CapsLockOn to CapsLockOff--><path d="M343.292,927.5676 C355.9373,915.5225 367.1068,901.7112 374.5665,886.2355 C387.1235,860.1845 375.7494,835.4362 355.6044,814.2487 " fill="none" id="CapsLockOn-CapsLockOff" style="stroke: #A80036; stroke-width: 2.3121387283236996;"/><polygon fill="#A80036" points="346.4779,805.393,354.972,826.5215,354.7748,813.4435,367.8528,813.2464,346.4779,805.393" style="stroke: #A80036; stroke-width: 2.3121387283236996;"/><text fill="#000000" font-family="sans-serif" font-size="30.0578" lengthAdjust="spacingAndGlyphs" textLength="293.6416" x="383.815" y="877.1417">EvCapsLockPressed</text><line style="stroke: #A80036; stroke-width: 3.4682080924855496; stroke-dasharray: 8.0,10.0;" x1="25.4335" x2="742.1965" y1="1066.5824" y2="1066.5824"/><ellipse cx="62.4277" cy="1142.8829" fill="#000000" filter="url(#fz6n29ug0bb6p)" rx="23.1214" ry="23.1214" style="stroke: none; stroke-width: 2.3121387283236996;"/><rect fill="#FEFECE" filter="url(#fz6n29ug0bb6p)" height="115.6069" rx="28.9017" ry="28.9017" style="stroke: #A80036; stroke-width: 3.4682080924855496;" width="249.711" x="127.1676" y="1085.0795"/><line style="stroke: #A80036; stroke-width: 3.4682080924855496;" x1="127.1676" x2="376.8786" y1="1145.8815" y2="1145.8815"/><text fill="#000000" font-family="sans-serif" font-size="32.3699" lengthAdjust="spacingAndGlyphs" textLength="203.4682" x="150.289" y="1126.6867">ScrollLockOff</text><rect fill="#FEFECE" filter="url(#fz6n29ug0bb6p)" height="115.6069" rx="28.9017" ry="28.9017" style="stroke: #A80036; stroke-width: 3.4682080924855496;" width="252.0231" x="126.0116" y="1323.2298"/><line style="stroke: #A80036; stroke-width: 3.4682080924855496;" x1="126.0116" x2="378.0347" y1="1384.0318" y2="1384.0318"/><text fill="#000000" font-family="sans-serif" font-size="32.3699" lengthAdjust="spacingAndGlyphs" textLength="205.7803" x="149.1329" y="1364.837">ScrollLockOn</text><!--link *start*CONC21 to ScrollLockOff--><path d="M86.1272,1142.8829 C95.6957,1142.8829 105.2643,1142.8829 114.8328,1142.8829 " fill="none" id="*start*CONC21-ScrollLockOff" style="stroke: #A80036; stroke-width: 2.3121387283236996;"/><polygon fill="#A80036" points="126.9531,1142.8829,106.1438,1133.6344,115.3924,1142.8829,106.1438,1152.1315,126.9531,1142.8829" style="stroke: #A80036; stroke-width: 2.3121387283236996;"/><!--link ScrollLockOff to ScrollLockOn--><path d="M127.0888,1192.5421 C107.7015,1205.7886 90.2687,1222.1865 78.6127,1242.3049 C59.3561,1275.5424 81.3549,1303.9216 115.4134,1326.1895 " fill="none" id="ScrollLockOff-ScrollLockOn" style="stroke: #A80036; stroke-width: 2.3121387283236996;"/><polygon fill="#A80036" points="125.3151,1332.3072,112.473,1313.5019,115.4801,1326.231,102.751,1329.2381,125.3151,1332.3072" style="stroke: #A80036; stroke-width: 2.3121387283236996;"/><text fill="#000000" font-family="sans-serif" font-size="30.0578" lengthAdjust="spacingAndGlyphs" textLength="293.6416" x="80.9249" y="1272.5174">EvCapsLockPressed</text><!--link ScrollLockOn to ScrollLockOff--><path d="M345.6042,1322.9433 C358.2495,1310.8982 369.419,1297.0869 376.8786,1281.6113 C389.4356,1255.5602 378.0615,1230.812 357.9165,1209.6245 " fill="none" id="ScrollLockOn-ScrollLockOff" style="stroke: #A80036; stroke-width: 2.3121387283236996;"/><polygon fill="#A80036" points="348.7901,1200.7687,357.2841,1221.8972,357.087,1208.8192,370.1649,1208.6221,348.7901,1200.7687" style="stroke: #A80036; stroke-width: 2.3121387283236996;"/><text fill="#000000" font-family="sans-serif" font-size="30.0578" lengthAdjust="spacingAndGlyphs" textLength="293.6416" x="386.1272" y="1272.5174">EvCapsLockPressed</text><!--link *start to Active--><path d="M386.1272,65.4571 C386.1272,91.0735 386.1272,135.6541 386.1272,190.9108 " fill="none" id="*start-Active" style="stroke: #A80036; stroke-width: 2.3121387283236996;"/><polygon fill="#A80036" points="386.1272,202.861,395.3757,182.0518,386.1272,191.3003,376.8786,182.0518,386.1272,202.861" style="stroke: #A80036; stroke-width: 2.3121387283236996;"/><!--
@startuml
scale 800 width

[*] - -> Active

state Active {
  [*] -> NumLockOff
  NumLockOff - -> NumLockOn : EvNumLockPressed
  NumLockOn - -> NumLockOff : EvNumLockPressed
  - -
  [*] -> CapsLockOff
  CapsLockOff - -> CapsLockOn : EvCapsLockPressed
  CapsLockOn - -> CapsLockOff : EvCapsLockPressed
  - -
  [*] -> ScrollLockOff
  ScrollLockOff - -> ScrollLockOn : EvCapsLockPressed
  ScrollLockOn - -> ScrollLockOff : EvCapsLockPressed
}
@enduml

PlantUML version 1.2019.01(Sat Feb 09 16:32:04 CET 2019)
(GPL source distribution)
Java Runtime: OpenJDK Runtime Environment
JVM: OpenJDK 64-Bit Server VM
Java Version: 11.0.1+13-Ubuntu-3ubuntu3.18.10.1
Operating System: Linux
OS Version: 4.18.0-16-generic
Default Encoding: UTF-8
Language: fr
Country: FR
--></g></svg>