<?xml version="1.0" encoding="UTF-8" standalone="no"?><svg xmlns="http://www.w3.org/2000/svg" xmlns:xlink="http://www.w3.org/1999/xlink" contentScriptType="application/ecmascript" contentStyleType="text/css" height="303px" preserveAspectRatio="none" style="width:506px;height:303px;" version="1.1" viewBox="0 0 506 303" width="506px" zoomAndPan="magnify"><defs><filter height="300%" id="fostasm35lccv" width="300%" x="-1" y="-1"><feGaussianBlur result="blurOut" stdDeviation="2.0"/><feColorMatrix in="blurOut" result="blurOut2" type="matrix" values="0 0 0 0 0 0 0 0 0 0 0 0 0 0 0 0 0 0 .4 0"/><feOffset dx="4.0" dy="4.0" in="blurOut2" result="blurOut3"/><feBlend in="SourceGraphic" in2="blurOut3" mode="normal"/></filter></defs><g><!--entity Admin--><ellipse cx="277" cy="18" fill="#FEFECE" filter="url(#fostasm35lccv)" rx="8" ry="8" style="stroke: #A80036; stroke-width: 2.0;"/><path d="M277,26 L277,53 M264,34 L290,34 M277,53 L264,68 M277,53 L290,68 " fill="none" filter="url(#fostasm35lccv)" style="stroke: #A80036; stroke-width: 2.0;"/><text fill="#000000" font-family="sans-serif" font-size="14" lengthAdjust="spacingAndGlyphs" textLength="79" x="237.5" y="87.9951">Main Admin</text><ellipse cx="142.0624" cy="271.0125" fill="#FEFECE" filter="url(#fostasm35lccv)" rx="80.5624" ry="18.5125" style="stroke: #A80036; stroke-width: 1.5;"/><text fill="#000000" font-family="sans-serif" font-size="14" lengthAdjust="spacingAndGlyphs" textLength="132" x="76.0624" y="275.6609">Use the application</text><!--entity User--><ellipse cx="22" cy="18" fill="#FEFECE" filter="url(#fostasm35lccv)" rx="8" ry="8" style="stroke: #A80036; stroke-width: 2.0;"/><path d="M22,26 L22,53 M9,34 L35,34 M22,53 L9,68 M22,53 L35,68 " fill="none" filter="url(#fostasm35lccv)" style="stroke: #A80036; stroke-width: 2.0;"/><text fill="#000000" font-family="sans-serif" font-size="14" lengthAdjust="spacingAndGlyphs" textLength="32" x="6" y="87.9951">User</text><ellipse cx="113.1274" cy="49.5236" fill="#FEFECE" filter="url(#fostasm35lccv)" rx="25.6274" ry="14.5236" style="stroke: #A80036; stroke-width: 1.5;"/><text fill="#000000" font-family="sans-serif" font-size="14" lengthAdjust="spacingAndGlyphs" textLength="32" x="97.1274" y="54.1721">Start</text><path d="M351.5,37 L351.5,45.5 L316.6367,49.5 L351.5,53.5 L351.5,62.1328 A0,0 0 0 0 351.5,62.1328 L494.5,62.1328 A0,0 0 0 0 494.5,62.1328 L494.5,47 L484.5,37 L351.5,37 A0,0 0 0 0 351.5,37 " fill="#FBFB77" filter="url(#fostasm35lccv)" style="stroke: #A80036; stroke-width: 1.0;"/><path d="M484.5,37 L484.5,47 L494.5,47 L484.5,37 " fill="#FBFB77" style="stroke: #A80036; stroke-width: 1.0;"/><text fill="#000000" font-family="sans-serif" font-size="13" lengthAdjust="spacingAndGlyphs" textLength="122" x="357.5" y="54.0669">This is an example.</text><path d="M258,251 L258,267 L222.6484,271 L258,275 L258,291.2656 A0,0 0 0 0 258,291.2656 L398,291.2656 A0,0 0 0 0 398,291.2656 L398,261 L388,251 L258,251 A0,0 0 0 0 258,251 " fill="#FBFB77" filter="url(#fostasm35lccv)" style="stroke: #A80036; stroke-width: 1.0;"/><path d="M388,251 L388,261 L398,261 L388,251 " fill="#FBFB77" style="stroke: #A80036; stroke-width: 1.0;"/><text fill="#000000" font-family="sans-serif" font-size="13" lengthAdjust="spacingAndGlyphs" textLength="99" x="264" y="268.0669">A note can also</text><text fill="#000000" font-family="sans-serif" font-size="13" lengthAdjust="spacingAndGlyphs" textLength="119" x="264" y="283.1997">be on several lines</text><path d="M60,151 L60,191.2656 L224,191.2656 L224,161 L214,151 L60,151 " fill="#FBFB77" filter="url(#fostasm35lccv)" style="stroke: #A80036; stroke-width: 1.0;"/><path d="M214,151 L214,161 L224,161 L214,151 " fill="#FBFB77" style="stroke: #A80036; stroke-width: 1.0;"/><text fill="#000000" font-family="sans-serif" font-size="13" lengthAdjust="spacingAndGlyphs" textLength="143" x="66" y="168.0669">This note is connected</text><text fill="#000000" font-family="sans-serif" font-size="13" lengthAdjust="spacingAndGlyphs" textLength="117" x="66" y="183.1997">to several objects.</text><!--link User to Start--><path d="M38.3516,49.5 C52.8949,49.5 67.4382,49.5 81.9815,49.5 " fill="none" id="User-Start" style="stroke: #A80036; stroke-width: 1.0;"/><polygon fill="#A80036" points="87.3396,49.5,78.3396,45.5,82.3396,49.5,78.3396,53.5,87.3396,49.5" style="stroke: #A80036; stroke-width: 1.0;"/><!--link User to Use--><path d="M20.3864,91.1036 C21.0178,120.7603 25.6236,160.598 43,191 C57.5977,216.5403 83.7848,237.1513 105.5604,251.0531 " fill="none" id="User-Use" style="stroke: #A80036; stroke-width: 1.0;"/><polygon fill="#A80036" points="109.852,253.7434,104.3512,245.5739,105.6156,251.0876,100.1019,252.352,109.852,253.7434" style="stroke: #A80036; stroke-width: 1.0;"/><!--link Admin to Use--><path d="M273.8004,91.3139 C269.8974,121.0723 261.2331,160.9453 242,191 C225.934,216.1056 199.2707,236.8559 177.5153,250.9275 " fill="none" id="Admin-Use" style="stroke: #A80036; stroke-width: 1.0;"/><polygon fill="#A80036" points="173.2342,253.6521,182.9746,252.1944,177.4524,250.9675,178.6792,245.4453,173.2342,253.6521" style="stroke: #A80036; stroke-width: 1.0;"/><!--link Start to N2--><path d="M116.4406,63.9148 C121.6018,85.5385 131.3655,126.4453 137.2173,150.9623 " fill="none" id="Start-N2" style="stroke: #A80036; stroke-width: 1.0; stroke-dasharray: 7.0,7.0;"/><!--link N2 to Use--><path d="M142,191.2365 C142,209.1568 142,235.0969 142,252.4799 " fill="none" id="N2-Use" style="stroke: #A80036; stroke-width: 1.0; stroke-dasharray: 7.0,7.0;"/><!--
@startuml
:Main Admin: as Admin
(Use the application) as (Use)

User -> (Start)
User - -> (Use)

Admin - - -> (Use)

note right of Admin : This is an example.

note right of (Use)
A note can also
be on several lines
end note

note "This note is connected\nto several objects." as N2
(Start) .. N2
N2 .. (Use)
@enduml

PlantUML version 1.2019.01(Sat Feb 09 16:32:04 CET 2019)
(GPL source distribution)
Java Runtime: OpenJDK Runtime Environment
JVM: OpenJDK 64-Bit Server VM
Java Version: 11.0.1+13-Ubuntu-3ubuntu3.18.10.1
Operating System: Linux
OS Version: 4.18.0-16-generic
Default Encoding: UTF-8
Language: fr
Country: FR
--></g></svg>