<?xml version="1.0" encoding="UTF-8" standalone="no"?><svg xmlns="http://www.w3.org/2000/svg" xmlns:xlink="http://www.w3.org/1999/xlink" contentScriptType="application/ecmascript" contentStyleType="text/css" height="360px" preserveAspectRatio="none" style="width:285px;height:360px;" version="1.1" viewBox="0 0 285 360" width="285px" zoomAndPan="magnify"><defs><filter height="300%" id="fzh3ovipbi636" width="300%" x="-1" y="-1"><feGaussianBlur result="blurOut" stdDeviation="2.0"/><feColorMatrix in="blurOut" result="blurOut2" type="matrix" values="0 0 0 0 0 0 0 0 0 0 0 0 0 0 0 0 0 0 .4 0"/><feOffset dx="4.0" dy="4.0" in="blurOut2" result="blurOut3"/><feBlend in="SourceGraphic" in2="blurOut3" mode="normal"/></filter></defs><g><!--entity User--><ellipse cx="22" cy="162" fill="#FEFECE" filter="url(#fzh3ovipbi636)" rx="8" ry="8" style="stroke: #A80036; stroke-width: 2.0;"/><path d="M22,170 L22,197 M9,178 L35,178 M22,197 L9,212 M22,197 L35,212 " fill="none" filter="url(#fzh3ovipbi636)" style="stroke: #A80036; stroke-width: 2.0;"/><text fill="#000000" font-family="sans-serif" font-size="14" lengthAdjust="spacingAndGlyphs" textLength="32" x="6" y="231.9951">User</text><ellipse cx="99.1274" cy="193.5236" fill="#FEFECE" filter="url(#fzh3ovipbi636)" rx="25.6274" ry="14.5236" style="stroke: #A80036; stroke-width: 1.5;"/><text fill="#000000" font-family="sans-serif" font-size="14" lengthAdjust="spacingAndGlyphs" textLength="32" x="83.1274" y="198.1721">Start</text><ellipse cx="109.0624" cy="330.5125" fill="#FEFECE" filter="url(#fzh3ovipbi636)" rx="80.5624" ry="18.5125" style="stroke: #A80036; stroke-width: 1.5;"/><text fill="#000000" font-family="sans-serif" font-size="14" lengthAdjust="spacingAndGlyphs" textLength="132" x="43.0624" y="335.1609">Use the application</text><!--entity Main Admin--><ellipse cx="195" cy="18" fill="#FEFECE" filter="url(#fzh3ovipbi636)" rx="8" ry="8" style="stroke: #A80036; stroke-width: 2.0;"/><path d="M195,26 L195,53 M182,34 L208,34 M195,53 L182,68 M195,53 L208,68 " fill="none" filter="url(#fzh3ovipbi636)" style="stroke: #A80036; stroke-width: 2.0;"/><text fill="#000000" font-family="sans-serif" font-size="14" lengthAdjust="spacingAndGlyphs" textLength="79" x="155.5" y="87.9951">Main Admin</text><!--link User to Start--><path d="M38.2422,193.5 C48.2127,193.5 58.1833,193.5 68.1538,193.5 " fill="none" id="User-Start" style="stroke: #A80036; stroke-width: 1.0;"/><polygon fill="#A80036" points="73.3678,193.5,64.3678,189.5,68.3678,193.5,64.3678,197.5,73.3678,193.5" style="stroke: #A80036; stroke-width: 1.0;"/><!--link User to Use the application--><path d="M38.1601,218.9476 C54.2589,244.2985 78.7592,282.8794 94.3182,307.3803 " fill="none" id="User-Use the application" style="stroke: #A80036; stroke-width: 1.0;"/><polygon fill="#A80036" points="97.1153,311.785,95.6672,302.0432,94.4349,307.5642,88.9139,306.3318,97.1153,311.785" style="stroke: #A80036; stroke-width: 1.0;"/><text fill="#000000" font-family="sans-serif" font-size="13" lengthAdjust="spacingAndGlyphs" textLength="81" x="77" y="278.0669">A small label</text><!--link Main Admin to Use the application--><path d="M198.8726,91.3143 C201.4631,140.1117 199.6695,221.7858 167,282 C161.0847,292.9028 151.6331,302.3651 142.0622,309.9647 " fill="none" id="Main Admin-Use the application" style="stroke: #A80036; stroke-width: 1.0;"/><polygon fill="#A80036" points="137.963,313.1064,147.5395,310.8065,141.9315,310.0649,142.6731,304.4568,137.963,313.1064" style="stroke: #A80036; stroke-width: 1.0;"/><text fill="#000000" font-family="sans-serif" font-size="13" lengthAdjust="spacingAndGlyphs" textLength="39" x="216.5" y="183.0669">This is</text><text fill="#000000" font-family="sans-serif" font-size="13" lengthAdjust="spacingAndGlyphs" textLength="74" x="199" y="198.1997">yet another</text><text fill="#000000" font-family="sans-serif" font-size="13" lengthAdjust="spacingAndGlyphs" textLength="30" x="221" y="213.3325">label</text><!--
@startuml
User -> (Start)
User - -> (Use the application) : A small label

:Main Admin: - - -> (Use the application) : This is\nyet another\nlabel
@enduml

PlantUML version 1.2019.01(Sat Feb 09 16:32:04 CET 2019)
(GPL source distribution)
Java Runtime: OpenJDK Runtime Environment
JVM: OpenJDK 64-Bit Server VM
Java Version: 11.0.1+13-Ubuntu-3ubuntu3.18.10.1
Operating System: Linux
OS Version: 4.18.0-16-generic
Default Encoding: UTF-8
Language: fr
Country: FR
--></g></svg>