<?xml version="1.0" encoding="UTF-8" standalone="no"?><svg xmlns="http://www.w3.org/2000/svg" xmlns:xlink="http://www.w3.org/1999/xlink" contentScriptType="application/ecmascript" contentStyleType="text/css" height="244px" preserveAspectRatio="none" style="width:292px;height:244px;" version="1.1" viewBox="0 0 292 244" width="292px" zoomAndPan="magnify"><defs><filter height="300%" id="fizysp7dz4teu" width="300%" x="-1" y="-1"><feGaussianBlur result="blurOut" stdDeviation="2.0"/><feColorMatrix in="blurOut" result="blurOut2" type="matrix" values="0 0 0 0 0 0 0 0 0 0 0 0 0 0 0 0 0 0 .4 0"/><feOffset dx="4.0" dy="4.0" in="blurOut2" result="blurOut3"/><feBlend in="SourceGraphic" in2="blurOut3" mode="normal"/></filter></defs><g><!--entity Admin--><ellipse cx="45.5" cy="161" fill="#FEFECE" filter="url(#fizysp7dz4teu)" rx="8" ry="8" style="stroke: #A80036; stroke-width: 2.0;"/><path d="M45.5,169 L45.5,196 M32.5,177 L58.5,177 M45.5,196 L32.5,211 M45.5,196 L58.5,211 " fill="none" filter="url(#fizysp7dz4teu)" style="stroke: #A80036; stroke-width: 2.0;"/><text fill="#000000" font-family="sans-serif" font-size="14" lengthAdjust="spacingAndGlyphs" textLength="79" x="6" y="230.9951">Main Admin</text><ellipse cx="200.5624" cy="192.5125" fill="#FEFECE" filter="url(#fizysp7dz4teu)" rx="80.5624" ry="18.5125" style="stroke: #A80036; stroke-width: 1.5;"/><text fill="#000000" font-family="sans-serif" font-size="14" lengthAdjust="spacingAndGlyphs" textLength="132" x="134.5624" y="197.1609">Use the application</text><!--entity User--><ellipse cx="45.5" cy="18" fill="#FEFECE" filter="url(#fizysp7dz4teu)" rx="8" ry="8" style="stroke: #A80036; stroke-width: 2.0;"/><path d="M45.5,26 L45.5,53 M32.5,34 L58.5,34 M45.5,53 L32.5,68 M45.5,53 L58.5,68 " fill="none" filter="url(#fizysp7dz4teu)" style="stroke: #A80036; stroke-width: 2.0;"/><text fill="#000000" font-family="sans-serif" font-size="14" lengthAdjust="spacingAndGlyphs" textLength="32" x="29.5" y="87.9951">User</text><ellipse cx="200.6274" cy="49.5236" fill="#FEFECE" filter="url(#fizysp7dz4teu)" rx="25.6274" ry="14.5236" style="stroke: #A80036; stroke-width: 1.5;"/><text fill="#000000" font-family="sans-serif" font-size="14" lengthAdjust="spacingAndGlyphs" textLength="32" x="184.6274" y="54.1721">Start</text><!--link User to Admin--><path d="M45.5,111.5407 C45.5,124.8623 45.5,138.6298 45.5,150.9494 " fill="none" id="User-Admin" style="stroke: #A80036; stroke-width: 1.0;"/><polygon fill="none" points="38.5001,111.246,45.5,91.2459,52.5001,111.2459,38.5001,111.246" style="stroke: #A80036; stroke-width: 1.0;"/><!--link Start to Use--><path d="M200.5,84.4699 C200.5,112.5421 200.5,150.8862 200.5,173.5361 " fill="none" id="Start-Use" style="stroke: #A80036; stroke-width: 1.0;"/><polygon fill="none" points="193.5001,84.2649,200.5,64.2649,207.5001,84.2649,193.5001,84.2649" style="stroke: #A80036; stroke-width: 1.0;"/><!--
@startuml
:Main Admin: as Admin
(Use the application) as (Use)

User <|- - Admin
(Start) <|- - (Use)
@enduml

PlantUML version 1.2019.01(Sat Feb 09 16:32:04 CET 2019)
(GPL source distribution)
Java Runtime: OpenJDK Runtime Environment
JVM: OpenJDK 64-Bit Server VM
Java Version: 11.0.1+13-Ubuntu-3ubuntu3.18.10.1
Operating System: Linux
OS Version: 4.18.0-16-generic
Default Encoding: UTF-8
Language: fr
Country: FR
--></g></svg>