<?xml version="1.0" encoding="UTF-8" standalone="no"?><svg xmlns="http://www.w3.org/2000/svg" xmlns:xlink="http://www.w3.org/1999/xlink" contentScriptType="application/ecmascript" contentStyleType="text/css" height="226px" preserveAspectRatio="none" style="width:370px;height:226px;" version="1.1" viewBox="0 0 370 226" width="370px" zoomAndPan="magnify"><defs><filter height="300%" id="f1t9yq4gb0cbgu" width="300%" x="-1" y="-1"><feGaussianBlur result="blurOut" stdDeviation="2.0"/><feColorMatrix in="blurOut" result="blurOut2" type="matrix" values="0 0 0 0 0 0 0 0 0 0 0 0 0 0 0 0 0 0 .4 0"/><feOffset dx="4.0" dy="4.0" in="blurOut2" result="blurOut3"/><feBlend in="SourceGraphic" in2="blurOut3" mode="normal"/></filter></defs><g><!--entity User--><ellipse cx="40" cy="34.2969" fill="#FEFECE" filter="url(#f1t9yq4gb0cbgu)" rx="8" ry="8" style="stroke: #A80036; stroke-width: 2.0;"/><path d="M40,42.2969 L40,69.2969 M27,50.2969 L53,50.2969 M40,69.2969 L27,84.2969 M40,69.2969 L53,84.2969 " fill="none" filter="url(#f1t9yq4gb0cbgu)" style="stroke: #A80036; stroke-width: 2.0;"/><text fill="#000000" font-family="sans-serif" font-size="14" lengthAdjust="spacingAndGlyphs" textLength="32" x="24" y="104.292">User</text><text fill="#000000" font-family="sans-serif" font-size="14" font-style="italic" lengthAdjust="spacingAndGlyphs" textLength="68" x="6" y="20.9951">«Human»</text><!--entity MySql--><ellipse cx="307" cy="34.2969" fill="#FEFECE" filter="url(#f1t9yq4gb0cbgu)" rx="8" ry="8" style="stroke: #A80036; stroke-width: 2.0;"/><path d="M307,42.2969 L307,69.2969 M294,50.2969 L320,50.2969 M307,69.2969 L294,84.2969 M307,69.2969 L320,84.2969 " fill="none" filter="url(#f1t9yq4gb0cbgu)" style="stroke: #A80036; stroke-width: 2.0;"/><text fill="#000000" font-family="sans-serif" font-size="14" lengthAdjust="spacingAndGlyphs" textLength="102" x="256" y="104.292">Main Database</text><text fill="#000000" font-family="sans-serif" font-size="14" font-style="italic" lengthAdjust="spacingAndGlyphs" textLength="94" x="260" y="20.9951">«Application»</text><ellipse cx="164.8147" cy="58.2401" fill="#FEFECE" filter="url(#f1t9yq4gb0cbgu)" rx="55.8147" ry="23.7401" style="stroke: #A80036; stroke-width: 1.5;"/><text fill="#000000" font-family="sans-serif" font-size="14" font-style="italic" lengthAdjust="spacingAndGlyphs" textLength="83" x="123.3147" y="58.2087">«One Shot»</text><text fill="#000000" font-family="sans-serif" font-size="14" lengthAdjust="spacingAndGlyphs" textLength="32" x="148.8147" y="74.5056">Start</text><ellipse cx="172.9418" cy="191.7271" fill="#FEFECE" filter="url(#f1t9yq4gb0cbgu)" rx="86.9418" ry="23.7271" style="stroke: #A80036; stroke-width: 1.5;"/><text fill="#000000" font-family="sans-serif" font-size="14" font-style="italic" lengthAdjust="spacingAndGlyphs" textLength="50" x="147.9418" y="184.7375">«Main»</text><text fill="#000000" font-family="sans-serif" font-size="14" lengthAdjust="spacingAndGlyphs" textLength="132" x="106.9418" y="201.0343">Use the application</text><!--link User to Start--><path d="M74.1797,58 C84.0485,58 93.9173,58 103.7861,58 " fill="none" id="User-Start" style="stroke: #A80036; stroke-width: 1.0;"/><polygon fill="#A80036" points="108.9468,58,99.9468,54,103.9468,58,99.9468,62,108.9468,58" style="stroke: #A80036; stroke-width: 1.0;"/><!--link User to Use--><path d="M74.2508,92.3796 C96.7125,114.9257 125.6509,143.9729 146.3851,164.7851 " fill="none" id="User-Use" style="stroke: #A80036; stroke-width: 1.0;"/><polygon fill="#A80036" points="150.1578,168.5719,146.6395,159.3729,146.6289,165.0297,140.9721,165.0191,150.1578,168.5719" style="stroke: #A80036; stroke-width: 1.0;"/><!--link MySql to Use--><path d="M256.7221,108.0903 C237.2522,127.4875 215.7697,148.8899 199.4407,165.1579 " fill="none" id="MySql-Use" style="stroke: #A80036; stroke-width: 1.0;"/><polygon fill="#A80036" points="195.8274,168.7578,205.0264,165.2395,199.3696,165.2289,199.3802,159.5721,195.8274,168.7578" style="stroke: #A80036; stroke-width: 1.0;"/><!--
@startuml
User << Human >>
:Main Database: as MySql << Application >>
(Start) << One Shot >>
(Use the application) as (Use) << Main >>

User -> (Start)
User - -> (Use)

MySql - -> (Use)
@enduml

PlantUML version 1.2019.01(Sat Feb 09 16:32:04 CET 2019)
(GPL source distribution)
Java Runtime: OpenJDK Runtime Environment
JVM: OpenJDK 64-Bit Server VM
Java Version: 11.0.1+13-Ubuntu-3ubuntu3.18.10.1
Operating System: Linux
OS Version: 4.18.0-16-generic
Default Encoding: UTF-8
Language: fr
Country: FR
--></g></svg>