<?xml version="1.0" encoding="UTF-8" standalone="no"?><svg xmlns="http://www.w3.org/2000/svg" xmlns:xlink="http://www.w3.org/1999/xlink" contentScriptType="application/ecmascript" contentStyleType="text/css" height="191px" preserveAspectRatio="none" style="width:270px;height:191px;" version="1.1" viewBox="0 0 270 191" width="270px" zoomAndPan="magnify"><defs><filter height="300%" id="fc1d8x41dvjha" width="300%" x="-1" y="-1"><feGaussianBlur result="blurOut" stdDeviation="2.0"/><feColorMatrix in="blurOut" result="blurOut2" type="matrix" values="0 0 0 0 0 0 0 0 0 0 0 0 0 0 0 0 0 0 .4 0"/><feOffset dx="4.0" dy="4.0" in="blurOut2" result="blurOut3"/><feBlend in="SourceGraphic" in2="blurOut3" mode="normal"/></filter></defs><g><!--entity user1--><ellipse cx="60.5" cy="18" fill="#FEFECE" filter="url(#fc1d8x41dvjha)" rx="8" ry="8" style="stroke: #A80036; stroke-width: 2.0;"/><path d="M60.5,26 L60.5,53 M47.5,34 L73.5,34 M60.5,53 L47.5,68 M60.5,53 L73.5,68 " fill="none" filter="url(#fc1d8x41dvjha)" style="stroke: #A80036; stroke-width: 2.0;"/><text fill="#000000" font-family="sans-serif" font-size="14" lengthAdjust="spacingAndGlyphs" textLength="40" x="40.5" y="87.9951">user1</text><ellipse cx="60.6188" cy="165.5236" fill="#FEFECE" filter="url(#fc1d8x41dvjha)" rx="54.6188" ry="14.5236" style="stroke: #A80036; stroke-width: 1.5;"/><text fill="#000000" font-family="sans-serif" font-size="14" lengthAdjust="spacingAndGlyphs" textLength="73" x="24.1188" y="170.1721">Usecase 1</text><!--entity user2--><ellipse cx="204.5" cy="18" fill="#FEFECE" filter="url(#fc1d8x41dvjha)" rx="8" ry="8" style="stroke: #A80036; stroke-width: 2.0;"/><path d="M204.5,26 L204.5,53 M191.5,34 L217.5,34 M204.5,53 L191.5,68 M204.5,53 L217.5,68 " fill="none" filter="url(#fc1d8x41dvjha)" style="stroke: #A80036; stroke-width: 2.0;"/><text fill="#000000" font-family="sans-serif" font-size="14" lengthAdjust="spacingAndGlyphs" textLength="40" x="184.5" y="87.9951">user2</text><ellipse cx="204.6188" cy="165.5236" fill="#FEFECE" filter="url(#fc1d8x41dvjha)" rx="54.6188" ry="14.5236" style="stroke: #A80036; stroke-width: 1.5;"/><text fill="#000000" font-family="sans-serif" font-size="14" lengthAdjust="spacingAndGlyphs" textLength="73" x="168.1188" y="170.1721">Usecase 2</text><!--link user1 to Usecase 1--><path d="M60.5,91.051 C60.5,109.5788 60.5,130.5479 60.5,145.4996 " fill="none" id="user1-Usecase 1" style="stroke: #A80036; stroke-width: 1.0;"/><polygon fill="#A80036" points="60.5,150.7202,64.5,141.7202,60.5,145.7202,56.5,141.7202,60.5,150.7202" style="stroke: #A80036; stroke-width: 1.0;"/><!--link user2 to Usecase 2--><path d="M204.5,91.051 C204.5,109.5788 204.5,130.5479 204.5,145.4996 " fill="none" id="user2-Usecase 2" style="stroke: #A80036; stroke-width: 1.0;"/><polygon fill="#A80036" points="204.5,150.7202,208.5,141.7202,204.5,145.7202,200.5,141.7202,204.5,150.7202" style="stroke: #A80036; stroke-width: 1.0;"/><!--
@startuml
top to bottom direction

user1 - -> (Usecase 1)
user2 - -> (Usecase 2)
@enduml

PlantUML version 1.2019.01(Sat Feb 09 16:32:04 CET 2019)
(GPL source distribution)
Java Runtime: OpenJDK Runtime Environment
JVM: OpenJDK 64-Bit Server VM
Java Version: 11.0.1+13-Ubuntu-3ubuntu3.18.10.1
Operating System: Linux
OS Version: 4.18.0-16-generic
Default Encoding: UTF-8
Language: fr
Country: FR
--></g></svg>