<?xml version="1.0" encoding="UTF-8" standalone="no"?><svg xmlns="http://www.w3.org/2000/svg" xmlns:xlink="http://www.w3.org/1999/xlink" contentScriptType="application/ecmascript" contentStyleType="text/css" height="219px" preserveAspectRatio="none" style="width:226px;height:219px;" version="1.1" viewBox="0 0 226 219" width="226px" zoomAndPan="magnify"><defs><filter height="300%" id="f1whdn6u7pk7k9" width="300%" x="-1" y="-1"><feGaussianBlur result="blurOut" stdDeviation="2.0"/><feColorMatrix in="blurOut" result="blurOut2" type="matrix" values="0 0 0 0 0 0 0 0 0 0 0 0 0 0 0 0 0 0 .4 0"/><feOffset dx="4.0" dy="4.0" in="blurOut2" result="blurOut3"/><feBlend in="SourceGraphic" in2="blurOut3" mode="normal"/></filter></defs><g><!--entity user1--><ellipse cx="26" cy="136" fill="#FEFECE" filter="url(#f1whdn6u7pk7k9)" rx="8" ry="8" style="stroke: #A80036; stroke-width: 2.0;"/><path d="M26,144 L26,171 M13,152 L39,152 M26,171 L13,186 M26,171 L39,186 " fill="none" filter="url(#f1whdn6u7pk7k9)" style="stroke: #A80036; stroke-width: 2.0;"/><text fill="#000000" font-family="sans-serif" font-size="14" lengthAdjust="spacingAndGlyphs" textLength="40" x="6" y="205.9951">user1</text><ellipse cx="160.6188" cy="167.5236" fill="#FEFECE" filter="url(#f1whdn6u7pk7k9)" rx="54.6188" ry="14.5236" style="stroke: #A80036; stroke-width: 1.5;"/><text fill="#000000" font-family="sans-serif" font-size="14" lengthAdjust="spacingAndGlyphs" textLength="73" x="124.1188" y="172.1721">Usecase 1</text><!--entity user2--><ellipse cx="26" cy="18" fill="#FEFECE" filter="url(#f1whdn6u7pk7k9)" rx="8" ry="8" style="stroke: #A80036; stroke-width: 2.0;"/><path d="M26,26 L26,53 M13,34 L39,34 M26,53 L13,68 M26,53 L39,68 " fill="none" filter="url(#f1whdn6u7pk7k9)" style="stroke: #A80036; stroke-width: 2.0;"/><text fill="#000000" font-family="sans-serif" font-size="14" lengthAdjust="spacingAndGlyphs" textLength="40" x="6" y="87.9951">user2</text><ellipse cx="160.6188" cy="49.5236" fill="#FEFECE" filter="url(#f1whdn6u7pk7k9)" rx="54.6188" ry="14.5236" style="stroke: #A80036; stroke-width: 1.5;"/><text fill="#000000" font-family="sans-serif" font-size="14" lengthAdjust="spacingAndGlyphs" textLength="73" x="124.1188" y="54.1721">Usecase 2</text><!--link user1 to Usecase 1--><path d="M46.136,167.5 C60.6049,167.5 80.921,167.5 100.4232,167.5 " fill="none" id="user1-Usecase 1" style="stroke: #A80036; stroke-width: 1.0;"/><polygon fill="#A80036" points="105.8967,167.5,96.8967,163.5,100.8967,167.5,96.8967,171.5,105.8967,167.5" style="stroke: #A80036; stroke-width: 1.0;"/><!--link user2 to Usecase 2--><path d="M46.136,49.5 C60.6049,49.5 80.921,49.5 100.4232,49.5 " fill="none" id="user2-Usecase 2" style="stroke: #A80036; stroke-width: 1.0;"/><polygon fill="#A80036" points="105.8967,49.5,96.8967,45.5,100.8967,49.5,96.8967,53.5,105.8967,49.5" style="stroke: #A80036; stroke-width: 1.0;"/><!--
@startuml
left to right direction

user1 - -> (Usecase 1)
user2 - -> (Usecase 2)
@enduml

PlantUML version 1.2019.01(Sat Feb 09 16:32:04 CET 2019)
(GPL source distribution)
Java Runtime: OpenJDK Runtime Environment
JVM: OpenJDK 64-Bit Server VM
Java Version: 11.0.1+13-Ubuntu-3ubuntu3.18.10.1
Operating System: Linux
OS Version: 4.18.0-16-generic
Default Encoding: UTF-8
Language: fr
Country: FR
--></g></svg>