<?xml version="1.0" encoding="UTF-8" standalone="no"?><svg xmlns="http://www.w3.org/2000/svg" xmlns:xlink="http://www.w3.org/1999/xlink" contentScriptType="application/ecmascript" contentStyleType="text/css" height="255px" preserveAspectRatio="none" style="width:337px;height:255px;" version="1.1" viewBox="0 0 337 255" width="337px" zoomAndPan="magnify"><defs><filter height="300%" id="fon8tl8aklkvo" width="300%" x="-1" y="-1"><feGaussianBlur result="blurOut" stdDeviation="2.0"/><feColorMatrix in="blurOut" result="blurOut2" type="matrix" values="0 0 0 0 0 0 0 0 0 0 0 0 0 0 0 0 0 0 .4 0"/><feOffset dx="4.0" dy="4.0" in="blurOut2" result="blurOut3"/><feBlend in="SourceGraphic" in2="blurOut3" mode="normal"/></filter></defs><g><!--cluster checkout--><polygon fill="#FFFFFF" filter="url(#fon8tl8aklkvo)" points="125,16,204,16,211,38.2969,239,38.2969,239,243,125,243,125,16" style="stroke: #000000; stroke-width: 1.5;"/><line style="stroke: #000000; stroke-width: 1.5;" x1="125" x2="211" y1="38.2969" y2="38.2969"/><text fill="#000000" font-family="sans-serif" font-size="14" font-weight="bold" lengthAdjust="spacingAndGlyphs" textLength="73" x="129" y="30.9951">checkout</text><ellipse cx="181.9619" cy="139.0236" fill="#FEFECE" filter="url(#fon8tl8aklkvo)" rx="48.9619" ry="14.5236" style="stroke: #A80036; stroke-width: 1.5;"/><text fill="#000000" font-family="sans-serif" font-size="14" lengthAdjust="spacingAndGlyphs" textLength="65" x="149.4619" y="143.6721">checkout</text><ellipse cx="181.9264" cy="58.0236" fill="#FEFECE" filter="url(#fon8tl8aklkvo)" rx="45.4264" ry="14.5236" style="stroke: #A80036; stroke-width: 1.5;"/><text fill="#000000" font-family="sans-serif" font-size="14" lengthAdjust="spacingAndGlyphs" textLength="60" x="151.9264" y="62.6721">payment</text><ellipse cx="182.2132" cy="220.0236" fill="#FEFECE" filter="url(#fon8tl8aklkvo)" rx="24.2132" ry="14.5236" style="stroke: #A80036; stroke-width: 1.5;"/><text fill="#000000" font-family="sans-serif" font-size="14" lengthAdjust="spacingAndGlyphs" textLength="30" x="167.2132" y="224.6721">help</text><!--entity customer--><ellipse cx="39" cy="107.5" fill="#FEFECE" filter="url(#fon8tl8aklkvo)" rx="8" ry="8" style="stroke: #A80036; stroke-width: 2.0;"/><path d="M39,115.5 L39,142.5 M26,123.5 L52,123.5 M39,142.5 L26,157.5 M39,142.5 L52,157.5 " fill="none" filter="url(#fon8tl8aklkvo)" style="stroke: #A80036; stroke-width: 2.0;"/><text fill="#000000" font-family="sans-serif" font-size="14" lengthAdjust="spacingAndGlyphs" textLength="66" x="6" y="177.4951">customer</text><!--entity clerk--><ellipse cx="308.5" cy="107.5" fill="#FEFECE" filter="url(#fon8tl8aklkvo)" rx="8" ry="8" style="stroke: #A80036; stroke-width: 2.0;"/><path d="M308.5,115.5 L308.5,142.5 M295.5,123.5 L321.5,123.5 M308.5,142.5 L295.5,157.5 M308.5,142.5 L321.5,157.5 " fill="none" filter="url(#fon8tl8aklkvo)" style="stroke: #A80036; stroke-width: 2.0;"/><text fill="#000000" font-family="sans-serif" font-size="14" lengthAdjust="spacingAndGlyphs" textLength="33" x="292" y="177.4951">clerk</text><!--link customer to checkout--><path d="M72.1665,139 C90.1531,139 112.7346,139 132.7375,139 " fill="none" id="customer-checkout" style="stroke: #A80036; stroke-width: 1.0;"/><!--link checkout to payment--><path d="M182,124.1434 C182,111.1269 182,92.1069 182,77.8003 " fill="none" id="checkout-payment" style="stroke: #A80036; stroke-width: 1.0; stroke-dasharray: 7.0,7.0;"/><polygon fill="#A80036" points="182,72.7625,178,81.7625,182,77.7625,186,81.7625,182,72.7625" style="stroke: #A80036; stroke-width: 1.0;"/><text fill="#000000" font-family="sans-serif" font-size="13" lengthAdjust="spacingAndGlyphs" textLength="22" x="159.5" y="103.0669">&lt;&gt;</text><!--link help to checkout--><path d="M182,205.1434 C182,192.1269 182,173.1069 182,158.8003 " fill="none" id="help-checkout" style="stroke: #A80036; stroke-width: 1.0; stroke-dasharray: 7.0,7.0;"/><polygon fill="#A80036" points="182,153.7625,178,162.7625,182,158.7625,186,162.7625,182,153.7625" style="stroke: #A80036; stroke-width: 1.0;"/><text fill="#000000" font-family="sans-serif" font-size="13" lengthAdjust="spacingAndGlyphs" textLength="22" x="159.5" y="184.0669">&lt;&gt;</text><!--link checkout to clerk--><path d="M231.2704,139 C252.7761,139 276.5515,139 291.9644,139 " fill="none" id="checkout-clerk" style="stroke: #A80036; stroke-width: 1.0;"/><!--
@startuml
left to right direction
skinparam packageStyle rect

actor customer
actor clerk
package checkout {
customer - - (checkout)
(checkout) .> (payment) : <>
(help) .> (checkout) : <>
(checkout) - - clerk
}
@enduml

PlantUML version 1.2019.01(Sat Feb 09 16:32:04 CET 2019)
(GPL source distribution)
Java Runtime: OpenJDK Runtime Environment
JVM: OpenJDK 64-Bit Server VM
Java Version: 11.0.1+13-Ubuntu-3ubuntu3.18.10.1
Operating System: Linux
OS Version: 4.18.0-16-generic
Default Encoding: UTF-8
Language: fr
Country: FR
--></g></svg>