<?xml version="1.0" encoding="UTF-8" standalone="no"?><svg xmlns="http://www.w3.org/2000/svg" xmlns:xlink="http://www.w3.org/1999/xlink" contentScriptType="application/ecmascript" contentStyleType="text/css" height="261px" preserveAspectRatio="none" style="width:177px;height:261px;" version="1.1" viewBox="0 0 177 261" width="177px" zoomAndPan="magnify"><defs><filter height="300%" id="f2qcu3s1hfb7l" width="300%" x="-1" y="-1"><feGaussianBlur result="blurOut" stdDeviation="2.0"/><feColorMatrix in="blurOut" result="blurOut2" type="matrix" values="0 0 0 0 0 0 0 0 0 0 0 0 0 0 0 0 0 0 .4 0"/><feOffset dx="4.0" dy="4.0" in="blurOut2" result="blurOut3"/><feBlend in="SourceGraphic" in2="blurOut3" mode="normal"/></filter></defs><g><!--entity First Actor--><ellipse cx="40.5" cy="26.5" fill="#FEFECE" filter="url(#f2qcu3s1hfb7l)" rx="8" ry="8" style="stroke: #A80036; stroke-width: 2.0;"/><path d="M40.5,34.5 L40.5,61.5 M27.5,42.5 L53.5,42.5 M40.5,61.5 L27.5,76.5 M40.5,61.5 L53.5,76.5 " fill="none" filter="url(#f2qcu3s1hfb7l)" style="stroke: #A80036; stroke-width: 2.0;"/><text fill="#000000" font-family="sans-serif" font-size="14" lengthAdjust="spacingAndGlyphs" textLength="69" x="6" y="96.4951">First Actor</text><!--entity Men2--><ellipse cx="137.5" cy="18" fill="#FEFECE" filter="url(#f2qcu3s1hfb7l)" rx="8" ry="8" style="stroke: #A80036; stroke-width: 2.0;"/><path d="M137.5,26 L137.5,53 M124.5,34 L150.5,34 M137.5,53 L124.5,68 M137.5,53 L150.5,68 " fill="none" filter="url(#f2qcu3s1hfb7l)" style="stroke: #A80036; stroke-width: 2.0;"/><text fill="#000000" font-family="sans-serif" font-size="14" lengthAdjust="spacingAndGlyphs" textLength="55" x="110" y="87.9951">Another</text><text fill="#000000" font-family="sans-serif" font-size="14" lengthAdjust="spacingAndGlyphs" textLength="35" x="110" y="104.292">actor</text><!--entity Men3--><ellipse cx="40.5" cy="178" fill="#FEFECE" filter="url(#f2qcu3s1hfb7l)" rx="8" ry="8" style="stroke: #A80036; stroke-width: 2.0;"/><path d="M40.5,186 L40.5,213 M27.5,194 L53.5,194 M40.5,213 L27.5,228 M40.5,213 L53.5,228 " fill="none" filter="url(#f2qcu3s1hfb7l)" style="stroke: #A80036; stroke-width: 2.0;"/><text fill="#000000" font-family="sans-serif" font-size="14" lengthAdjust="spacingAndGlyphs" textLength="39" x="21" y="247.9951">Men3</text><!--entity Men4--><ellipse cx="128.5" cy="178" fill="#FEFECE" filter="url(#f2qcu3s1hfb7l)" rx="8" ry="8" style="stroke: #A80036; stroke-width: 2.0;"/><path d="M128.5,186 L128.5,213 M115.5,194 L141.5,194 M128.5,213 L115.5,228 M128.5,213 L141.5,228 " fill="none" filter="url(#f2qcu3s1hfb7l)" style="stroke: #A80036; stroke-width: 2.0;"/><text fill="#000000" font-family="sans-serif" font-size="14" lengthAdjust="spacingAndGlyphs" textLength="67" x="95" y="247.9951">Last actor</text><!--link First Actor to Men2--><!--link First Actor to Men3--><!--link Men3 to Men4--><!--
@startuml
:First Actor:
:Another\nactor: as Men2
actor Men3
actor :Last actor: as Men4
@enduml

PlantUML version 1.2019.01(Sat Feb 09 16:32:04 CET 2019)
(GPL source distribution)
Java Runtime: OpenJDK Runtime Environment
JVM: OpenJDK 64-Bit Server VM
Java Version: 11.0.1+13-Ubuntu-3ubuntu3.18.10.1
Operating System: Linux
OS Version: 4.18.0-16-generic
Default Encoding: UTF-8
Language: fr
Country: FR
--></g></svg>