<?xml version="1.0" encoding="UTF-8" standalone="no"?><svg xmlns="http://www.w3.org/2000/svg" xmlns:xlink="http://www.w3.org/1999/xlink" contentScriptType="application/ecmascript" contentStyleType="text/css" height="191px" preserveAspectRatio="none" style="width:239px;height:191px;" version="1.1" viewBox="0 0 239 191" width="239px" zoomAndPan="magnify"><defs><filter height="300%" id="f1a3psxa30bkuw" width="300%" x="-1" y="-1"><feGaussianBlur result="blurOut" stdDeviation="2.0"/><feColorMatrix in="blurOut" result="blurOut2" type="matrix" values="0 0 0 0 0 0 0 0 0 0 0 0 0 0 0 0 0 0 .4 0"/><feOffset dx="4.0" dy="4.0" in="blurOut2" result="blurOut3"/><feBlend in="SourceGraphic" in2="blurOut3" mode="normal"/></filter></defs><g><!--entity user--><ellipse cx="63.5" cy="18" fill="#FEFECE" filter="url(#f1a3psxa30bkuw)" rx="8" ry="8" style="stroke: #A80036; stroke-width: 2.0;"/><path d="M63.5,26 L63.5,53 M50.5,34 L76.5,34 M63.5,53 L50.5,68 M63.5,53 L76.5,68 " fill="none" filter="url(#f1a3psxa30bkuw)" style="stroke: #A80036; stroke-width: 2.0;"/><text fill="#000000" font-family="sans-serif" font-size="14" lengthAdjust="spacingAndGlyphs" textLength="31" x="48" y="87.9951">user</text><ellipse cx="63.4472" cy="165.5236" fill="#FEFECE" filter="url(#f1a3psxa30bkuw)" rx="57.4472" ry="14.5236" style="stroke: #A80036; stroke-width: 1.5;"/><text fill="#000000" font-family="sans-serif" font-size="14" lengthAdjust="spacingAndGlyphs" textLength="77" x="24.9472" y="170.1721">Use case 1</text><ellipse cx="171.4472" cy="49.5236" fill="#FEFECE" filter="url(#f1a3psxa30bkuw)" rx="57.4472" ry="14.5236" style="stroke: #A80036; stroke-width: 1.5;"/><text fill="#000000" font-family="sans-serif" font-size="14" lengthAdjust="spacingAndGlyphs" textLength="77" x="132.9472" y="54.1721">Use case 2</text><!--link user to Use case 1--><path d="M63.5,91.051 C63.5,109.5788 63.5,130.5479 63.5,145.4996 " fill="none" id="user-Use case 1" style="stroke: #A80036; stroke-width: 1.0;"/><polygon fill="#A80036" points="63.5,150.7202,67.5,141.7202,63.5,145.7202,59.5,141.7202,63.5,150.7202" style="stroke: #A80036; stroke-width: 1.0;"/><!--link user to Use case 2--><path d="M79.1094,49.5 C88.9439,49.5 98.7785,49.5 108.613,49.5 " fill="none" id="user-Use case 2" style="stroke: #A80036; stroke-width: 1.0;"/><polygon fill="#A80036" points="113.7559,49.5,104.7559,45.5,108.7559,49.5,104.7559,53.5,113.7559,49.5" style="stroke: #A80036; stroke-width: 1.0;"/><!--
@startuml
:user: - -> (Use case 1)
:user: -> (Use case 2)
@enduml

PlantUML version 1.2019.01(Sat Feb 09 16:32:04 CET 2019)
(GPL source distribution)
Java Runtime: OpenJDK Runtime Environment
JVM: OpenJDK 64-Bit Server VM
Java Version: 11.0.1+13-Ubuntu-3ubuntu3.18.10.1
Operating System: Linux
OS Version: 4.18.0-16-generic
Default Encoding: UTF-8
Language: fr
Country: FR
--></g></svg>