<?xml version="1.0" encoding="UTF-8" standalone="no"?><svg xmlns="http://www.w3.org/2000/svg" xmlns:xlink="http://www.w3.org/1999/xlink" contentScriptType="application/ecmascript" contentStyleType="text/css" height="281px" preserveAspectRatio="none" style="width:356px;height:281px;" version="1.1" viewBox="0 0 356 281" width="356px" zoomAndPan="magnify"><defs><filter height="300%" id="fgk9x5go3mcn2" width="300%" x="-1" y="-1"><feGaussianBlur result="blurOut" stdDeviation="2.0"/><feColorMatrix in="blurOut" result="blurOut2" type="matrix" values="0 0 0 0 0 0 0 0 0 0 0 0 0 0 0 0 0 0 .4 0"/><feOffset dx="4.0" dy="4.0" in="blurOut2" result="blurOut3"/><feBlend in="SourceGraphic" in2="blurOut3" mode="normal"/></filter></defs><g><!--entity user--><ellipse cx="169.5" cy="107" fill="#FEFECE" filter="url(#fgk9x5go3mcn2)" rx="8" ry="8" style="stroke: #A80036; stroke-width: 2.0;"/><path d="M169.5,115 L169.5,142 M156.5,123 L182.5,123 M169.5,142 L156.5,157 M169.5,142 L182.5,157 " fill="none" filter="url(#fgk9x5go3mcn2)" style="stroke: #A80036; stroke-width: 2.0;"/><text fill="#000000" font-family="sans-serif" font-size="14" lengthAdjust="spacingAndGlyphs" textLength="31" x="154" y="176.9951">user</text><ellipse cx="62.7401" cy="138.5236" fill="#FEFECE" filter="url(#fgk9x5go3mcn2)" rx="56.7401" ry="14.5236" style="stroke: #A80036; stroke-width: 1.5;"/><text fill="#000000" font-family="sans-serif" font-size="14" lengthAdjust="spacingAndGlyphs" textLength="76" x="24.7401" y="143.1721">dummyLeft</text><ellipse cx="282.6001" cy="138.42" fill="#FEFECE" filter="url(#fgk9x5go3mcn2)" rx="62.6001" ry="14.92" style="stroke: #A80036; stroke-width: 1.5;"/><text fill="#000000" font-family="sans-serif" font-size="14" lengthAdjust="spacingAndGlyphs" textLength="87" x="239.1001" y="143.0685">dummyRight</text><ellipse cx="169.4975" cy="22.5236" fill="#FEFECE" filter="url(#fgk9x5go3mcn2)" rx="52.4975" ry="14.5236" style="stroke: #A80036; stroke-width: 1.5;"/><text fill="#000000" font-family="sans-serif" font-size="14" lengthAdjust="spacingAndGlyphs" textLength="70" x="134.4975" y="27.1721">dummyUp</text><ellipse cx="169.5752" cy="255.215" fill="#FEFECE" filter="url(#fgk9x5go3mcn2)" rx="64.0752" ry="15.215" style="stroke: #A80036; stroke-width: 1.5;"/><text fill="#000000" font-family="sans-serif" font-size="14" lengthAdjust="spacingAndGlyphs" textLength="91" x="124.0752" y="259.8635">dummyDown</text><!--link dummyLeft to user--><path d="M124.4622,138.5 C134.2502,138.5 144.0382,138.5 153.8262,138.5 " fill="none" id="dummyLeft-user" style="stroke: #A80036; stroke-width: 1.0;"/><polygon fill="#A80036" points="119.3438,138.5,128.3438,142.5,124.3438,138.5,128.3438,134.5,119.3438,138.5" style="stroke: #A80036; stroke-width: 1.0;"/><!--link user to dummyRight--><path d="M185.3906,138.5 C195.1891,138.5 204.9875,138.5 214.786,138.5 " fill="none" id="user-dummyRight" style="stroke: #A80036; stroke-width: 1.0;"/><polygon fill="#A80036" points="219.91,138.5,210.91,134.5,214.91,138.5,210.91,142.5,219.91,138.5" style="stroke: #A80036; stroke-width: 1.0;"/><!--link dummyUp to user--><path d="M169.5,42.3964 C169.5,57.3063 169.5,78.2422 169.5,96.7686 " fill="none" id="dummyUp-user" style="stroke: #A80036; stroke-width: 1.0;"/><polygon fill="#A80036" points="169.5,37.1915,165.5,46.1915,169.5,42.1915,173.5,46.1915,169.5,37.1915" style="stroke: #A80036; stroke-width: 1.0;"/><!--link user to dummyDown--><path d="M169.5,180.2301 C169.5,198.7214 169.5,219.6341 169.5,234.6311 " fill="none" id="user-dummyDown" style="stroke: #A80036; stroke-width: 1.0;"/><polygon fill="#A80036" points="169.5,239.8733,173.5,230.8733,169.5,234.8733,165.5,230.8733,169.5,239.8733" style="stroke: #A80036; stroke-width: 1.0;"/><!--
@startuml
:user: -left-> (dummyLeft)
:user: -right-> (dummyRight)
:user: -up-> (dummyUp)
:user: -down-> (dummyDown)
@enduml

PlantUML version 1.2019.01(Sat Feb 09 16:32:04 CET 2019)
(GPL source distribution)
Java Runtime: OpenJDK Runtime Environment
JVM: OpenJDK 64-Bit Server VM
Java Version: 11.0.1+13-Ubuntu-3ubuntu3.18.10.1
Operating System: Linux
OS Version: 4.18.0-16-generic
Default Encoding: UTF-8
Language: fr
Country: FR
--></g></svg>