<?xml version="1.0" encoding="UTF-8" standalone="no"?><svg xmlns="http://www.w3.org/2000/svg" xmlns:xlink="http://www.w3.org/1999/xlink" contentScriptType="application/ecmascript" contentStyleType="text/css" height="190px" preserveAspectRatio="none" style="width:239px;height:190px;" version="1.1" viewBox="0 0 239 190" width="239px" zoomAndPan="magnify"><defs><filter height="300%" id="fh0enda5fconq" width="300%" x="-1" y="-1"><feGaussianBlur result="blurOut" stdDeviation="2.0"/><feColorMatrix in="blurOut" result="blurOut2" type="matrix" values="0 0 0 0 0 0 0 0 0 0 0 0 0 0 0 0 0 0 .4 0"/><feOffset dx="4.0" dy="4.0" in="blurOut2" result="blurOut3"/><feBlend in="SourceGraphic" in2="blurOut3" mode="normal"/></filter></defs><g><ellipse cx="171.4472" cy="22.5236" fill="#FEFECE" filter="url(#fh0enda5fconq)" rx="57.4472" ry="14.5236" style="stroke: #A80036; stroke-width: 1.5;"/><text fill="#000000" font-family="sans-serif" font-size="14" lengthAdjust="spacingAndGlyphs" textLength="77" x="132.9472" y="27.1721">Use case 1</text><!--entity user--><ellipse cx="171.5" cy="107" fill="#FEFECE" filter="url(#fh0enda5fconq)" rx="8" ry="8" style="stroke: #A80036; stroke-width: 2.0;"/><path d="M171.5,115 L171.5,142 M158.5,123 L184.5,123 M171.5,142 L158.5,157 M171.5,142 L184.5,157 " fill="none" filter="url(#fh0enda5fconq)" style="stroke: #A80036; stroke-width: 2.0;"/><text fill="#000000" font-family="sans-serif" font-size="14" lengthAdjust="spacingAndGlyphs" textLength="31" x="156" y="176.9951">user</text><ellipse cx="63.4472" cy="138.5236" fill="#FEFECE" filter="url(#fh0enda5fconq)" rx="57.4472" ry="14.5236" style="stroke: #A80036; stroke-width: 1.5;"/><text fill="#000000" font-family="sans-serif" font-size="14" lengthAdjust="spacingAndGlyphs" textLength="77" x="24.9472" y="143.1721">Use case 2</text><!--link Use case 1 to user--><path d="M171.5,42.3964 C171.5,57.3063 171.5,78.2422 171.5,96.7686 " fill="none" id="Use case 1-user" style="stroke: #A80036; stroke-width: 1.0; stroke-dasharray: 7.0,7.0;"/><polygon fill="#A80036" points="171.5,37.1915,167.5,46.1915,171.5,42.1915,175.5,46.1915,171.5,37.1915" style="stroke: #A80036; stroke-width: 1.0;"/><!--link Use case 2 to user--><path d="M126.4201,138.5 C136.2173,138.5 146.0144,138.5 155.8115,138.5 " fill="none" id="Use case 2-user" style="stroke: #A80036; stroke-width: 1.0;"/><polygon fill="#A80036" points="121.2969,138.5,130.2969,142.5,126.2969,138.5,130.2969,134.5,121.2969,138.5" style="stroke: #A80036; stroke-width: 1.0;"/><!--
@startuml
(Use case 1) <.. :user:
(Use case 2) <- :user:
@enduml

PlantUML version 1.2019.01(Sat Feb 09 16:32:04 CET 2019)
(GPL source distribution)
Java Runtime: OpenJDK Runtime Environment
JVM: OpenJDK 64-Bit Server VM
Java Version: 11.0.1+13-Ubuntu-3ubuntu3.18.10.1
Operating System: Linux
OS Version: 4.18.0-16-generic
Default Encoding: UTF-8
Language: fr
Country: FR
--></g></svg>